<?xml version="1.0" encoding="utf-8"?>
<!-- Generator: Adobe Illustrator 24.1.1, SVG Export Plug-In . SVG Version: 6.00 Build 0)  -->
<svg version="1.1" id="Camada_1" xmlns="http://www.w3.org/2000/svg" xmlns:xlink="http://www.w3.org/1999/xlink" x="0px" y="0px"
	 viewBox="0 0 428.75 428.78" style="enable-background:new 0 0 428.75 428.78;" xml:space="preserve">
<style type="text/css">
	.st0{fill:#FFFFFF;}
	.st1{fill:#277ecc;}
</style>
<circle class="st0" cx="212.9" cy="222.39" r="171"/>
<path class="st1" d="M388.57,89.39c-6.7-9.31-14.22-18.21-22.6-26.59c-83.73-83.73-219.46-83.73-303.19,0
	c-8.38,8.38-15.9,17.28-22.6,26.59c-56.76,78.9-53.39,187.66,10.13,263c3.93,4.66,8.08,9.21,12.47,13.6
	c83.73,83.73,219.46,83.73,303.19,0c4.39-4.39,8.54-8.94,12.47-13.6C441.96,277.04,445.33,168.28,388.57,89.39z M339.74,174.27
	l-89.21,89.21c-10.13,10.09-20.41,20.38-30.34,30.33c-5.06,5.06-10.11,10.12-15.16,15.18c-6.2,6.2-14.58,9.62-23.6,9.62
	s-17.4-3.42-23.6-9.62c-2.94-2.94-5.97-5.97-8.91-8.97c-10.49-10.52-20.97-21.02-31.46-31.52c-10.49-10.51-20.98-21.01-31.46-31.52
	c-12.68-12.68-12.78-33.3-0.24-46.95c5.77-6.29,14.31-9.89,23.43-9.89c9.13,0,17.87,3.52,24.02,9.66c2.93,2.93,5.96,5.96,8.89,8.96
	c13.17,13.17,26.41,26.46,39.34,39.44l111.11-111.11c6.19-6.19,14.43-9.6,23.2-9.6c8.74,0,17.18,3.33,23.77,9.38
	c6.19,5.72,9.69,13.8,9.86,22.75C349.56,158.97,346.05,167.96,339.74,174.27z"/>
</svg>
