<?xml version="1.0" encoding="utf-8"?>
<!-- Generator: Adobe Illustrator 25.4.1, SVG Export Plug-In . SVG Version: 6.00 Build 0)  -->
<!DOCTYPE svg PUBLIC "-//W3C//DTD SVG 1.1//EN" "http://www.w3.org/Graphics/SVG/1.1/DTD/svg11.dtd" [
	<!ENTITY ns_extend "http://ns.adobe.com/Extensibility/1.0/">
	<!ENTITY ns_ai "http://ns.adobe.com/AdobeIllustrator/10.0/">
	<!ENTITY ns_graphs "http://ns.adobe.com/Graphs/1.0/">
	<!ENTITY ns_vars "http://ns.adobe.com/Variables/1.0/">
	<!ENTITY ns_imrep "http://ns.adobe.com/ImageReplacement/1.0/">
	<!ENTITY ns_sfw "http://ns.adobe.com/SaveForWeb/1.0/">
	<!ENTITY ns_custom "http://ns.adobe.com/GenericCustomNamespace/1.0/">
	<!ENTITY ns_adobe_xpath "http://ns.adobe.com/XPath/1.0/">
]>
<svg version="1.1" id="Camada_1" xmlns:x="&ns_extend;" xmlns:i="&ns_ai;" xmlns:graph="&ns_graphs;"
	 xmlns="http://www.w3.org/2000/svg" xmlns:xlink="http://www.w3.org/1999/xlink" x="0px" y="0px" viewBox="0 0 444.9 514.2"
	 style="enable-background:new 0 0 444.9 514.2;" xml:space="preserve">
<style type="text/css">
	.st0{fill:#FFFFFF;}
	.st1{fill:#277ecc;}
</style>
<metadata>
	<sfw  xmlns="&ns_sfw;">
		<slices></slices>
		<sliceSourceBounds  bottomLeftOrigin="true" height="525.5" width="2537.3" x="845.9" y="876"></sliceSourceBounds>
	</sfw>
</metadata>
<g>
	<path class="st0" d="M258.3,25.3c0-7-5.7-12.7-12.7-12.7h-14.4c-10.2,0-19.7,4-26.9,11.1s-11.1,16.7-11.1,26.9v42.1
		c-9.3,3-18.2,6.8-26.9,11.5l-30-30c-7.2-7.2-16.7-11.1-26.9-11.1c-10.2,0-19.7,4-26.9,11.1L61.6,95.1c-7.2,7.2-11.1,16.7-11.1,26.9
		c0,10.2,4,19.7,11.1,26.9l30.5,30.5c-4.3,8.5-7.9,17.3-10.8,26.4H38c-21,0-38,17.1-38,38v29.6c0,21,17.1,38,38,38l40.8,0l2.5,0.1
		c2.9,9,6.5,17.9,10.8,26.3l-30.5,30.5c-14.8,14.8-14.8,39,0,53.8L82.5,443c7.2,7.2,16.7,11.1,26.9,11.1c10.2,0,19.7-4,26.9-11.1
		l29.9-29.9c0,0,0.1-0.1,0.1-0.1c8.6,4.6,17.6,8.4,26.9,11.4l0,42.2c0,21,17.1,38,38,38l15,0c3.3,0,6.6-1.4,9-3.7
		c2.4-2.4,3.7-5.6,3.7-9L258.3,25.3z M233.3,330.8c-34.1-6.8-59.3-37.1-59.3-72.1c0-34.9,25.1-65.3,59.1-72.1L233.3,330.8z
		 M231.2,479.3c-6.9,0-12.6-5.7-12.6-12.6l0-51.6c0-5.7-3.9-10.8-9.4-12.3c-13.8-3.7-27-9.3-39.2-16.8c-2-1.2-4.3-1.9-6.6-1.9
		c-3.8,0-7.3,1.7-9.8,4.6l-5.8,7l-29.5,29.5c-2.2,2.3-5.5,3.5-8.9,3.6c0,0,0,0,0,0c-3.4,0-6.7-1.3-8.9-3.6l-20.9-20.9
		c-4.9-4.9-4.9-13,0-17.9l37.3-37.3c4-4.1,4.8-10.4,2-15.3c-6.9-11.9-12.1-24.6-15.5-37.8c-1.4-5.5-6.4-9.4-12.1-9.5L38,286.1
		c-7,0-12.6-5.7-12.6-12.6v-29.6c0-7,5.7-12.7,12.6-12.7h52.9c5.8,0,10.9-3.9,12.3-9.6c3.4-13.2,8.6-25.9,15.4-37.7
		c2.6-4.5,2.2-10.1-1-14.2l-2-2.6c-0.3-0.4-0.7-0.8-1-1.1l-35-35c-2.4-2.4-3.7-5.6-3.7-8.9c0-3.4,1.3-6.6,3.7-8.9l20.9-20.9
		c4.8-4.8,13.1-4.8,17.9,0l34.9,34.9c0.3,0.3,0.6,0.5,0.8,0.8l2.1,1.8c4.1,3.5,10.1,4,14.7,1.2c12.2-7.4,24.7-12.7,38-16.2
		c5-1.3,8.7-5.5,9.3-10.7l0.3-2.1c0.1-0.5,0.1-1.1,0.1-1.6V50.6c0-3.4,1.3-6.6,3.7-8.9c2.4-2.4,5.6-3.7,8.9-3.7h1.8l0.1,122.7
		c-48.4,7.2-84.4,48.7-84.4,97.9c0,49.3,36.2,90.9,84.7,97.9l0.1,122.7L231.2,479.3z"/>
	<path class="st1" d="M410.1,0c-19.2,0-34.8,15.6-34.8,34.8c0,3.5,0.6,7,1.7,10.5L347.5,77h-67.3v25.4h72.9c3.5,0,6.9-1.5,9.3-4.1
		l30.8-33.1c5.2,2.9,11,4.4,16.9,4.4c19.2,0,34.8-15.6,34.8-34.8C444.9,15.6,429.3,0,410.1,0z M410.1,50.3c-8.6,0-15.5-7-15.5-15.5
		s7-15.5,15.5-15.5s15.5,7,15.5,15.5S418.7,50.3,410.1,50.3z"/>
	<path class="st1" d="M393.9,101.9c-18.1,0-32.8,14.7-32.8,32.8c0,3,0.5,6.1,1.4,9.2l-26.1,28h-56.2v25.4h61.7
		c3.5,0,6.9-1.5,9.3-4.1l27.5-29.6c4.7,2.5,9.9,3.8,15.1,3.8c18.1,0,32.8-14.7,32.8-32.8C426.7,116.6,412,101.9,393.9,101.9z
		 M393.9,150.3c-8.6,0-15.5-7-15.5-15.5s7-15.5,15.5-15.5s15.5,7,15.5,15.5S402.5,150.3,393.9,150.3z"/>
	<path class="st1" d="M364.9,222.8c-12.7,0-24.1,7.6-29.1,19.2h-55.6v25.4h55.6c5,11.6,16.4,19.2,29.1,19.2
		c17.6,0,31.9-14.3,31.9-31.9C396.7,237.1,382.4,222.8,364.9,222.8z M364.9,270.2c-8.6,0-15.5-7-15.5-15.5s7-15.5,15.5-15.5
		s15.5,7,15.5,15.5S373.4,270.2,364.9,270.2z"/>
	<path class="st1" d="M393.9,345.6c-5.3,0-10.4,1.3-15.1,3.8l-27.5-29.6c-2.4-2.6-5.8-4-9.3-4h-61.7v25.4h56.2l26.1,28
		c-0.9,3.1-1.4,6.2-1.4,9.2c0,18.1,14.7,32.8,32.8,32.8c18.1,0,32.8-14.7,32.8-32.8C426.7,360.3,412,345.6,393.9,345.6z
		 M393.9,393.9c-8.6,0-15.5-7-15.5-15.5s7-15.5,15.5-15.5s15.5,7,15.5,15.5S402.5,393.9,393.9,393.9z"/>
	<path class="st1" d="M408.4,444.6c-6,0-11.8,1.5-16.9,4.4l-30.8-33.1c-2.4-2.6-5.8-4-9.3-4h-71.2v25.4h65.6l29.5,31.7
		c-1.1,3.5-1.7,7-1.7,10.5c0,19.2,15.6,34.8,34.8,34.8c19.2,0,34.8-15.6,34.8-34.8C443.2,460.2,427.6,444.6,408.4,444.6z
		 M408.4,494.9c-8.6,0-15.5-7-15.5-15.5s7-15.5,15.5-15.5s15.5,7,15.5,15.5S417,494.9,408.4,494.9z"/>
</g>
</svg>
