<?xml version="1.0" encoding="utf-8"?>
<!-- Generator: Adobe Illustrator 25.4.1, SVG Export Plug-In . SVG Version: 6.00 Build 0)  -->
<!DOCTYPE svg PUBLIC "-//W3C//DTD SVG 1.1//EN" "http://www.w3.org/Graphics/SVG/1.1/DTD/svg11.dtd" [
	<!ENTITY ns_extend "http://ns.adobe.com/Extensibility/1.0/">
	<!ENTITY ns_ai "http://ns.adobe.com/AdobeIllustrator/10.0/">
	<!ENTITY ns_graphs "http://ns.adobe.com/Graphs/1.0/">
	<!ENTITY ns_vars "http://ns.adobe.com/Variables/1.0/">
	<!ENTITY ns_imrep "http://ns.adobe.com/ImageReplacement/1.0/">
	<!ENTITY ns_sfw "http://ns.adobe.com/SaveForWeb/1.0/">
	<!ENTITY ns_custom "http://ns.adobe.com/GenericCustomNamespace/1.0/">
	<!ENTITY ns_adobe_xpath "http://ns.adobe.com/XPath/1.0/">
]>
<svg version="1.1" id="Modo_de_isolamento" xmlns:x="&ns_extend;" xmlns:i="&ns_ai;" xmlns:graph="&ns_graphs;"
	 xmlns="http://www.w3.org/2000/svg" xmlns:xlink="http://www.w3.org/1999/xlink" x="0px" y="0px" viewBox="0 0 436.8 380.8"
	 style="enable-background:new 0 0 436.8 380.8;" xml:space="preserve">
<style type="text/css">
	.st0{fill:#277ecc;}
</style>
<metadata>
	<sfw  xmlns="&ns_sfw;">
		<slices></slices>
		<sliceSourceBounds  bottomLeftOrigin="true" height="380.8" width="436.8" x="-536.4" y="308"></sliceSourceBounds>
	</sfw>
</metadata>
<path class="st0" d="M218.4,0c-12.2,0-23.4,6.3-29.6,16.8L4.6,329.9c-6.2,10.5-6,23.6,0.2,34.1c7.1,12,19.5,16.8,31.7,16.8h364
	c12.2,0.1,24.6-4.8,31.7-16.8c6.2-10.5,6.4-23.6,0.2-34.1L248,16.8C241.8,6.3,230.6,0,218.4,0L218.4,0z M218.4,22.4
	c3.9,0,8.5,2.6,10.3,5.8l184.1,313.1c1.9,3.2,1.9,8.2,0,11.4c-1,1.7-8.5,5.8-12.4,5.8h-364c-3.9,0-11.4-4.1-12.4-5.8
	c-1.9-3.2-1.9-8.2,0-11.4L208.1,28.2C209.9,25,214.5,22.4,218.4,22.4L218.4,22.4z M218.4,123.2c-12.4,0-22.4,10-22.4,22.4l5.6,100.8
	c0,9.3,7.5,16.8,16.8,16.8s16.8-7.5,16.8-16.8l5.6-100.8C240.8,133.2,230.8,123.2,218.4,123.2L218.4,123.2z M218.4,274.4
	c-15.5,0-28,12.5-28,28s12.5,28,28,28s28-12.5,28-28S233.9,274.4,218.4,274.4z"/>
</svg>
