<?xml version="1.0" encoding="utf-8"?>
<!-- Generator: Adobe Illustrator 25.4.1, SVG Export Plug-In . SVG Version: 6.00 Build 0)  -->
<!DOCTYPE svg PUBLIC "-//W3C//DTD SVG 1.1//EN" "http://www.w3.org/Graphics/SVG/1.1/DTD/svg11.dtd" [
	<!ENTITY ns_extend "http://ns.adobe.com/Extensibility/1.0/">
	<!ENTITY ns_ai "http://ns.adobe.com/AdobeIllustrator/10.0/">
	<!ENTITY ns_graphs "http://ns.adobe.com/Graphs/1.0/">
	<!ENTITY ns_vars "http://ns.adobe.com/Variables/1.0/">
	<!ENTITY ns_imrep "http://ns.adobe.com/ImageReplacement/1.0/">
	<!ENTITY ns_sfw "http://ns.adobe.com/SaveForWeb/1.0/">
	<!ENTITY ns_custom "http://ns.adobe.com/GenericCustomNamespace/1.0/">
	<!ENTITY ns_adobe_xpath "http://ns.adobe.com/XPath/1.0/">
]>
<svg version="1.1" id="Camada_1" xmlns:x="&ns_extend;" xmlns:i="&ns_ai;" xmlns:graph="&ns_graphs;"
	 xmlns="http://www.w3.org/2000/svg" xmlns:xlink="http://www.w3.org/1999/xlink" x="0px" y="0px" viewBox="0 0 485.1 501.3"
	 style="enable-background:new 0 0 485.1 501.3;" xml:space="preserve">
<style type="text/css">
	.st0{fill:#FFFFFF;}
	.st1{fill:#277ecc;}
</style>
<metadata>
	<sfw  xmlns="&ns_sfw;">
		<slices></slices>
		<sliceSourceBounds  bottomLeftOrigin="true" height="525.5" width="2537.3" x="845.9" y="876"></sliceSourceBounds>
	</sfw>
</metadata>
<g>
	<path class="st1" d="M242.6,158.2c14.1,0,27.4-5.5,37.3-15.5c10-10,15.5-23.2,15.5-37.3c0-14.1-5.5-27.4-15.5-37.3
		c-10-10-23.2-15.5-37.3-15.5c-14.1,0-27.4,5.5-37.3,15.5c-10,10-15.5,23.2-15.5,37.3c0,14.1,5.5,27.4,15.5,37.3
		C215.2,152.7,228.5,158.2,242.6,158.2z M242.6,75.7c7.9,0,15.4,3.1,21,8.7c5.6,5.6,8.7,13.1,8.7,21s-3.1,15.4-8.7,21
		c-5.6,5.6-13.1,8.7-21,8.7s-15.4-3.1-21-8.7c-5.6-5.6-8.7-13.1-8.7-21c0-7.9,3.1-15.4,8.7-21C227.2,78.8,234.6,75.7,242.6,75.7z"/>
	<path class="st1" d="M346.3,280.8l0.2-0.2c0,0,0,0,0-0.1l4.4-5.2H350c2.8-5.4,3.9-11.5,3-17.7l-10.4-65.9
		c-0.9-6.6-4.2-12.6-9.2-16.9c-5-4.3-11.4-6.7-18-6.7l-145.7,0c-6.6,0.1-12.9,2.5-17.8,6.8c-4.9,4.3-8.2,10.3-9.1,16.7l-10.4,66
		c-1.4,8.3,1,16.7,6.4,23.1c5.1,6,12.5,9.4,20.4,9.4h166.6C333.7,290.1,341.2,286.7,346.3,280.8z M328.7,265.8
		c-0.7,0.9-1.8,1.4-2.8,1.4l-166.5,0c-0.8,0-1.6-0.3-2.3-0.8l-0.5-0.6c-1-1.2-1.5-2.8-1.2-4.4l10.5-66l0-0.1c0.3-2.2,2-3.8,4.2-3.9
		h145.3c2.2,0.1,3.9,1.8,4.2,3.9l10.5,66.1C330.2,262.9,329.8,264.5,328.7,265.8z"/>
	<path class="st0" d="M481.7,439.9c-5.3-12.9-16.3-22.5-29.7-26.1v-23c0-3.1-1.2-6-3.4-8.2c-2.2-2.2-5.1-3.4-8.2-3.4H254.1v-10.1
		c47.3-2.9,91.1-23.6,123.5-58.3c33.1-35.5,50.8-81.8,49.7-130.3c-1.1-48.5-20.8-94-55.6-127.9C337,18.7,291.1,0,242.6,0
		C194,0,148.1,18.7,113.4,52.6C78.7,86.6,58.9,132,57.8,180.6c-1.1,48.5,16.5,94.8,49.7,130.3c32.4,34.7,76.2,55.3,123.5,58.3v10.1
		H44.6c-6.4,0-11.5,5.2-11.5,11.5v23c-13.4,3.6-24.4,13.2-29.7,26.1c-5.7,13.8-4.1,29.4,4.2,41.7c8.3,12.4,22.1,19.7,37,19.7
		c0,0,0.1,0,0.1,0c14.9,0,28.7-7.4,37-19.7c8.3-12.4,9.9-28,4.2-41.7c-5.3-12.9-16.3-22.5-29.7-26.1v-11.4H132v11.2
		c-12.2,2.4-24.1,12.9-29.7,26.4c-5.6,13.8-4.1,29.4,4.2,41.7c8.3,12.4,22.1,19.7,37,19.7c14.9,0,28.7-7.4,37-19.7
		c8.3-12.4,9.9-28,4.2-41.7c-5.9-14.4-16.9-24.1-29.7-26.4v-11.1H231v11.4c-13.4,3.6-24.4,13.2-29.7,26.1
		c-5.6,13.8-4.1,29.4,4.2,41.7c8.3,12.4,22.1,19.7,37,19.7c14.9,0,28.7-7.4,37-19.7c8.3-12.4,9.9-28,4.2-41.7
		c-5.3-12.9-16.3-22.5-29.7-26.1v-11.4H330v11.4c-13.4,3.6-24.4,13.2-29.7,26.1c-5.6,13.8-4.1,29.4,4.2,41.7
		c8.3,12.4,22.1,19.7,37,19.7c14.9,0,28.7-7.4,37-19.7c8.3-12.4,9.9-28,4.2-41.7c-5.5-13.3-17.4-23.8-29.7-26.3v-11.2H429v11.4
		c-13.4,3.6-24.4,13.2-29.7,26.1c-5.6,13.8-4.1,29.4,4.2,41.7c8.3,12.4,22.1,19.7,37,19.7s28.7-7.4,37-19.7
		C485.8,469.2,487.4,453.6,481.7,439.9z M356.7,441.6c4,4,6.3,9.5,6.3,15.2c0,5.6-2.3,11.2-6.3,15.2c-4,4-9.5,6.3-15.2,6.3
		c-5.6,0-11.2-2.3-15.2-6.3c-4-4-6.3-9.5-6.3-15.2c0-5.6,2.3-11.2,6.3-15.2c4-4,9.5-6.3,15.2-6.3
		C347.2,435.3,352.7,437.6,356.7,441.6z M128.2,298.9c-30.5-30.5-47.4-71.1-47.4-114.3c0-43.2,16.8-83.8,47.4-114.3
		c30.5-30.5,71.1-47.4,114.3-47.4c43.2,0,83.8,16.8,114.3,47.4c30.5,30.5,47.4,71.1,47.4,114.3c0,43.2-16.8,83.8-47.4,114.3
		c-30.5,30.5-71.1,47.4-114.3,47.4C199.4,346.2,158.8,329.4,128.2,298.9z M257.7,441.6c4,4,6.3,9.5,6.3,15.2
		c0,5.6-2.3,11.2-6.3,15.2c-4,4-9.5,6.3-15.2,6.3c-5.6,0-11.2-2.3-15.2-6.3c-4-4-6.3-9.5-6.3-15.2c0-5.6,2.3-11.2,6.3-15.2
		c4-4,9.5-6.3,15.2-6.3C248.2,435.3,253.7,437.6,257.7,441.6z M158.7,441.6c4,4,6.3,9.5,6.3,15.2c0,5.6-2.3,11.2-6.3,15.2
		c-4,4-9.5,6.3-15.2,6.3c-5.6,0-11.2-2.3-15.2-6.3c-4-4-6.3-9.5-6.3-15.2c0-5.6,2.3-11.2,6.3-15.2c4-4,9.5-6.3,15.2-6.3
		C149.2,435.3,154.7,437.6,158.7,441.6z M44.6,478.2c-5.6,0-11.2-2.3-15.2-6.3c-4-4-6.3-9.5-6.3-15.2c0-5.6,2.3-11.2,6.3-15.2
		c4-4,9.5-6.3,15.2-6.3c5.6,0,11.2,2.3,15.2,6.3c4,4,6.3,9.5,6.3,15.2c0,5.6-2.3,11.2-6.3,15.2C55.8,475.9,50.2,478.2,44.6,478.2z
		 M462,456.8c0,5.6-2.3,11.2-6.3,15.2c-4,4-9.5,6.3-15.2,6.3c-5.6,0-11.2-2.3-15.2-6.3c-4-4-6.3-9.5-6.3-15.2
		c0-5.6,2.3-11.2,6.3-15.2c4-4,9.5-6.3,15.2-6.3c5.6,0,11.2,2.3,15.2,6.3C459.7,445.6,462,451.1,462,456.8z"/>
</g>
</svg>
