<?xml version="1.0" encoding="utf-8"?>
<!-- Generator: Adobe Illustrator 25.4.1, SVG Export Plug-In . SVG Version: 6.00 Build 0)  -->
<!DOCTYPE svg PUBLIC "-//W3C//DTD SVG 1.1//EN" "http://www.w3.org/Graphics/SVG/1.1/DTD/svg11.dtd" [
	<!ENTITY ns_extend "http://ns.adobe.com/Extensibility/1.0/">
	<!ENTITY ns_ai "http://ns.adobe.com/AdobeIllustrator/10.0/">
	<!ENTITY ns_graphs "http://ns.adobe.com/Graphs/1.0/">
	<!ENTITY ns_vars "http://ns.adobe.com/Variables/1.0/">
	<!ENTITY ns_imrep "http://ns.adobe.com/ImageReplacement/1.0/">
	<!ENTITY ns_sfw "http://ns.adobe.com/SaveForWeb/1.0/">
	<!ENTITY ns_custom "http://ns.adobe.com/GenericCustomNamespace/1.0/">
	<!ENTITY ns_adobe_xpath "http://ns.adobe.com/XPath/1.0/">
]>
<svg version="1.1" id="Camada_1" xmlns:x="&ns_extend;" xmlns:i="&ns_ai;" xmlns:graph="&ns_graphs;"
	 xmlns="http://www.w3.org/2000/svg" xmlns:xlink="http://www.w3.org/1999/xlink" x="0px" y="0px" viewBox="0 0 464.7 513.3"
	 style="enable-background:new 0 0 464.7 513.3;" xml:space="preserve">
<style type="text/css">
	.st0{fill:#FFFFFF;}
	.st1{fill:#277ecc;}
</style>
<metadata>
	<sfw  xmlns="&ns_sfw;">
		<slices></slices>
		<sliceSourceBounds  bottomLeftOrigin="true" height="525.5" width="2537.3" x="845.9" y="876"></sliceSourceBounds>
	</sfw>
</metadata>
<g>
	<path class="st0" d="M460.5,337.5c-7-24.6-25.2-53-52-80.9c26.8-27.9,45-56.3,51.4-80.9c6.4-24.6,3.2-34.3-4.3-47.1
		c-18.2-31.6-70.2-38.6-136.1-23C300.3,41.3,268.7,0,231.7,0s-68.6,41.3-88.4,105C77.4,90,25.4,97,7.2,128
		c-7.5,13.4-9.1,28.9-4.3,47.1c4.8,18.2,25.2,53.6,52,81.4c-26.8,27.9-45,56.3-51.4,80.9c-6.4,24.6-3.2,34.3,4.3,47.1
		c7.5,12.9,39.1,31.1,75,31.1h0c20.6-0.4,41.1-3.1,61.1-8c19.3,64.3,50.9,105.5,87.9,105.5s68.6-40.7,88.4-105v0
		c20,4.9,40.5,7.6,61.1,8c35.9,0,62.7-10.2,75-31.1C468.5,364.3,465.3,355.7,460.5,337.5L460.5,337.5z M438,139.3
		c4.9,9.6,5.7,20.9,2.1,31.1c-5.9,21.4-22,46.1-46.1,71.3c-17.5-16.5-36.1-31.7-55.7-45.5c-2.3-23.5-6.2-46.7-11.8-69.6
		c52.5-12.9,97-11.3,110.9,12.9L438,139.3z M275.6,331.1c-13.9,8-28.9,15.5-43.9,22.5c-15-7-29.5-14.5-43.9-22.5
		c-14.5-8-28.4-17.1-41.8-26.3c-1.1-15.5-2.1-31.6-2.1-48.8s0.5-33.2,2.1-48.8c13.4-9.1,27.3-17.7,41.8-26.3
		c14.5-8.6,28.9-15.5,43.9-22.5c15,7,29.5,14.5,43.9,22.5c14.5,8,28.4,17.1,41.8,26.3c1.1,15.5,2.1,31.6,2.1,48.8
		s-0.5,33.2-2.1,48.8C304,314.5,290.1,323.1,275.6,331.1z M314.7,332.7c-2.2,16.4-5.2,32.7-9.1,48.8c-15.5-4.3-31.6-10.2-47.7-16.6
		l27.9-15L314.7,332.7z M206,364.8c-16.1,6.4-32.1,11.8-47.7,16.6c-3.9-16.1-6.9-32.4-9.1-48.8l28.4,17.1L206,364.8z M123.5,288.8
		c-13.4-10-26.3-20.8-38.6-32.1c12.3-11.4,25.2-22.1,38.6-32.1c-0.5,10.7-1.1,21.4-1.1,32.1C122.4,267.3,122.9,278.6,123.5,288.8z
		 M148.6,180c2.2-16.4,5.2-32.7,9.1-48.8c15.5,4.3,31.6,10.2,47.7,16.6l-28.4,15L148.6,180z M257.4,147.9
		c16.1-6.4,32.1-11.8,47.7-16.6c3.9,16.1,6.9,32.3,9.1,48.8l-28.4-17.1L257.4,147.9z M339.9,224.5c13.4,10,26.3,20.8,38.6,32.1
		c-12.3,11.4-25.2,22.1-38.6,32.1c0.5-10.7,1.1-21.4,1.1-32.1C341,245.9,340.4,234.7,339.9,224.5z M231.7,21.4
		c25.2,0,50.9,32.7,68,88.9c-23.2,6.8-46,15.2-68,25.2c-22.1-10-44.8-18.4-68-25.2C180.8,54.6,206.5,21.4,231.7,21.4z M26,139.3
		c13.9-24.1,58.4-25.7,112-12.9v0c-5.6,22.9-9.5,46.2-11.8,69.6c-19.6,13.9-38.2,29.1-55.7,45.5c-24.1-25.2-40.2-49.8-46.1-71.3
		C20.6,160.2,21.2,149,26,139.3L26,139.3z M26,374c-4.9-9.6-5.7-20.9-2.1-31.1c5.9-21.4,22-46.1,46.1-71.3
		c17.5,16.5,36.1,31.7,55.7,45.5c2.3,23.5,6.2,46.7,11.8,69.6C84.3,399.7,39.9,398.1,26,374L26,374z M231.7,491.8
		c-25.2,0-50.9-32.7-68-88.9c23.2-6.8,46-15.2,68-25.2c22.1,10,44.8,18.4,68,25.2C282.6,458.6,256.9,491.8,231.7,491.8z M437.4,374
		c-13.9,24.1-58.4,25.7-112,12.9v0c5.6-22.9,9.5-46.2,11.8-69.6c19.6-13.9,38.2-29.1,55.7-45.5c24.1,25.2,40.2,49.8,46.1,71.3
		C442.7,353,442.2,364.2,437.4,374L437.4,374z"/>
	<path class="st1" d="M298.9,219.7c0-21.3-33.6-30.8-67.2-30.8c-33.6,0-67.2,9.5-67.2,30.8v72.8c0,21.3,33.6,30.8,67.2,30.8
		c33.6,0,67.2-9.5,67.2-30.8V219.7z M276.5,254.9c-3.4,3.4-19,9.5-44.8,9.5s-41.4-6.2-44.8-9.5v-11.2c14.4,4.8,29.6,7.1,44.8,6.7
		c15.2,0.3,30.4-1.9,44.8-6.7V254.9z M231.7,211.8c22.4,0,37.5,4.5,43.1,8.4c-5.6,3.4-20.7,8.4-43.1,8.4c-22.4,0-37.5-4.5-43.1-8.4
		c5.6-3.9,20.7-9,43.1-9V211.8z M186.9,292.5v-12.9c14.4,4.8,29.6,7.1,44.8,6.7c15.2,0.3,30.4-1.9,44.8-6.7v12.9
		c-3.4,3.4-19,9.5-44.8,9.5S190.2,295.8,186.9,292.5z"/>
</g>
</svg>
