<?xml version="1.0" encoding="utf-8"?>
<!-- Generator: Adobe Illustrator 25.4.1, SVG Export Plug-In . SVG Version: 6.00 Build 0)  -->
<!DOCTYPE svg PUBLIC "-//W3C//DTD SVG 1.1//EN" "http://www.w3.org/Graphics/SVG/1.1/DTD/svg11.dtd" [
	<!ENTITY ns_extend "http://ns.adobe.com/Extensibility/1.0/">
	<!ENTITY ns_ai "http://ns.adobe.com/AdobeIllustrator/10.0/">
	<!ENTITY ns_graphs "http://ns.adobe.com/Graphs/1.0/">
	<!ENTITY ns_vars "http://ns.adobe.com/Variables/1.0/">
	<!ENTITY ns_imrep "http://ns.adobe.com/ImageReplacement/1.0/">
	<!ENTITY ns_sfw "http://ns.adobe.com/SaveForWeb/1.0/">
	<!ENTITY ns_custom "http://ns.adobe.com/GenericCustomNamespace/1.0/">
	<!ENTITY ns_adobe_xpath "http://ns.adobe.com/XPath/1.0/">
]>
<svg version="1.1" id="Modo_de_isolamento" xmlns:x="&ns_extend;" xmlns:i="&ns_ai;" xmlns:graph="&ns_graphs;"
	 xmlns="http://www.w3.org/2000/svg" xmlns:xlink="http://www.w3.org/1999/xlink" x="0px" y="0px" viewBox="0 0 497.6 534.3"
	 style="enable-background:new 0 0 497.6 534.3;" xml:space="preserve">
<style type="text/css">
	.st0{fill:#277ecc;}
	.st1{fill:none;stroke:#277ecc;stroke-width:20;stroke-linecap:round;stroke-linejoin:round;stroke-miterlimit:10;}
</style>
<metadata>
	<sfw  xmlns="&ns_sfw;">
		<slices></slices>
		<sliceSourceBounds  bottomLeftOrigin="true" height="534.3" width="497.6" x="-827.6" y="356.5"></sliceSourceBounds>
	</sfw>
</metadata>
<g>
	<path class="st0" d="M20.6,405.4V20.6h195.1v108.1c0,6.6,5.4,12,12,12h108.1V257c3.3-0.3,6.5-0.4,9.9-0.4c3.6,0,7.2,0.1,10.7,0.4
		V129.2c0-2.2-0.9-4.4-2.5-5.9L233.2,2.5c-1.6-1.6-3.8-2.5-5.9-2.5L14.8,0C6.6,0,0,6.6,0,14.8v395.4c0,8.6,7,15.7,15.8,15.7
		l182.8,0.1c-1-6.7-1.5-13.6-1.5-20.6L20.6,405.4z M236.3,34.7l85.4,85.4h-85.4V34.7z"/>
	<path class="st0" d="M283.7,224.5c0-5-4-9-9-9h-193c-5,0-9,4-9,9s4,9,9,9h193C279.7,233.5,283.7,229.4,283.7,224.5z"/>
	<path class="st0" d="M72.7,321.6c0,5.1,4.1,9,9,9h135.5c3.7-6.3,7.8-12.3,12.4-17.9l-147.9,0C76.8,312.6,72.7,316.6,72.7,321.6
		L72.7,321.6z"/>
	<path class="st0" d="M450.5,374.8c2.8,9.7,4.4,19.9,4.4,30.5c0,60.1-48.9,109.1-109.1,109.1c-60.1,0-109.1-48.9-109.1-109.1
		s48.9-109.1,109.1-109.1c32,0,60.9,13.9,80.8,35.9l14-14c-23.6-25.6-57.4-41.7-94.9-41.7v0c-71.1,0-128.9,57.8-128.9,128.9
		s57.8,128.9,128.9,128.9c71.1,0,128.9-57.8,128.9-128.9c0-16.3-3-31.8-8.6-46.2L450.5,374.8z"/>
	<polyline class="st1" points="271.3,380.3 341.5,450.6 487.6,304.5 	"/>
</g>
</svg>
