<?xml version="1.0" encoding="utf-8"?>
<!-- Generator: Adobe Illustrator 25.4.1, SVG Export Plug-In . SVG Version: 6.00 Build 0)  -->
<!DOCTYPE svg PUBLIC "-//W3C//DTD SVG 1.1//EN" "http://www.w3.org/Graphics/SVG/1.1/DTD/svg11.dtd" [
	<!ENTITY ns_extend "http://ns.adobe.com/Extensibility/1.0/">
	<!ENTITY ns_ai "http://ns.adobe.com/AdobeIllustrator/10.0/">
	<!ENTITY ns_graphs "http://ns.adobe.com/Graphs/1.0/">
	<!ENTITY ns_vars "http://ns.adobe.com/Variables/1.0/">
	<!ENTITY ns_imrep "http://ns.adobe.com/ImageReplacement/1.0/">
	<!ENTITY ns_sfw "http://ns.adobe.com/SaveForWeb/1.0/">
	<!ENTITY ns_custom "http://ns.adobe.com/GenericCustomNamespace/1.0/">
	<!ENTITY ns_adobe_xpath "http://ns.adobe.com/XPath/1.0/">
]>
<svg version="1.1" id="Camada_1" xmlns:x="&ns_extend;" xmlns:i="&ns_ai;" xmlns:graph="&ns_graphs;"
	 xmlns="http://www.w3.org/2000/svg" xmlns:xlink="http://www.w3.org/1999/xlink" x="0px" y="0px" viewBox="0 0 511.4 523"
	 style="enable-background:new 0 0 511.4 523;" xml:space="preserve">
<style type="text/css">
	.st0{fill:#FFFFFF;}
	.st1{fill:#277ecc;}
</style>
<metadata>
	<sfw  xmlns="&ns_sfw;">
		<slices></slices>
		<sliceSourceBounds  bottomLeftOrigin="true" height="525.5" width="2537.3" x="845.9" y="876"></sliceSourceBounds>
	</sfw>
</metadata>
<g>
	<path class="st1" d="M463.8,153.1C437,64.2,354.1,0,255.7,0v0C157.3,0,74.4,64.2,47.5,153.1C21,157.5,0,180.5,0,209.2v46.5
		c0,32,26.1,58.1,58.1,58.1h6.1c15.7,0.2,15.7-23.5,0-23.2h-6.1c-19.5,0-34.9-15.3-34.9-34.9v-46.5c0-19.5,15.8-34.8,33-34.7
		c5.3,0,9.9-3.5,11.3-8.6C89.4,83.4,165,23.2,255.7,23.2S422,83.4,443.8,165.8c1.4,5.1,6,8.7,11.3,8.6c17.2-0.1,33,15.2,33,34.7
		v46.5c0,19.5-15.3,34.9-34.9,34.9c-6.4,0-11.6,5.1-11.6,11.5c-0.1,5.1-1.3,9.7-7.2,14.3c-5.9,4.5-17.7,9.1-39.3,9.1h-70.3
		c-2.7-13.2-14.6-23.2-28.5-23.2h-34.9c-15.9,0-29.1,13.2-29.1,29.1v11.6c0,15.9,13.2,29.1,29.1,29.1h34.9
		c13.9,0,25.7-10.1,28.5-23.2h70.3c24.8,0,42-5,53.5-13.9c8.3-6.4,12-14.7,14-22.9c27.3-4.7,48.7-27.5,48.7-56.2v-46.5
		C511.4,180.5,490.3,157.5,463.8,153.1z M302.2,342.8c0,3.4-2.4,5.8-5.8,5.8h-34.9c-3.4,0-5.8-2.4-5.8-5.8v-11.6
		c0-3.4,2.4-5.8,5.8-5.8h34.9c3.4,0,5.8,2.4,5.8,5.8V342.8z"/>
	<path class="st0" d="M401.6,396.8l-26.8-26.7c-2.6-4.1-7.4-6.1-12.2-5.1c-2.6,0.5-5,1.8-6.8,3.9c-26.6,23.6-61.6,37.9-100.2,37.9
		c-83.9,0-151.1-67.2-151.1-151.1v-2.2c5.9-1.9,13.6-5.4,21.8-12c15.1-12.1,31-36.6,42.9-75.6c25.5,11.7,57.8,20,86.3,20
		s60.8-8.4,86.3-20c11.9,39,27.8,63.5,42.9,75.6c8.2,6.6,15.9,10.1,21.8,12v2.2c0,11.2-1.2,22-3.5,32.5c-1.4,6.3,2.6,12.5,8.9,13.8
		c6.3,1.4,12.5-2.6,13.8-8.9c2.6-12.1,4-24.6,4-37.4v-34.9c0-96.4-77.9-174.3-174.3-174.3l0,0c-96.4,0-174.3,77.9-174.3,174.3v34.9
		c0,47,18.6,89.5,48.7,120.8l-20.4,20.4c-5.4,3.5-6.8,10.7-3.3,16.1c0.5,0.7,1,1.4,1.7,2l104.6,104.6c4.5,4.5,11.9,4.5,16.4,0
		l26.6-26.6l26.6,26.6c4.5,4.5,11.9,4.5,16.4,0l103-103c3.3-2.2,5.3-6,5.2-9.9c0,0,0,0,0,0c0,0,0,0,0,0c0,0,0,0,0,0
		C406.9,402.6,404.9,399,401.6,396.8z M104.6,220.8c0-83.9,67.2-151.1,151.1-151.1v0c83.9,0,151.1,67.2,151.1,151.1v7.3
		c-2.2-1.2-4.6-2.7-7.3-4.8c-12.2-9.7-28.4-30.4-39.6-75.1c-1.6-6.2-7.9-10-14.1-8.5c-1,0.3-2,0.6-2.9,1.2
		c-20.9,11.8-59.5,21.7-87.3,21.7s-66.3-9.9-87.3-21.7c-1.7-1-3.6-1.5-5.6-1.5c-5.4-0.1-10.1,3.6-11.4,8.8
		c-11.2,44.7-27.4,65.4-39.6,75.1c-2.7,2.1-5,3.5-7.3,4.8V220.8z M220.8,494.9l-88.2-88.2l14.6-14.6c7.8,6.2,16.1,11.8,24.9,16.7
		c0.5,1,1.2,1.9,2.1,2.7l65,65L220.8,494.9z M222.4,426.7c10.8,2.1,21.9,3.3,33.3,3.3c11.4,0,22.5-1.1,33.2-3.2l-33.2,33.2
		L222.4,426.7z M290.5,494.9l-18.4-18.4l65-65c0.9-0.8,1.6-1.8,2.2-2.9c8.8-4.8,17-10.3,24.8-16.4l14.6,14.6L290.5,494.9z"/>
</g>
</svg>
