<?xml version="1.0" encoding="utf-8"?>
<!-- Generator: Adobe Illustrator 25.4.1, SVG Export Plug-In . SVG Version: 6.00 Build 0)  -->
<!DOCTYPE svg PUBLIC "-//W3C//DTD SVG 1.1//EN" "http://www.w3.org/Graphics/SVG/1.1/DTD/svg11.dtd" [
	<!ENTITY ns_extend "http://ns.adobe.com/Extensibility/1.0/">
	<!ENTITY ns_ai "http://ns.adobe.com/AdobeIllustrator/10.0/">
	<!ENTITY ns_graphs "http://ns.adobe.com/Graphs/1.0/">
	<!ENTITY ns_vars "http://ns.adobe.com/Variables/1.0/">
	<!ENTITY ns_imrep "http://ns.adobe.com/ImageReplacement/1.0/">
	<!ENTITY ns_sfw "http://ns.adobe.com/SaveForWeb/1.0/">
	<!ENTITY ns_custom "http://ns.adobe.com/GenericCustomNamespace/1.0/">
	<!ENTITY ns_adobe_xpath "http://ns.adobe.com/XPath/1.0/">
]>
<svg version="1.1" xmlnsX="&ns_extend;" xmlnsI="&ns_ai;" xmlnsGraph="&ns_graphs;"
	 xmlns="http://www.w3.org/2000/svg" xmlnsXlink="http://www.w3.org/1999/xlink" x="0px" y="0px" viewBox="0 0 1216.1 846.7"
	 style="enable-background:new 0 0 1216.1 846.7;" xmlSpace="preserve">
<style type="text/css">
	.st0{fill:none;stroke:#1E344C;stroke-miterlimit:10;}
	.st1{fill:#CCF1FF;}
	.st2{fill:#95D9FC;}
	.st3{fill:#6BBFF2;}
	.st4{fill:#4FA6E8;}
	.st5{fill:#277ECC;}
	.st6{font-family:'Montserrat-ExtraBold';}
	.st7{font-size:55px;}
</style>
<metadata>
	<sfw  xmlns="&ns_sfw;">
		<slices></slices>
		<sliceSourceBounds  bottomLeftOrigin="true" height="846.7" width="1216.1" x="-1644.9" y="-1901.9"></sliceSourceBounds>
	</sfw>
</metadata>
<g id="BG">
</g>
<g id="Objects">
	<g>
		<g>
			<g>
				<g>
					<rect x="2.5" y="0.5" class="st0" width="1213.1" height="0.5"/>
				</g>
			</g>
			<g>
				<g>
					<rect x="2.5" y="37.3" class="st0" width="1213.1" height="0.5"/>
				</g>
			</g>
			<g>
				<g>
					<rect x="2.5" y="73.5" class="st0" width="1213.1" height="0.5"/>
				</g>
			</g>
			<g>
				<g>
					<rect x="2.5" y="112.7" class="st0" width="1213.1" height="0.5"/>
				</g>
			</g>
			<g>
				<g>
					<rect x="2.5" y="150.8" class="st0" width="1213.1" height="0.5"/>
				</g>
			</g>
			<g>
				<g>
					<rect x="2.5" y="187.6" class="st0" width="1213.1" height="0.5"/>
				</g>
			</g>
			<g>
				<g>
					<rect x="2.5" y="223.8" class="st0" width="1213.1" height="0.5"/>
				</g>
			</g>
			<g>
				<g>
					<rect x="2.5" y="264.4" class="st0" width="1213.1" height="0.5"/>
				</g>
			</g>
			<g>
				<g>
					<rect x="2.5" y="302.8" class="st0" width="1213.1" height="0.5"/>
				</g>
			</g>
			<g>
				<g>
					<rect x="2.5" y="339.6" class="st0" width="1213.1" height="0.5"/>
				</g>
			</g>
			<g>
				<g>
					<rect x="2.5" y="375.8" class="st0" width="1213.1" height="0.5"/>
				</g>
			</g>
			<g>
				<g>
					<rect x="2.5" y="412.8" class="st0" width="1213.1" height="0.5"/>
				</g>
			</g>
			<g>
				<g>
					<rect x="2.5" y="450.9" class="st0" width="1213.1" height="0.5"/>
				</g>
			</g>
			<g>
				<g>
					<rect x="2.5" y="487.7" class="st0" width="1213.1" height="0.5"/>
				</g>
			</g>
			<g>
				<g>
					<rect x="2.5" y="523.9" class="st0" width="1213.1" height="0.5"/>
				</g>
			</g>
			<g>
				<g>
					<rect x="2.5" y="564.5" class="st0" width="1213.1" height="0.5"/>
				</g>
			</g>
			<g>
				<g>
					<rect x="2.5" y="602.9" class="st0" width="1213.1" height="0.5"/>
				</g>
			</g>
			<g>
				<g>
					<rect x="2.5" y="639.7" class="st0" width="1213.1" height="0.5"/>
				</g>
			</g>
			<g>
				<g>
					<rect x="2.5" y="675.9" class="st0" width="1213.1" height="0.5"/>
				</g>
			</g>
			<g>
				<g>
					<rect x="2.5" y="712.9" class="st0" width="1213.1" height="0.5"/>
				</g>
			</g>
			<g>
				<g>
					<rect x="2.5" y="751" class="st0" width="1213.1" height="0.5"/>
				</g>
			</g>
			<g>
				<g>
					<rect x="2.5" y="787.8" class="st0" width="1213.1" height="0.5"/>
				</g>
			</g>
			<g>
				<g>
					<rect x="2.5" y="825" class="st0" width="1213.1" height="0.5"/>
				</g>
			</g>
		</g>
		<g>
			<g>
				<rect x="77.9" y="691.3" class="st1" width="197" height="149.3"/>
			</g>
		</g>
		<g>
			<g>
				<rect x="292.2" y="681" class="st2" width="197" height="159.5"/>
			</g>
		</g>
		<g>
			<g>
				<rect x="506.5" y="589.9" class="st3" width="197" height="250.6"/>
			</g>
		</g>
		<g>
			<g>
				<rect x="720.8" y="519.5" class="st4" width="197" height="321.1"/>
			</g>
		</g>
		<g>
			<g>
				<rect x="935" y="303.3" class="st5" width="197" height="537.2"/>
			</g>
		</g>
		<g>
			<g>
				<rect y="838.1" class="st5" width="1215.6" height="8.6"/>
			</g>
		</g>
		<g>
			<g>
				<path class="st5" d="M1119.6,7.7c0-1.5-1.6-2.5-2.9-1.9L979.2,69c-1.8,0.8-1.6,3.5,0.4,4l55.9,13c-3.3,4.4-6.7,9.1-10.4,14.1
					c-5.9,7.5-12.4,15.6-19.2,24.3c-1.7,2.2-3.5,4.4-5.3,6.6c-1.9,2.2-3.7,4.4-5.6,6.6c-3.8,4.5-7.8,9.1-11.8,13.8
					c-7.9,9.6-17,19.1-26.2,29.2c-2.3,2.5-4.6,5.1-7,7.6c-2.4,2.5-4.9,5-7.4,7.5c-5,5.1-10.1,10.3-15.2,15.5c-2.5,2.7-5.2,5.2-8,7.8
					c-2.7,2.6-5.5,5.2-8.2,7.8c-5.6,5.2-11,10.7-16.9,15.9c-5.9,5.2-11.8,10.5-17.8,15.8c-3,2.6-6,5.4-9.2,8
					c-3.1,2.6-6.3,5.2-9.5,7.8c-6.4,5.2-12.7,10.7-19.3,15.9c-6.7,5.2-13.4,10.4-20.2,15.6c-27.5,20.5-56.6,41.1-87.6,59.8
					c-30.9,18.8-63,36.9-96.3,52.8c-8.2,4.2-16.6,8-25,11.8c-8.4,3.8-16.7,7.8-25.2,11.2c-8.5,3.6-17,7.1-25.4,10.6
					c-8.6,3.3-17.1,6.5-25.6,9.8c-8.5,3.4-17.1,6.2-25.6,9.2c-8.5,2.9-17,6.1-25.5,8.6c-8.5,2.7-17,5.4-25.4,8
					c-8.5,2.4-16.9,4.8-25.3,7.2c-4.2,1.2-8.3,2.4-12.5,3.5c-4.2,1.1-8.3,2.1-12.5,3.1c-8.3,2-16.5,4.3-24.6,6.1
					c-16.4,3.6-32.3,7.4-48.1,10.2c-7.8,1.5-15.6,3.1-23.2,4.3c-7.7,1.2-15.2,2.5-22.6,3.7c-3.7,0.6-7.4,1.2-11.1,1.8
					c-3.7,0.5-7.3,1-10.9,1.5c-7.2,1-14.3,1.9-21.2,2.8c-13.9,1.6-27.2,2.9-39.9,4.3c-12.7,1-24.8,2-36.1,2.8
					c-11.4,0.6-22,1.1-31.8,1.6c-9.8,0.5-18.9,0.5-27,0.8c-16.3,0.6-29.2,0.3-37.9,0.3c-8.8,0-13.4,0-13.4,0s4.7,0.3,13.4,0.8
					c8.8,0.4,21.6,1.4,38,1.7c8.2,0.2,17.2,0.6,27.1,0.7c9.9,0,20.6,0.1,32,0.1c11.4-0.3,23.6-0.6,36.4-0.9
					c12.8-0.7,26.3-1.3,40.3-2.1c7-0.6,14.2-1.1,21.5-1.7c3.7-0.3,7.3-0.6,11.1-0.9c3.7-0.3,7.5-0.8,11.2-1.2
					c7.6-0.8,15.2-1.6,23-2.5c7.8-0.9,15.7-2.1,23.7-3.1c16.1-2,32.4-4.9,49.2-7.6c8.4-1.4,16.8-3.2,25.3-4.8
					c4.3-0.8,8.5-1.7,12.8-2.5c4.3-0.9,8.6-1.9,12.9-2.8c8.6-1.9,17.3-3.9,26.1-5.9c8.7-2.2,17.5-4.5,26.3-6.7
					c8.9-2.1,17.6-4.8,26.5-7.4c8.8-2.6,17.8-5,26.6-8c8.9-2.9,17.8-5.7,26.7-8.6c8.8-3.1,17.7-6.3,26.6-9.5
					c8.9-3,17.7-6.7,26.5-10.1c8.8-3.4,17.7-6.8,26.3-10.7c35.1-14.5,69.2-31.3,102.2-49c33.1-17.6,64.4-37.2,94.2-57
					c7.4-5.1,14.7-10.1,21.9-15.1c7.2-5,14.1-10.3,21.1-15.4c3.5-2.6,6.9-5.1,10.3-7.6c3.5-2.5,6.7-5.2,10-7.8
					c6.6-5.2,13.1-10.4,19.6-15.5c6.4-5.1,12.5-10.5,18.6-15.7c3-2.6,6.1-5.2,9.1-7.7c3-2.5,6-5.1,8.8-7.7
					c5.7-5.2,11.3-10.4,16.8-15.4c2.8-2.5,5.5-5,8.2-7.5c2.6-2.6,5.2-5.1,7.8-7.6c10.2-10.1,20.3-19.5,29.2-29.2
					c4.5-4.8,8.9-9.4,13.2-13.9c2.1-2.3,4.2-4.5,6.3-6.7c2-2.3,4-4.5,5.9-6.7c7.7-8.8,15.1-16.9,21.7-24.6c6-7.2,11.5-13.9,16.5-20
					l36.9,41.6c1.2,1.6,3.8,0.7,3.7-1.3L1119.6,7.7z"/>
			</g>
		</g>
		<text transform="matrix(1 0 0 1 167.0295 675.8903)" class="st1 st6 st7">10%</text>
		<text transform="matrix(1 0 0 1 383.33 665.8903)" class="st2 st6 st7">12%</text>
		<text transform="matrix(1 0 0 1 587.0286 571.9377)" class="st3 st6 st7">22%</text>
		<text transform="matrix(1 0 0 1 811.533 503.4329)" class="st4 st6 st7">41%</text>
		<text transform="matrix(1 0 0 1 1014.8336 286.7344)" class="st5 st6 st7">83%</text>
	</g>
</g>
</svg>
