<?xml version="1.0" encoding="utf-8"?>
<!-- Generator: Adobe Illustrator 25.4.1, SVG Export Plug-In . SVG Version: 6.00 Build 0)  -->
<!DOCTYPE svg PUBLIC "-//W3C//DTD SVG 1.1//EN" "http://www.w3.org/Graphics/SVG/1.1/DTD/svg11.dtd" [
	<!ENTITY ns_extend "http://ns.adobe.com/Extensibility/1.0/">
	<!ENTITY ns_ai "http://ns.adobe.com/AdobeIllustrator/10.0/">
	<!ENTITY ns_graphs "http://ns.adobe.com/Graphs/1.0/">
	<!ENTITY ns_vars "http://ns.adobe.com/Variables/1.0/">
	<!ENTITY ns_imrep "http://ns.adobe.com/ImageReplacement/1.0/">
	<!ENTITY ns_sfw "http://ns.adobe.com/SaveForWeb/1.0/">
	<!ENTITY ns_custom "http://ns.adobe.com/GenericCustomNamespace/1.0/">
	<!ENTITY ns_adobe_xpath "http://ns.adobe.com/XPath/1.0/">
]>
<svg version="1.1" id="Camada_1" xmlnsX="&ns_extend;" xmlnsI="&ns_ai;" xmlnsGraph="&ns_graphs;"
	 xmlns="http://www.w3.org/2000/svg" xmlnsXlink="http://www.w3.org/1999/xlink" x="0px" y="0px" viewBox="0 0 4206.1 1259.9"
	 style="enable-background:new 0 0 4206.1 1259.9;" xmlSpace="preserve">
<style type="text/css">
	.st0{fill:#FFF;}
	.st1{fill-rule:evenodd;clip-rule:evenodd;fill:#FFF;}
</style>
<metadata>
	<sfw  xmlns="&ns_sfw;">
		<slices></slices>
		<sliceSourceBounds  bottomLeftOrigin="true" height="1259.8" width="4206.1" x="0" y="0.1"></sliceSourceBounds>
	</sfw>
</metadata>
<g id="Layer_4">
</g>
<g id="Layer_3">
</g>
<g id="Layer_5">
	<g>
		<g>
			<g>
				<path class="st0" d="M1382.7,361.1h-0.3c-23.8-3.3-47.7-2.4-70.9,2.8c-77.1,17.1-136.8,78.3-151.9,155.8l-74,526.4l-0.1,0.8
					l0.8,0.2c0.6,0.1,1.1,0.2,1.7,0.3c6.8,1,13.7,1.6,21,1.8h13.3c63.1-2,122.1-34.5,157.8-86.8c16-23.5,26.6-49.7,31.5-77.9
					l73.4-522.1l0.1-0.8l-0.8-0.2C1383.7,361.2,1383.2,361.1,1382.7,361.1z"/>
				<path class="st0" d="M2508.4,400.1c1.9-13.5,1.7-27-0.6-40.3l-0.1-0.7h-98.4c0.9-3.4,2.3-13.5,5.8-43c0.5-4.1,0.9-7.1,1-8.1
					c0.5-3.4,0.9-6.8,1.3-10.3c1.4-11.7,2.8-23.8,7-35c4.8-12.7,13.6-22.8,20.2-29.1c14-13.3,31.6-19.6,45.3-23.6
					c11.1-3.3,21.7-8.4,31.5-15.4c27.9-19.7,47.6-53.1,52.7-89.4c1.2-8.6,1.6-17.3,1-26v-0.6l-0.6-0.2c-16-5.4-32.5-9.3-49.1-11.6
					c-23-3.2-46.3-3.5-69.3-0.8c-49.8,5.9-96.9,25.7-136.2,57.2c-53.7,43-88.6,104.2-98.2,172.4l-135.1,961l-0.1,0.9l2.3,0.3
					c9.3,1.3,18.6,2,28,2c11.2,0,22.5-1,33.6-2.9c28.9-5,56.8-16.6,80.7-33.7c38.3-27.4,64.4-65.4,75.5-109.7
					c9-36.2,14-73.1,18.7-108.9c1.4-10.7,2.9-21.8,4.5-32.7l2.2-15.5c6-41.6,12.1-84.5,18-126.8l44.9-319.3
					C2444.9,501.5,2499.8,460.9,2508.4,400.1z"/>
				<path class="st0" d="M2873,359.8l-0.1-0.7h-98.4c0.9-3.4,2.3-13.5,5.8-42.9c0.5-4.2,0.9-7.2,1-8.2c0.5-3.4,0.9-6.8,1.3-10.3
					c1.4-11.7,2.8-23.8,7-35c4.8-12.7,13.6-22.8,20.2-29.1c14-13.3,31.6-19.6,45.3-23.6c11.1-3.3,21.7-8.4,31.5-15.4
					c27.9-19.7,47.6-53.1,52.7-89.4c1.2-8.6,1.6-17.3,1-26v-0.6l-0.6-0.2c-16-5.4-32.5-9.3-49.1-11.6c-23-3.2-46.3-3.5-69.3-0.8
					c-49.8,5.9-96.9,25.7-136.2,57.2c-53.7,43-88.6,104.2-98.2,172.4l-135.1,961l-0.1,0.9l2.3,0.3c9.3,1.3,18.6,2,28,2
					c11.2,0,22.5-1,33.6-2.9c28.9-5,56.8-16.6,80.7-33.7c38.3-27.4,64.4-65.3,75.5-109.7c9-36.2,14-73.2,18.7-108.9
					c1.4-10.7,2.9-21.7,4.5-32.7l1.9-13c6.1-42.4,12.3-86.2,18.4-129.2l44.9-319.3c50-8.9,104.9-49.6,113.5-110.4
					C2875.5,386.6,2875.3,373,2873,359.8z"/>
				<path class="st0" d="M3941.1,653.4c-20.3-13.3-43.6-21-66.2-28.4c-5.8-1.9-11.9-3.9-17.7-5.9c-10.1-3.5-20.2-7.5-29.9-11.4
					c-3.1-1.2-6.2-2.5-9.3-3.7c-10.9-4.3-24.6-10.7-33.7-22c-10.6-13.2-15.4-30.3-13-46.9c3.2-22.4,18.2-40.7,38.2-46.5
					c17.2-5,35.7-2.4,53.5,0.2l3.5,0.5c19.5,2.7,38.8,1.1,57.5-4.8c38.5-12.2,69.6-42,83.3-79.8l0.2-0.7l-0.6-0.4
					c-33.5-22.2-70.8-36.3-110.9-42c-62.1-8.7-127.4,5.4-180.6,38.6c-51.8,32.3-96.9,84.7-111.7,144.7
					c-12.6,51.1-2.3,105.2,29.5,147.4c27.6,36.7,65.3,52.6,105.2,69.5l54,22.8c2.7,1.3,5.2,2.4,7.5,3.5c5.4,2.4,10.1,4.6,14.4,7.4
					c20.4,13.4,30.1,34.9,26.7,59.2c-4.2,30-28.4,51.2-60.1,52.9c-20,1.1-39.7-4.9-58.7-10.7c-8.5-2.6-17.2-5.2-25.8-7.2
					c-29.2-6.7-59.6-3.9-85.4,7.8c-13.1,6-25.1,14-35.6,23.9c-0.3,0.3-28.9,28.8-25,33.4c42.6,49.9,101.9,82.5,167,91.6
					c12.4,1.8,25.1,2.7,37.8,2.7c12.1,0,24.2-0.8,36.1-2.4c94.5-12.9,175.7-75.6,212.1-163.7c4.9-12,9-24.4,12.2-36.9
					c2.3-9.1,4.2-18.7,5.5-28.4l0.6-4.2c0.1-0.2,0.1-0.4,0.1-0.5C4025,749.5,3994.1,688.4,3941.1,653.4z"/>
				<path class="st0" d="M1993,401.6c-3.3-2.7-6.6-5.3-10-7.7c-23.2-16.8-50.2-28.5-80.2-34.7c-3.1-0.7-6.5-1.2-10-1.7
					c-12-1.6-24.5-1.7-36.6-1.9c-3.6,0-7.1-0.1-10.6-0.2c-19.6-0.5-39.5-0.1-58.8,0.3c-8.8,0.2-17.6,0.4-26.5,0.5
					c-10.1,0.1-20.3,0-30.2-0.2c-32.7-0.5-66.5-1-99.6,8.2c-37.4,10.4-70.1,29.6-94.6,55.6c-6.6,7-12.7,14.5-18.1,22.4
					c-14.8,21.5-25,45.5-30.4,71.3l-19.2,136.6c-0.1,0.7-9,64.2-10.1,71.8L1413,1043l0.8,0.2c0.5,0.1,1,0.2,1.6,0.3
					c9.1,1.3,18.5,1.9,27.9,1.9c92.4,0,171.8-64.4,193.1-156.6c8.1-35,12.6-71.7,16.9-107.2c1.7-13.7,3.4-27.8,5.3-41.5l18.7-135
					l0.7-4.8c4.3-31.3,9.1-66.7,40.3-82.3c16.6-8.3,35.6-8.8,52.1-8.1c1.9,0.1,3.9,0.1,5.8,0.2c14.2,0.5,28.9,1,41.8,5.5
					c32.4,11.3,46.2,36.8,40.8,75.9c-1.5,11-3.1,22.1-4.7,33.1c-1.2,8.6-2.4,17.1-3.6,25.7l-55.2,392.9l0.8,0.2
					c0.5,0.1,1,0.2,1.6,0.3c9.1,1.3,18.5,1.9,27.9,1.9c33.9,0,67.6-8.8,97.3-25.6c37.8-21.3,68.2-55.8,85.7-97.2
					c14.6-34.5,18.9-73.2,23.1-110.7c1.3-11.7,2.6-23.8,4.3-35.4l20.6-146.3c0.8-5.6,1.6-11.3,2.5-16.9
					c5.6-37.5,11.5-76.2-0.5-114.4C2047.2,461.7,2023.8,427.1,1993,401.6z"/>
				<path class="st0" d="M3513.5,357.1c-9.1-1.3-18.5-1.9-27.9-1.9c-92.4,0-171.8,64.4-193.1,156.6c-8.1,35-12.6,71.7-17,107.2
					c-1.7,13.7-3.4,27.8-5.3,41.5l-18.7,135l-0.7,4.8c-4.3,31.3-9.1,66.7-40.3,82.3c-16.6,8.3-35.6,8.7-52.1,8.1
					c-1.9-0.1-3.8-0.1-5.8-0.2c-14.2-0.5-28.9-1-41.9-5.5c-32.4-11.3-46.2-36.8-40.8-75.9c1.5-11,3.1-22,4.7-33.1
					c1.2-8.6,2.4-17.1,3.6-25.7l55.2-392.9l-0.8-0.2c-0.5-0.1-1-0.2-1.6-0.3c-9.1-1.3-18.5-1.9-27.9-1.9c-33.9,0-67.6,8.8-97.3,25.6
					c-37.8,21.3-68.2,55.8-85.7,97.2c-14.6,34.5-18.9,73.2-23.1,110.7c-1.3,11.7-2.6,23.8-4.3,35.4l-20.6,146.3
					c-0.8,5.6-1.6,11.3-2.5,16.9c-5.6,37.5-11.5,76.2,0.5,114.4c11.7,37.4,35.1,72.1,65.8,97.6c3.3,2.7,6.6,5.3,10,7.7
					c23.2,16.8,50.2,28.5,80.2,34.7c3.1,0.6,6.5,1.2,10,1.7c12,1.6,24.5,1.7,36.6,1.9c3.6,0,7.1,0.1,10.6,0.2
					c6.3,0.1,12.6,0.2,18.9,0.2c13.4,0,26.8-0.3,39.9-0.5c8.8-0.2,17.6-0.4,26.4-0.5c10.1-0.1,20.3,0,30.2,0.2
					c32.7,0.5,66.5,1,99.6-8.2c37.4-10.4,70.1-29.6,94.6-55.6c6.6-7,12.7-14.5,18.1-22.4c14.8-21.5,25-45.5,30.4-71.3l19.2-136.6
					c0.1-0.7,9-64.2,10.1-71.8l45.1-321.1l-0.8-0.2C3514.6,357.3,3514.1,357.2,3513.5,357.1z"/>
				<path class="st0" d="M1421.3,118.9c0,0,0,0,7.5-53.3l0.1-1h-46c-5.7,0-11.7-0.1-17.7-0.2c-43.4-0.6-92.5-1.3-122.1,28.1
					c-27.4,27.3-31.9,66.2-36.3,103.8c-0.8,7-1.6,14.2-2.6,21l-7.8,55.8h1c7.4,0,14.7,0,22.1,0c20.3,0,41.3-0.1,62,0.1
					c1.2,0,2.4,0,3.7,0c25.1,0,53.8-2.6,79.7-18.6c21.6-13.3,37.7-33.2,43.1-53.1c5.4-20,8.1-41.4,10.7-62.1
					C1419.5,132.7,1420.4,125.6,1421.3,118.9z"/>
			</g>
			<path class="st1" d="M446.9,0c-4,0-8,0-12,0.2c-4-0.1-8-0.2-12-0.2C185,2.3-7.4,334.7,0.2,499.7
				c7.5,162.8,220.9,249.5,434.6,247.5c14.4,0.1,28.8-0.1,43.2-0.8c0,0.1,0.7,0.1,2.3,0C271.3,808.4,232,922.1,231,1001
				c-0.7,52.6,43.1,121,203.2,121c166.3,0,214-77.5,203.1-121c-0.6-2.1-52.3-267.1-52.3-267.1l-2.6,0.3
				c154.9-29.8,281.4-109.8,287.2-234.5C877.2,334.7,684.7,2.3,446.9,0z M424.5,290c-8.3-74.3,35.5-130.6,97.4-140.1
				c101.9-15.6,200.6,91.5,150.2,198.9C620,459.9,439.5,423.6,424.5,290z M732.8,497.8c-8.3,25-35.1,38.1-61,27.9
				c-27.6-10.8-42.3-42.7-31.7-69.9c10.3-26.4,39.9-36.1,65-23.2C728.8,444.7,740.8,473.4,732.8,497.8z"/>
		</g>
		<g>
			<path class="st0" d="M4179.1,175.4c-17.4-17.4-40.6-27-65.2-27s-47.8,9.6-65.2,27s-27,40.6-27,65.2s9.6,47.8,27,65.2
				s40.6,27,65.2,27c24.6,0,47.8-9.6,65.2-27c17.4-17.4,27-40.6,27-65.2S4196.5,192.8,4179.1,175.4z M4113.9,317.6
				c-42.5,0-77-34.5-77-77s34.5-77,77-77s77,34.5,77,77C4190.9,283,4156.4,317.6,4113.9,317.6z"/>
			<path class="st0" d="M4145,259.1c-3.1-6.9-7.6-12.1-13.2-15.7c12-5.1,18-13.6,18-25.3c0-8.9-3.8-15.9-11.5-21s-18-7.7-31.1-7.7
				c-8.7,0-18.6,0.9-29.7,2.8v100.3h14.5v-44.4h18.4c14.9,0,22.5,14.8,26.6,44.4h16.4C4150.9,277.1,4148.1,265.9,4145,259.1z
				 M4109.7,237H4092v-35.2c4-0.4,9.1-0.6,15.2-0.6c19,0,28.5,5.9,28.5,17.8C4135.7,231,4127,237,4109.7,237z"/>
		</g>
	</g>
</g>
</svg>
