<?xml version="1.0" encoding="utf-8"?>
<!-- Generator: Adobe Illustrator 25.4.1, SVG Export Plug-In . SVG Version: 6.00 Build 0)  -->
<!DOCTYPE svg PUBLIC "-//W3C//DTD SVG 1.1//EN" "http://www.w3.org/Graphics/SVG/1.1/DTD/svg11.dtd" [
	<!ENTITY ns_extend "http://ns.adobe.com/Extensibility/1.0/">
	<!ENTITY ns_ai "http://ns.adobe.com/AdobeIllustrator/10.0/">
	<!ENTITY ns_graphs "http://ns.adobe.com/Graphs/1.0/">
	<!ENTITY ns_vars "http://ns.adobe.com/Variables/1.0/">
	<!ENTITY ns_imrep "http://ns.adobe.com/ImageReplacement/1.0/">
	<!ENTITY ns_sfw "http://ns.adobe.com/SaveForWeb/1.0/">
	<!ENTITY ns_custom "http://ns.adobe.com/GenericCustomNamespace/1.0/">
	<!ENTITY ns_adobe_xpath "http://ns.adobe.com/XPath/1.0/">
]>
<svg version="1.1" id="Camada_1" xmlns:x="&ns_extend;" xmlns:i="&ns_ai;" xmlns:graph="&ns_graphs;"
	 xmlns="http://www.w3.org/2000/svg" xmlns:xlink="http://www.w3.org/1999/xlink" x="0px" y="0px" viewBox="0 0 787.7 320.7"
	 style="enable-background:new 0 0 787.7 320.7;" xml:space="preserve">
<style type="text/css">
	.st0{fill:#FFFFFF;}
</style>
<metadata>
	<sfw  xmlns="&ns_sfw;">
		<slices></slices>
		<sliceSourceBounds  bottomLeftOrigin="true" height="320.7" width="787.7" x="1852.4" y="6242"></sliceSourceBounds>
	</sfw>
</metadata>
<g>
	<path class="st0" d="M79.7,79.6L79.7,79.6c-6.5-0.9-12.9-0.7-19.1,0.7c-20.7,4.6-36.7,21-40.8,41.8L0,263.4l0,0.2l0.2,0
		c0.1,0,0.3,0,0.4,0.1c1.8,0.3,3.7,0.4,5.6,0.5h3.6c16.9-0.5,32.8-9.2,42.3-23.3c4.3-6.3,7.1-13.3,8.5-20.9L80.3,80l0-0.2l-0.2,0
		C80,79.7,79.9,79.7,79.7,79.6z"/>
	<path class="st0" d="M381.7,90.1c0.5-3.6,0.5-7.3-0.2-10.8l0-0.2h-26.4c0.2-0.9,0.6-3.6,1.6-11.5c0.1-1.1,0.2-1.9,0.3-2.2
		c0.1-0.9,0.2-1.8,0.3-2.8c0.4-3.1,0.8-6.4,1.9-9.4c1.3-3.4,3.7-6.1,5.4-7.8c3.8-3.6,8.5-5.3,12.1-6.3c3-0.9,5.8-2.3,8.5-4.1
		c7.5-5.3,12.8-14.3,14.1-24c0.3-2.3,0.4-4.7,0.3-7l0-0.2l-0.2-0.1c-4.3-1.4-8.7-2.5-13.2-3.1c-6.2-0.9-12.4-0.9-18.6-0.2
		c-13.3,1.6-26,6.9-36.5,15.4c-14.4,11.5-23.8,27.9-26.3,46.2l-36.2,257.8l0,0.2l0.6,0.1c2.5,0.4,5,0.5,7.5,0.5c3,0,6-0.3,9-0.8
		c7.7-1.3,15.2-4.5,21.6-9c10.3-7.4,17.3-17.5,20.3-29.4c2.4-9.7,3.7-19.6,5-29.2c0.4-2.9,0.8-5.8,1.2-8.8l0.6-4.1
		c1.6-11.1,3.2-22.7,4.8-34l12-85.7C364.7,117.3,379.4,106.4,381.7,90.1z"/>
	<path class="st0" d="M479.5,79.3l0-0.2h-26.4c0.2-0.9,0.6-3.6,1.6-11.5c0.1-1.1,0.2-1.9,0.3-2.2c0.1-0.9,0.2-1.8,0.3-2.8
		c0.4-3.1,0.8-6.4,1.9-9.4c1.3-3.4,3.7-6.1,5.4-7.8c3.8-3.6,8.5-5.3,12.1-6.3c3-0.9,5.8-2.3,8.5-4.1c7.5-5.3,12.8-14.3,14.1-24
		c0.3-2.3,0.4-4.7,0.3-7l0-0.2l-0.2-0.1c-4.3-1.4-8.7-2.5-13.2-3.1c-6.2-0.9-12.4-0.9-18.6-0.2c-13.3,1.6-26,6.9-36.5,15.4
		c-14.4,11.5-23.8,27.9-26.3,46.2l-36.2,257.8l0,0.2l0.6,0.1c2.5,0.4,5,0.5,7.5,0.5c3,0,6-0.3,9-0.8c7.7-1.3,15.2-4.5,21.6-9
		c10.3-7.4,17.3-17.5,20.3-29.4c2.4-9.7,3.7-19.6,5-29.2c0.4-2.9,0.8-5.8,1.2-8.8l0.5-3.5c1.6-11.4,3.3-23.1,4.9-34.7l12-85.7
		c13.4-2.4,28.1-13.3,30.4-29.6C480.2,86.5,480.1,82.8,479.5,79.3z"/>
	<path class="st0" d="M766,158.1c-5.4-3.6-11.7-5.6-17.8-7.6c-1.6-0.5-3.2-1-4.8-1.6c-2.7-0.9-5.4-2-8-3.1c-0.8-0.3-1.7-0.7-2.5-1
		c-2.9-1.2-6.6-2.9-9-5.9c-2.8-3.5-4.1-8.1-3.5-12.6c0.9-6,4.9-10.9,10.2-12.5c4.6-1.3,9.6-0.6,14.4,0l0.9,0.1
		c5.2,0.7,10.4,0.3,15.4-1.3c10.3-3.3,18.7-11.3,22.3-21.4l0.1-0.2l-0.2-0.1c-9-6-19-9.7-29.7-11.3c-16.7-2.3-34.2,1.5-48.5,10.3
		c-13.9,8.7-26,22.7-30,38.8c-3.4,13.7-0.6,28.2,7.9,39.5c7.4,9.8,17.5,14.1,28.2,18.6l14.5,6.1c0.7,0.3,1.4,0.6,2,0.9
		c1.5,0.7,2.7,1.2,3.9,2c5.5,3.6,8.1,9.4,7.2,15.9c-1.1,8-7.6,13.7-16.1,14.2c-5.4,0.3-10.6-1.3-15.7-2.9c-2.3-0.7-4.6-1.4-6.9-1.9
		c-7.8-1.8-16-1.1-22.9,2.1c-3.5,1.6-6.7,3.8-9.6,6.4c-0.1,0.1-7.7,7.7-6.7,9c11.4,13.4,27.3,22.1,44.8,24.6
		c3.3,0.5,6.7,0.7,10.1,0.7c3.2,0,6.5-0.2,9.7-0.7c25.3-3.5,47.1-20.3,56.9-43.9c1.3-3.2,2.4-6.6,3.3-9.9c0.6-2.4,1.1-5,1.5-7.6
		l0.2-1.1c0-0.1,0-0.1,0-0.1C788.5,183.8,780.3,167.4,766,158.1z"/>
	<path class="st0" d="M243.5,90.5c-0.9-0.7-1.8-1.4-2.7-2.1c-6.2-4.5-13.5-7.6-21.5-9.3c-0.8-0.2-1.7-0.3-2.7-0.4
		c-3.2-0.4-6.6-0.5-9.8-0.5c-1,0-1.9,0-2.8,0c-5.3-0.1-10.6,0-15.8,0.1c-2.4,0-4.7,0.1-7.1,0.1c-2.7,0-5.4,0-8.1,0
		c-8.8-0.1-17.8-0.3-26.7,2.2c-10,2.8-18.8,7.9-25.4,14.9c-1.8,1.9-3.4,3.9-4.9,6c-4,5.8-6.7,12.2-8.1,19.1l-5.1,36.7
		c0,0.2-2.4,17.2-2.7,19.3l-12.1,86.1l0.2,0c0.1,0,0.3,0,0.4,0.1c2.4,0.3,5,0.5,7.5,0.5c24.8,0,46.1-17.3,51.8-42
		c2.2-9.4,3.4-19.2,4.5-28.8c0.4-3.7,0.9-7.5,1.4-11.1l5-36.2l0.2-1.3c1.1-8.4,2.4-17.9,10.8-22.1c4.5-2.2,9.6-2.3,14-2.2
		c0.5,0,1,0,1.6,0.1c3.8,0.1,7.7,0.3,11.2,1.5c8.7,3,12.4,9.9,10.9,20.3c-0.4,3-0.8,5.9-1.3,8.9c-0.3,2.3-0.7,4.6-1,6.9l-14.8,105.4
		l0.2,0c0.1,0,0.3,0,0.4,0.1c2.4,0.3,5,0.5,7.5,0.5c9.1,0,18.1-2.4,26.1-6.9c10.1-5.7,18.3-15,23-26.1c3.9-9.3,5.1-19.6,6.2-29.7
		c0.3-3.1,0.7-6.4,1.1-9.5l5.5-39.2c0.2-1.5,0.4-3,0.7-4.5c1.5-10,3.1-20.4-0.1-30.7C258,106.6,251.7,97.3,243.5,90.5z"/>
	<path class="st0" d="M651.3,78.6c-2.4-0.3-5-0.5-7.5-0.5c-24.8,0-46.1,17.3-51.8,42c-2.2,9.4-3.4,19.2-4.5,28.8
		c-0.4,3.7-0.9,7.5-1.4,11.1l-5,36.2l-0.2,1.3c-1.1,8.4-2.4,17.9-10.8,22.1c-4.5,2.2-9.6,2.3-14,2.2c-0.5,0-1,0-1.6-0.1
		c-3.8-0.1-7.7-0.3-11.2-1.5c-8.7-3-12.4-9.9-10.9-20.3c0.4-3,0.8-5.9,1.3-8.9c0.3-2.3,0.7-4.6,1-6.9l14.8-105.4l-0.2,0
		c-0.1,0-0.3,0-0.4-0.1c-2.4-0.3-5-0.5-7.5-0.5c-9.1,0-18.1,2.4-26.1,6.9c-10.1,5.7-18.3,15-23,26.1c-3.9,9.3-5.1,19.6-6.2,29.7
		c-0.3,3.1-0.7,6.4-1.1,9.5l-5.5,39.2c-0.2,1.5-0.4,3-0.7,4.5c-1.5,10-3.1,20.4,0.1,30.7c3.1,10,9.4,19.3,17.7,26.2
		c0.9,0.7,1.8,1.4,2.7,2.1c6.2,4.5,13.5,7.6,21.5,9.3c0.8,0.2,1.7,0.3,2.7,0.4c3.2,0.4,6.6,0.5,9.8,0.5c1,0,1.9,0,2.9,0
		c1.7,0,3.4,0.1,5.1,0.1c3.6,0,7.2-0.1,10.7-0.1c2.4,0,4.7-0.1,7.1-0.1c2.7,0,5.4,0,8.1,0c8.8,0.1,17.8,0.3,26.7-2.2
		c10-2.8,18.8-7.9,25.4-14.9c1.8-1.9,3.4-3.9,4.9-6c4-5.8,6.7-12.2,8.1-19.1l5.1-36.7c0-0.2,2.4-17.2,2.7-19.3L652,78.7l-0.2,0
		C651.6,78.6,651.5,78.6,651.3,78.6z"/>
	<path class="st0" d="M90.1,14.7c0,0,0,0,2-14.3l0-0.3H79.8c-1.5,0-3.1,0-4.8,0C63.4-0.1,50.2-0.3,42.3,7.6
		c-7.4,7.3-8.6,17.7-9.7,27.8c-0.2,1.9-0.4,3.8-0.7,5.6l-2.1,15H30c2,0,4,0,5.9,0c5.5,0,11.1,0,16.6,0c0.3,0,0.7,0,1,0
		c6.7,0,14.4-0.7,21.4-5c5.8-3.6,10.1-8.9,11.6-14.2c1.5-5.4,2.2-11.1,2.9-16.6C89.6,18.4,89.9,16.5,90.1,14.7z"/>
</g>
</svg>
