<?xml version="1.0" encoding="utf-8"?>
<!-- Generator: Adobe Illustrator 25.4.1, SVG Export Plug-In . SVG Version: 6.00 Build 0)  -->
<!DOCTYPE svg PUBLIC "-//W3C//DTD SVG 1.1//EN" "http://www.w3.org/Graphics/SVG/1.1/DTD/svg11.dtd" [
	<!ENTITY ns_extend "http://ns.adobe.com/Extensibility/1.0/">
	<!ENTITY ns_ai "http://ns.adobe.com/AdobeIllustrator/10.0/">
	<!ENTITY ns_graphs "http://ns.adobe.com/Graphs/1.0/">
	<!ENTITY ns_vars "http://ns.adobe.com/Variables/1.0/">
	<!ENTITY ns_imrep "http://ns.adobe.com/ImageReplacement/1.0/">
	<!ENTITY ns_sfw "http://ns.adobe.com/SaveForWeb/1.0/">
	<!ENTITY ns_custom "http://ns.adobe.com/GenericCustomNamespace/1.0/">
	<!ENTITY ns_adobe_xpath "http://ns.adobe.com/XPath/1.0/">
]>
<svg version="1.1" id="Camada_1" xmlns:x="&ns_extend;" xmlns:i="&ns_ai;" xmlns:graph="&ns_graphs;"
	 xmlns="http://www.w3.org/2000/svg" xmlns:xlink="http://www.w3.org/1999/xlink" x="0px" y="0px" viewBox="0 0 76.2 57.4"
	 style="enable-background:new 0 0 76.2 57.4;" xml:space="preserve">
<style type="text/css">
	.st0{fill:#FFFFFF;}
	.st1{clip-path:url(#SVGID_00000105391170028301881360000012371139174853474714_);fill:#FFFFFF;}
	.st2{clip-path:url(#SVGID_00000158735125689209312600000004218047136256737418_);fill:#FFFFFF;}
	.st3{fill-rule:evenodd;clip-rule:evenodd;fill:#FFFFFF;}
	.st4{opacity:0.8;}
	.st5{opacity:0.4;clip-path:url(#SVGID_00000171700302851305813960000014960452549586587810_);}
	.st6{clip-path:url(#SVGID_00000029044518511869593650000001027145303750731181_);fill:#FFFFFF;}
	.st7{clip-path:url(#SVGID_00000044179023442983042730000009888954787729113523_);fill:#FFFFFF;}
	.st8{clip-path:url(#SVGID_00000044860912572344749440000014739657363458546354_);fill:#FFFFFF;}
	.st9{clip-path:url(#SVGID_00000118389559547266518580000002335268953666200749_);fill:#FFFFFF;}
	.st10{clip-path:url(#SVGID_00000072265483870727983060000011441361436171710642_);fill:#FFFFFF;}
	.st11{clip-path:url(#SVGID_00000042707413726546194030000015209996321211338426_);fill:#FFFFFF;}
	.st12{clip-path:url(#SVGID_00000031205985576795672780000000111877815391783352_);fill:#FFFFFF;}
	.st13{clip-path:url(#SVGID_00000145760434751933625810000003919211917099557555_);fill:#FFFFFF;}
</style>
<metadata>
	<sfw  xmlns="&ns_sfw;">
		<slices></slices>
		<sliceSourceBounds  bottomLeftOrigin="true" height="280.2" width="1017.9" x="-2419.2" y="3433.6"></sliceSourceBounds>
	</sfw>
</metadata>
<g>
	<path class="st0" d="M9,11.3c-0.4,1.4-0.9,3.1-1.1,5c-0.3,1.9-0.3,3.6-0.3,5.1c0.4,0.9,1,2.1,1.9,3.5c0.7,1.1,1.8,3,3.6,5.1
		c1,1.2,3.1,3.4,6.1,5.6c2.5,1.8,4.7,2.8,6.1,3.4c4.7,2,9.1,2.6,12.4,2.7c-2.8-0.4-5-1.1-6.5-1.7c-4.6-1.8-7.6-4.4-8.7-5.4
		c-0.8-0.8-1.4-1.4-2-2c-0.6-0.7-2.7-3-5-6.6c-0.4-0.7-2.1-3.3-3.7-7.1C10.4,16.2,9.6,13.6,9,11.3"/>
	<path class="st0" d="M8.1,26c0.2,1.3,0.6,2.9,1.1,4.6c0.5,1.5,1.1,2.9,1.7,4c1.6,1.2,3,2.2,4.2,2.9c0.3,0.2,1.6,1,3.5,1.9
		c1.9,0.9,3.4,1.5,3.8,1.7c0.6,0.2,2.7,1,5.6,1.7c2.3,0.5,5.7,1.1,9.9,1.2c-1.1-0.1-2.5-0.4-4.3-0.7c-2-0.4-3.5-0.7-5.4-1.3
		c-0.4-0.1-2.2-0.7-4.4-1.9c-1.1-0.6-3.9-2-7.1-4.6c-3.1-2.5-5-4.8-6.1-6.1C9.4,27.9,8.6,26.8,8.1,26"/>
	<path class="st0" d="M67.3,11.3c0.4,1.4,0.9,3.1,1.1,5c0.3,1.9,0.3,3.6,0.3,5.1c-0.4,0.9-1,2.1-1.9,3.5c-0.7,1.1-1.8,3-3.6,5.1
		c-1,1.2-3.1,3.4-6.1,5.6c-2.5,1.8-4.7,2.8-6.1,3.4c-4.7,2-9.1,2.6-12.4,2.7c2.8-0.4,5-1.1,6.5-1.7c4.6-1.8,7.6-4.4,8.7-5.4
		c0.8-0.8,1.4-1.4,2-2c0.6-0.7,2.7-3,5-6.6c0.4-0.7,2.1-3.3,3.7-7.1C65.9,16.2,66.7,13.6,67.3,11.3"/>
	<path class="st0" d="M68.3,26c-0.2,1.3-0.6,2.9-1.1,4.6c-0.5,1.5-1.1,2.9-1.7,4c-1.6,1.2-3,2.2-4.2,2.9c-0.3,0.2-1.6,1-3.5,1.9
		c-1.9,0.9-3.4,1.5-3.8,1.7c-0.6,0.2-2.7,1-5.6,1.7c-2.3,0.5-5.7,1.1-9.9,1.2c1.1-0.1,2.5-0.4,4.3-0.7c2-0.4,3.5-0.7,5.4-1.3
		c0.4-0.1,2.2-0.7,4.4-1.9c1.1-0.6,3.9-2,7.1-4.6c3.1-2.5,5-4.8,6.1-6.1C66.9,27.9,67.7,26.8,68.3,26"/>
	<path class="st0" d="M64,4.1c-1-1.6-2.1-3-3.1-4.1c0.2,5.5-0.4,9.9-1.1,13c-0.8,3.5-1.8,6.2-2.4,7.7c-1.2,3-2.4,4.9-2.8,5.6
		c-0.8,1.4-1.7,2.4-1.8,2.6c-0.5,0.7-1,1.3-1.5,1.7c-0.1,0.1-0.7,0.8-1.7,0.8c-0.1,0-0.7,0-1.3-0.3c-0.3-0.2-0.6-0.4-1.1-1.1
		c-0.3-0.5-1.1-1.7-1.4-3.3c-0.1-0.7-0.2-1.3-0.2-1.3c0-0.6,0-0.6,0-1.1c0-0.2-0.1-0.8-0.3-1.5c-0.2-0.7-0.4-1.1-0.6-1.4
		c-0.5-1-1.1-1.6-1.2-1.7c-0.2-0.2-0.7-0.7-1.5-1.3c-0.8-0.5-1.5-0.8-1.7-0.8c-0.3-0.1-0.9-0.3-1.8-0.4c-1.8-0.2-3.3,0.1-4.3,0.4
		C33,17.7,32,18,31.5,18.2c-1.2,0.5-1.9,0.9-2.1,1c-0.6,0.4-1.1,0.8-1.5,1.2c-0.4,0.5-0.6,0.7-0.7,0.9c-0.1,0.3-0.3,0.7-0.3,1.3
		c0,0.4,0.2,0.7,0.3,0.9c0.4-0.2,1.2-0.4,2.3-0.3c1.3,0.2,2.2,1,2.5,1.2c0,0.7,0,1.8-0.5,3c-0.3,0.9-0.7,1.5-0.9,1.8
		c-0.5,0.7-0.9,1.1-1,1.2c-0.4,0.3-0.7,0.6-1.3,1c-0.1,0-0.1,0.1-0.2,0.1c-0.5,0.2-1,0.2-1.1,0.2c-0.1,0-0.5-0.1-1-0.3
		c-0.2-0.1-0.4-0.3-0.5-0.4c-0.7-0.8-1.7-1.8-2.7-3.2c-0.6-0.8-1.9-2.6-3.2-5.6c-0.4-1-2.3-5-3.3-10.8c-0.5-2.9-1-6.8-0.8-11.4
		c-0.9,0.9-1.8,2-2.7,3.3c-1.3,2-2.2,3.8-2.9,5.4c0.8,3.3,1.7,6,2.5,8c2.2,5.6,4.7,9.3,5.4,10.2c1.6,2.4,3.1,3.9,3.6,4.5
		c0.7,0.7,1.5,1.7,2.8,2.7c1.3,1.1,3.6,3,7.2,4.3c3.3,1.2,6,1.2,6.7,1.2c0.8,0,3.9,0,7.6-1.5c2.1-0.9,3.5-1.8,4.5-2.5
		c2.7-1.9,4.5-3.8,5.6-5.1c2.3-2.6,3.7-5,4.6-6.7c0.8-1.4,1.3-2.5,1.7-3.3c0.9-1.9,2-4.3,3-7.2c0.4-1.2,0.9-2.7,1.3-4.5
		C65.9,7.5,65.1,5.8,64,4.1 M35.6,21c-1.2,0.3-2.4-0.1-3.2-1.1c1.8-0.3,3.7-0.7,5.5-1C37.9,19.1,37.3,20.6,35.6,21"/>
	<path class="st0" d="M65.8,49.9h-4.5h-1.5v1.5v6.1h1.5v-6.1h4.5v1.5h1.5v-1.5C67.3,50.5,66.6,49.9,65.8,49.9"/>
	<path class="st0" d="M47.8,55.9v-5.3h1.5v-1.5h-1.5v-2.2h-1.5v2.2h-1.5v1.5h1.5v5.9c0,0.6,0.5,1,1,1h0.3h0.2h2.2v-1.5H47.8z"/>
	<path class="st0" d="M34.4,49.9h-2.3h-1.5h-2.3h-1.5h0v1.5h0v6h1.5v-6h1.9c0.3,0,0.3,0.2,0.3,0.5v5.5h1.5v-6h1.7c0,0,0,0,0,0
		c0.3,0,0.5,0.2,0.5,0.5c0,0,0,0,0,0v5.5h1.5v-5.5v-0.6C35.8,50.5,35.2,49.9,34.4,49.9"/>
	<path class="st0" d="M41.1,49.9L41.1,49.9c-2.1,0-3.8,1.7-3.8,3.8c0,2.1,1.7,3.8,3.8,3.8c2.1,0,3.8-1.7,3.8-3.8
		C44.9,51.6,43.2,49.9,41.1,49.9 M41.1,55.9c-1.3,0-2.3-1-2.3-2.3c0-1.3,1-2.3,2.3-2.3c1.3,0,2.3,1,2.3,2.3
		C43.4,54.9,42.4,55.9,41.1,55.9"/>
	<path class="st0" d="M54.6,49.9L54.6,49.9c-2.1,0-3.8,1.7-3.8,3.8c0,2.1,1.7,3.8,3.8,3.8c2.1,0,3.8-1.7,3.8-3.8
		C58.4,51.6,56.7,49.9,54.6,49.9 M54.6,55.9c-1.3,0-2.3-1-2.3-2.3c0-1.3,1-2.3,2.3-2.3c1.3,0,2.3,1,2.3,2.3
		C56.9,54.9,55.8,55.9,54.6,55.9"/>
	<path class="st0" d="M74.8,49.9h-4.5c-0.8,0-1.5,0.7-1.5,1.5v1.4v0.1V53c0.1,0.7,0.6,1.3,1.3,1.3h0.3h3h0.9c0.3,0,0.5,0.2,0.5,0.5
		v0.5c0,0.1,0,0.2-0.1,0.3c-0.1,0.1-0.2,0.2-0.4,0.2h-4v-0.8h-1.5v0.8c0,0.8,0.7,1.5,1.5,1.5h4.5c0.8,0,1.4-0.7,1.4-1.5v-1.4v-0.1
		v-0.2c-0.1-0.7-0.6-1.3-1.3-1.3h-0.3h-2.9h-1c-0.3,0-0.5-0.2-0.5-0.5v-0.5c0-0.1,0-0.2,0.1-0.2c0.1-0.2,0.3-0.3,0.5-0.3h4v0.8h1.5
		v-0.8C76.2,50.6,75.6,49.9,74.8,49.9"/>
	<path class="st0" d="M5.3,49.9H2.2H0V52v1v2.2v2.3h2.2v-2.3h3.1c1.2,0,2.2-1,2.2-2.2v-1C7.4,50.8,6.5,49.9,5.3,49.9 M5.3,53H2.2v-1
		h3.1V53z"/>
	<polygon class="st0" points="22.7,57.4 26.1,57.4 21.8,54 25.9,49.9 22.6,49.9 20.1,52.5 19.9,52.4 19.9,49.9 17.7,49.9 17.7,57.4 
		19.9,57.4 19.9,55.9 20.3,55.5 	"/>
	<path class="st0" d="M13.6,49.9H11H8.8V52v3.2v2.2H11h2.5c1.5,0,2.7-1.2,2.7-2.7v-2.2C16.2,51.1,15,49.9,13.6,49.9 M14.1,54.1
		c0,0.6-0.5,1.1-1.1,1.1H11V52h1.9c0.6,0,1.1,0.5,1.1,1.1V54.1z"/>
</g>
</svg>
