<?xml version="1.0" encoding="utf-8"?>
<!-- Generator: Adobe Illustrator 25.4.1, SVG Export Plug-In . SVG Version: 6.00 Build 0)  -->
<!DOCTYPE svg PUBLIC "-//W3C//DTD SVG 1.1//EN" "http://www.w3.org/Graphics/SVG/1.1/DTD/svg11.dtd" [
	<!ENTITY ns_extend "http://ns.adobe.com/Extensibility/1.0/">
	<!ENTITY ns_ai "http://ns.adobe.com/AdobeIllustrator/10.0/">
	<!ENTITY ns_graphs "http://ns.adobe.com/Graphs/1.0/">
	<!ENTITY ns_vars "http://ns.adobe.com/Variables/1.0/">
	<!ENTITY ns_imrep "http://ns.adobe.com/ImageReplacement/1.0/">
	<!ENTITY ns_sfw "http://ns.adobe.com/SaveForWeb/1.0/">
	<!ENTITY ns_custom "http://ns.adobe.com/GenericCustomNamespace/1.0/">
	<!ENTITY ns_adobe_xpath "http://ns.adobe.com/XPath/1.0/">
]>
<svg version="1.1" id="Camada_1" xmlns:x="&ns_extend;" xmlns:i="&ns_ai;" xmlns:graph="&ns_graphs;"
	 xmlns="http://www.w3.org/2000/svg" xmlns:xlink="http://www.w3.org/1999/xlink" x="0px" y="0px" viewBox="0 0 63.2 52.9"
	 style="enable-background:new 0 0 63.2 52.9;" xml:space="preserve">
<style type="text/css">
	.st0{fill:#FFFFFF;}
	.st1{clip-path:url(#SVGID_00000112620125720086655410000017687504920066778799_);fill:#FFFFFF;}
	.st2{clip-path:url(#SVGID_00000178896980194559721500000011939092656866253976_);fill:#FFFFFF;}
	.st3{fill-rule:evenodd;clip-rule:evenodd;fill:#FFFFFF;}
	.st4{opacity:0.8;}
	.st5{opacity:0.4;clip-path:url(#SVGID_00000090284445023575131040000012213360671368438968_);}
	.st6{clip-path:url(#SVGID_00000098906068537385327830000009178795444093087390_);fill:#FFFFFF;}
	.st7{clip-path:url(#SVGID_00000040558500623305260610000010436270469146161330_);fill:#FFFFFF;}
	.st8{clip-path:url(#SVGID_00000063604390328047794180000000935846014378294455_);fill:#FFFFFF;}
	.st9{clip-path:url(#SVGID_00000037688984548260136670000000398550844871058600_);fill:#FFFFFF;}
	.st10{clip-path:url(#SVGID_00000144321501083277153550000008168831979383425442_);fill:#FFFFFF;}
	.st11{clip-path:url(#SVGID_00000167369725468593347450000006281758320960367243_);fill:#FFFFFF;}
	.st12{clip-path:url(#SVGID_00000072256850189331944980000007479134065852115894_);fill:#FFFFFF;}
	.st13{clip-path:url(#SVGID_00000152981862881798693200000010232405063090973621_);fill:#FFFFFF;}
</style>
<metadata>
	<sfw  xmlns="&ns_sfw;">
		<slices></slices>
		<sliceSourceBounds  bottomLeftOrigin="true" height="280.2" width="1017.9" x="-2419.2" y="3433.6"></sliceSourceBounds>
	</sfw>
</metadata>
<g>
	<path class="st0" d="M25.3,38.7l-0.4,2.9c-1.2,0-3.1-0.1-4.7-0.1c-1.2,0-1.7,0.1-1.8,0.9c-0.1,0.6,0.1,0.8,1,1.2l2.4,1.1
		c2.3,1,2.8,2.2,2.5,4.3c-0.4,3.2-1.8,3.8-5.7,3.8c-1.1,0-2.2,0-5.3,0l0.5-3.1c2.5,0.1,4.1,0.1,4.6,0.1c1.5,0,2-0.2,2.1-1
		c0.1-0.6-0.1-0.8-0.8-1.1l-2.6-1.2c-2.3-1-2.8-2.4-2.5-4.3c0.4-3.1,2.2-3.6,5.8-3.6C21.9,38.7,23.4,38.7,25.3,38.7"/>
	<path class="st0" d="M38.3,46.9c-0.6,4.4-2.2,6-6.5,6c-4.1,0-6-1.7-5.4-6.1l1.1-8.1h3.9l-1.2,8.2c-0.3,2.3,0,3,1.6,3
		c1.7,0,2.2-0.7,2.6-3.2l1.1-8.1h3.9L38.3,46.9z"/>
	<path class="st0" d="M43.8,49.6l-1.3,3.3h-4l5.7-13.2c0.2-0.6,0.8-0.9,1.4-0.9h3.5c0.6,0,1.2,0.4,1.2,1.1l2,13.1h-3.9l-0.3-3.3
		H43.8z M47.4,41.6h-0.6c-0.1,0.4-1.9,5.1-1.9,5.1h2.9C47.8,46.7,47.4,42,47.4,41.6"/>
	<path class="st0" d="M57.6,48.9c-0.1,0.6,0.1,0.9,0.8,0.9h4.8l-0.4,3.1h-6c-2,0-3.3-1.2-3-3.2l1.5-10.9h3.9L57.6,48.9z"/>
	<path class="st0" d="M12,46.9c-0.6,4.4-2.2,6-6.5,6c-4.1,0-6-1.7-5.4-6.1l1.1-8.1h3.9l-1.2,8.2c-0.3,2.3,0,3,1.6,3
		c1.7,0,2.2-0.7,2.6-3.2l1.1-8.1h3.9L12,46.9z"/>
	<path class="st0" d="M37.6,21.7C37.6,21.7,37.5,21.7,37.6,21.7C37,22,36.5,22.4,36,22.7c-2.8,1.7-5.3,2.4-7.9,2.4
		c-1,0-1.9-0.1-2.8-0.4h0c0,0-0.1,0-0.1,0.1v5.5c0,0,0,0.1,0.1,0.1c0.3,0,0.5,0.1,0.8,0.1c2.6,0,5.6-1.8,8.9-5.1
		C35.9,24.2,36.8,23,37.6,21.7C37.6,21.7,37.6,21.7,37.6,21.7L37.6,21.7"/>
	<path class="st0" d="M42.1,3.1c-1.6-2-4.2-3.1-7.3-3.1c-3.4,0-7.2,1.4-10.2,4c-1.6,1.3-3,2.9-4.1,4.7c0,0,0,0.1,0,0.1c0,0,0,0,0,0
		c0,0,0,0,0.1,0c0.8-1.1,1.8-2.1,2.8-2.9c2.8-2.3,6.2-3.6,9.3-3.6c2.6,0,4.9,1,6.3,2.7c1.5,1.9,2,4.4,1.3,7.2c0,0,0,0,0,0.1
		c0,0,0,0,0.1,0h3c0,0,0.1,0,0.1,0C44.4,8.7,44,5.4,42.1,3.1"/>
	<path class="st0" d="M34.3,22.3L34.3,22.3c0.6-0.3,1.2-0.6,1.8-1c0,0,0-0.1,0-0.1c0,0,0,0-0.1,0h-2.8c0,0,0,0,0,0
		c-0.5,0.3-1,0.6-1.6,0.8c-0.1,0-0.2,0.1-0.3,0.1l0,0c0,0,0,0,0,0.1c0,0,0,0,0.1,0L34.3,22.3z"/>
	<path class="st0" d="M41.1,16.5h-2.8c0,0,0,0-0.1,0c-0.4,0.6-0.9,1.2-1.4,1.7c0,0,0,0.1,0,0.1c0,0,0,0,0,0h2.8c0,0,0,0,0,0
		C40.2,17.8,40.7,17.2,41.1,16.5C41.1,16.6,41.1,16.6,41.1,16.5C41.1,16.5,41.1,16.5,41.1,16.5"/>
	<path class="st0" d="M37.1,7.2c-0.3-0.4-0.6-0.7-0.9-1c0,0-0.1,0-0.1,0c0,0,0,0.1,0,0.1c1,1.3,1.3,3,0.7,4.9
		c-0.5,1.9-1.9,3.8-3.7,5.3c-2,1.6-4.3,2.5-6.5,2.5c-1.7,0-3.2-0.6-4.1-1.7c-1-1.2-1.3-3-0.7-4.9c0.6-1.9,1.9-3.8,3.7-5.3
		c1.3-1.1,2.8-1.8,4.4-2.2c0,0,0,0,0.1-0.1c0,0,0-0.1-0.1-0.1h0c-2,0.3-3.9,1.1-5.5,2.3c-4.6,3.3-6.4,8.8-3.9,12.1
		c1.2,1.7,3.2,2.6,5.7,2.6c2.4,0,4.9-0.9,7.1-2.4C37.8,16.1,39.5,10.6,37.1,7.2"/>
	<path class="st0" d="M32.3,23.1H29c-1.1,0.3-1.8,0.4-2.6,0.4c-0.4,0-0.7,0-1.1-0.1h0c0,0-0.1,0-0.1,0.1c0,0,0,0.1,0.1,0.1
		c0.9,0.3,1.9,0.4,2.9,0.5c1.2,0,2.6-0.3,4.2-0.8C32.3,23.2,32.3,23.2,32.3,23.1C32.3,23.1,32.3,23.1,32.3,23.1"/>
	<path class="st0" d="M38.8,19.1H36c0,0,0,0,0,0c-0.3,0.3-0.6,0.5-0.9,0.8L35,20c-0.2,0.1-0.4,0.3-0.5,0.4c0,0,0,0,0,0.1
		c0,0,0,0,0.1,0h2.8c0,0,0,0,0,0c0.1-0.1,0.3-0.2,0.4-0.3l0.2-0.1c0.3-0.3,0.6-0.6,1-0.9C38.8,19.2,38.8,19.2,38.8,19.1
		C38.8,19.2,38.8,19.1,38.8,19.1"/>
	<path class="st0" d="M43,12.9h-3c0,0-0.1,0-0.1,0l0,0.1c0,0.1-0.1,0.2-0.1,0.2c-0.3,0.8-0.7,1.6-1.1,2.4c0,0,0,0.1,0,0.1
		c0,0,0,0,0,0h2.8c0,0,0,0,0.1,0C42.2,14.9,42.7,14,43,12.9C43.1,13,43.1,13,43,12.9C43.1,13,43,12.9,43,12.9"/>
</g>
</svg>
