<?xml version="1.0" encoding="utf-8"?>
<!-- Generator: Adobe Illustrator 25.4.1, SVG Export Plug-In . SVG Version: 6.00 Build 0)  -->
<!DOCTYPE svg PUBLIC "-//W3C//DTD SVG 1.1//EN" "http://www.w3.org/Graphics/SVG/1.1/DTD/svg11.dtd" [
	<!ENTITY ns_extend "http://ns.adobe.com/Extensibility/1.0/">
	<!ENTITY ns_ai "http://ns.adobe.com/AdobeIllustrator/10.0/">
	<!ENTITY ns_graphs "http://ns.adobe.com/Graphs/1.0/">
	<!ENTITY ns_vars "http://ns.adobe.com/Variables/1.0/">
	<!ENTITY ns_imrep "http://ns.adobe.com/ImageReplacement/1.0/">
	<!ENTITY ns_sfw "http://ns.adobe.com/SaveForWeb/1.0/">
	<!ENTITY ns_custom "http://ns.adobe.com/GenericCustomNamespace/1.0/">
	<!ENTITY ns_adobe_xpath "http://ns.adobe.com/XPath/1.0/">
]>
<svg version="1.1" id="Camada_1" xmlns:x="&ns_extend;" xmlns:i="&ns_ai;" xmlns:graph="&ns_graphs;"
	 xmlns="http://www.w3.org/2000/svg" xmlns:xlink="http://www.w3.org/1999/xlink" x="0px" y="0px" viewBox="0 0 51.9 63.9"
	 style="enable-background:new 0 0 51.9 63.9;" xml:space="preserve">
<style type="text/css">
	.st0{fill:#FFFFFF;}
	.st1{clip-path:url(#SVGID_00000051346123102179912060000009694118362701586353_);fill:#FFFFFF;}
	.st2{clip-path:url(#SVGID_00000087377432360721052920000009806623952497002886_);fill:#FFFFFF;}
	.st3{fill-rule:evenodd;clip-rule:evenodd;fill:#FFFFFF;}
	.st4{opacity:0.8;}
	.st5{opacity:0.4;clip-path:url(#SVGID_00000132772055266355609700000002935437178938372225_);}
	.st6{clip-path:url(#SVGID_00000179634926762461042210000000714679677806695312_);fill:#FFFFFF;}
	.st7{clip-path:url(#SVGID_00000050637086381011956220000003897140991994377374_);fill:#FFFFFF;}
	.st8{clip-path:url(#SVGID_00000011713326034925922820000010197914719554223506_);fill:#FFFFFF;}
	.st9{clip-path:url(#SVGID_00000160870637938565245400000011965206445793123226_);fill:#FFFFFF;}
	.st10{clip-path:url(#SVGID_00000032621883627835207530000000396927012445923506_);fill:#FFFFFF;}
	.st11{clip-path:url(#SVGID_00000125601462286163974780000015316782920118846900_);fill:#FFFFFF;}
	.st12{clip-path:url(#SVGID_00000176724426684094175830000002324072368281266821_);fill:#FFFFFF;}
	.st13{clip-path:url(#SVGID_00000143606291227261913660000015033603751665044879_);fill:#FFFFFF;}
</style>
<metadata>
	<sfw  xmlns="&ns_sfw;">
		<slices></slices>
		<sliceSourceBounds  bottomLeftOrigin="true" height="280.2" width="1017.9" x="-2419.2" y="3433.6"></sliceSourceBounds>
	</sfw>
</metadata>
<g>
	<path class="st0" d="M36.8,12.1v0.4c0,5,0,10.1,0,15.1c0,3.2-1,6-3.3,8.4c-2.3,2.5-5.2,3.7-8.6,3.6c-5.5-0.1-10.3-4.2-11.2-9.6
		c-0.1-0.8-0.2-1.6-0.2-2.3c0-5.1,0-10.2,0-15.3v-0.4c-0.2,0.1-0.3,0.2-0.5,0.2c-0.2,0.1-0.4,0.1-0.6,0c-0.2-0.1-0.2-0.4-0.2-0.6
		c0.1-0.4-0.1-0.6-0.3-0.9c-0.1-0.1-0.1-0.3-0.1-0.4c0-0.1,0-0.3,0-0.4c-0.4-1-0.9-2-1.3-3c-0.1-0.1-0.2-0.2-0.3-0.3
		C9.9,6.5,9.9,6.2,10,5.8C9.3,5.6,9.1,4.9,8.9,4.4C8.8,4.3,8.9,4.1,9,4c0.2-0.1,0.4-0.2,0.6-0.3c0.2-0.1,0.3-0.1,0.5,0.1
		c0,0,0,0.1,0,0.1c0.1,0.1,0.2,0.2,0.2,0.2c0-0.1,0-0.2,0-0.3c-0.1-0.3,0-0.5,0.3-0.6c0.2-0.1,0.4-0.2,0.6-0.3
		c0.2-0.1,0.3,0,0.4,0.2c0.1,0.4,0.2,0.9,0.2,1.3c0,0.2-0.1,0.3-0.1,0.4c0.1,0.1,0.4,0.2,0.4,0.4c0.1,0.2,0,0.4,0,0.7
		c0.1-0.1,0.3-0.1,0.4-0.2C13,5.6,13,5.6,13.2,6c0,0,0,0.1,0.1,0.1c0.1,0,0.1,0,0.2-0.1c0.1,0,0.1-0.1,0.2-0.1c0,0,0-0.1,0-0.1
		c-0.1-0.5-0.1-0.5,0.3-0.7c0.2-0.1,0.4-0.1,0.6-0.2c0.2-0.1,0.4,0,0.4,0.2c0,0.1,0.1,0.2,0.3,0.2c0.2-0.1,0.2-0.2,0.2-0.3
		c-0.1-0.2,0-0.4,0.3-0.4c0.2,0,0.4-0.1,0.6-0.2c-0.2-0.2-0.4-0.3-0.4-0.5c-0.1-0.2,0-0.4,0.1-0.6c0,0-0.1,0-0.1,0
		c-0.3,0.1-0.4,0-0.6-0.2c-0.2-0.4-0.4-0.7-0.6-1.1c-0.1-0.2-0.1-0.4,0.2-0.4c0.2-0.1,0.5-0.1,0.7-0.2c0.3-0.1,0.5,0,0.6,0.3
		c0,0.1,0.1,0.2,0.2,0.3c0,0,0.1,0,0.1,0c0-0.1,0-0.3,0-0.4c0-0.3,0.1-0.4,0.4-0.4c0,0,0.1,0,0.1,0c0.5-0.1,0.5-0.1,0.7,0.3
		c0,0.1,0.1,0.1,0.1,0.2c0,0,0.1,0,0.1,0c0-0.1,0-0.3,0-0.4c0-0.3,0.1-0.4,0.4-0.5c0.2,0,0.5-0.1,0.7-0.2c0.2,0,0.4,0.1,0.3,0.3
		c0,0.4,0,0.8-0.1,1.3c0,0.3-0.2,0.5-0.5,0.5C19.3,3,19.3,3.1,19,3.8c0.2,0,0.4-0.1,0.6-0.1c0.6-0.1,0.6-0.1,0.8,0.4
		c0.1,0,0.3,0,0.4-0.1c0-0.1,0-0.1,0-0.2c-0.1-0.3,0.1-0.4,0.3-0.4c0.2,0,0.5,0,0.7-0.1c0.2,0,0.4,0.1,0.4,0.3
		c0,0.1,0.1,0.2,0.2,0.2c0.2,0,0.3,0,0.2-0.2c0-0.3,0.1-0.4,0.4-0.4c0.3,0,0.5,0,0.7,0c-0.1-0.2-0.3-0.4-0.3-0.6
		c0-0.2,0.1-0.4,0.2-0.6C23.2,2,23.1,1.6,23,1.2c-0.1-0.3-0.2-0.6-0.2-0.8c-0.1-0.3,0-0.4,0.3-0.4c0.2,0,0.5,0,0.7,0
		c0.2,0,0.4,0.1,0.4,0.3c0,0.1,0.1,0.3,0.1,0.4l0.1,0c0-0.1,0.1-0.3,0.1-0.4C24.6,0.1,24.7,0,25,0C25,0,25,0,25,0
		c0.6,0,0.6-0.1,0.7,0.5c0,0.1,0.1,0.1,0.1,0.3C26,0.6,26,0.5,26.1,0.3C26.1,0.1,26.2,0,26.5,0c0.2,0,0.5,0,0.7,0
		c0.2,0,0.3,0.1,0.3,0.3c-0.1,0.4-0.2,0.9-0.4,1.3c-0.1,0.2-0.3,0.3-0.5,0.4c0.3,0.4,0.3,0.6-0.2,1.1c0.3,0,0.5,0,0.8,0
		c0.3,0,0.5,0.1,0.4,0.4c0,0.2,0.1,0.2,0.2,0.2c0.1,0,0.2,0,0.2-0.2c0-0.3,0.2-0.4,0.5-0.3c0.2,0,0.5,0.1,0.7,0.1
		c0.2,0,0.4,0.1,0.3,0.4c0,0.1,0,0.2,0.2,0.3c0.2,0,0.3,0,0.3-0.2c0-0.3,0.2-0.3,0.4-0.3c0.3,0.1,0.5,0.1,0.8,0.2
		C31,3.1,31,3,31.5,2.6C31,2.5,31,2.1,31,1.8c0-0.3,0-0.6,0-0.9c0-0.3,0.1-0.4,0.4-0.3c0.1,0,0.2,0,0.4,0.1c0.6,0.1,0.6,0.1,0.7,0.7
		c0,0,0,0.1,0,0.1c0,0,0,0,0.1,0.1c0.2-0.3,0.3-0.7,0.9-0.6c0.6,0.1,0.5,0.6,0.5,0.9c0,0,0.1,0,0.1,0c0.1-0.1,0.2-0.3,0.2-0.4
		c0.1-0.2,0.2-0.3,0.4-0.2c0.2,0.1,0.5,0.1,0.8,0.2c0.3,0.1,0.3,0.2,0.2,0.4C35.4,2.3,35.2,2.7,35,3c-0.2,0.3-0.4,0.3-0.7,0.2
		c0.3,0.6,0.2,0.8-0.3,1.1c0.2,0.1,0.3,0.1,0.5,0.1c0.6,0.1,0.6,0.1,0.5,0.7c0.1,0,0.2,0.1,0.4,0.1c0.3-0.5,0.3-0.5,0.9-0.3
		c0.1,0,0.2,0.1,0.3,0.1c0.4,0.2,0.4,0.1,0.3,0.6c-0.1,0.3,0.2,0.2,0.3,0.3c0.2-0.1,0.2-0.5,0.6-0.4c0.2,0.1,0.4,0.2,0.6,0.3
		c0-0.2-0.1-0.5,0-0.6c0.1-0.2,0.3-0.3,0.5-0.4c-0.2-0.2-0.2-0.4-0.1-0.7c0.1-0.3,0.1-0.7,0.2-1c0-0.2,0.2-0.3,0.4-0.2
		c0.2,0.1,0.4,0.2,0.6,0.3c0.2,0.1,0.3,0.2,0.3,0.5c0,0.1,0,0.1,0,0.2c0,0.1,0,0.1,0.1,0.2c0.1,0,0.1-0.1,0.2-0.1
		c0.1-0.1,0.1-0.2,0.1-0.2c0.1-0.1,0.2-0.1,0.3-0.1c0.2,0.1,0.5,0.2,0.7,0.4c0.1,0.1,0.2,0.3,0.1,0.4c-0.1,0.3-0.3,0.7-0.5,1
		c-0.1,0.2-0.4,0.3-0.6,0.4c0,0,0,0.1,0,0.1c0.1,0.3,0,0.6-0.3,0.7c-0.1,0-0.2,0.1-0.3,0.2c-0.5,1.1-1,2.1-1.4,3.2
		c-0.1,0.3-0.4,0.6-0.5,0.9c0,0.1,0,0.2,0,0.3c0,0.1,0,0.2,0.1,0.3c0,0.2,0,0.4-0.2,0.6c-0.2,0.1-0.4,0.1-0.6,0
		C37,12.1,36.9,12.1,36.8,12.1 M35.9,11.7c-2.3-1.1-4.7-1.9-7.2-2.3c-2.5-0.4-5-0.4-7.5,0c-2.5,0.4-6.6,1.7-7.1,2.3H35.9z
		 M18.4,19.5C18.4,19.6,18.3,19.6,18.4,19.5c0,0.1,0,0.2,0,0.2c0.5,0.5,1.1,0.9,1.8,1.1c1.5,0.3,2.8,0,4.1-0.7
		c0.1-0.1,0.2-0.1,0.4-0.2c0,0.2,0,0.3,0,0.4c0,1.1,0,2.2,0,3.3c0,2.5,0,5,0,7.6c0,0.5,0,0.9,0,1.4c0,0.6-0.4,0.9-1,0.8
		c-0.6-0.1-1.3-0.1-1.9,0.2c-0.2,0.1-0.4,0.1-0.6,0.1c-0.1,0-0.1,0-0.2,0l0,0.1c0.1,0,0.2,0.1,0.3,0.1c0.2,0,0.5-0.1,0.7-0.1
		c0.5-0.2,1.1-0.3,1.6-0.1c0.1,0,0.2,0,0.3,0c0.3-0.1,0.5-0.2,0.8-0.3c0,0.1,0,0.1-0.1,0.1c-0.3,0.1-0.5,0.2-0.8,0.2
		c-0.1,0-0.2,0-0.2,0c-0.4-0.2-0.9-0.1-1.3,0c-0.1,0-0.1,0.1-0.1,0.1c0.1,0.1,0.3,0.1,0.4,0c0.4-0.1,0.8-0.1,1.2,0.2
		c0.1,0,0.2,0.1,0.2,0.1c0.3,0,0.6,0,0.8-0.1c0.3-0.1,0.4,0,0.4,0.3c0.1,0.4,0.1,0.5,0.5,0.6c0.3,0.1,0.5,0.2,0.7,0.3
		c0.1,0,0.1,0.1,0.2,0.1c0,0,0-0.1,0.1-0.1c-0.1-0.1-0.3-0.3-0.4-0.4c-0.5-0.3-0.8-0.8-0.9-1.4c0.1,0.3,0.3,0.5,0.4,0.8
		c0,0,0.1-0.1,0.1-0.1c0.3-0.3,0.6-0.5,1.1-0.4c0.3,0.1,0.6,0.1,0.9,0.2c0.5,0.1,1,0.1,1.5-0.1c0.1-0.1,0.2-0.1,0.3-0.2
		c-0.1-0.1-0.1-0.1-0.1-0.1c0,0-0.1,0-0.1,0c-0.5,0.1-0.9,0.1-1.4,0c-0.7-0.1-1.4-0.4-2.1-0.2c0,0-0.1,0-0.1,0c0,0,0,0-0.1-0.1
		c0.1,0,0.1,0,0.1,0c0,0,0.1,0,0.1-0.1l-0.1,0c-0.2-4.5-0.3-8.9-0.4-13.4c1.2,0.9,1.9,1.2,2.9,1.2c1.1,0,2.6-0.6,2.8-1.1
		c-0.2,0.1-0.4,0.2-0.5,0.3c-1.3,0.9-2.6,0.9-4,0.4c-0.3-0.1-0.6-0.3-0.9-0.5l0-0.1c0.6,0.3,1.3,0.4,1.9,0.3
		c0.7-0.1,1.3-0.3,1.7-0.8c-0.4,0.1-0.8,0.3-1.3,0.4c-0.4,0.1-0.9,0.1-1.4,0.1c-0.4,0-0.9-0.2-1.3-0.3c0.4,0,0.7,0.1,1.1,0.1
		c0.4,0,0.7-0.1,0.9-0.5c-0.1,0-0.1,0-0.2,0c-0.1,0.1-0.3,0.1-0.4,0.2c-0.4,0.1-0.8,0.1-1.2,0c-0.4-0.1-0.5-0.1-0.5,0.3
		c0,0.3,0,0.6,0,0.9c0,0.4,0,0.9,0,1.3c-0.1-0.8,0-1.5-0.1-2.3c0-0.1-0.1-0.3-0.2-0.3C25,19,24.8,18.8,24.6,19
		c-0.6,0.5-1.3,0.7-2.1,0.8c-0.8,0.1-1.5,0.1-2.1-0.5c-0.1-0.1-0.2-0.1-0.2-0.1c0,0.1,0,0.2,0.1,0.2c0.5,0.6,1.1,0.7,1.8,0.6
		c0.8,0,1.5-0.3,2.2-0.6c0.1-0.1,0.3-0.1,0.4-0.2c-0.1,0.1-0.2,0.2-0.3,0.3c-0.7,0.5-1.5,0.8-2.4,0.9c-1.2,0.2-2.4,0.1-3.3-0.9
		C18.7,19.6,18.5,19.6,18.4,19.5 M25.1,8.5c-1.7,0-3.5,0.2-5.2,0.5c-2.5,0.5-4.8,1.4-7.1,2.6c-0.1,0.1-0.2,0.2-0.2,0.3
		c0.1,0.2,0.2,0.1,0.4,0c0.7-0.3,1.4-0.7,2.1-1c4.1-1.7,8.3-2.3,12.6-1.9c3.3,0.4,6.4,1.3,9.4,2.9c0.1,0,0.2,0,0.3,0
		c-0.1-0.1-0.1-0.2-0.2-0.3c-0.5-0.3-1-0.5-1.5-0.8C32.4,9.3,28.8,8.5,25.1,8.5 M12.7,11.4c3.9-2.1,8-3.1,12.4-3.1
		c4.4,0,8.5,1.1,12.3,3.1c0-0.3-0.3-0.5-0.5-0.6c-3.3-1.6-6.7-2.6-10.3-2.8c-3-0.2-6,0.2-8.9,1c-1.6,0.5-3.1,1.1-4.6,1.9
		C12.8,11,12.7,11.2,12.7,11.4 M12.3,10.4c0,0.1,0,0.1,0,0.2c0.1,0,0.3-0.1,0.4-0.1c0.5-0.2,1-0.5,1.6-0.7c2.8-1.2,5.8-2,8.9-2.2
		c3.1-0.2,6.2,0.1,9.2,1c1.7,0.5,3.3,1.1,4.8,1.9c0.2,0.1,0.4,0.1,0.6-0.1c-3.9-2-7.9-3.1-12.2-3.1C20.9,7.1,16.4,8.1,12.3,10.4
		 M37.5,10.8L37.5,10.8c-0.1-0.1-0.2-0.2-0.3-0.3c-2-1-4.1-1.8-6.4-2.3c-3.3-0.8-6.7-0.9-10.1-0.3c-2.8,0.5-5.4,1.3-8,2.6
		c-0.1,0.1-0.3,0.3-0.3,0.3c0.1,0.2,0.3,0,0.4,0c2.6-1.4,5.4-2.3,8.4-2.7c2.9-0.4,5.7-0.4,8.6,0.2c2.4,0.5,4.8,1.3,7,2.4
		c0.1,0.1,0.2,0.1,0.4,0.2C37.3,10.9,37.4,10.8,37.5,10.8 M26.3,3.5c0.1,0.3,0.1,0.6,0.2,0.9c0,0.1,0.1,0.1,0.2,0.1
		c1.4,0.2,2.7,0.3,4.1,0.5c0.1,0,0.2,0,0.2-0.1c0.1-0.3,0.3-0.6,0.4-0.9C31,4,30.7,4,30.4,3.9c-0.2,0.6-0.2,0.6-0.8,0.4
		c0,0-0.1,0-0.1,0c-0.3,0-0.4-0.1-0.3-0.4c0-0.1-0.1-0.2-0.1-0.2c-0.2,0-0.4,0-0.7,0c0,0,0,0,0,0.1c0,0.4-0.2,0.4-0.5,0.4
		c-0.1,0-0.1,0-0.2,0c-0.3,0-0.4-0.1-0.4-0.4c0-0.1-0.1-0.2-0.1-0.2C26.9,3.5,26.6,3.5,26.3,3.5 M24,3.5c-0.3,0-0.5,0-0.7,0
		c-0.2,0-0.2,0.1-0.3,0.3c0,0.1,0,0.3-0.1,0.3c-0.3,0.1-0.6,0.1-0.9,0.1c-0.1,0-0.1-0.3-0.2-0.4c0,0,0,0,0-0.1c-0.1,0-0.3,0-0.5,0
		c-0.2,0-0.3,0.1-0.3,0.3c0,0.1,0.1,0.3-0.2,0.3c-0.2,0-0.5,0.1-0.7,0.1c-0.1,0-0.2-0.1-0.2-0.1c0-0.4-0.3-0.4-0.5-0.3
		c-0.2,0.1-0.3,0.1-0.6,0.1c0.1,0.3,0.2,0.6,0.3,0.8c0.1,0.1,0.1,0.2,0.3,0.2c1.3-0.2,2.7-0.3,4-0.5c0.1,0,0.2-0.1,0.2-0.1
		C23.9,4.2,23.9,3.9,24,3.5 M18.9,19.5c0.2-0.1,0.4-0.2,0.7-0.3c0.2-0.1,0.4-0.2,0.3-0.4c-0.1-0.1-0.3-0.2-0.4-0.3
		c-0.2-0.1-0.4-0.1-0.5-0.2c-0.3-0.1-0.5-0.3-0.8-0.3c-0.2,0-0.4,0.1-0.6,0.1c-0.1,0-0.2,0.1-0.3,0.1c-0.3,0.1-0.5,0.1-0.8,0.3
		c-0.1,0-0.2,0.2-0.2,0.2c0,0.1,0.1,0.2,0.2,0.3c0.1,0.1,0.2,0.1,0.3,0.2c0.1,0.1,0.3,0.2,0.5,0.1c0.2-0.1,0.4-0.1,0.6-0.1
		C18.1,19.3,18.5,19.4,18.9,19.5 M35.3,1.8c-0.1,0-0.2-0.1-0.3-0.1c-0.4-0.1-0.4-0.1-0.6,0.3c-0.1,0.2-0.2,0.3-0.5,0.2
		c-0.2-0.1-0.3-0.2-0.3-0.4c0-0.1,0.1-0.3-0.1-0.4c-0.3-0.1-0.4,0-0.5,0.2C32.7,2,32.6,2,32.2,1.8C32,1.8,32,1.6,32,1.4
		c0-0.1,0-0.3-0.1-0.4c-0.2-0.1-0.4-0.1-0.6-0.2c0,0.4,0,0.8,0.1,1.2c0,0.1,0.1,0.2,0.2,0.2c0.9,0.2,1.9,0.5,2.8,0.7
		c0.1,0,0.3,0,0.3-0.1C34.9,2.5,35.1,2.2,35.3,1.8 M19,0.9c-0.6,0-0.8,0.1-0.8,0.5c0,0.4-0.2,0.4-0.5,0.4c-0.3,0.1-0.3-0.1-0.4-0.3
		c0-0.1,0-0.1-0.1-0.2c-0.1-0.1-0.2-0.1-0.2-0.1c-0.3,0-0.4,0.2-0.3,0.4c0.1,0.3-0.1,0.4-0.4,0.5C16.1,2.3,16.1,2.1,16,2
		c-0.1-0.1-0.2-0.3-0.3-0.3c-0.2,0-0.4,0.1-0.6,0.2c0.2,0.4,0.4,0.7,0.6,1c0,0.1,0.2,0.1,0.2,0.1c1-0.2,1.9-0.5,2.9-0.7
		C18.8,2.2,19,2.1,19,2C19,1.7,19,1.3,19,0.9 M33.7,4.7c0,0.2,0,0.4-0.1,0.5c0,0.5,0,0.5,0.4,0.7c1.1,0.4,2.1,0.8,3.2,1.2
		c0.1,0,0.2,0,0.3,0c0.2-0.2,0.4-0.5,0.6-0.8c-0.3-0.1-0.5-0.2-0.7-0.3c-0.3,0.5-0.3,0.5-0.8,0.3c-0.2-0.1-0.4-0.1-0.5-0.3
		c-0.1-0.1,0.1-0.3,0.1-0.5c-0.2-0.1-0.5-0.2-0.7-0.3c-0.2,0.2-0.1,0.5-0.5,0.4c-0.7-0.2-0.7-0.2-0.7-0.8C34.2,4.8,34,4.8,33.7,4.7
		 M12.2,6.3c0.2,0.3,0.4,0.5,0.5,0.7c0.1,0.2,0.2,0.2,0.4,0.1c1.1-0.4,2.3-0.9,3.4-1.3c0.1,0,0.2-0.1,0.2-0.2c0-0.3,0-0.6,0-1
		c-0.2,0-0.4,0.1-0.5,0.1c-0.3,0-0.3,0.1-0.2,0.4c0.1,0.2,0,0.3-0.2,0.3c-0.1,0-0.2,0-0.2,0.1C15,5.8,15,5.8,14.7,5.3c0,0,0,0-0.1,0
		c-0.1,0-0.2,0.1-0.3,0.1c-0.1,0-0.2,0.1-0.3,0.1c0.2,0.6,0.3,0.5-0.3,0.7c-0.5,0.2-0.5,0.2-0.9-0.2c-0.1,0-0.1,0-0.2,0.1
		C12.5,6.2,12.4,6.2,12.2,6.3 M27.1,0.4c-0.7-0.1-0.7-0.1-0.9,0.5C26.2,1,26.1,1.1,26,1.1c-0.4,0-0.4,0-0.5-0.4
		c0-0.2-0.1-0.3-0.3-0.3c-0.3,0-0.3,0.2-0.3,0.3c-0.1,0.4-0.1,0.4-0.5,0.4C24,1.1,24,0.9,24,0.7c0-0.1-0.1-0.3-0.2-0.3
		c-0.2,0-0.4,0-0.7,0c0.1,0.4,0.2,0.8,0.3,1.1c0,0.1,0.2,0.2,0.3,0.2c0.9,0,1.9,0,2.8,0c0.1,0,0.2-0.1,0.3-0.2
		C26.9,1.1,27,0.7,27.1,0.4 M20.8,18.1c0,0,0,0.1,0,0.1c0.3-0.1,0.5-0.3,0.8-0.4c0.1-0.1,0.3-0.2,0.3-0.2c-0.1-0.1-0.2-0.3-0.3-0.4
		c-0.1-0.1-0.2-0.1-0.4-0.2c-0.4-0.1-0.9-0.4-1.3-0.2c-0.4,0.2-0.8,0.3-1.2,0.5c-0.1,0-0.2,0.3-0.1,0.4c0.1,0.1,0.3,0.3,0.4,0.3
		c0.4,0.1,0.8,0.1,1.1,0.2c0.1,0,0.2,0,0.3,0C20.6,18.2,20.7,18.1,20.8,18.1 M23,19.1L23,19.1c0.3,0,0.6-0.1,0.9-0.2
		c0.2-0.1,0.2-0.2,0.1-0.3c-0.2-0.2-0.4-0.4-0.7-0.6c0,0-0.1-0.1-0.2-0.1c-0.5-0.2-1,0.1-1.4,0.2c-0.3,0.1-0.7,0.2-1,0.3
		c-0.1,0-0.2,0.2-0.3,0.2c0.1,0.1,0.2,0.2,0.3,0.3c0.2,0.1,0.4,0.1,0.7,0.1C21.9,19.1,22.5,19.1,23,19.1 M26.3,18.9
		C26.3,18.9,26.3,18.9,26.3,18.9c0.2,0,0.3-0.1,0.5-0.1c0.2-0.1,0.2-0.2,0.2-0.4c-0.1-0.3-0.2-0.4-0.5-0.5c-0.1,0-0.3-0.1-0.4-0.2
		c-0.3-0.2-0.6-0.3-0.9-0.1c-0.4,0.1-0.8,0.2-1.2,0.4c-0.1,0-0.2,0.1-0.2,0.2c0,0.1,0.1,0.2,0.2,0.2c0,0,0.1,0.1,0.2,0.1
		c0.5,0.2,0.9,0.3,1.4,0.5c0.1,0,0.2,0,0.2,0C26,18.9,26.1,18.9,26.3,18.9 M23.8,16.1c-0.2,0.1-0.3,0.2-0.5,0.2
		c-0.2,0.1-0.5,0.2-0.8,0.3c-0.2,0.1-0.4,0.1-0.6,0.2c0,0-0.1,0.2-0.1,0.2c0.2,0.3,0.5,0.5,0.9,0.3c0.1,0,0.2,0,0.3,0
		c0.6,0,1.2,0.3,1.8,0c0.1-0.1,0.3-0.2,0.3-0.3c0-0.1-0.1-0.2-0.2-0.3c0,0-0.1-0.1-0.1-0.1C24.5,16.4,24.2,16.2,23.8,16.1
		 M26.3,16.2C26.3,16.2,26.3,16.2,26.3,16.2c0.3,0,0.5-0.1,0.7-0.1c0.1,0,0.2-0.1,0.2-0.2c-0.1-0.1-0.2-0.1-0.3-0.2
		c-0.3-0.1-0.5-0.3-0.8-0.4c-0.4-0.1-0.8-0.2-1.2-0.2c-0.4,0-0.8,0.2-1.2,0.3c-0.1,0-0.2,0.1-0.2,0.2c0,0.1,0,0.2,0.1,0.2
		c0.3,0.1,0.6,0.2,0.9,0.3c0.5,0.1,1,0.3,1.5,0C26.2,16.1,26.2,16.2,26.3,16.2 M19.2,5.2c-0.2-0.5-0.4-1-0.7-1.5
		c-0.6,0.2-1.2,0.3-1.8,0.4c0,0.6,0.1,1.1,0.1,1.7c0.4-0.2,0.8-0.1,1-0.5c0-0.1,0.3-0.1,0.3,0C18.5,5.5,18.8,5.2,19.2,5.2 M26.3,4.6
		c-0.1-0.5-0.2-1-0.3-1.5c0-0.1-0.1-0.1-0.2-0.1c-0.5,0-0.9,0-1.4,0c-0.1,0-0.2,0.1-0.2,0.1c-0.1,0.5-0.2,1-0.3,1.5
		c0.4,0,0.8,0.1,1-0.3c0.1-0.2,0.3-0.1,0.4,0C25.6,4.7,26,4.6,26.3,4.6 M31.1,5.2c0.4,0.1,0.7,0.3,1.1,0c0.1,0,0.3,0,0.3,0.1
		c0.2,0.4,0.6,0.3,1,0.5c0-0.5,0.1-1,0.1-1.5c0-0.1-0.1-0.2-0.1-0.2c-0.5-0.1-1-0.3-1.5-0.4c-0.1,0-0.2,0.1-0.2,0.1
		C31.5,4.2,31.3,4.7,31.1,5.2 M28.1,17.5c0.3,0,0.5,0,0.7-0.3c0.1-0.1,0.2-0.2,0.2-0.3c-0.1-0.1-0.2-0.2-0.3-0.2
		c-0.3-0.1-0.5-0.2-0.8-0.2c-0.1,0-0.3-0.1-0.4-0.1c-0.4,0.1-0.9,0.1-1.3,0.3c-0.3,0.2-0.4,0.2,0,0.4c0,0,0.1,0.1,0.1,0.1
		c0.2,0.2,1.3,0.6,1.6,0.5c0.1,0,0.1,0,0.2-0.1C27.9,17.5,28,17.5,28.1,17.5 M29.6,19.1c0.3-0.1,0.6-0.2,0.9-0.3
		c0.1-0.1,0.2-0.2,0-0.3c-0.4-0.2-0.8-0.4-1.3-0.5c-0.4-0.1-0.8,0-1.3,0c0,0-0.1,0-0.1,0.1c-0.1,0-0.2,0.1-0.3,0.1
		c-0.2,0-0.3,0.1-0.2,0.3c0.1,0.3,0.4,0.5,0.7,0.5C28.6,19,29.1,19,29.6,19.1 M33.6,19.5c0.1,0,0.2,0,0.4-0.1c0.1,0,0.1-0.1,0.1-0.2
		c0,0,0-0.1-0.1-0.1c-0.2-0.1-0.4-0.1-0.6-0.2c-0.3-0.1-0.5-0.1-0.7-0.2c-0.6-0.4-1.2-0.2-1.7,0.1c-0.1,0.1-0.2,0.2-0.1,0.3
		c0.2,0.2,0.5,0.5,0.9,0.3c0.1,0,0.1,0,0.2,0c0.3,0,0.6,0.1,0.8,0.1C33,19.5,33.3,19.5,33.6,19.5 M9.8,4C9.6,4.1,9.5,4.2,9.3,4.3
		c-0.1,0-0.1,0.2-0.1,0.2C9.4,4.7,9.5,5,9.7,5.2c0.1,0.2,0.2,0.2,0.4,0.1c0.4-0.2,0.9-0.4,1.3-0.7c0.1,0,0.2-0.2,0.1-0.2
		c0-0.4-0.1-0.7-0.2-1.2c-0.1,0.1-0.3,0.1-0.4,0.2c-0.2,0.1-0.3,0.2-0.2,0.5c0,0.1,0.1,0.3,0,0.4c-0.1,0.1-0.3,0.2-0.5,0.3
		c0,0-0.2-0.2-0.2-0.3C9.9,4.2,9.9,4.1,9.8,4 M41.1,4.3c-0.2-0.1-0.3-0.2-0.5-0.3c0,0-0.1,0-0.2-0.1c-0.1,0.2-0.2,0.3-0.3,0.4
		c0,0.1-0.1,0.1-0.2,0.1c-0.4-0.1-0.5-0.3-0.5-0.7c0-0.1,0-0.3,0-0.3c-0.2-0.1-0.4-0.2-0.6-0.3c-0.1,0.4-0.1,0.7-0.2,1
		c-0.1,0.2,0,0.3,0.2,0.4c0.4,0.2,0.8,0.4,1.2,0.6c0.2,0.1,0.4,0.1,0.5-0.1C40.8,4.9,40.9,4.6,41.1,4.3 M28.5,6
		c-0.6-0.1-1.2-0.1-1.8-0.2c0.1,0.4,0.1,0.7,0.2,1.1C26.9,7,27,7,27,7.1c0.4,0,0.9,0.1,1.3,0.1C28.4,6.8,28.4,6.4,28.5,6 M28.7,6
		c0,0.4-0.1,0.7-0.1,1c0,0.1,0,0.2,0.2,0.2c0.4,0,0.7,0.1,1.1,0.1c0.1,0,0.2,0,0.2-0.1c0.1-0.3,0.3-0.6,0.4-1
		C29.8,6.2,29.3,6.1,28.7,6 M23.4,15.9l0-0.1c-0.4,0-0.7-0.1-1.1-0.1c-0.1,0-0.2,0-0.3,0c-0.5-0.1-1,0.1-1.4,0.4
		c-0.1,0.1-0.2,0.2-0.3,0.3c0.1,0.1,0.3,0.1,0.4,0.2c0.3,0.1,0.7,0.3,1-0.1c0,0,0.1-0.1,0.2-0.1c0.5,0.1,0.9-0.2,1.3-0.4
		C23.3,16,23.3,15.9,23.4,15.9 M23.6,5.8C23,5.9,22.5,5.9,21.9,6c0,0-0.1,0.1-0.1,0.2c0,0.3,0.1,0.5,0.1,0.8c0,0.1,0.1,0.2,0.2,0.2
		c0.4,0,0.9-0.1,1.3-0.1C23.5,6.7,23.5,6.3,23.6,5.8 M19.9,6.3C20,6.7,20.1,7,20.3,7.3c0,0.1,0.2,0.1,0.2,0.1c0.4,0,0.7-0.1,1.1-0.2
		c0.1,0,0.2-0.1,0.2-0.2c0-0.3,0-0.6-0.1-0.8c0-0.1-0.1-0.1-0.2-0.1C21,6.1,20.4,6.2,19.9,6.3 M33.5,7.1c0,0.4-0.1,0.8-0.1,1.1
		c0,0.1,0.1,0.1,0.1,0.2c0.4,0.1,0.7,0.3,1.1,0.4c0.1-0.4,0.3-0.8,0.4-1.2C34.6,7.4,34.1,7.2,33.5,7.1 M36.7,8.2
		c-0.5-0.2-1-0.4-1.5-0.6C35.1,8,35,8.4,34.8,8.8c0.4,0.1,0.7,0.3,1,0.4c0.1,0,0.2,0,0.2-0.1C36.3,8.9,36.5,8.6,36.7,8.2 M16.8,7.1
		c-0.5,0.2-1,0.3-1.6,0.5c0.1,0.4,0.3,0.7,0.4,1.1c0.4-0.1,0.8-0.3,1.1-0.4c0.1,0,0.1-0.1,0.1-0.2C16.8,7.8,16.8,7.4,16.8,7.1
		 M29.5,6c0-0.3,0.1-0.5,0.1-0.8c0-0.1-0.1-0.2-0.1-0.2c-0.6-0.1-1.1-0.2-1.7-0.2c0,0.3,0,0.5,0,0.8c0,0.1,0.1,0.2,0.2,0.2
		C28.4,5.9,28.9,5.9,29.5,6 M15.1,7.6c-0.5,0.2-1,0.4-1.5,0.6c0.2,0.3,0.4,0.6,0.7,0.9c0,0,0.1,0.1,0.2,0c0.4-0.1,0.7-0.3,1.1-0.4
		C15.3,8.4,15.2,8,15.1,7.6 M20.8,6c0.5-0.1,1.1-0.1,1.6-0.2c0,0,0.1-0.1,0.1-0.1c0-0.3,0-0.5,0-0.8c-0.6,0.1-1.2,0.2-1.9,0.2
		C20.7,5.4,20.8,5.7,20.8,6 M36,7.8c0.1-0.3,0.2-0.6,0.3-0.9c-0.6-0.2-1.1-0.4-1.7-0.6c-0.1,0.3-0.2,0.6-0.3,0.9
		C34.9,7.4,35.5,7.6,36,7.8 M14.3,7.8c0.5-0.2,1-0.3,1.5-0.5c0.1,0,0.2-0.2,0.1-0.2c0-0.2-0.1-0.5-0.2-0.7c-0.6,0.2-1.2,0.4-1.7,0.6
		C14,7.2,14.1,7.5,14.3,7.8 M39.5,6.4c-0.3-0.2-0.6-0.3-0.9-0.5c-0.3,0.5-0.7,0.9-1,1.3c0.4,0.2,0.7,0.5,1.2,0.2c0,0,0.1,0,0.1,0
		c0.1,0,0.1-0.1,0.2-0.1C39.1,7.3,39,7.2,39,7.2c-0.2-0.1-0.2-0.2-0.1-0.4c0.1-0.2,0.2-0.2,0.4-0.1c0,0,0.1,0,0.2,0.1
		C39.4,6.7,39.5,6.6,39.5,6.4 M11.3,6.6C11.6,7,11.6,7,11.2,7.2c-0.1,0.1-0.1,0.2,0,0.2c0.4,0.3,1,0.2,1.4-0.2
		c-0.3-0.4-0.6-0.8-0.9-1.2c0,0-0.1-0.1-0.2-0.1c-0.3,0.1-0.6,0.3-0.9,0.4c0.1,0.1,0.1,0.2,0.2,0.4C11.1,6.7,11.2,6.7,11.3,6.6
		 M31.5,17.8c-0.1-0.1-0.2-0.3-0.4-0.4c-0.5-0.1-1.1-0.3-1.6-0.1c-0.1,0-0.2,0.1-0.4,0.1c0.1,0.1,0.1,0.1,0.1,0.1
		c0.5,0.2,0.9,0.4,1.4,0.5c0.4,0.1,0.8,0.1,1.2,0c0.1,0,0.2-0.1,0.2-0.2c0-0.1-0.1-0.2-0.2-0.2C31.7,17.8,31.6,17.8,31.5,17.8
		 M17.6,8c0.2,0,0.3-0.1,0.3-0.3c0-0.4,0-0.9,0-1.3c0-0.3,0.1-0.5,0.2-0.8c0.1,0.1,0.2,0.2,0.3,0.2c0.4,0.4,0.8,0.9,1,1.5
		c0.1,0.2,0.2,0.2,0.4,0.1c-0.3-0.9-0.8-1.7-1.6-2.2C17.6,5.6,17.4,7.4,17.6,8 M26.2,7c-0.1-0.9-0.4-1.7-0.9-2.5
		c-0.1-0.2-0.2-0.1-0.3,0c-0.2,0.3-0.3,0.5-0.5,0.8c-0.2,0.5-0.4,1.1-0.4,1.6c0.2,0.1,0.3,0,0.3-0.2c0-0.6,0.2-1.2,0.5-1.7
		C25,5,25,4.9,25.1,4.8c0.5,0.7,0.7,1.4,0.8,2.2C26,7,26,7,26.1,7C26.1,7,26.1,7,26.2,7 M32.2,5.7c0.3,0.7,0.4,1.5,0.2,2.3
		c0.1,0,0.2,0,0.3,0.1c0.1-1,0-1.9-0.4-2.9c-0.9,0.6-1.3,1.4-1.7,2.4c0.1,0,0.2,0.1,0.3,0.1C31.4,6.6,31.7,6,32.2,5.7 M27.6,16
		c0.1,0,0.1,0.1,0.1,0.1c0.3,0.1,0.6,0.2,0.8,0.3c0.2,0.1,0.4,0.1,0.5,0.2c0.3,0.3,0.7,0.3,1.1,0.3c0.1,0,0.1-0.1,0.2-0.1
		c0-0.1-0.1-0.1-0.1-0.2c-0.2-0.1-0.4-0.3-0.6-0.4c-0.2-0.1-0.4-0.3-0.6-0.4C28.6,15.8,28.2,15.9,27.6,16
		C27.7,15.9,27.7,15.9,27.6,16 M16.4,4c0.1,0,0.2,0,0.2,0c0.7-0.2,1.3-0.3,2-0.5c0.2,0,0.3-0.1,0.3-0.3c0-0.2-0.2-0.2-0.4-0.2
		c-0.5,0.1-1,0.2-1.4,0.4c-0.2,0.1-0.4,0.1-0.6,0.2c-0.1,0-0.2,0.2-0.2,0.3C16.2,3.9,16.4,3.9,16.4,4 M31.7,3
		c-0.1,0.1-0.2,0.1-0.2,0.2c0,0.1,0.1,0.2,0.1,0.3C32.3,3.6,33,3.8,33.8,4c0.1,0,0.2-0.1,0.3-0.2C34,3.7,34,3.6,33.9,3.5
		c-0.2-0.1-0.4-0.1-0.6-0.2C32.8,3.2,32.2,3.1,31.7,3 M25.1,2.8L25.1,2.8c0.3,0,0.7,0,1,0c0.2,0,0.3-0.1,0.3-0.2
		c0-0.1-0.2-0.2-0.3-0.2c-0.7,0-1.4,0-2,0c-0.1,0-0.3,0.1-0.3,0.2c0,0.2,0.1,0.2,0.3,0.2C24.5,2.8,24.8,2.8,25.1,2.8 M20.5,5.1
		c-0.4,0.1-0.7,0.1-1.1,0.2c0.1,0.3,0.2,0.5,0.3,0.8c0,0.1,0.1,0.1,0.2,0.1c0.2,0,0.5-0.1,0.7-0.1C20.6,5.7,20.6,5.4,20.5,5.1
		 M29.6,6c0.3,0,0.5,0.1,0.7,0.1c0.1,0,0.1,0,0.2,0c0.1-0.2,0.2-0.5,0.3-0.8c-0.2-0.1-0.3-0.1-0.5-0.2c-0.1,0-0.2-0.1-0.4-0.1
		c-0.1,0-0.2,0.1-0.2,0.1C29.7,5.5,29.7,5.7,29.6,6 M22.7,5.7c0.3,0,0.5,0,0.7-0.1c0.1,0,0.2-0.1,0.2-0.2c0.1-0.2,0.1-0.5,0.1-0.8
		c-0.3,0-0.6,0-0.9,0.1c0,0-0.1,0.1-0.1,0.2C22.7,5.2,22.7,5.5,22.7,5.7 M36.9,9.7C36.9,9.6,37,9.6,36.9,9.7C37.4,8.9,38,8.4,38.8,8
		C38.9,8,38.9,7.8,39,7.7c-0.7,0-2,1.1-2.3,1.9c0,0,0.1,0,0.1,0.1C36.8,9.6,36.9,9.6,36.9,9.7 M13.6,9.5c-0.6-0.8-1.3-1.5-2.3-1.8
		C11.4,7.8,11.5,8,11.6,8c0.7,0.3,1.2,0.8,1.6,1.4C13.4,9.6,13.5,9.7,13.6,9.5 M26.6,4.8c0,0.9,0.1,1,0.8,1c0,0,0,0,0,0
		c0.1-0.1,0.2-0.1,0.2-0.2c0-0.8,0.2-0.7-0.7-0.8C26.8,4.8,26.7,4.8,26.6,4.8 M16.1,7.1C16.3,7,16.4,7,16.6,6.9
		c0.1,0,0.1-0.1,0.1-0.2c0-0.3,0-0.5-0.1-0.8C16.4,6,16.2,6.1,16,6.2c-0.1,0-0.1,0.2-0.1,0.2C15.9,6.6,16,6.9,16.1,7.1 M34.2,7.1
		c0.1-0.2,0.1-0.5,0.2-0.7c0-0.1,0-0.2-0.1-0.2C34.1,6.1,33.9,6,33.6,6C33.5,7.1,33.4,6.9,34.2,7.1 M37.4,7.4
		c-0.3-0.1-0.5-0.2-0.7-0.3c0,0-0.1,0-0.2,0.1c-0.1,0.2-0.2,0.5-0.3,0.7C36.4,7.9,36.5,8,36.7,8c0.1,0,0.2,0,0.2-0.1
		C37.1,7.8,37.2,7.6,37.4,7.4 M13.8,7c-0.3,0.1-0.6,0.2-0.8,0.4c0.2,0.2,0.3,0.4,0.4,0.6c0,0.1,0.2,0.1,0.2,0.1
		c0.2,0,0.3-0.1,0.5-0.2C14,7.5,13.9,7.3,13.8,7 M11.7,5.2c-0.5,0.3-0.9,0.5-1.4,0.8c0,0-0.1,0.2,0,0.2c0,0.1,0.2,0.1,0.2,0.1
		c0.4-0.2,0.8-0.4,1.2-0.6c0.1,0,0.1-0.2,0.1-0.2C11.9,5.4,11.8,5.3,11.7,5.2 M40.1,6.2C40,6.1,40,6,39.9,6
		c-0.4-0.2-0.8-0.4-1.3-0.7c-0.1,0-0.2,0-0.2,0.1c0,0.1,0,0.2,0.1,0.3c0.4,0.2,0.8,0.4,1.2,0.6C39.8,6.3,39.9,6.2,40.1,6.2
		 M33.4,6.8c0-0.3,0-0.5,0.1-0.8c0,0-0.1-0.1-0.1-0.1c-0.2-0.1-0.4-0.1-0.6-0.2c0.1,0.3,0.1,0.5,0.1,0.7C32.9,6.7,33.1,6.8,33.4,6.8
		 M12.1,7.7c0.2,0.2,0.4,0.3,0.6,0.4c0.3,0.2,0.3,0.2,0.6,0c-0.2-0.2-0.3-0.5-0.5-0.7C12.6,7.5,12.4,7.6,12.1,7.7 M30.6,6.2
		c0.2,0,0.4,0,0.5,0c0.2-0.2,0.4-0.5,0.6-0.7c-0.2,0-0.4-0.1-0.6-0.1c-0.1,0-0.2,0-0.2,0.1C30.9,5.7,30.8,5.9,30.6,6.2 M38.2,7.7
		c-0.2-0.1-0.4-0.2-0.5-0.2c-0.1,0-0.2,0-0.2,0c-0.2,0.2-0.3,0.4-0.5,0.7c0.2,0,0.4,0.1,0.5,0.1C37.7,8.1,37.9,7.9,38.2,7.7
		 M18.6,5.5C18.7,5.7,18.9,5.8,19,6c0.2,0.3,0.3,0.3,0.6,0.2C19.2,5.2,19.4,5.2,18.6,5.5 M25.7,4.7C25.8,5,25.9,5.2,26,5.4
		c0.1,0.3,0.3,0.3,0.5,0.2C26.4,4.5,26.4,4.7,25.7,4.7 M16.9,6.9c0.2-0.1,0.4-0.2,0.4-0.3c0.1-0.3,0.1-0.6,0.2-0.9
		c-0.7,0.1-0.7,0.1-0.6,0.7C16.9,6.6,16.9,6.7,16.9,6.9 M23.8,5.7c0.2-0.1,0.4-0.1,0.4-0.1c0.2-0.3,0.3-0.5,0.4-0.8
		c-0.6-0.1-0.6-0.1-0.7,0.5C23.8,5.4,23.8,5.5,23.8,5.7 M32.1,2.9c0.5,0.1,1,0.2,1.5,0.4c0.1-0.2,0.1-0.3-0.2-0.4
		c-0.3-0.1-0.6-0.1-0.9-0.2C32.2,2.6,32.1,2.6,32.1,2.9 M24.4,2.1c0.4,0,0.8,0,1.2,0c0.1,0,0.2-0.1,0.2-0.1c0-0.2-0.1-0.2-0.2-0.2
		c-0.3,0-0.7,0-1,0C24.4,1.8,24.4,1.9,24.4,2.1 M18.2,2.9c0-0.3-0.1-0.3-0.3-0.3c-0.3,0.1-0.6,0.2-0.9,0.2c-0.2,0-0.3,0.2-0.2,0.4
		C17.2,3.1,17.7,3,18.2,2.9 M36.5,9.5c0.3-0.3,0.5-0.7,0.8-1c-0.2,0-0.4-0.1-0.5,0c-0.2,0.3-0.4,0.6-0.7,0.9
		C36.3,9.4,36.4,9.4,36.5,9.5 M30.1,7.4c0,0,0,0.1,0,0.1c0.1,0,0.3,0,0.4-0.1c0.2-0.3,0.3-0.6,0.4-1c-0.2,0-0.3-0.2-0.4,0
		C30.4,6.8,30.3,7.1,30.1,7.4 M32.9,6.9c0,0.3,0,0.6,0,0.9c0,0.3,0.1,0.4,0.3,0.3c0-0.3,0-0.6,0.1-0.9C33.4,7,33.2,6.9,32.9,6.9
		 M13,8.5c0.3,0.3,0.5,0.6,0.8,1c0.1,0,0.2-0.1,0.3-0.2c-0.2-0.3-0.5-0.7-0.7-1C13.3,8.4,13.2,8.4,13,8.5 M26.4,7h0.4
		c0-0.3-0.1-0.6-0.1-0.9c0-0.3-0.1-0.4-0.4-0.3C26.2,6.2,26.3,6.6,26.4,7 M20.2,7.4c-0.1-0.3-0.2-0.5-0.3-0.8
		c-0.1-0.3-0.3-0.3-0.5-0.1c0.1,0.3,0.3,0.5,0.4,0.8C19.8,7.5,19.9,7.6,20.2,7.4 M17.3,6.9C17.1,7,16.9,7,16.9,7.1
		c0,0.4,0,0.7,0.1,1.1l0.1,0c0.1-0.1,0.2-0.2,0.2-0.3C17.3,7.6,17.3,7.3,17.3,6.9 M23.6,7.1C23.7,7,23.9,7,23.9,6.9
		C24,6.6,24,6.2,24.1,5.9c0,0,0,0-0.1-0.1c-0.1,0.1-0.3,0.1-0.3,0.2C23.7,6.3,23.6,6.7,23.6,7.1 M39.1,5.3c0.3,0.1,0.5,0.3,0.8,0.4
		C40,5.5,40,5.4,39.8,5.3c-0.1,0-0.2-0.1-0.3-0.2C39.3,5,39.2,5.1,39.1,5.3 M11.2,5.3C11.2,5.2,11.1,5.1,11,5
		c-0.3,0.1-0.5,0.3-0.7,0.4c0.1,0.1,0.1,0.2,0.2,0.3C10.7,5.6,11,5.5,11.2,5.3"/>
	<path class="st0" d="M40.6,23.5c0,0-0.1,0-0.1,0.1c-0.1,0.1-0.2,0.2-0.3,0.2c-0.1,0-0.2-0.1-0.2-0.1c0-0.1,0.1-0.2,0.1-0.3
		c0,0,0.1-0.1,0.1-0.1c0.3-0.4,0.6-0.6,1.1-0.5c0.1,0,0.1,0,0.2,0c0.4-0.3,0.8-0.2,1.2,0c-0.1-0.2-0.2-0.3-0.2-0.5
		c-0.4-0.7-0.8-1.3-1.5-1.7c-0.4-0.2-0.8-0.4-1.3-0.3c-0.6,0.1-0.8,0.6-0.5,1c0.1-0.1,0.3-0.3,0.4-0.4c0.1,0,0.3,0,0.4,0.1
		c0.1,0.2,0.2,0.4,0.2,0.6c0,0.2-0.2,0.3-0.4,0.4c-0.3,0.1-0.6,0-0.8-0.2c-0.3-0.4-0.4-0.8-0.2-1.3c0.2-0.4,0.5-0.7,0.9-0.7
		c0.2,0,0.5,0,0.8,0c-0.2-0.6-0.2-1.1,0.5-1.4c-0.3-0.2,0-0.4,0-0.7c-0.2-0.1-0.4-0.1-0.7-0.2c0,0-0.1-0.1-0.1-0.1c0,0,0-0.1,0-0.1
		c0.2-0.4,0.3-0.8,0.6-1.1c0.1-0.1,0.2-0.2,0.4-0.2c0.2-0.1,0.4-0.1,0.5-0.4c0.1-0.3,0.5-0.2,0.7-0.2c0.1,0,0.2,0.1,0.3-0.1
		c0,0,0.2,0,0.2,0c0.2,0.1,0.4,0.3,0.6,0.4c0.2-0.1,0.3-0.1,0.5-0.2c0.1,0,0.2-0.1,0.2-0.2c0.1-0.2,0.2-0.3,0.5-0.1
		c0-0.2,0-0.2,0-0.4c-0.2-0.1-0.5-0.2-0.7-0.2c-0.1,0-0.3,0-0.4,0c-0.1,0-0.2,0-0.3,0c-0.1-0.1-0.2-0.2-0.3-0.2
		c-0.3,0.2-0.7,0.4-1,0.6c-0.1,0.1-0.2,0.1-0.3,0c-0.2,0-0.4,0-0.5,0.1c0,0-0.2,0-0.2,0c-0.1,0-0.1-0.1-0.1-0.2
		c0-0.4-0.3-0.8-0.1-1.3c0.1-0.2,0-0.4,0-0.7c0,0,0.1,0,0.1-0.1c-0.2-0.1-0.3-0.2-0.5-0.2c-0.2,0-0.3-0.2-0.2-0.3
		c0.1-0.1,0.1-0.2,0.2-0.3c0.3-0.3,0.5-0.5,0.8-0.8c-0.2-0.4-0.2-0.9-0.2-1.3c0-0.2,0.1-0.3,0.4-0.2c0.2,0.1,0.5,0.2,0.8,0
		c0,0,0.1,0,0.2,0c0.2,0.1,0.3,0.2,0.5,0.3c0.3,0.1,0.6,0.4,0.6,0.8c0.2,0,0.3,0,0.4,0c0.2,0,0.4-0.1,0.5,0.1c0,0.1,0.2,0.1,0.3-0.1
		c0.1-0.4,0.3-0.7,0.4-1.1c0.2-0.5,0.1-1-0.2-1.4c-0.1-0.1-0.2-0.2-0.4-0.3c-0.1,0-0.2,0.1-0.3,0.1c0,0,0,0.2,0,0.2
		c0.1,0,0.2,0,0.3,0c0.1,0,0.2,0,0.2,0c0,0.1,0,0.2,0,0.2c-0.1,0.1-0.3,0.2-0.4,0.2c-0.2,0-0.4-0.2-0.5-0.3c-0.2-0.2,0-0.6,0.2-0.8
		c0.2-0.2,0.6-0.2,0.9-0.1c0.4,0.2,0.6,0.6,0.7,1.1c0,0.1,0,0.2,0.1,0.3c0.1,0,0.2-0.1,0.4-0.1c0.3,0,0.6,0.2,0.7,0.5
		c0,0.3-0.2,0.5-0.4,0.5c-0.1,0-0.2-0.1-0.3-0.1c0.1-0.1,0.1-0.1,0.2-0.2c0-0.1,0.1-0.1,0.1-0.2c-0.1,0-0.2-0.1-0.2-0.1
		c-0.1,0.1-0.3,0.2-0.3,0.3c-0.2,0.4-0.4,0.9-0.5,1.3c0,0.2-0.1,0.5,0.2,0.7c0.1,0.1,0.2,0.3,0.3,0.4c0.2-0.3,0.4-0.5,0.6-0.8
		c0.1-0.2,0-0.4-0.1-0.6c-0.1-0.1,0-0.2-0.1-0.3c0.1,0,0.3,0,0.3,0.1c0.2,0.2,0.3,0.6,0.3,0.9c0.3,0,0.5,0,0.8,0
		c0.3,0,0.5-0.3,0.5-0.6c0-0.1,0.1-0.2,0.1-0.2c0.1,0,0.2,0.1,0.2,0.1c0.1,0.2,0.1,0.5-0.1,0.6c-0.1,0.1-0.2,0.1-0.4,0.2
		c0.3,0.3,0.5,0.6,0.2,1c-0.1,0.1-0.3,0.1-0.4,0.1c-0.4-0.2-0.3-0.5-0.3-0.9c-0.7,0.1-1.2,0.5-1.5,1.1c-0.4,0.7-0.5,1.5-0.2,2.2
		c0.4-0.8,0.8-1.5,1.2-2.3c0,0,0,0,0,0c-0.3,0.7-0.6,1.5-1,2.2c0,0.1-0.2,0.1-0.3,0.2c0.2,0,0.4,0.1,0.6,0.1c0-0.1,0-0.1,0-0.2
		c0.1-0.5,0.3-0.7,0.8-0.8c0.2-0.1,0.4-0.2,0.6-0.3c0.2-0.1,0.3-0.2,0.5-0.2c0.2,0,0.3,0,0.2,0.3c0,0.1,0,0.3,0.1,0.4
		c0,0.2,0.1,0.4,0.1,0.7c0.2,0,0.5,0,0.7,0.1c0.2,0,0.3,0.1,0.3,0.3c0,0.1,0.1,0.1,0.1,0.2c0.1,0.2,0.3,0.4,0.4,0.7
		c0.1,0.2,0,0.3-0.3,0.3c-0.1,0-0.3,0.1-0.4,0.2c-0.3,0.3-0.3,0.4-0.7,0.5c0.1,0.5,0.2,1.1,0,1.6c-0.1,0.4-0.2,0.4-0.5,0.1
		c-0.1,0.4-0.3,0.6-0.6,0.7c-0.1,0-0.1,0.2-0.1,0.4c0,0,0.1,0,0.1-0.1c0.3-0.2,0.6-0.2,0.8,0c0.2,0.2,0.1,0.6-0.2,0.8
		c-0.2,0.1-0.3,0.2-0.2,0.4c0,0.2-0.1,0.4-0.3,0.4c-0.1,0-0.3-0.1-0.4-0.2c0,0,0-0.2,0-0.3c0.2-0.2,0.2-0.3-0.1-0.4
		c-0.2,0.2-0.2,0.4-0.2,0.7c0.2,0.5-0.1,0.9-0.7,1c0,0.1,0,0.3,0,0.4c0.1,0,0.2,0.1,0.2,0.1c0.2,0.1,0.2,0,0.3-0.1
		c0-0.1,0-0.2,0-0.3c0.1-0.3,0.2-0.3,0.5-0.2c0.1,0.1,0.2,0.1,0.3,0.1c0.2,0,0.4,0.1,0.7,0.1c0,0,0.1-0.1,0.1-0.2
		c0.2-0.3,0.3-0.5,0.7-0.5c0.3,0,0.5-0.2,0.8-0.4c0.3-0.2,0.4-0.2,0.5,0.1c0,0.1,0,0.3,0.1,0.4c0,0.1,0.1,0.2,0.1,0.4
		c0,0.1,0,0.3,0,0.4c0,0.1-0.1,0.2-0.1,0.3c0.2,0,0.3,0,0.4,0.1c0.2,0,0.4,0.1,0.3,0.4c0,0,0,0.1,0,0.1c0.2,0.2,0.4,0.5,0.5,0.7
		c0.1,0.2,0.1,0.3-0.2,0.4c-0.3,0.1-0.5,0.1-0.9,0.2c0,0.2,0,0.4,0,0.6c0,0.1,0,0.3,0,0.4c0,0.2-0.1,0.2-0.3,0.2
		c0,0-0.1,0.1-0.1,0.2c-0.2,0.2-0.3,0.5-0.5,0.7c-0.1,0.2-0.3,0.1-0.4-0.1c-0.1-0.2-0.3-0.4-0.5-0.6c0,0,0,0,0,0
		c-0.3,0.1-0.4-0.2-0.5-0.4c-0.2,0.1-0.4,0.3-0.7,0.1c-0.1-0.1-0.4,0-0.6,0c0.2,0.4,0.2,0.8-0.2,1.1c0.2,0,0.3,0.1,0.4,0.1
		c0.1,0.1,0.2,0.2,0.2,0.4c0,0.3-0.1,0.4-0.5,0.6c0,0.6-0.1,1.1-0.1,1.7c0,0,0.1,0,0.1,0c0-0.1,0.1-0.1,0.1-0.2
		c0-0.1-0.1-0.2-0.1-0.3c0-0.3,0.2-0.5,0.4-0.5c0.3,0,0.4,0.1,0.5,0.4c0.2-0.2,0.5-0.4,0.8-0.6c0.1-0.1,0.2-0.1,0.3-0.1
		c0.1,0,0.2,0.1,0.3,0.2c-0.1,0.1-0.1,0.2-0.2,0.3c-0.3,0.1-0.5,0.1-0.6,0.5c0.3,0.2,0.5,0.5,0.3,0.9c-0.1,0.1-0.2,0.3-0.4,0.3
		c-0.4,0-0.5-0.3-0.6-0.7c-0.2,0.2-0.6,0.2-0.7,0.5c0.5,0.1,0.9,0.2,1.4,0.4c0.2,0.1,0.2,0.2,0.1,0.4c-0.2,0.2-0.4,0.5-0.4,0.8
		c0,0.1-0.1,0.1-0.1,0.2c-0.1,0.1-0.2,0.2-0.3,0.2c0.2,0.3,0.4,0.6,0.5,0.8c0.1,0.2,0.1,0.3-0.1,0.4c-0.2,0.1-0.1,0.2-0.2,0.4
		c0,0.3-0.1,0.6-0.2,0.9c0,0.2-0.2,0.2-0.3,0.1c-0.2-0.1-0.4-0.2-0.7-0.4c-0.2,0.3-0.3,0.2-0.5,0c-0.2-0.3-0.4,0.1-0.7,0
		c0,0.4,0.1,0.8,0.4,1.1c0.3-0.2,0.6-0.5,1-0.2c0.2,0.2,0.2,0.4,0.1,0.6C47,37.1,46.7,37,46.3,37c-0.1,0.2-0.1,0.5,0,0.7
		c0.1,0.1,0.1,0.3,0,0.4c-0.1,0-0.3,0-0.4-0.1c-0.2-0.3-0.2-0.6-0.1-0.9c0-0.1,0-0.3-0.1-0.4c-0.1-0.2-0.3-0.4-0.4-0.6
		c-0.1,0-0.1,0.1-0.2,0.1c0.1,0.2,0.3,0.4,0.4,0.6c0.2,0.5-0.1,1-0.5,1.1c-0.4,0.1-0.9-0.3-1-0.8c0-0.2-0.1-0.3-0.2-0.5
		c-0.1-0.2-0.2-0.4-0.3-0.6c0-0.1,0-0.2-0.1-0.2c-0.1,0.6-0.4,1-0.8,1.4c0.4,0.1,0.4,0.1,0.3,0.6c0,0.1,0,0.1,0.1,0.2
		c0.1,0.2,0.2,0.4,0.3,0.6c0.1,0.3-0.1,0.4-0.3,0.4c-0.2,0-0.4,0.1-0.6,0.1c0,0.5-0.4,0.3-0.7,0.4c0,0.2,0,0.3-0.1,0.5
		c-0.1,0.1-0.2,0.2-0.3,0.3c-0.1,0.1-0.2,0.3-0.4,0.4c0,0,0,0,0.1,0.1c0.1,0,0.1,0,0.2-0.1c1.9-1,3.9-1.6,6-1.9c0.1,0,0.3,0,0.4,0
		c0,0.1,0,0.3-0.1,0.4c-0.3,0.4-0.5,0.8-0.8,1.3c-0.1,0.2-0.2,0.3-0.3,0.5c0.8,0.6,1.7,1.2,2.4,2.1c-2.3,0.2-4.5,0.9-6.4,2.1
		c-2,1.2-3.6,2.7-5,4.6c-0.7-1.2-1.3-2.4-2-3.6c-0.2,0.3-0.6,0.1-0.7,0.5c0,0.1-0.2,0.1-0.3,0.1c0,0.2,0,0.5-0.1,0.6
		c-0.2,0.3-0.2,0.6-0.4,0.9c-0.1,0.2-0.3,0.4-0.5,0.5c-0.2,0.1-0.3,0.1-0.4-0.2c-0.1-0.3-0.3-0.4-0.6-0.4c-0.1,0-0.2-0.1-0.2-0.2
		c-0.1-0.3-0.1-0.6-0.2-0.9c-0.2,0-0.4,0-0.7-0.1c0,0.3,0,0.5-0.1,0.8c0.3,0,0.5,0,0.7,0c0.1,0,0.2,0.1,0.2,0.2
		c0.1,0.3,0,0.5-0.6,0.8c0.1,0.2,0.3,0.4,0.4,0.6c0,0.1,0,0.2,0.1,0.2c-0.1,0-0.2,0-0.2,0c-0.2-0.2-0.3-0.5-0.5-0.7
		c0-0.1-0.1-0.2-0.1-0.3c0,0-0.1,0-0.1,0c0,0.1-0.1,0.2-0.1,0.3c0,0.1,0,0.2,0,0.3c-0.1,0.4-0.3,0.7-0.7,0.8c-0.3,0-0.7-0.2-0.8-0.6
		c-0.1-0.2-0.1-0.2-0.3-0.3c-0.4-0.2-0.6-0.7-0.5-1.1c-0.4,0.1-0.7,0.2-1.1,0.3c-0.3,0.1-0.5,0.3-0.8,0.5c0,0,0.1,0.1,0.2,0.1
		c0.4,0.2,0.9,0.4,1.3,0.7c0.3,0.2,0.3,0.4,0,0.6c-0.4,0.3-0.8,0.3-1.2,0.1c-0.4-0.2-0.8-0.3-1.1-0.6c-0.3-0.3-0.6-0.2-0.9,0
		c-0.2,0.1-0.3,0.1-0.5,0.1c-0.3,0-0.6,0.1-0.8,0.3c-0.2,0.2-0.4,0.3-0.6,0.5c-0.4,0.2-0.7,0.2-1-0.1c-0.3-0.3-0.2-0.6,0.2-0.8
		c0.4-0.1,0.7-0.3,0.9-0.6c0.2-0.3,0.4-0.4,0.8-0.4c0.1,0,0.2,0,0.3-0.1c-0.3-0.5-1.2-0.9-1.8-0.7c-0.7,0.2-1.3,0.1-1.9-0.2
		c-0.5-0.3-1-0.6-1.5-0.9c-0.3-0.2-0.6-0.3-0.9-0.5c0,0,0,0-0.1,0.1c0,0.1,0.1,0.1,0.1,0.2c0.5,0.6,0.8,1.4,0.6,2.2
		c0,0.1-0.1,0.2-0.2,0.3c-0.1-0.1-0.2-0.2-0.2-0.3c-0.1-0.2-0.1-0.4-0.2-0.5c-0.1-0.2-0.2-0.4-0.3-0.6c-0.5-0.4-1-0.8-1.6-1
		c-0.3-0.1-0.4-0.3-0.4-0.6c0.1-0.4,0.3-0.7,0.7-0.9c0.5-0.2,1-0.1,1.6,0c0.1,0,0.2,0,0.2,0.1c0,0,0,0,0.1,0
		c-0.3-0.3-0.6-0.6-1.1-0.7c-1.6-0.3-3.1-0.8-4.6-1.4c0,0-0.1,0-0.2,0c0.1,0.1,0.1,0.1,0.2,0.2c0.7,0.7,1.5,1.4,2.2,2.1
		c0.1,0.1,0.1,0.2,0.1,0.4c-0.7,1.3-1.4,2.6-2.1,3.8c0,0-0.1,0.1-0.1,0.1c-2.9-3.8-6.6-6.1-11.4-6.6c0.1-0.1,0.1-0.2,0.2-0.3
		c0.6-0.5,1.3-1.1,1.9-1.6C4,40.6,4,40.5,3.9,40.3c-0.3-0.4-0.6-0.9-0.9-1.3C3,39,3,38.9,2.9,38.8c0-0.1,0-0.2-0.1-0.3
		c0.1,0,0.2-0.1,0.3-0.1c0.7,0.1,1.5,0.3,2.2,0.4c0.1,0,0.3,0,0.4,0c0.8-0.5,1.7-0.7,2.6-0.5c0,0,0.1,0,0.1,0
		c-0.4-1-3.2-3.1-4.1-3.2c0,0.1,0,0.1,0,0.2c0.1,0.8,0.1,1.5-0.2,2.3c-0.1,0.2-0.3,0.3-0.4,0.5c0-0.2-0.1-0.4-0.1-0.6
		c0-0.3,0.1-0.6,0-0.9c0-0.4-0.2-0.8-0.6-1.1c-0.3-0.2-0.3-0.4,0-0.7c0.5-0.6,1.1-0.7,1.8-0.5c0.8,0.2,1.5,0.6,2.2,1.1
		c0.1,0.1,0.1,0.1,0.2,0.1c-0.5-0.6-0.7-1.3-1.5-1.6C5,33.6,4.4,33.1,4,32.4c-0.5-0.9-0.9-1.8-1.3-2.7c-0.2-0.4-0.4-0.9-0.6-1.4
		c0,0-0.1,0-0.1,0c0,0.3,0.1,0.6,0.1,1c0.1,0.9,0,1.8-0.2,2.6c-0.2,0.6-0.2,1.3-0.4,1.9c0,0.1-0.1,0.2-0.1,0.3c0,0-0.1,0-0.1,0
		c-0.1-0.2-0.2-0.3-0.2-0.5c-0.1-0.6-0.1-1.2,0.1-1.8c0.3-1.1,0.3-2.2-0.1-3.3c-0.1-0.4-0.2-0.7-0.2-1.1c-0.1-0.5,0.1-0.8,0.5-0.9
		c0.4-0.1,0.8,0,1,0.4c0.4,0.8,0.8,1.6,1.2,2.5c0.1,0.3,0.2,0.5,0.4,0.8C4,30.2,4,30.1,4,30c-0.3-0.9-0.6-1.7-0.9-2.6
		C3,27.2,2.8,27,2.7,26.8c-0.5-0.5-0.8-1.1-1-1.8c-0.1-0.6-0.2-1.2-0.3-1.8c0-0.1,0-0.1-0.1-0.2c0,0.7,0,1.5-0.8,1.9
		c0-0.1-0.1-0.2-0.1-0.3c0.3-1.2,0-2.3-0.1-3.4c0-0.2,0-0.5-0.1-0.7c0-0.2,0-0.4,0.3-0.5c0.4-0.1,0.6-0.1,0.8,0.2
		c0.2,0.2,0.3,0.5,0.4,0.8c0,0,0,0.1,0.1,0.1c0-0.2,0-0.4,0-0.5c0-0.8,0-1.5,0-2.3c0-0.2,0-0.3-0.2-0.3c-0.3,0-0.5-0.2-0.7-0.5
		c-0.3-0.5-0.6-0.9-0.9-1.3c0.3,0.1,0.5,0.5,0.9,0.5c0-0.6-0.5-1-0.9-1.4c0.3,0.2,0.6,0.4,0.9,0.7c-0.1-0.6-0.4-1-0.8-1.4
		c0.2,0.2,0.5,0.4,0.7,0.6c0-0.7-0.4-1-0.7-1.4c0.3,0.2,0.5,0.4,0.9,0.7c0-0.7-0.3-1.1-0.7-1.5c0,0,0,0,0.1,0
		c0.3,0.2,0.5,0.5,0.8,0.8c0-0.6-0.3-1-0.6-1.5C1,12.5,1.2,13,1.8,13c0.2-0.7,0.6-1.3,0.5-1.8c-0.1,0.5,0.3,1.2,0.4,2
		c0.6,0,0.7-0.5,1.2-0.8c-0.3,0.4-0.7,0.8-0.8,1.5c0.3-0.2,0.5-0.4,0.7-0.5c-0.4,0.4-0.7,0.8-0.8,1.4c0.3-0.2,0.5-0.4,0.8-0.6
		c-0.3,0.3-0.5,0.7-0.8,1.1c0,0,0.1,0.1,0.1,0.1c0.3-0.1,0.5-0.4,0.7-0.5c-0.3,0.4-0.5,0.7-0.8,1.1c0,0,0.1,0.1,0.1,0.1
		c0.3-0.1,0.5-0.4,0.9-0.6c-0.4,0.4-1,0.7-1,1.3c0.4,0.1,0.6-0.3,0.9-0.5c-0.3,0.3-0.5,0.6-0.8,0.8c0.2,0,0.4,0,0.5,0.1
		c0.1,0.1,0.2,0.3,0.2,0.4c0,0,0,0.1,0.1,0.1c0.3,0.2,0.3,0.6,0.3,0.9c0,0.6,0.1,1.3,0.1,1.9c0,0.1,0.1,0.2,0.1,0.3c0,0,0,0,0.1,0
		c0-0.2,0-0.3,0-0.5c0-0.5,0.1-1,0.1-1.5c0.1-0.7-0.1-1.3-0.3-1.9c-0.1-0.3-0.1-0.6-0.1-0.9c0-0.2,0.1-0.2,0.2-0.1
		c0.1,0.1,0.2,0.3,0.3,0.4C5,16.6,5,16.9,5.1,17.2c0,0.1,0.1,0.3,0.2,0.4c0.1-0.5,0.2-1,0.2-1.5c0-0.1-0.1-0.3-0.2-0.3
		c-0.3-0.1-0.5-0.4-0.6-0.6c-0.2-0.5-0.5-0.9-0.7-1.4c0.1,0.2,0.2,0.3,0.4,0.4c0.1,0.1,0.3,0.2,0.5,0.3c-0.1-0.6-0.4-1.1-0.7-1.5
		c0.2,0.2,0.4,0.5,0.6,0.7c0.1-0.7-0.3-1.1-0.6-1.6c0.2,0.3,0.5,0.5,0.8,0.9c-0.1-0.6-0.2-1.2-0.6-1.6c0,0,0,0,0.1,0
		c0.2,0.2,0.4,0.5,0.6,0.7c0,0,0.1,0,0.1-0.1c-0.1-0.3-0.1-0.5-0.2-0.8c-0.1-0.2-0.3-0.5-0.4-0.7l0.7,0.8c0.1-0.6-0.3-1.1-0.5-1.6
		c0.3,0.4,0.5,1,1.2,1.1C6.1,10,6.6,9.4,6.5,8.9c-0.2,0.5,0.3,1.2,0.3,2c0.5,0,0.8-0.4,1.2-0.6c-0.1,0.1-0.2,0.3-0.4,0.4
		c-0.1,0.1-0.2,0.3-0.3,0.4c-0.1,0.2-0.1,0.3-0.2,0.5c0,0,0,0,0.1,0.1c0.2-0.1,0.4-0.3,0.6-0.4C7.6,11.6,7.3,12,7,12.4
		c0,0,0.1,0.1,0.1,0.1c0.1,0,0.3-0.1,0.4-0.1c0.1-0.1,0.2-0.2,0.4-0.3c-0.3,0.4-0.6,0.7-0.9,1c0,0,0.1,0.1,0.1,0.1
		c0.2-0.1,0.5-0.3,0.7-0.4c-0.3,0.3-0.6,0.7-0.9,1c0,0,0.1,0.1,0.1,0.1c0.3,0,0.5-0.4,0.8-0.5C7.5,13.8,7,14,6.9,14.7
		c0.4,0.1,0.6-0.3,0.9-0.4c0,0,0.1,0.1,0.1,0.1c-0.1,0.1-0.2,0.1-0.3,0.2C7.3,14.7,7.2,15,7,15.3c-0.2,0.3-0.3,0.6-0.7,0.7
		c-0.1,0-0.2,0.1-0.2,0.2c0,1.3,0,2.5,0,3.8c0,0,0,0,0.1,0.2c0-0.2,0-0.4,0-0.6c0-0.2,0-0.3,0-0.5c0-0.5,0-1,0.1-1.5
		c0-0.2,0.1-0.4,0.2-0.5c0.2-0.4,0.9-0.5,1.2-0.2c0.2,0.2,0.4,0.5,0.8,0.5c-0.1-0.2-0.1-0.5-0.2-0.7c-0.1-0.2-0.3-0.4-0.4-0.6
		c0.2,0.2,0.4,0.3,0.6,0.5c0.1-0.7-0.3-1.1-0.5-1.6c0.2,0.3,0.4,0.6,0.6,0.8c0.1-0.6-0.1-1.1-0.3-1.6c0.2,0.3,0.3,0.5,0.5,0.8
		c0,0,0.1,0,0.1,0c0-0.6-0.2-1-0.4-1.5c0.3,0.2,0.3,0.6,0.6,0.8c0,0,0.1,0,0.1,0c-0.1-0.5-0.2-1-0.4-1.6c0.3,0.5,0.3,1.1,0.9,1.2
		c0.3-0.6,0.7-1.2,0.7-1.7c-0.2,0.5,0.2,1.2,0.2,2c0.5,0,0.8-0.4,1.2-0.7c-0.4,0.4-0.7,0.8-0.9,1.3c0.3,0,0.5-0.3,0.8-0.3
		c-0.2,0.2-0.4,0.3-0.6,0.5c-0.2,0.2-0.3,0.4-0.4,0.7c0,0,0,0.1,0.1,0.1c0.3-0.2,0.6-0.3,0.8-0.4c-0.3,0.3-0.6,0.6-0.9,1
		c0,0,0.1,0.1,0.1,0.1c0.1-0.1,0.2-0.1,0.4-0.2c0.1-0.1,0.2-0.2,0.4-0.2c-0.3,0.3-0.6,0.6-0.8,0.9l0.1,0.1c0.2-0.2,0.5-0.3,0.7-0.5
		c-0.3,0.4-0.8,0.7-0.9,1.2c0.4,0.1,0.5-0.4,0.9-0.5c-0.4,0.5-0.8,1.1-1.2,1.6c-0.1,0.1-0.2,0.2-0.4,0.2c-0.2,0-0.2,0.1-0.3,0.3
		c0,0.6,0,1.2-0.1,1.8c0,0,0,0.1,0,0.2c0.1-0.1,0.1-0.1,0.1-0.2c0.5-0.8,0.9-1.5,1.4-2.3c0.1-0.2,0.3-0.2,0.5-0.2
		c0.1,0,0.3,0,0.4,0.1c0.1,0.1,0.2,0.2,0.2,0.3c-0.1,0.4-0.2,0.8-0.3,1.3c0,0.3,0,0.7,0,1c0,0.2,0.1,0.3,0.1,0.5
		c0,0.1,0,0.1-0.1,0.2c-0.1,0-0.2,0-0.2-0.1c-0.1-0.1-0.2-0.3-0.3-0.5c-0.1-0.5-0.2-0.9-0.3-1.4c-0.1,0.1-0.1,0.2-0.2,0.3
		c-0.2,0.9-0.4,1.8-0.6,2.7c-0.1,0.5-0.2,1.1-0.4,1.6c0,0.2-0.2,0.4-0.3,0.5c-0.2,0.2-0.2,0.3-0.2,0.6c0,0.6,0.1,1.1,0.1,1.7
		c0,0.1,0,0.2,0.1,0.3c0.6-1.4,1.7-2.4,2.1-3.9c0-0.1,0.1-0.2,0.2-0.2c0.1,0.1,0.1,0.2,0.2,0.3c0,0.6-0.2,1.2-0.4,1.7
		c-0.2,0.4-0.4,0.8-0.6,1.3C11,27.6,10.9,28.4,11,29c0.1-0.3,0.2-0.6,0.3-0.8c0.2-0.4,0.5-0.7,1-0.7c0.3,0,0.5,0.1,0.6,0.4
		c0,0,0,0.1,0,0.1c0.4,0.8,0.3,1.6,0.3,2.5c0,0.7,0.4,1.3,0.7,1.9c0.1,0.2,0.2,0.4,0.3,0.6c0,0.1,0,0.2-0.1,0.3
		c-0.1,0-0.2-0.1-0.2-0.1c-0.4-0.6-0.9-1.2-1.3-1.8c-0.2-0.3-0.2-0.7-0.3-1.1c-0.1-0.3-0.1-0.6-0.1-0.8c0,0-0.1,0-0.1,0
		c0,0.4,0,0.8,0,1.1c0.1,1.6,0.6,3.1,1.1,4.5c0.2,0.5,0.4,1.1,0.5,1.7c0.1,0.4,0,0.8,0,1.2c0,0.2,0,0.3,0.2,0.3
		c0.3,0.1,0.5,0.2,0.8,0.4c-0.1-0.4-0.2-0.8-0.2-1.2c0-0.4,0-0.8,0.1-1.2c0-0.1,0.1-0.3,0.2-0.4c0.2-0.2,0.4-0.4,0.8-0.4
		c0.4,0,0.5,0.3,0.6,0.6c0.1,0.4,0.2,0.8,0.3,1.1c0.1,0.4,0.2,0.7,0.6,0.9c0,0,0.1,0.1,0.1,0.2c0,0-0.1,0.1-0.2,0.1
		c-0.2-0.1-0.5-0.2-0.6-0.3c-0.4-0.3-0.6-0.7-0.7-1.2c0-0.1-0.1-0.2-0.1-0.3l-0.1,0c0,0.2,0,0.4,0.1,0.6c0.2,0.6,0.4,1.2,0.6,1.7
		c0,0.1,0.2,0.2,0.2,0.2c1.1,0.3,2.1,0.6,3.2,0.8c0.2,0,0.2,0,0.3-0.2c0.1-0.3,0.2-0.5,0.3-0.8c0.1-0.1,0.2-0.2,0.3-0.4
		c0,0,0.1,0,0.1,0c0,0.1,0,0.3,0,0.4c0,0.2,0,0.5,0,0.7c0,0.3,0.1,0.4,0.4,0.4c1.4,0.1,2.7,0.3,4.1,0.3c3.4,0.1,6.7-0.5,9.9-1.6
		c0.7-0.3,1.4-0.6,2.1-0.9c0.3,0.5,0.6,1.1,1,1.7c0.1-0.3,0.1-0.6,0.2-0.8c0,0,0-0.1,0-0.1c-0.2-0.4-0.1-0.7,0.3-1
		c0,0,0.1,0,0.1-0.1c-0.2,0-0.3-0.1-0.4-0.1c-0.1,0-0.2-0.1-0.2-0.2c0-0.3-0.2-0.3-0.3-0.5c-0.1-0.2-0.2-0.4-0.3-0.6
		c0-0.2,0-0.4,0.3-0.3c0.1,0,0.1,0,0.2,0c0.2-0.2,0.5-0.3,0.8-0.2c0,0,0.1,0,0.1,0c0.1-0.4,0.5-0.3,0.7-0.2c0.3,0.1,0.5,0.2,0.8,0.3
		c0,0,0.1-0.1,0.1-0.2c0.3-0.4,0.6-0.6,1.1-0.5c0.1,0,0.2,0,0.2-0.1c0.2-0.2,0.3-0.4,0.4-0.7c0.1-0.3,0.2-0.6,0.5-0.8
		c0.2-0.1,0.4-0.2,0.4-0.5c-0.4,0.2-0.5,0.2-1-0.2c0,0.1-0.1,0.2-0.1,0.3c-0.1,0.4-0.4,0.5-0.8,0.6c-0.3,0.1-0.6,0.3-0.9,0.5
		c-0.2,0.1-0.3,0.2-0.3-0.1c-0.1-0.3-0.2-0.6-0.2-0.9c0-0.2,0.1-0.3-0.1-0.4c0,0,0-0.2,0-0.2c0-0.3,0.1-0.5,0.1-0.8
		c-0.3,0.1-0.6,0.1-0.9,0.2c-0.2,0.1-0.3,0-0.3-0.3c0.1-0.4,0.2-0.7,0.3-1.1c0,0,0,0,0-0.1c-0.2-0.4,0.1-0.5,0.3-0.7
		c0.2-0.1,0.5-0.2,0.8-0.3c0,0,0,0,0,0c0-0.2,0.1-0.5,0.1-0.7c0-0.2,0.1-0.4,0.3-0.2c0.1-0.2,0.2-0.4,0.3-0.6c0.1-0.1,0.3-0.2,0.4,0
		c0.2,0.3,0.5,0.4,0.8,0.4c0.1,0,0.2,0.1,0.2,0.1c0.2,0.3,0.3,0.6,0.4,1c0.1,0,0.3,0,0.5-0.1c0.1,0,0.1-0.1,0.1-0.1
		c0.3-1.1-0.2-2.3-1.2-2.7c-0.2-0.1-0.5-0.1-0.7-0.1c-0.1,0-0.2,0.2-0.3,0.3c0.3,0,0.5,0,0.6,0.3c0.1,0.2,0,0.4-0.2,0.6
		c-0.3,0.1-0.6,0.1-0.7-0.2c-0.3-0.4-0.1-1.1,0.4-1.3c0.3-0.1,0.5-0.1,0.8-0.2c0.1-0.2,0.1-0.4,0.2-0.5c0.2-0.2,0.5-0.2,0.7-0.1
		c0.2,0.1,0.3,0.4,0.1,0.6c-0.1,0.1-0.2,0.2-0.4,0.3c0.3,0.2,0.5,0.5,0.9,0.8c0-0.2,0.1-0.4,0-0.5c-0.3-0.5-0.2-1,0.2-1.4
		c0.1-0.1,0.1-0.2,0.2-0.3c-0.1,0-0.2,0-0.4-0.1c-0.3-0.1-0.7-0.2-1-0.3c0,0-0.1-0.2,0-0.3c0-0.1,0.1-0.3,0.2-0.4
		c0-0.1,0.1-0.3,0.1-0.4c0.1-0.2,0.2-0.3,0.3-0.5c-0.2-0.1-0.4-0.2-0.7-0.4c0,0.3,0,0.5,0,0.8c0,0.1-0.1,0.2-0.2,0.2
		c-0.2,0.1-0.4,0-0.5-0.2c-0.2,0-0.4,0-0.6-0.1C40.8,23.6,40.7,23.5,40.6,23.5c0.2,0,0.4,0.1,0.8,0.2c-0.1-0.2-0.1-0.4-0.2-0.5
		C41,23,40.8,23.2,40.6,23.5C40.7,23.4,40.7,23.4,40.6,23.5 M46.4,36.7c-0.5-0.2-0.7-0.6-0.9-1c0.1,0.3,0.2,0.5,0.4,0.8
		C46,36.6,46.3,36.6,46.4,36.7c0.3,0.1,0.5,0.1,0.6-0.1c0-0.1,0-0.3-0.1-0.4c-0.2-0.2-0.4-0.1-0.6,0.2c0.1-0.1,0.2-0.1,0.2-0.2
		c0.1,0,0.3,0,0.4,0c0,0,0.1,0.2,0.1,0.2c-0.1,0.1-0.2,0.2-0.3,0.2C46.5,36.8,46.5,36.7,46.4,36.7 M27.1,45.8c0-0.1,0-0.1,0.1-0.2
		c0.1-0.2,0.2-0.3,0.4-0.3c0.2,0,0.3,0.2,0.3,0.4c0,0,0,0.1,0,0.2c0.1-0.3,0.1-0.5-0.1-0.6c-0.2-0.1-0.4-0.1-0.5,0.1
		C27.1,45.5,27.1,45.7,27.1,45.8c0.1,0.3,0.3,0.4,0.7,0.4c0.3,0,0.6-0.3,0.7-0.7c-0.1,0.1-0.2,0.2-0.2,0.3c-0.2,0.2-0.4,0.4-0.6,0.3
		C27.5,46,27.3,45.9,27.1,45.8 M44.3,17.8c0-0.1-0.1-0.1,0-0.2c0-0.2,0.1-0.4,0.2-0.7c0-0.1,0.1-0.2,0.2-0.4c0-0.1,0.1-0.3,0.1-0.4
		c0-0.2,0-0.3,0.3-0.3c0.1,0,0.2,0,0.3-0.1c0,0,0-0.1,0-0.1c-0.2-0.1-0.5-0.2-0.7-0.2c-0.2,0.1-0.4,0.2-0.6,0.3
		c-0.2,0.1-0.3,0.2-0.4,0.5c0.2-0.1,0.4-0.2,0.6-0.3c0,0,0,0,0,0.1c-0.1,0-0.1,0.1-0.2,0.1c0.2,0,0.3,0.1,0.4,0.1c0,0,0,0,0,0.1
		h-0.5c0,0.1,0.1,0.2,0.1,0.2c-0.5-0.2-0.7-0.2-0.9,0.1c0.2,0.1,0.3,0.2,0.5,0.3C43.6,17.2,43.8,17.7,44.3,17.8
		c-0.1,0-0.2,0-0.3,0.1c0.1,0.2,0.2,0.3,0.2,0.5l0,0c-0.1-0.2-0.3-0.4-0.4-0.6c-0.1,0.1-0.1,0.1-0.2,0.2c0.1-0.4,0.1-0.7-0.3-1
		c0,0.1-0.1,0.1-0.1,0.2c0-0.1-0.1-0.2-0.1-0.3c-0.3,0.2-0.5,0.3-0.5,0.6c-0.1,0.1-0.2,0.1-0.2,0.2c-0.1,0.2-0.2,0.4-0.4,0.7
		c0,0-0.1,0-0.1,0c0.1-0.2,0.1-0.3,0.2-0.5c-0.1,0-0.1,0-0.2,0c0.6-0.5,0.6-0.5,0.4-0.6c0.2-0.1,0.5-0.2,0.6-0.4c0,0,0-0.1,0-0.1
		c-0.2,0.1-0.4,0.1-0.6,0.2c0-0.1,0.1-0.1,0.1-0.2c-0.1,0-0.1,0-0.2-0.1c0,0,0,0,0-0.1c0.2,0,0.4,0,0.7-0.1
		c-0.1-0.2-0.2-0.3-0.3-0.4c0.1,0,0.2,0.1,0.3,0.2c0.1,0.1,0.2,0.1,0.3,0.1c0.1-0.1,0.2-0.2,0.2-0.3c0-0.3-0.2-0.4-0.5-0.5
		c0,0.1,0,0.2-0.1,0.2c-0.3-0.2-0.6-0.4-1-0.2c0.1,0.1,0.1,0.2,0.2,0.3c-0.5,0.1-0.9,0.1-1.2,0.5c0,0.1,0.1,0.1,0.1,0.1
		c-0.2,0.2-0.3,0.4-0.5,0.6c0.3,0,0.5-0.1,0.6,0.2c0,0,0.1,0,0.2,0c0.1,0,0.2,0,0.4,0c-0.2,0.2-0.3,0.4-0.5,0.6
		c0.1,0,0.2,0.1,0.3,0.1c-0.2,0.4,0,0.8,0.2,1.1c0.1-0.1,0.3-0.2,0.4-0.2c0.5-0.1,0.7-0.4,0.8-0.8c0-0.1,0.1-0.2,0.1-0.3
		c0,0.5,0,0.5,0.4,0.8c0.1-0.1,0.9,0.1,1.4,0.4v-1c0.1,0,0.4,0,0.3-0.3C44.7,17.8,44.5,17.8,44.3,17.8 M11.9,38.2
		c-0.1-0.1-0.2-0.1-0.3-0.2c-0.5-0.3-0.9-0.6-1.4-0.9c-0.1-0.1-0.1-0.1-0.2-0.2c0,0,0,0,0,0c0.4,0.3,0.9,0.6,1.4,0.9
		c-0.1-0.5-0.4-0.8-0.9-1.1c-0.6-0.4-1.1-1-1.5-1.7C9,34.7,8.8,34.3,8.7,34c-0.2-0.2-0.4-0.4-0.5-0.6c0,0,0,0-0.1,0.1
		c0.5,0.4,0.7,1,0.9,1.6c0.1,0.3,0.2,0.5,0.3,0.8c0.3,0.8,0.8,1.5,1.6,2C11.2,38,11.5,38.1,11.9,38.2c0.1,0.1,0.2,0.1,0.3,0.2
		c0.2,0.1,0.3,0.2,0.3,0.5c-0.5-0.4-0.6-0.4-1.3-0.5c-1-0.2-2-0.6-2.7-1.3c-0.4-0.4-0.8-0.7-1.2-1.1c-0.8-0.7-1.7-1.2-2.8-1.4
		c-0.4-0.1-0.8,0-1.1,0.3c0,0,0,0,0.1,0c0,0,0.1,0,0.1,0c0.5-0.1,1,0,1.4,0.2c1.1,0.6,2.1,1.3,2.9,2.2c0.5,0.5,1,1,1.6,1.5
		c0.8,0.6,1.7,0.9,2.8,0.4c0,0,0,0,0.1,0c-0.1,0.2-0.4,0.3-0.6,0.4c-0.8,0.2-1.5,0-2.1-0.5c-0.5-0.4-1.1-0.5-1.7-0.6
		c-0.2,0-0.4,0-0.7,0c0.2,0.1,0.3,0.1,0.5,0.2c0.6,0.3,1.2,0.7,1.9,1c0.7,0.4,1.4,0.5,2.2,0.3c0.1,0,0.3-0.1,0.4-0.2
		c0.3-0.5,0.6-1.1,0.9-1.6c0.1-0.1,0.2-0.2,0.3-0.3c0,0,0.1,0,0.1,0c0-0.2,0-0.4,0-0.5c0-0.8-0.2-1.5-0.5-2.2
		c-0.6-1.4-1-2.8-1.1-4.3c-0.1-0.8-0.1-1.6,0.1-2.4c0.1-0.2,0.1-0.4,0.2-0.7c-0.3,0-0.5,0.2-0.6,0.4c-0.1,0.4-0.2,0.8-0.3,1.2
		c-0.1,1.2-0.2,2.5,0,3.8c0.2,1.5,0.5,2.9,1.2,4.3c0.1,0.2,0.1,0.4,0.2,0.7c0,0.2-0.1,0.3-0.3,0.2C12.2,38.3,12,38.2,11.9,38.2
		 M39.9,34.1c0,0,0.1,0,0.1,0c0.4-0.2,0.7-0.4,1.1-0.7c0,0,0.1,0.1,0.1,0.2c0.1-0.1,0.2-0.1,0.2-0.2c0.1-0.2,0.1-0.5,0.1-0.7
		c0-0.1,0.1-0.2,0.1-0.3c0.1,0.1,0.2,0.2,0.2,0.3c0.1,0.2,0.2,0.4,0.4,0.4c0-0.1,0.1-0.2,0.1-0.2c0.4,0.1,0.7,0.1,1.1,0.2
		c0-0.2,0-0.4,0-0.6c0-0.2-0.1-0.3-0.2-0.5c0.1,0,0.2,0,0.3-0.1c-0.2-0.2-0.3-0.4-0.5-0.5c0.2,0,0.3,0,0.5,0c0-0.1,0.1-0.2,0.1-0.2
		c0.2-0.1,0.4-0.1,0.5-0.1c-0.3-0.3-0.5-0.5-0.7-0.8c0.1-0.1,0.1-0.3,0.2-0.4c-0.3,0-0.6-0.1-0.9-0.1c-0.4,0-0.7,0.1-0.8,0.5
		c0,0.1,0,0.2-0.1,0.3c0.1,0,0.2,0,0.3,0c0.1,0,0.3-0.1,0.4-0.1c0.1,0,0.1,0,0.2,0c-0.1,0.1-0.2,0.1-0.3,0.2c-0.1,0-0.1,0.1-0.2,0.2
		c0.1,0.1,0.2,0.1,0.3,0.2c0.1,0,0.1,0,0.2,0c0,0,0,0,0,0.1c-0.1,0-0.2,0.1-0.3,0.1c0,0.1,0.1,0.2,0.1,0.3c0.1,0.1,0.2,0.2,0.3,0.3
		c-0.1,0-0.2,0-0.3,0c0,0.2,0.1,0.3,0.1,0.4l-0.1,0c-0.1-0.1-0.1-0.3-0.2-0.4c0,0.1-0.1,0.1-0.1,0.2c0,0,0,0-0.1,0
		c0-0.1,0-0.3,0.1-0.4c0.1-0.3,0-0.5-0.1-0.7c-0.2-0.3-0.5-0.3-0.7,0c-0.2,0.3-0.3,0.6-0.1,0.9c-0.1,0-0.2-0.1-0.3-0.2
		c-0.1,0.3-0.2,0.6-0.2,0.8c-0.3-0.2-0.2,0.3-0.4,0.3c0.2-0.3,0.3-0.7,0.5-1C40.8,32,40.7,32,40.6,32c0,0-0.1-0.1-0.1-0.1
		c0.7-0.1,0.7-0.8,1.1-1.2c-0.4-0.2-0.7-0.1-0.9,0.2c0-0.1,0-0.2,0.1-0.3c-0.3,0-0.6,0.1-0.7,0.4c-0.2,0-0.3,0-0.5,0c0,0,0,0,0-0.1
		c0.3-0.2,0.6-0.3,0.9-0.5c0-0.1-0.1-0.1-0.2-0.2c0.3,0.1,0.5,0.2,0.7,0.2c0.2,0,0.4,0,0.7,0.1c-0.2-0.2-0.2-0.4-0.4-0.5
		c-0.1-0.1-0.3-0.2-0.5-0.3c0.1,0,0.2-0.1,0.2-0.1c0-0.2,0-0.3-0.1-0.5c0,0,0.1,0,0.1,0c0.1,0.3,0.1,0.6,0.4,0.8
		c0.1-0.1,0.1-0.2,0.1-0.3c0,0.3-0.1,0.6,0.3,0.8c0.4-0.4,0.4-1.2,0.1-1.5c-0.1,0.1-0.1,0.2-0.1,0.2c-0.3-0.3-0.6-0.5-1-0.8
		c-0.1,0.3-0.1,0.6-0.2,0.8c-0.1,0-0.2,0-0.3-0.1c0,0.2-0.1,0.4,0,0.6c0,0.2,0.1,0.3,0.2,0.5c-0.8-0.1-1.1,0-1.4,0.4
		c0.1,0.1,0.1,0.1,0.2,0.2c-0.4,0.2-0.4,0.6-0.5,1c0.4,0,0.7-0.1,1.1-0.1c0,0,0.1,0.1,0.1,0.2c0.1,0,0.1-0.1,0.2-0.1
		c0.1-0.1,0.2-0.2,0.3-0.3c0.1,0,0.2,0,0.3,0c-0.1,0.1-0.1,0.2-0.2,0.2c-0.1,0.1-0.3,0.1-0.4,0.2c-0.4,0.3-0.4,0.8-0.2,0.9
		C39.8,33.3,39.8,33.7,39.9,34.1 M42.5,36.5c-0.1,0-0.2,0-0.3,0v-1.1c-0.4,0.1-0.7,0.2-1.1,0.3c-0.1-0.1-0.2-0.1-0.3-0.1
		c-0.1,0-0.3,0.1-0.4,0.2c-0.5,0.4-0.2,0.9-0.2,1.4c0,0,0.1,0,0.1,0c0.2-0.3,0.4-0.6,0.5-0.9c0,0,0,0,0.1,0
		c-0.1,0.1-0.1,0.3-0.2,0.4c0,0,0.1,0,0.1,0.1c0.3-0.3,0.5-0.6,0.8-0.9c0,0,0,0,0.1,0c-0.2,0.2-0.3,0.4-0.5,0.7c0.1,0,0.2,0,0.3,0
		c-0.3,0.1-0.6,0.2-0.9,0.3c0.1,0.1,0.1,0.1,0.2,0.1c-0.2,0.1-0.4,0.2-0.6,0.2c0,0,0,0.1,0,0.1h0.8l0,0.1c0,0-0.1,0.1-0.1,0.1
		c0.3,0.3,0.7,0.1,1.1,0.1c-0.1,0.1-0.1,0.1-0.2,0.1c0.2,0.1,0.3,0.2,0.4,0.3c0,0,0,0,0,0c-0.3-0.1-0.5-0.2-0.8-0.3c0,0,0,0.1,0,0.1
		c0,0.1,0.1,0.2,0.1,0.2c-0.8-0.6-1.2-0.7-1.6-0.5c0.2,0.2,0.3,0.3,0.5,0.6c-0.1,0-0.1,0-0.2,0c0.1,0.3,0.3,0.6,0.4,0.9
		c-0.3,0.1-0.1,0.6-0.4,0.7c0-0.2,0-0.4,0.1-0.6c-0.1,0.1-0.2,0.1-0.2,0.2c0-0.3,0.1-0.6,0.1-0.9c0,0-0.1,0-0.1,0
		c-0.1,0.2-0.1,0.3-0.2,0.5c0,0,0,0-0.1,0c0-0.1,0-0.1,0-0.2c0-0.2,0.1-0.5,0.1-0.7c0-0.1-0.1-0.2-0.2-0.2c-0.1,0-0.2,0.1-0.2,0.1
		c-0.1,0.2-0.2,0.4-0.2,0.6c0,0,0,0-0.1,0.1c0-0.1-0.1-0.1-0.1-0.3c-0.2,0.3-0.3,0.5-0.5,0.7c0,0,0,0-0.1,0c0.1-0.2,0.1-0.4,0.2-0.6
		c-0.1,0-0.2,0-0.3-0.1c0.1-0.1,0.1-0.1,0.2-0.1c0.4,0,0.6-0.2,0.8-0.5c0.2-0.2,0.1-0.4,0-0.6c-0.2-0.2-0.4-0.2-0.6-0.1
		c-0.1,0-0.2,0.1-0.3,0.1c0,0,0,0,0-0.1c0.1-0.1,0.2-0.2,0.4-0.3c-0.3-0.1-0.5-0.1-0.7-0.2c0.4-0.1,0.8,0.1,1.1,0.3c0,0,0,0,0-0.1
		c0-0.2-0.1-0.3-0.1-0.5c0,0,0.1,0,0.1,0c0.1,0.3,0.2,0.6,0.3,0.9c0.3-0.5,0-1.2-0.4-1.4c-0.2-0.1-0.4-0.1-0.7-0.1
		c0,0-0.1,0.2-0.1,0.3c0,0,0,0,0,0c-0.5-0.2-0.5-0.2-1,0.1c-0.1,0-0.2,0-0.2,0.1c-0.1,0-0.2,0.2-0.1,0.2c0.1,0.1,0.1,0.3,0.3,0.4
		c0.1,0.1,0.3,0.1,0.5,0.2c-0.1,0.1-0.1,0.2-0.2,0.3c0.4,0.2,0.9-0.1,1.2,0.1c0,0,0,0.1,0,0.1c-0.2,0-0.4,0.1-0.4,0.1
		c-0.1,0.1-0.2,0.2-0.3,0.3c-0.2,0.1-0.4,0.3-0.4,0.6c0.1,0,0.2,0,0.4,0C38,39.1,37.8,39.6,38,40c0.3-0.1,0.6-0.1,0.8-0.2
		c0.3-0.1,0.5-0.3,0.7-0.4c0.1,0.2-0.2,0.7,0.4,0.6c0.1,0.2,0.2,0.4,0.3,0.7c0.4-0.2,0.6-0.5,0.8-1c0.3,0.2,0.4-0.1,0.3-0.2
		c0-0.2-0.2-0.4-0.2-0.6c0-0.1-0.1-0.2-0.2-0.3c0,0,0,0,0.1-0.1c0.3,0.2,0.6,0.6,1,0.4c0-0.1-0.1-0.2-0.1-0.2c0.4-0.1,0.7-0.1,1-0.2
		c0-0.4,0-0.4-0.5-0.9c0.1,0,0.2-0.1,0.3-0.1c-0.3-0.1-0.4-0.2-0.6-0.3c-0.2,0-0.4,0-0.6,0l0-0.1c0.2,0,0.4-0.1,0.6-0.2
		C42.3,36.9,42.5,36.7,42.5,36.5 M41.8,12.3C41.8,12.3,41.8,12.3,41.8,12.3c0.2-0.1,0.4-0.1,0.6-0.1c0.2,0,0.5,0,0.5-0.3
		c0.1-0.3-0.1-0.5-0.3-0.6c0.1-0.3-0.3-0.3-0.4-0.5c0.2,0.1,0.3,0.1,0.5,0.2c0.1,0.2,0.2,0.4,0.4,0.7c0.1-0.1,0.1-0.1,0.1-0.2
		c0.4-0.5,0.2-0.9-0.4-1.1c-0.2-0.1-0.4-0.1-0.7-0.1c-0.2,0-0.5,0-0.8-0.1c0.1,0.3,0.1,0.5,0.2,0.7c0,0.1-0.1,0.2,0,0.3
		c0.1,0.3,0.2,0.4,0.5,0.5c0.4,0.1,0.5,0.2,0.5,0.5c-0.3-0.3-0.6-0.4-1-0.3c-0.1,0.1-0.1,0.2-0.2,0.2c-0.3,0.1-0.5,0.3-0.6,0.5
		c0.3,0.3,0.7,0.4,1.2,0.4c-0.1,0.1-0.3,0.1-0.4,0.2c-0.3,0.1-0.3,0.2-0.1,0.4c-0.3,0.4,0,0.8-0.1,1.2c0,0.1,0,0.2,0.1,0.2
		c0.3-0.1,0.5-0.2,0.8-0.2c0,0,0.1,0.1,0.2,0.2c0.1-0.2,0.3-0.3,0.4-0.4c0.1,0.1,0.2,0,0.3-0.1c0.1-0.1,0.1-0.3,0.1-0.4
		c0-0.2,0-0.4,0.2-0.5c0.2,0.3,0,0.9,0.5,1.1c0-0.1,0.1-0.1,0.1-0.2c0.3,0.1,0.6,0.1,1,0.2c-0.1-0.3-0.1-0.5-0.2-0.7
		c0-0.1,0.1-0.1,0.1-0.2c0-0.3-0.2-0.5-0.5-0.6c-0.1,0-0.3-0.1-0.4-0.1l0-0.1c0.1,0,0.3,0,0.4,0c0.1,0,0.4,0,0.4,0
		c0-0.3,0.3-0.2,0.4-0.2c0.1-0.1,0.3-0.1,0.4-0.1c-0.1-0.1-0.1-0.3-0.2-0.4c-0.1-0.1-0.2-0.1-0.4-0.2c0-0.1,0.1-0.1,0.2-0.2
		c-0.3-0.1-0.6-0.3-1-0.4c-0.4-0.1-0.8,0.2-0.9,0.7c0.3-0.1,0.6-0.1,0.8-0.2c0.2,0.3,0.5,0.5,0.8,0.6c-0.2,0.1-0.4,0-0.6-0.1
		c-0.2-0.2-0.4-0.2-0.6-0.2c0.1,0.1,0.1,0.2,0.2,0.3c-0.4-0.3-0.7-0.3-0.9,0c0.4,0.2,0.6,0.4,0.6,0.8c0,0.3,0.1,0.5,0.5,0.5
		c-0.1,0.1-0.2,0.1-0.3,0.1c0.1,0.1,0.2,0.3,0.3,0.4c0,0,0,0,0,0c-0.2-0.2-0.4-0.3-0.6-0.5c0-0.2,0.1-0.5-0.2-0.8
		c0,0.1-0.1,0.2-0.1,0.3c0-0.1,0-0.2,0-0.2c-0.1-0.1-0.1-0.3-0.2-0.4c-0.1,0.1-0.3,0.1-0.4,0.2c-0.1,0.2-0.2,0.5-0.2,0.8
		c0,0,0,0.1,0,0.1c-0.1,0-0.1-0.1-0.2-0.1c0,0.3,0,0.5-0.1,0.7c0-0.1-0.1-0.1-0.1-0.2c-0.1,0.2-0.2,0.3-0.3,0.5c0,0,0,0,0,0
		c0.1-0.1,0.1-0.2,0.2-0.3c-0.1,0-0.1-0.1-0.1,0c0.2-0.3,0.3-0.6,0.5-0.9c-0.2,0-0.2,0-0.3,0c0.3-0.2,0.5-0.4,0.6-0.8
		c-0.2,0.1-0.4,0.1-0.5,0.1c0,0,0,0,0-0.1C42,12.4,41.9,12.3,41.8,12.3 M48.2,24.8c0.4-0.2,0.5-0.3,0.5-0.7c0-0.1,0-0.2-0.1-0.2
		c-0.1,0-0.1,0-0.2,0.1c-0.1,0.1-0.2,0.1-0.2,0.2c0,0,0,0,0,0c0.1-0.1,0.1-0.2,0.2-0.3c0,0,0-0.1-0.1-0.1c-0.2,0.1-0.4,0.2-0.6,0.3
		c0-0.1,0-0.1,0-0.2c-0.1,0-0.1,0-0.2,0c0,0,0,0,0-0.1c0.2,0,0.3-0.1,0.5-0.2c-0.2-0.1-0.3-0.1-0.4-0.2c0,0,0-0.1,0-0.1
		c0.3,0.1,0.6,0.2,0.8,0.4c0-0.4-0.3-0.7-0.7-0.7c-0.2,0-0.4-0.1-0.7-0.1c0,0.2,0,0.3,0,0.4c-0.3,0.3-0.5,0.5-0.8,0.8
		c0,0,0,0.1,0,0.1c0.2,0,0.5,0.1,0.7,0.1c-0.1,0.1-0.1,0.2-0.2,0.3h0.8c-0.2,0.2-0.3,0.3-0.5,0.5c0.1,0.1,0.2,0.1,0.2,0.2
		c0,0-0.1,0-0.1,0c-0.1,0.3-0.2,0.5-0.2,0.8c0,0.2,0.1,0.2,0.2,0.2c0.2,0,0.3-0.1,0.5-0.2c0,0.1,0.1,0.1,0.1,0.2
		c0.2-0.2,0.4-0.3,0.5-0.5c0,0.2,0,0.4,0.1,0.7c0.1-0.1,0.2-0.2,0.4-0.3c-0.1,0.6,0.3,0.8,0.6,1.1c0.4-0.3,0.5-0.6,0.5-1.1
		c0.3,0.1,0.4,0,0.3-0.2c-0.1-0.2-0.2-0.4-0.4-0.5c-0.1-0.1-0.3-0.2-0.4-0.4c0,0,0,0,0,0c0.2,0.1,0.4,0.3,0.7,0.4V25
		c0.4,0.2,0.8,0.1,1.2-0.1c-0.2-0.3-0.4-0.5-0.6-0.8c0.1-0.3,0-0.3-0.3-0.3c-0.2,0-0.3,0-0.5,0.1c-0.1,0-0.1,0-0.2,0
		c0.1-0.2,0.3-0.4,0.4-0.6c0,0,0-0.2,0-0.2c-0.2-0.1-0.1-0.2-0.1-0.3c0.1-0.2,0.1-0.5-0.1-0.7c-0.4,0.3-0.9,0.2-1.1,0.8
		c-0.1-0.2-0.1-0.2-0.1-0.3c-0.4,0.2-0.6,0.7-0.3,1.1c0.1,0.1,0.2,0.1,0.3,0c0.1-0.2,0.1-0.4,0.2-0.6c0,0,0,0,0.1-0.1
		c0,0.1,0.1,0.1,0.1,0.2c0.1-0.1,0.2-0.2,0.3-0.2c0,0,0,0,0,0c-0.2,0.2-0.3,0.3-0.5,0.5c0.1,0,0.1,0.1,0.2,0.1c-0.1,0-0.1,0-0.2,0.1
		c-0.1,0.1-0.3,0.3-0.3,0.4c0,0.2,0.2,0.2,0.4,0.2c0.3,0,0.7,0.1,1,0.1c0.1,0,0.1,0,0.2,0.1l0,0.1c-0.1,0-0.1,0-0.2,0
		c0.1,0.1,0.2,0.2,0.3,0.4c0,0,0,0,0,0c-0.3-0.2-0.6-0.3-0.9-0.5c0,0,0,0-0.1,0.1l0.1,0.4c-0.5-0.5-0.5-0.5-0.8-0.4
		c0.2,0.3,0.4,0.7,0.5,1c0,0.2,0,0.4-0.1,0.6c0,0,0,0,0,0c0-0.3-0.1-0.5-0.1-0.9c-0.1,0.2-0.2,0.3-0.2,0.4c0,0,0,0-0.1,0
		c0.2-0.5-0.1-0.9-0.3-1.4c-0.2,0.5-0.4,0.9-0.6,1.4c0-0.1-0.1-0.1-0.1-0.2c-0.1,0-0.2,0.1-0.2,0.1c0,0,0,0,0,0
		c0.2-0.2,0.3-0.3,0.5-0.5C48.4,24.8,48.3,24.8,48.2,24.8 M5.3,31.9C5.3,31.8,5.4,31.8,5.3,31.9c0-0.3-0.1-0.6-0.3-0.9
		c-0.6-1.2-1.1-2.5-1.5-3.8c-0.1-0.3-0.1-0.5,0-0.8c0.1-0.5,0.3-1,0.3-1.6c0.1-0.8-0.1-1.6-0.2-2.5c-0.2-1.5-0.6-3.1-0.2-4.6
		c0.3,0.9,0.5,1.9,0.7,2.8c0-0.4-0.1-0.7-0.1-1c0-0.7,0-1.4-0.4-2c-0.2-0.2-0.3-0.3-0.4-0.1c-0.2,0.3-0.3,0.6-0.4,0.9
		c-0.3,1-0.1,2.1,0,3.1c0.2,1.3,0.1,2.5-0.1,3.8c-0.1-0.1-0.1-0.2-0.2-0.3c-0.1,0.2-0.2,0.3-0.3,0.5c-0.2-0.3-0.4-0.6-0.3-1
		c0.1-0.3,0-0.6,0-1c0-0.2-0.1-0.3-0.1-0.5c-0.2-0.9-0.4-1.9-0.8-2.7c-0.1-0.2-0.3-0.3-0.5-0.3c0.2,0.4,0.4,0.7,0.5,1
		c0.3,1.1,0.5,2.2,0.7,3.3C2,25.5,2.3,26.2,3,26.8c0.1,0.1,0.2,0.2,0.2,0.4c0.2,0.4,0.3,0.9,0.4,1.3c0.4,0.9,0.7,1.9,1.1,2.8
		C4.9,31.6,5.1,31.8,5.3,31.9 M16.4,45.9c0.2-0.3,0.4-0.4,0.7-0.4c0.7,0,1.3,0.1,1.8,0.5c0.5,0.3,0.9,0.6,1.4,0.9
		c0.7,0.5,1.5,0.7,2.4,0.4c0.3-0.1,0.6,0,0.8,0.1c0.8,0.5,1.6,1.1,2.4,1.6c0.5,0.3,1,0.5,1.5,0.8c0.3,0.1,0.5,0,0.8-0.2
		c-0.1-0.1-0.2-0.1-0.3-0.2c-1.4-0.7-2.7-1.5-4.1-2.2c-0.4-0.2-0.7-0.6-1-0.9c-0.2-0.2-0.4-0.4-0.6-0.6c-0.2-0.2-0.5-0.4-0.7-0.6
		c-0.2-0.3-0.4-0.3-0.8-0.3c0.1,0.3,0.2,0.6,0.3,0.9c0.2,0.4,0.5,0.6,0.9,0.6c0.2,0,0.3,0,0.5,0.1c0.3,0.1,0.4,0.3,0.4,0.6
		c-0.3-0.4-0.6-0.4-1-0.4c-0.4-0.1-0.9-0.1-1.3-0.3c-0.4-0.1-0.8-0.4-1.1-0.5c-0.7-0.3-1.4-0.7-2.2-0.6c-0.4,0-0.7,0.2-0.9,0.5
		c-0.2,0.3-0.1,0.4,0.2,0.5c0.2,0.1,0.4,0.1,0.5,0.2c0.4,0.2,0.7,0.5,1.1,0.8c0.2,0.2,0.4,0.4,0.5,0.8c0,0.1,0.1,0.2,0.1,0.3
		c0-0.7-0.3-1.3-0.7-1.9c-0.4-0.5-0.7-0.5-1.3-0.3C16.6,45.9,16.5,45.9,16.4,45.9 M28.1,44.8c-2.2,0.3-4.3,0.2-6.5,0.1
		c0.1,0.2,0.3,0.3,0.5,0.5c0.3,0.3,0.6,0.6,1,0.8c0.3,0.2,0.5,0.5,0.8,0.7c0.4,0.3,0.8,0.4,1.2,0.7c0.4,0.3,0.7,0.2,1,0
		c0.1-0.1,0.2-0.2,0.3-0.3c0.2-0.2,0.5-0.4,0.8-0.4c0.5,0,0.9-0.2,1.3-0.5c0,0,0-0.1,0-0.2c0,0-0.1-0.1-0.2,0
		c-0.4,0.1-0.7,0.3-1.1,0.4c-0.3,0.1-0.6,0-0.9,0c-0.1,0-0.1-0.1-0.1-0.2c0.1,0,0.1-0.1,0.2-0.1c0.2,0,0.4,0,0.7,0
		c-0.2-0.6-0.2-0.9,0.1-1.1c0.1-0.1,0.3-0.1,0.4-0.1c0.2,0.1,0.4,0.2,0.6,0.4C28.2,45.2,28.1,45,28.1,44.8 M4.9,17.2
		C5.1,18,5,18.8,5,19.6c0,0.9-0.1,1.8,0,2.7c0,0.5,0.2,1,0.6,1.5c0.2,0.2,0.3,0.5,0.3,0.8c0.2,1.3,0.5,2.6,0.9,3.9
		c0.2,0.5,0.4,1,0.6,1.5c0-0.1,0.1-0.1,0.1-0.1c-0.6-1.7-0.9-3.5-1.2-5.3c0-0.2,0-0.5,0.1-0.7c0.1-0.4,0.3-0.7,0.4-1.1
		c0.1-0.4,0.1-0.8,0.1-1.2c0-1-0.1-1.9-0.1-2.9c0-0.4,0.1-0.7,0.1-1.1c0-0.1,0.2-0.2,0.3-0.2c0,0,0.1,0.1,0.2,0.2
		c0.2,0.4,0.3,0.7,0.5,1.1c0,0,0.1,0,0.1,0c-0.1-0.4-0.3-0.8-0.4-1.3c0-0.2-0.1-0.3-0.3-0.3c-0.2,0-0.5,0-0.6,0.3
		c-0.1,0.3-0.3,0.7-0.2,1c0.1,1.3-0.3,2.4-0.5,3.6c0,0.1,0,0.2-0.1,0.2c-0.2,0.3-0.4,0.6-0.6,1c0-0.2,0.1-0.4,0.1-0.6
		c0-0.1,0.1-0.3,0.1-0.4c-0.2-0.8-0.2-1.6-0.2-2.4C5.3,18.9,5.3,18,4.9,17.2 M8.8,30.5l0.1,0c-0.3-1.1-0.2-2.2-0.6-3.3
		c0,0.1,0,0.2-0.1,0.3c-0.1,0.1-0.2,0.2-0.2,0.3c-0.1-0.1-0.2-0.2-0.2-0.3c-0.1-0.2-0.1-0.5-0.2-0.8c-0.1-0.5-0.2-1.1-0.3-1.6
		c-0.1-0.5,0.3-0.7,0.7-0.6c0,0,0.1,0,0,0c0-0.5-0.1-1.1,0-1.6c0.1-1.1,0-2.1-0.6-3c-0.1-0.1-0.2-0.3-0.2-0.4c0-0.1,0-0.2,0-0.3
		c0.1,0,0.2,0,0.3,0.1c0.1,0,0.1,0.1,0.1,0.1c0,0,0.1,0,0.1-0.1l-0.6-1.6c0,0-0.1,0-0.1,0C7.1,17.8,7,18,7,18.1c0,0.2,0,0.5,0,0.7
		c0,1.1,0.1,2.3,0.1,3.4c0,0.6-0.2,1.2-0.6,1.7c-0.1,0.1-0.1,0.3-0.1,0.5c0.1,0.6,0.2,1.1,0.3,1.7c0,0.3,0.1,0.5,0.2,0.8
		C7,26.8,7,26.7,7,26.5c0-0.1,0.1-0.1,0.1-0.2c0.1,0,0.1,0.1,0.2,0.1c0.1,0.1,0.1,0.3,0.1,0.5c0.1,0.6,0.3,1.2,0.6,1.8
		c0.2,0.5,0.4,1,0.7,1.4C8.7,30.3,8.7,30.4,8.8,30.5 M8.9,24.8c0-0.2-0.1-0.4,0-0.6c0.1-0.6,0.1-1.3,0-1.9c-0.1-0.9-0.3-1.4-0.9-1.8
		c0.4,0.8,0.5,1.6,0.4,2.5c-0.1,0.8,0,1.6,0.5,2.3C9,25.4,9.1,25.7,9.1,26c0.1,0.6,0.1,1.3,0.1,1.9c0.1,0.9,0.2,1.8,0.3,2.7
		c0,0,0,0.1,0,0.1c0.1-0.1,0.1-0.2,0.1-0.4c0-0.3,0-0.6,0-0.8c0-0.3,0-0.7,0-1c-0.1-1-0.1-1.9-0.2-2.9c0-0.1,0-0.3,0.1-0.4
		c0.5-0.3,0.6-0.8,0.7-1.3c0.2-0.9,0.3-1.8,0.5-2.6c0.1-0.5,0.4-1,0.6-1.5c0.1-0.1,0.3-0.2,0.4-0.3c0,0.2,0,0.3,0,0.5
		c-0.2,0.5-0.2,0.9,0,1.4c0-0.2,0-0.5,0.1-0.8c0.1-0.3,0.2-0.7,0.2-1c0-0.1,0.1-0.3-0.1-0.4c-0.2-0.1-0.4-0.1-0.6,0.1
		C10.2,20.9,9.1,22.6,8.9,24.8 M7.9,24.8c0,0.1,0,0.1,0,0.1c0.6,1.4,1,2.9,1.1,4.5c0,0.1,0,0.2,0.1,0.3c0,0.3,0.1,0.6,0.1,0.9
		c0,0.6,0.1,1.1,0.5,1.6c0.2,0.2,0.3,0.5,0.4,0.7c0.2,0.9,0.4,1.7,0.7,2.6c0.3,0.9,0.6,1.7,1.3,2.4c0.1,0.1,0.2,0.1,0.3,0.2
		c0,0,0,0,0.1-0.1c-0.1-0.1-0.1-0.3-0.2-0.4c-0.1-0.2-0.2-0.3-0.3-0.5c-0.7-1.3-1.1-2.7-1.5-4.1c0-0.2,0-0.5,0.1-0.7
		c0.2-0.4,0.4-0.8,0.4-1.2c0-0.5,0-1-0.1-1.5c-0.1-1,0-1.9,0.4-2.8c0.2-0.3,0.3-0.6,0.4-0.9c0.2-0.4,0.3-0.7,0.4-1.1
		c-0.5,0.8-1,1.7-1.5,2.6c-0.5,0.9-0.7,2-0.7,3c0,0.2-0.1,0.4-0.1,0.5c0,0.2,0,0.5,0,0.7c0,0.1,0,0.1,0,0.2
		c-0.3-0.2-0.4-0.5-0.5-0.9c-0.1-1.1-0.2-2.3-0.3-3.4c-0.1-0.8-0.2-1.5-0.7-2.1C8.2,25.1,8.1,24.9,7.9,24.8 M1.5,26.9
		c0.8,1,1.1,2,1.6,3.1c0.2,0.4,0.4,0.8,0.6,1.3c0.5,1.1,1.2,2,2.4,2.5c0.2,0.1,0.4,0.3,0.6,0.5c0.8,0.9,1.6,1.9,2.4,2.8
		c0.4,0.4,0.8,0.7,1.4,0.7c0,0-0.1-0.1-0.1-0.1c-1.4-1-2.5-2.2-3.5-3.6c-0.2-0.2-0.3-0.5-0.2-0.8c0.1-0.7-0.1-1.3-0.4-1.9
		c-0.4-0.9-1.1-1.7-1.4-2.8c0,0.6,0.2,1,0.4,1.4c0.2,0.4,0.4,0.8,0.6,1.2c0.1,0.1,0.1,0.3,0.1,0.6c-0.3-0.6-0.6-1.2-0.8-1.8
		c0,0-0.1,0-0.1,0c0,0.1,0,0.1,0.1,0.2c0.2,0.5,0.3,1.1,0.5,1.6c0,0.1,0.2,0.2,0.2,0.3c0.1,0.1,0.2,0.3,0.3,0.4c0,0,0,0-0.1,0
		c-0.3-0.2-0.5-0.4-0.8-0.6c-0.6-0.4-1.1-0.9-1.4-1.6c-0.3-0.7-0.6-1.3-1-2c-0.2-0.4-0.5-0.9-0.7-1.3C2,27,1.8,26.8,1.5,26.9
		 M48.3,16.9c-0.3-0.1-0.5-0.3-0.9,0c0.3,0.3,0.5,0.5,0.8,0.8c0,0.2,0.1,0.4,0.1,0.6c-0.1-0.1-0.1-0.2-0.2-0.3
		c-0.1-0.1-0.2-0.2-0.3-0.4c0,0.2,0,0.3-0.1,0.4c-0.3-0.8-0.5-1.1-0.8-1.2c0,0.3,0,0.5,0,0.7c0,0.2,0,0.5-0.1,0.8
		c-0.1-0.1-0.1-0.2-0.1-0.2c-0.1,0.3,0.2,0.6,0.7,0.7c0-0.1,0.1-0.1,0.1-0.2c0.4,0.2,0.7,0.4,1.1,0.6c0.1-0.5,0.1-0.8-0.1-1.1
		c0.4-0.4-0.1-0.5-0.2-0.8c0.3,0,0.6,0.2,0.9-0.1c0-0.1-0.1-0.1-0.1-0.2c0.3-0.1,0.6-0.3,0.9-0.4c-0.1-0.3-0.2-0.5-0.5-0.6
		c-0.2-0.1-0.3-0.1-0.1-0.4c-0.2,0-0.4,0-0.6,0c-0.2,0-0.4,0.1-0.6,0.2c0.1-0.2,0.2-0.2,0.2-0.3c0-0.2,0.1-0.4,0.1-0.5
		c-0.2-0.2-0.2-0.5-0.2-0.8c-0.4,0.2-0.7,0.4-1,0.5c-0.1,0-0.2,0.1-0.3,0.1c-0.4,0.3-0.5,0.9-0.1,1.3c0,0.1,0.1,0.1,0.2,0.1
		c0,0,0.1-0.1,0.1-0.2c0-0.2,0-0.4,0-0.7c0,0,0.1,0.1,0.1,0.1c0.1-0.1,0.1-0.2,0.2-0.3c0,0.1,0,0.2-0.1,0.3c0,0.1-0.1,0.3-0.1,0.4
		c0,0.1,0,0.2,0,0.3c0,0.1,0,0.3,0,0.4c0,0.1,0.2,0.1,0.3,0c0.4-0.1,0.8-0.3,1.1-0.4c0,0,0,0,0.1,0c-0.1,0.1-0.1,0.1-0.2,0.2
		c0.2,0,0.3,0.1,0.4,0.1c0,0,0,0.1,0,0.1H48C48.1,16.7,48.2,16.8,48.3,16.9 M33.5,44.1c0.1-0.1,0.1-0.1,0.2-0.2c0,0,0,0,0.1,0
		c-0.1,0.1-0.1,0.3-0.2,0.4c0.1,0,0.1,0.1,0.1,0.1c-0.3,0.2-0.5,0.3-0.6,0.4c-0.2,0.2-0.1,0.3,0.2,0.4c0.3,0,0.5-0.1,0.6-0.4v0.3
		c0.2,0.1,0.5,0.1,0.7,0.2c0,0,0,0.1,0,0.1h-0.5c-0.2-0.2-0.5,0.1-0.9,0c0.2,0.6,0.4,1.1,0.2,1.7l-0.1-1.2c0,0,0,0-0.1,0
		c0,0.1-0.1,0.2-0.2,0.4c0-0.3,0-0.5,0-0.7c0-0.1-0.1-0.2-0.2-0.2c-0.1,0-0.2,0.1-0.2,0.2c-0.1,0.1-0.2,0.2-0.2,0.2c0,0,0,0,0-0.1
		c0-0.1,0.1-0.2,0.1-0.3l-0.1-0.1c-0.1,0-0.1,0.1-0.2,0.1c-0.2,0.2-0.3,0.3-0.5,0.5c-0.1,0.1-0.1,0.3-0.2,0.4c0,0,0.2,0.1,0.3,0.1
		c0.2,0,0.3-0.1,0.5-0.1c0.1,0,0.1-0.1,0.2-0.1c-0.1,0.2-0.2,0.4-0.2,0.6c0,0.2,0.1,0.4,0.2,0.7c0.1-0.1,0.1-0.2,0.2-0.3
		c0.2,0.3,0.5,0.5,0.7,0.8c0.4-0.3,0.5-0.8,0.3-1.3c0.1,0,0.2,0,0.3,0.1c0.2-0.4-0.1-0.6-0.3-0.8c0.1,0,0.2,0,0.3,0
		c0.3,0.1,0.4,0.1,0.4-0.3c0.2,0,0.4-0.1,0.5-0.1c0.2-0.1,0.3-0.2,0.1-0.3c-0.2-0.2-0.3-0.4-0.5-0.7c0,0,0.1-0.1,0.1-0.2
		c-0.3-0.1-0.6-0.1-0.9-0.2c0.3-0.2,0.5-0.3,0.5-0.6c-0.4,0.1-0.9,0.2-1.3,0.3c-0.4,0.1-0.6,0.5-0.3,0.9
		C33,44.5,33.2,44.3,33.5,44.1C33.4,44,33.4,44.1,33.5,44.1 M10.3,36.2C10.3,36.2,10.3,36.1,10.3,36.2c0.1-0.1,0-0.1,0-0.2
		c-0.5-0.9-1.1-1.8-1.6-2.6c-0.1-0.2-0.2-0.4-0.2-0.6c0-0.7-0.3-1.3-0.7-1.8c-0.5-0.6-0.9-1.3-1.1-2c-0.3-1.1-0.7-2.1-1-3.2
		c-0.1-0.4-0.3-0.7-0.5-1c-0.2-0.3-0.4-0.4-0.6-0.4c0.2,0.3,0.4,0.5,0.5,0.8c0.5,1,0.7,2,0.9,3.1c0.2,1,0.5,2.1,0.7,3.1
		c0.1,0.6,0.5,1,1,1.3c0.3,0.2,0.5,0.4,0.7,0.7c0.3,0.5,0.6,1.1,0.9,1.6C9.7,35.4,10,35.8,10.3,36.2 M47.8,32.5
		c0.3-0.3,0.5-0.6,0.7-0.9c-0.4,0-0.7-0.3-1-0.1c-0.3-0.3-0.5,0.2-0.7,0.1c0.1-0.3,0.1-0.5,0.2-0.8c-0.1,0-0.2,0-0.3,0
		c0-0.4,0.1-0.8,0.1-1.2c-0.2,0.1-0.4,0.2-0.6,0.2c-0.2,0.1-0.4,0.1-0.5,0.3c0,0.1-0.1,0.1-0.2,0.1c-0.1,0.1-0.3,0.1-0.3,0.3
		c0,0.1,0,0.3,0,0.4c0.1,0.1,0.4,0.2,0.5,0.3c0,0,0,0,0,0c-0.1-0.1-0.1-0.2-0.2-0.4c0.1,0,0.2,0.1,0.3,0.1c-0.1-0.2-0.1-0.3-0.2-0.4
		c0.1,0,0.1,0,0.2,0.1c0.1-0.2,0.3-0.4,0.4-0.5c0,0,0,0,0.1,0c-0.1,0.2-0.2,0.4-0.3,0.6h0.3c-0.1,0.1-0.2,0.1-0.2,0.2
		c0,0.1-0.1,0.4,0,0.4c0.4,0.2,0.7,0.5,0.9,0.9c0.1-0.2,0.1-0.3,0.1-0.4c0,0,0,0.1,0,0.1c0.2,0,0.4-0.1,0.6-0.1c0,0,0,0,0,0
		c-0.1,0-0.2,0.1-0.2,0.1c0.1,0.1,0.1,0.1,0.2,0.2c-0.2,0-0.3,0-0.4,0c-0.1,0.1-0.4,0.2-0.4,0.3c0,0.4-0.1,0.7-0.5,0.9
		c0.3,0.2,0.6,0.3,0.8,0.5l0,0.1c-0.1,0-0.2-0.1-0.3-0.1c0.1,0.3,0.2,0.5,0.2,0.7c0,0,0,0-0.1,0c-0.1-0.3-0.3-0.5-0.4-0.8
		c-0.1,0.1-0.1,0.2-0.2,0.3c0-0.2,0-0.3-0.1-0.4c0,0-0.1,0-0.1,0c0,0.1,0,0.3,0,0.4c0,0.2,0,0.4,0,0.6c-0.1,0.3,0,0.4,0.3,0.5
		c0.1-0.1,0.1-0.2,0.1-0.3c0.3,0.2,0.6,0.3,1,0.5c0-0.3,0.1-0.5,0.1-0.6c-0.1-0.3-0.1-0.5,0.3-0.7c0,0,0,0,0-0.1
		c-0.3-0.4-0.5-0.7-0.8-1.1c0.2-0.1,0.4-0.1,0.6-0.2c0,0,0-0.1,0-0.1C47.9,32.6,47.8,32.5,47.8,32.5 M23.2,43.1
		c0.2-0.2,0.3-0.3,0.4-0.5c0.3-0.6-0.1-1.1-0.8-1.2c-0.4,0-0.8,0-1.1-0.1c-0.2,0-0.3,0.1-0.3,0.3c0,0.6-0.1,1.2-0.1,1.9
		c0,0.7-0.1,0.6,0.6,0.6c0.2,0,0.2-0.1,0.2-0.2c0-0.2,0-0.4,0-0.6c0-0.1,0.1-0.1,0.1-0.2c0.1,0,0.2,0.1,0.2,0.1
		c0.1,0.2,0.1,0.5,0.2,0.7c0,0.1,0.1,0.2,0.1,0.2c0.2,0,0.5,0,0.8,0.1C23.5,43.8,23.3,43.4,23.2,43.1 M31,42.2
		c0.3-0.3,0.3-0.6,0.1-0.9C30.9,41,30.6,41,30.3,41c-0.3,0.1-0.7,0.1-1,0.2c-0.2,0-0.3,0.1-0.2,0.3c0.1,0.7,0.3,1.5,0.4,2.2
		c0,0.2,0.1,0.2,0.3,0.2c0.4-0.1,0.8-0.1,1.2-0.2c0.3-0.1,0.6-0.2,0.7-0.6C31.6,42.7,31.4,42.4,31,42.2 M41,19.2
		C41,19.2,40.9,19.3,41,19.2c0,0.2,0,0.3,0,0.4c0.2,0.2,0.3,0.4,0.5,0.6c0.6,0.5,1.2,1.1,1.6,1.8c0.1,0.1,0.1,0.2,0.2,0.3
		c0.2,0.2,0.3,0.2,0.5-0.1c0.3-0.4,0.4-0.7,0-1.1c-0.1-0.1-0.2-0.2-0.3-0.3C43.3,20.6,43,20.3,43,20c0-0.3,0.1-0.5,0.1-0.9
		c-0.1-0.1-0.2-0.2-0.3-0.4c-0.2,0.2-0.4,0.3-0.6,0.4c-0.2,0.1-0.4,0.1-0.5,0.3c-0.1,0.1-0.2,0.1-0.3,0.1
		C41.3,19.5,41.1,19.3,41,19.2 M18.5,42.8c0,0.5,0.1,0.8,0.5,0.9c0.2,0.1,0.4,0.1,0.6,0.2c0.5,0.1,0.9-0.2,1-0.8
		c0.1-0.5,0.2-1.1,0.3-1.6c0.1-0.3-0.2-0.3-0.4-0.3c-0.2,0-0.3,0-0.3,0.2c-0.1,0.5-0.1,0.9-0.2,1.4c0,0.2-0.1,0.4-0.4,0.4
		c-0.2,0-0.3-0.2-0.3-0.5c0.1-0.5,0.2-0.9,0.2-1.4c0-0.1-0.1-0.2-0.1-0.2c-0.2,0-0.5,0-0.7,0c0,0,0,0.1,0,0.1
		C18.7,41.7,18.6,42.3,18.5,42.8 M40.2,42.9c-0.4-0.4-0.7-0.4-1-0.3c-0.4,0.2-0.7,0.6-0.7,1.1c0.1,0.5,0.3,1,0.7,1.3
		c0.6,0.5,1.4,0.3,1.7-0.4c0.2-0.5,0-1-0.4-1.3c-0.4-0.2-0.8,0-1.1,0.4c0,0,0,0-0.1,0.1c0-0.1-0.1-0.2-0.1-0.3c0-0.1,0-0.2,0-0.3
		c0-0.1,0.2,0,0.3,0c0.1,0,0.2,0,0.2,0C39.9,43.1,40,43,40.2,42.9 M42.2,42.6c0,0.2,0.1,0.3,0.1,0.4c0,0.1-0.2,0.2-0.2,0.2
		c-0.4-0.1-0.5,0.2-0.8,0.3c0,0.1,0.1,0.1,0.1,0.1c0.3,0.3,0.6,0.3,1,0.2c0.4-0.2,0.6-0.4,0.7-0.9c0.1-0.6-0.2-1-0.5-1.5
		c-0.4-0.5-1-0.5-1.5-0.1c-0.3,0.2-0.5,0.6-0.4,1c0.1,0.4,0.3,0.6,0.6,0.7C41.6,43.2,41.9,43,42.2,42.6 M8.6,42.9
		c-0.1,0.1-0.2,0.2-0.3,0.3C8.2,43.3,8,43.3,8,43.1c-0.1-0.4-0.4-0.3-0.7-0.4c-0.1,0.5,0.1,0.8,0.4,1c0.4,0.2,0.8,0.3,1.1,0
		c0.5-0.3,0.7-0.8,0.8-1.3c0.1-0.6-0.2-1-0.8-1.2c-0.5-0.2-1,0.1-1.2,0.6c-0.2,0.4,0,0.9,0.5,1.1C8.3,42.9,8.4,42.9,8.6,42.9
		 M15.9,41.9c0,0.6,0.3,1,0.7,1.2c0.5,0.2,0.9,0.1,1.3-0.2c0.4-0.4,0.3-0.5-0.2-0.7c-0.1,0-0.3-0.1-0.4,0.1
		c-0.1,0.1-0.3,0.2-0.3,0.2c-0.1,0-0.2-0.2-0.2-0.3c0-0.3,0.1-0.5,0.2-0.8c0.1-0.1,0.2-0.2,0.4-0.3c0.2,0,0.2,0.2,0.2,0.4
		c0,0.2,0.1,0.2,0.2,0.2c0.1,0,0.2,0,0.3,0.1c0.2,0.1,0.3,0,0.3-0.2c0-0.5-0.2-0.8-0.7-1c-0.5-0.2-1-0.1-1.3,0.2
		C16,41.1,15.9,41.5,15.9,41.9 M34.4,42.8c-0.1-0.1-0.1-0.2-0.1-0.3c-0.3-0.5-0.7-1.1-1-1.6c-0.3-0.6-0.3-0.6-1-0.4
		c-0.2,0-0.2,0.1-0.3,0.3c0,0.7-0.1,1.5-0.1,2.2c0,0.1,0,0.2,0,0.3c0.5,0,0.6-0.1,0.7-0.5c0-0.3,0.3-0.2,0.5-0.3
		c0.1,0,0.2,0,0.3,0.1c0.1,0.1,0.1,0.3,0.4,0.3C33.9,43,34.1,42.9,34.4,42.8 M6.1,42.2C6.8,42,7.5,41.8,7.4,41c0-0.4-0.5-0.8-1-0.8
		c-0.4,0-0.8,0.2-1,0.6c0.4,0.3,0.4,0.3,0.8,0.1c0.1,0,0.2,0,0.3,0c0.1,0.1,0.1,0.2,0,0.3c-0.1,0.1-0.2,0.2-0.3,0.3
		c-0.3,0.1-0.6,0.2-0.8,0.3c-0.3,0.1-0.4,0.2-0.5,0.5c0,0.2,0,0.2,0.1,0.3c0.4,0.2,0.9,0.3,1.3,0.5c0.4,0.2,0.4,0.2,0.6-0.3
		c0,0,0,0,0-0.1c0.1-0.1,0-0.2-0.1-0.3C6.6,42.4,6.4,42.3,6.1,42.2 M44.8,41.3c0.2-0.4,0.2-0.7-0.1-0.9c-0.4-0.3-0.8-0.2-1.2,0
		c-0.3,0.2-0.6,0.5-0.5,0.9c0,0.1,0.1,0.2,0.1,0.2c0.2-0.1,0.5,0,0.6-0.3c0-0.1,0.2-0.1,0.3-0.2c0.1,0,0.2,0.1,0.2,0.2
		c0,0.1-0.1,0.2-0.2,0.3c0,0-0.1,0-0.2,0.1c0,0-0.1,0.1-0.1,0.1c0,0.3,0.2,0.4,0.5,0.4c0.1,0,0.3,0,0.4,0.1c0,0,0,0.3,0,0.3
		c-0.1,0.1-0.3,0.1-0.4,0.1c-0.2-0.2-0.4-0.1-0.6,0c-0.2,0.1-0.2,0.2-0.1,0.4c0.4,0.4,1,0.4,1.6,0c0.3-0.2,0.4-0.5,0.4-0.8
		C45.4,41.5,45.2,41.3,44.8,41.3 M12.3,45.3c0.8-0.1,0.9-0.8,0.6-1.2c-0.2-0.2-0.5-0.4-0.7-0.6c-0.3-0.1-0.6,0-0.8,0.2
		c0.2,0.2,0.3,0.6,0.7,0.4c0,0,0.2,0.1,0.2,0.2c0,0,0,0.2-0.1,0.2c-0.1,0-0.2,0-0.3,0c-0.1,0-0.2-0.1-0.3-0.2
		c-0.4,0.3-0.4,0.3-0.1,0.7c0.1,0.1,0.1,0.2,0,0.3c0,0-0.2,0.1-0.2,0.1c-0.1-0.1-0.2-0.2-0.3-0.3c-0.1-0.4-0.2-0.5-0.5-0.6
		c-0.4,0.6,0,1.3,0.6,1.6c0.3,0.2,0.6,0.2,0.9,0C12.4,45.9,12.5,45.7,12.3,45.3 M5.7,24.9c0-0.4-0.1-0.7-0.3-1
		C5.2,23.8,5,23.6,5,23.4c-0.2-0.6-0.4-1.2-0.3-1.9c0-0.1,0-0.2,0-0.4c-0.3,0.1-0.5-0.1-0.6-0.3c-0.1-0.3-0.2-0.6-0.3-0.9
		c-0.1-0.3-0.1-0.6-0.2-1c0,0-0.1,0-0.1,0c0,1.8,0.5,3.5,0.6,5.3C4.8,24,5,24.1,5.7,24.9 M44.9,16.2c0,0.1,0,0.2,0,0.3
		c-0.3,0.3-0.3,0.7-0.4,1.2c0.3,0,0.5-0.1,0.7-0.1c0.3,0.4,0.6,0.1,0.9,0c0.1,0.3,0.1,0.7,0.5,0.9c0.1-0.3,0.2-0.6,0.4-1
		c-0.1,0-0.2,0-0.3,0.1c0.4-0.3,0.4-0.4,0.3-0.8c0-0.1-0.1-0.2-0.2-0.2c0,0-0.1,0.1-0.2,0.1c-0.1,0.1-0.1,0.2-0.2,0.2c0,0,0,0,0,0
		c0-0.1,0-0.2,0.1-0.3l-0.1-0.1c-0.1,0.1-0.3,0.3-0.4,0.4v-0.2c-0.1,0.1-0.2,0.1-0.3,0.2c0,0,0,0,0-0.1c0.2-0.1,0.4-0.2,0.6-0.4
		c-0.2,0-0.3-0.1-0.4-0.1c0,0,0-0.1,0-0.1c0.3,0,0.6,0.1,0.9,0.1c0-0.5-0.4-0.6-0.6-0.7C45.6,15.9,45.3,16,44.9,16.2 M5,25.4
		C4.9,25.4,4.9,25.5,5,25.4c-0.2,0.6-0.3,1.1-0.4,1.7c0,0,0.1,0,0.1,0c0.1,0.1,0.2,0.2,0.3,0.3c0.1,0.2,0.1,0.5,0.1,0.7
		c0,0.5,0.1,1,0.4,1.4c0.2,0.3,0.4,0.6,0.6,1c0.1,0.1,0.1,0.2,0.2,0.3c-0.1-0.6-0.2-1.1-0.2-1.6c-0.2-1.1-0.3-2.2-0.8-3.3
		C5.2,25.8,5.1,25.6,5,25.4 M26.4,44.2c0.5,0,0.5,0,0.5-0.2c0-0.5,0-1,0-1.5c0-0.3,0-0.4,0.3-0.4c0.3,0,0.2-0.3,0.2-0.4
		c0-0.1,0-0.3-0.2-0.3c-0.5,0-1,0-1.4,0c-0.2,0-0.3,0.1-0.2,0.3c0,0.2-0.1,0.5,0.3,0.4c0.2,0,0.3,0.1,0.3,0.3c0,0.5,0,0.9,0,1.4
		C26,44.2,26,44.2,26.4,44.2 M11.8,40.4c-0.1,0-0.2,0-0.3,0c-0.8,0.1-1.6-0.1-2.3-0.6c-0.5-0.3-1.1-0.6-1.6-0.8
		c-0.4-0.2-0.7-0.1-1.1,0.2c1.7,0.6,3.3,1.4,4.8,2.3C11.4,41.2,11.6,40.8,11.8,40.4 M44.6,24.8c-0.1,0-0.2,0-0.2,0
		c0-0.1,0.1-0.2,0.2-0.2c0,0,0.1-0.1,0.1-0.2c0-0.2,0-0.5,0-0.7c-0.4-0.1-0.4-0.1-0.9,0.5v-0.3c-0.2,0.1-0.3,0.2-0.4,0.3
		c0,0,0,0,0-0.1c0.2-0.2,0.4-0.3,0.6-0.5c-0.1-0.1-0.1-0.2-0.1-0.2c0.3,0,0.6,0.1,1,0.1c-0.2-0.1-0.4-0.1-0.5-0.2
		c-0.3-0.3-0.6-0.2-0.8-0.3c-0.1,0.3-0.1,0.3-0.4,0.5c-0.1,0-0.1,0.1-0.2,0.2c0.1,0,0.2,0.1,0.3,0.1c-0.2,0.2-0.3,0.3-0.5,0.5
		c-0.1,0.1-0.1,0.3,0,0.3c0.2,0.2,0.5,0.3,0.8,0.1c0.1-0.1,0.3,0,0.4-0.1c0,0.1,0.1,0.1,0.1,0.2c0.1-0.1,0.2-0.3,0.3-0.4
		c0,0,0.1,0,0.1,0.1c-0.1,0.3-0.5,0.5-0.3,0.8C44.5,25.4,44.5,25.4,44.6,24.8 M35.1,45c1-0.9,1.9-1.8,2.9-2.6c0,0,0,0,0,0
		c-1.1,0.4-2.1,0.7-3.2,1.1c-0.1,0-0.1,0.1-0.2,0.1c-0.1,0.2-0.1,0.4-0.1,0.6c0,0,0.1,0,0.2,0c0.3,0,0.4,0.1,0.3,0.4
		C35,44.7,35.1,44.9,35.1,45 M6.9,32.3c0,0.3,0,0.7,0,1c0,0.2,0.1,0.5,0.2,0.6c0.6,0.8,1.3,1.5,1.9,2.3c0,0,0.1,0,0.1,0
		c-0.2-0.4-0.3-0.8-0.4-1.2c-0.2-0.7-0.6-1.2-1.1-1.7c-0.3-0.3-0.3-0.3,0-0.6c-0.1,0-0.1,0-0.2,0c0-0.1,0-0.2,0-0.2
		C7.2,32.6,7.1,32.4,6.9,32.3 M38.7,46.6c0.2-0.2,0.3-0.3,0.4-0.5c0-0.1,0-0.2,0-0.2c-0.6-0.6-1.2-1.2-1.8-1.8
		c-0.2,0.2-0.4,0.3-0.4,0.7c0,0.1,0,0.2-0.1,0.2c-0.2,0.4-0.1,0.5,0.3,0.7c0.1-0.2,0.2-0.3,0.3-0.5C37.8,45.7,38.2,46.2,38.7,46.6
		 M24.2,42.9L24.2,42.9c0,0.3,0,0.6,0,0.8c0,0.6-0.1,0.5,0.6,0.6c0.2,0,0.3-0.1,0.3-0.3c0-0.6,0-1.2,0-1.8c0-0.7,0.1-0.6-0.6-0.6
		c-0.2,0-0.3,0.1-0.3,0.3C24.2,42.2,24.2,42.5,24.2,42.9 M27.6,41.6c0.1,0.7,0.2,1.3,0.2,2c0.1,0.6,0.1,0.6,0.7,0.5
		c0.2,0,0.2-0.1,0.2-0.3c-0.1-0.8-0.2-1.5-0.3-2.3c0-0.2-0.1-0.2-0.2-0.2C28,41.4,27.7,41.3,27.6,41.6 M8.9,21.1
		c0.1-0.7,0.2-1.4,0.3-2C9.2,19,9,18.9,9,18.8c-0.3-0.1-0.5-0.3-0.6-0.6c-0.1-0.2-0.1-0.4-0.2-0.6c-0.1-0.2-0.2-0.4-0.3-0.6
		c0,0-0.1,0-0.1,0.1c0,0.1,0.1,0.2,0.1,0.3c0.1,0.6,0.2,1.2,0.3,1.7c0,0.1-0.1,0.3-0.1,0.5c0,0-0.1,0-0.1,0
		C8.2,20.2,8.5,20.6,8.9,21.1 M10.5,35.7C10.5,35.7,10.5,35.7,10.5,35.7c0-0.1,0-0.2,0-0.3c-0.2-0.8-0.5-1.6-0.6-2.4
		c-0.1-0.6-0.5-0.9-0.8-1.4c0,0.2,0,0.4-0.1,0.6c-0.1,0.3-0.1,0.7,0.1,0.9c0.4,0.8,0.9,1.5,1.3,2.3C10.4,35.6,10.4,35.7,10.5,35.7
		 M11,31.5c-0.2,0.3-0.3,0.5-0.4,0.8c-0.1,0.2-0.2,0.5-0.1,0.7c0.3,1.2,0.6,2.4,1.1,3.5c0,0.1,0.1,0.1,0.1,0.2c0,0,0,0,0.1,0
		C11.3,35,11.1,33.3,11,31.5 M25.3,49c0,0,0-0.1,0-0.1c-0.2-0.1-0.4-0.4-0.6-0.4c-0.4,0-0.8,0.1-1.1,0.3c-0.4,0.3-0.7,0.6-1.2,0.7
		c-0.1,0-0.2,0.2-0.2,0.3c0,0.1,0.1,0.2,0.2,0.3c0.1,0,0.3,0,0.4-0.1c0.2-0.1,0.4-0.3,0.6-0.4c0.3-0.2,0.5-0.3,0.9-0.3
		C24.7,49.2,25,49.1,25.3,49 M2.9,24.5c-0.3-2.1-0.5-4.2-0.8-6.2c0,0.2,0,0.4,0,0.6c0.1,1.7,0.3,3.4,0.4,5.1
		C2.4,24.2,2.5,24.4,2.9,24.5 M25.8,48.1c0.2,0.1,0.4,0.2,0.6,0.2c0.6-0.2,1.2-0.5,1.8-0.7c0.1-0.1,0.3-0.2,0.4-0.2
		c0-0.2-0.1-0.3-0.1-0.4c-0.5,0.1-1,0.2-1.5,0.3c-0.1,0-0.2,0.1-0.3,0.1C26.5,47.6,26.2,47.8,25.8,48.1 M1.3,33.3L1.3,33.3
		c0.1-0.1,0.1-0.2,0.1-0.3c0.1-0.6,0.3-1.2,0.4-1.8c0.3-1.2-0.1-2.4-0.1-3.6c0-0.1-0.1-0.1-0.1-0.2c0,0.1-0.1,0.1-0.1,0.2
		c0,0.3,0.1,0.6,0.2,0.9c0,0.1,0,0.2,0,0.3c0,0-0.1,0-0.1,0c-0.1-0.6-0.2-1.1-0.3-1.7c0,0.1-0.1,0.2-0.1,0.3c0.1,0.5,0.1,1,0.3,1.5
		c0.3,0.9,0.3,1.7,0.1,2.6C1.5,32.1,1.4,32.7,1.3,33.3 M12.4,28c-0.2,0.3,0,0.5,0.1,0.7c0.1,0.2,0.1,0.3,0.2,0.5c0,0,0,0-0.1,0
		c-0.1-0.2-0.3-0.4-0.4-0.6c0,0-0.1,0-0.1,0c0,0.1,0,0.2,0.1,0.3c0.3,0.5,0.3,1,0.3,1.6c0,0.1,0,0.2,0,0.3c0.2,0.5,0.5,0.9,0.7,1.4
		c0,0,0,0,0.1,0c-0.1-0.3-0.2-0.6-0.3-0.8c-0.2-0.5-0.2-1.1-0.1-1.6C12.9,29.1,12.7,28.5,12.4,28 M5.9,16l-0.1,0c-0.3,2-0.3,4,0,6
		c0.1-0.2,0.1-0.3,0.1-0.5c0-0.6-0.1-1.2-0.1-1.9c0-1.1,0-2.1,0-3.2C5.8,16.3,5.9,16.2,5.9,16 M15.6,39c-0.4-1-0.7-2-0.5-3
		c-0.3,0.2-0.5,0.4-0.4,0.8c0,0.5,0.1,1,0.2,1.5C14.8,38.7,15.1,39,15.6,39 M7.3,27.9c0,0.2,0.1,0.3,0.1,0.5C7.7,29.1,8,29.8,8,30.6
		c0,0.1,0,0.2,0.1,0.3c0.2,0.3,0.4,0.6,0.6,0.9C8.6,30.4,7.9,29.2,7.3,27.9 M18.5,44.4c0.8,0.6,1.4,1.3,2.3,1.5
		c0-0.2-0.1-0.3-0.2-0.4C20.1,45.1,19.5,44.4,18.5,44.4 M0.7,24.4c0.4-0.6,0.5-3,0.2-3.3v1c-0.1-0.5-0.1-1.1-0.3-1.6
		C0.5,21.8,1.1,23,0.7,24.4 M9.5,19.1c-0.2,1.3-0.5,2.5-0.3,3.8C9.6,21.6,9.4,20.4,9.5,19.1 M46.9,24.4c-0.7-0.2-0.7-0.2-0.5-0.7
		c-0.2-0.1-0.3-0.1-0.4,0c-0.1,0.1-0.1,0.3,0,0.5c0.1,0.1,0.3,0.2,0.4,0.3c-0.1,0-0.1,0-0.1,0.1c0.1,0.1,0.1,0.3,0.2,0.4l-0.1,0
		c-0.1-0.1-0.2-0.2-0.3-0.4c-0.1,0.2-0.2,0.4,0,0.6c0.2,0.1,0.4,0.3,0.6,0.4c0-0.2,0.1-0.4,0.1-0.5C46.7,24.9,46.7,24.6,46.9,24.4
		 M38.8,41.8c0.4-0.3,0.8-0.5,1.2-0.7c0-0.1-0.1-0.3-0.1-0.4c0-0.1,0.1-0.3-0.1-0.4c-0.2-0.1-0.3,0-0.4,0.2
		c-0.2,0.3-0.5,0.7-0.7,1.1C38.7,41.6,38.8,41.6,38.8,41.8 M4,26.3c-0.2,0.3-0.3,0.5-0.2,0.8c0.1,0.3,0.2,0.7,0.3,1
		c0.1,0.4,0.3,0.8,0.4,1.1c0,0,0,0,0.1,0v-1.2c-0.4-0.1-0.4-0.4-0.5-0.7C4.1,27.1,4,26.7,4,26.3 M4.4,27.4c0-0.8,0.1-1.5,0.4-2.3
		c0-0.1,0-0.2,0-0.2l-0.1,0c-0.1,0.3-0.2,0.6-0.3,0.9c0,0-0.1,0-0.1,0c0.1-0.4,0.1-0.8,0.2-1.2c0,0-0.1,0-0.1,0
		C4,25.5,4.2,26.5,4.4,27.4 M38.6,41.3c0.1-0.1,0.2-0.2,0.3-0.3c0.1-0.2,0.2-0.3,0.4-0.5c0.1-0.2,0.3-0.4,0.1-0.6
		c-0.7,0-0.6,0.8-1.1,1C38.4,40.9,38.5,41.1,38.6,41.3 M2.6,20.6C2.6,20.6,2.6,20.6,2.6,20.6c0.1-0.9,0.2-1.8,0.2-2.7
		c-0.1,0-0.2,0.1-0.4,0.1c-0.1,0-0.1,0.1-0.1,0.2C2.4,19,2.5,19.8,2.6,20.6 M16.2,38L16.2,38c-0.1-0.6-0.2-1.1-0.4-1.6
		c0-0.1-0.1-0.2-0.2-0.3c-0.1-0.1-0.2-0.1-0.3-0.1c0,0.1-0.1,0.2,0,0.3c0.1,0.3,0.2,0.6,0.4,0.8C15.9,37.4,16.1,37.7,16.2,38
		 M3.2,35.2c0.6,0.6,0.7,1.4,0.7,2.2C4.1,36.7,4.2,36,4,35.3c0-0.1-0.1-0.2-0.2-0.2c0,0,0,0-0.1,0.1c0.1,0.3,0.2,0.5,0.3,0.8
		c0,0-0.1,0-0.1,0C3.7,35.7,3.7,35.2,3.2,35.2 M9.7,43.3c-0.1,0.2-0.3,0.5-0.3,0.5c0.2,0.2,0.5,0.4,0.8,0.5c0.1,0,0.2-0.3,0.4-0.4
		c-0.2-0.2-0.4-0.3-0.6-0.5C9.9,43.5,9.9,43.4,9.7,43.3 M41.9,35.2c0.4,0,0.5,0,0.6-0.4c0-0.1,0.1-0.3,0.2-0.4
		c0.2-0.2,0.3-0.3,0-0.6c-0.2,0.2-0.4,0.4-0.5,0.6C42,34.6,42,34.9,41.9,35.2 M43.3,29.7c0,0,0.1,0,0.1,0c0-0.1,0.1-0.2,0.1-0.3
		c0.1-1.1-0.3-1.9-1.1-2.6c-0.2-0.1-0.3-0.3-0.3-0.5c-0.1-0.2,0-0.4,0.3-0.4c0.1,0,0.2,0.2,0.3,0.2c0-0.1,0-0.2-0.1-0.3
		c-0.1-0.1-0.2-0.1-0.3,0c-0.2,0.1-0.2,0.3-0.2,0.5c0,0.1,0,0.2,0,0.3C43.2,27.3,43.4,28.4,43.3,29.7 M43,34.8
		c-0.2,0.5-0.3,1-0.5,1.5c0,0,0.1,0.1,0.3,0.2c0.1-0.3,0.1-0.6,0.3-0.9C43.2,35.3,43.2,35.1,43,34.8 M44.2,31.5
		c0.1,0,0.4-0.1,0.5-0.5c0.1-0.1-0.1-0.4-0.3-0.6c-0.2-0.3-0.5-0.3-0.7-0.1c0.2,0.2,0.5,0.4,0.8,0.7C44.4,31.2,44.3,31.3,44.2,31.5
		 M6.4,9.9c-0.2,0.5-0.5,1-0.1,1.5C6.7,11.1,6.7,10.5,6.4,9.9 M5.7,15.5c-0.1-0.4-0.4-0.8-1-0.9C4.9,15.1,5.1,15.6,5.7,15.5
		 M2.2,13.7c0.3-0.3,0.4-0.9,0-1.4C2.1,12.8,1.9,13.2,2.2,13.7 M10.4,13.4c-0.4,0.5-0.5,1-0.2,1.4C10.6,14.4,10.6,13.9,10.4,13.4
		 M0.8,16.9c0.2,0.6,0.5,0.9,1,0.8C1.8,17.2,1.3,16.9,0.8,16.9 M8.4,17.7c0.2,0.7,0.5,1,1,0.9C9.3,18.1,9,17.8,8.4,17.7 M8,27.2
		c0-0.1,0-0.1,0-0.1c-0.1-0.6-0.1-1.2-0.2-1.7c0-0.1-0.1-0.2-0.2-0.4C7.5,25.3,7.8,26.6,8,27.2 M5.3,11.4c0.1,0.6,0.2,1,0.7,1
		C6.1,12,5.7,11.6,5.3,11.4 M7,14.9c-0.5,0-0.9,0.3-1,0.8C6.4,15.8,6.6,15.7,7,14.9 M5,13c0,0.6,0.3,1,0.8,1C5.8,13.6,5.5,13.3,5,13
		 M5.1,12.2c0.1,0.6,0.2,1,0.7,1C5.8,12.7,5.6,12.4,5.1,12.2 M7,12.8c-0.4,0-1,0.3-1,0.7C6.5,13.5,6.7,13.4,7,12.8 M4.9,13.8
		c0.1,0.5,0.4,1,0.8,1C5.7,14.4,5.5,14.1,4.9,13.8 M6.9,14.2C6.3,14.3,6,14.6,6,15C6.4,15.1,6.7,14.7,6.9,14.2 M2,14.7
		c0.1-0.4-0.3-0.8-0.7-0.9C1.3,14.4,1.5,14.7,2,14.7 M10.7,18.1c-0.5,0-0.9,0.2-1,0.7C10.1,18.9,10.3,18.7,10.7,18.1 M5.9,14.2
		c0.4,0.1,0.8-0.2,1-0.7C6.5,13.5,6,13.8,5.9,14.2 M9.8,15.7c0.1-0.4-0.2-0.8-0.6-1C9.2,15.4,9.4,15.6,9.8,15.7 M1.1,15.4
		c0,0.5,0.4,0.9,0.8,0.9C1.9,15.8,1.6,15.5,1.1,15.4 M7.1,11.1c-0.3,0.1-0.7,0.2-0.8,0.6c0,0.1,0,0.2,0,0.2c0.1,0,0.2,0,0.3,0
		C6.9,11.8,7,11.4,7.1,11.1 M2,16.4c0.4,0.1,0.8-0.2,1-0.8C2.5,15.7,2.2,15.9,2,16.4 M1.9,17c0-0.5-0.4-0.8-0.8-0.9
		C1.1,16.6,1.5,17,1.9,17 M3.1,17.1c-0.4,0-1,0.4-0.9,0.8C2.6,17.9,2.8,17.7,3.1,17.1 M9.6,17.2c0-0.4-0.3-0.8-0.7-1
		C8.9,16.7,9.1,17.1,9.6,17.2 M8.7,17c0.1,0.7,0.4,1,0.8,1C9.5,17.5,9.2,17.1,8.7,17 M1.1,14.6c0.1,0.6,0.3,0.9,0.8,0.9
		C1.9,15.1,1.5,14.7,1.1,14.6 M9,15.5c0,0.6,0.2,0.9,0.6,1C9.7,16,9.5,15.6,9,15.5 M3,16.3c-0.5,0.1-0.8,0.4-0.8,0.9
		C2.6,17.2,2.8,16.9,3,16.3 M9.7,17.4c0.4,0.1,0.8-0.2,1-0.7C10.2,16.7,9.7,17,9.7,17.4 M3,13.4c-0.4,0-0.8,0.4-0.8,0.8
		C2.7,14.3,2.9,14,3,13.4 M31.8,44.2c0.1,0.1,0.2,0.3,0.2,0.4c0.1,0.2,0.1,0.3,0.1,0.6c0.1-0.1,0.3-0.1,0.4-0.2
		C32.6,44.7,32.2,44.2,31.8,44.2 M6.1,12.7C6.6,12.8,6.9,12.5,7,12C6.5,12.1,6.2,12.3,6.1,12.7 M45.1,13.9
		C45,13.9,45,13.9,45.1,13.9c0.2,0.5-0.1,1.2,0.2,1.6c0-0.5-0.1-1-0.1-1.4c0.1-0.5,0.3-0.9,0.5-1.4c-0.2,0.3-0.3,0.6-0.5,0.9
		C45.2,13.7,45.1,13.8,45.1,13.9 M10.8,16c-0.5,0-0.9,0.2-1,0.6C10.3,16.8,10.6,16.5,10.8,16 M5.4,10.7c0,0.6,0.2,1,0.7,1
		C6.1,11.2,5.8,11,5.4,10.7 M10.6,17.4c-0.5,0-0.9,0.3-1,0.7C10.1,18.2,10.3,18,10.6,17.4 M2.1,15.7c0.5,0.1,0.8-0.2,0.9-0.7
		C2.6,15,2.2,15.2,2.1,15.7 M2.1,14c-0.1-0.5-0.4-0.8-0.8-0.9C1.5,13.8,1.7,14,2.1,14 M46.5,28.4c-0.1,0.2-0.3,0.3-0.3,0.4
		c0,0.2,0,0.5,0.1,0.8c0.1,0,0.2-0.1,0.2-0.1c0.1-0.2,0.2-0.3,0.2-0.5C46.7,28.8,46.6,28.7,46.5,28.4 M10.1,15.3
		c0.4,0.1,0.7-0.2,0.9-0.8C10.5,14.6,10.2,14.9,10.1,15.3 M10,15c0.1-0.4-0.2-0.8-0.6-1C9.4,14.7,9.5,14.9,10,15 M3,14.2
		c-0.5,0.1-0.8,0.4-0.9,0.8C2.7,15,2.9,14.6,3,14.2 M10.9,15.3c-0.5,0-0.8,0.3-0.9,0.7C10.5,16,10.7,15.9,10.9,15.3 M43.8,29.1
		c-0.1,0.4,0.1,0.9,0.4,1C44.1,29.7,44.3,29.3,43.8,29.1 M41,27.2c0,0.1,0.1,0.2,0.1,0.3c0,0-0.1,0.1-0.2,0.1
		c-0.1,0-0.2-0.1-0.3-0.2c-0.1-0.1-0.1-0.2-0.1-0.3c0-0.2,0.1-0.4,0.2-0.5c-0.2,0.1-0.3,0.3-0.3,0.6c0,0.2,0.2,0.5,0.4,0.5
		c0.2,0,0.3-0.1,0.3-0.3C41.2,27.3,41.2,27.2,41,27.2 M47.5,20.6c0.2,0.4,0.6,0.5,0.9,0.3c0.1-0.1,0.1-0.3,0.1-0.4
		c0-0.1-0.2-0.2-0.2-0.2c-0.1,0-0.2,0.1-0.4,0.1c0.2,0,0.3,0,0.5,0c0,0,0.1,0.3,0,0.3c-0.1,0.1-0.3,0.1-0.4,0.1
		c-0.1,0-0.2-0.1-0.3-0.1C47.6,20.7,47.6,20.7,47.5,20.6 M2.4,25.2C2.4,25.2,2.4,25.2,2.4,25.2c0.2-0.1,0.2-0.3,0.3-0.4
		c0-0.1,0.1-0.2,0-0.2c0,0-0.1-0.1-0.2-0.1c-0.1,0-0.2,0.1-0.2,0.2C2.3,24.9,2.4,25.1,2.4,25.2 M45.1,8.1c-0.3-0.3-0.7-0.2-0.8,0
		c-0.2,0.2-0.1,0.5,0.2,0.7c-0.2-0.2-0.2-0.4-0.1-0.6C44.6,8,44.9,8,45.1,8.1 M45.5,12.7c-0.5,0.1-0.7,0.4-0.4,0.7
		C45.2,13.2,45.3,12.9,45.5,12.7 M29.3,46.5c0.1,0.1,0.2,0.2,0.3,0.2c0.1,0,0.2-0.1,0.2-0.2c-0.1-0.1-0.2-0.2-0.3-0.2
		C29.6,46.3,29.5,46.4,29.3,46.5 M29.5,47.9c-0.1,0.1-0.2,0.2-0.3,0.3c0.1,0.1,0.2,0.2,0.3,0.2c0.1,0,0.2-0.1,0.2-0.2
		C29.7,48.2,29.6,48.1,29.5,47.9 M30.2,45.2c-0.1,0.1-0.2,0.2-0.3,0.2c0.1,0.1,0.2,0.2,0.3,0.2c0.1,0,0.2-0.1,0.2-0.2
		C30.4,45.4,30.3,45.3,30.2,45.2 M43.8,22.8c-0.2-0.2-0.4-0.2-0.6,0c-0.1,0.2-0.3,0.2-0.5,0.1c0,0-0.1,0-0.1,0c0,0,0,0.1,0,0.1
		c0.2,0,0.4,0.2,0.5,0.1C43.3,22.8,43.5,22.7,43.8,22.8 M46.9,26.2c0.1-0.3,0.2-0.6,0.2-0.9c0,0,0,0,0,0c-0.2,0.2-0.3,0.5-0.5,0.7
		C46.7,26.1,46.8,26.1,46.9,26.2 M43.1,22.5C43.1,22.5,43.1,22.5,43.1,22.5c-0.2-0.5-0.5-0.9-0.8-1.3c0,0,0,0-0.1,0
		C42.5,21.7,42.8,22.1,43.1,22.5 M40.1,21.5c-0.4,0.3-0.7,0.2-1-0.3c0.1,0.3,0.3,0.6,0.6,0.6C39.8,21.8,40,21.8,40.1,21.5
		 M38.5,40.1c0,0-0.1-0.1-0.1-0.1c-0.1,0.1-0.3,0.2-0.5,0.4c0.1,0.1,0.2,0.2,0.2,0.2C38.3,40.4,38.4,40.3,38.5,40.1 M46.9,27.9
		c0.1,0.1,0.3,0.1,0.3,0.2c0,0,0,0.2-0.1,0.3c-0.2,0.2-0.3-0.1-0.5-0.2c0.2,0.3,0.4,0.4,0.5,0.3c0.1-0.1,0.1-0.3,0.1-0.4
		C47.2,27.8,47.1,27.8,46.9,27.9 M45.5,19.4c-0.1,0.1-0.2,0.1-0.2,0.2c0.1,0.1,0.1,0.2,0.2,0.2c0.1,0,0.2-0.1,0.3-0.1
		C45.6,19.5,45.6,19.5,45.5,19.4 M42,23.2C42,23.2,42,23.2,42,23.2l-0.1,0.4c-0.1-0.1-0.3-0.2-0.5-0.3c0.1,0.2,0.2,0.3,0.3,0.4
		c0,0,0.2,0,0.2-0.1C42,23.5,42,23.3,42,23.2 M20.5,45c0-0.5-0.3-0.4-0.5-0.4C20.1,44.8,20.3,44.9,20.5,45 M45.2,26.5
		c0.1,0.2,0.3,0.3,0.4,0.2c0,0,0-0.1,0.1-0.2H45.2z M44.5,21.1c0.1-0.1,0.1-0.1,0.2-0.2c-0.1-0.1-0.1-0.1-0.2-0.2
		c0,0-0.1,0.1-0.1,0.1C44.4,21,44.5,21,44.5,21.1 M43.8,20.3c0.1-0.1,0.2-0.2,0.1-0.2c-0.1-0.1-0.2-0.2-0.2-0.3c0,0-0.1,0.1-0.1,0.1
		C43.7,20.1,43.7,20.2,43.8,20.3 M19.9,40.2c0,0,0.1,0,0.1,0c0-0.2,0-0.4,0-0.7c0,0-0.1,0-0.1,0C19.9,39.8,19.9,40,19.9,40.2
		 M45.7,9.2C45.7,9.2,45.7,9.2,45.7,9.2c0,0.2-0.1,0.4-0.1,0.7c0.1-0.2,0.2-0.3,0.3-0.5c-0.1,0-0.1,0.1-0.2,0.1
		C45.7,9.4,45.7,9.3,45.7,9.2 M44.3,33.2c-0.1-0.1-0.2-0.1-0.2-0.1c-0.1,0-0.2,0.1-0.2,0.1c0.1,0,0.1,0.1,0.2,0.1
		C44.1,33.3,44.2,33.2,44.3,33.2 M31.9,47.9c-0.1-0.1-0.2-0.2-0.2-0.2c-0.2,0-0.3,0.2-0.4,0.4C31.6,47.7,31.7,47.7,31.9,47.9
		 M45,33.4c-0.1,0.1-0.1,0.2-0.2,0.2c0.1,0,0.1,0.1,0.2,0.1c0.1,0,0.1-0.1,0.2-0.1C45.1,33.6,45,33.5,45,33.4 M45.4,27.4
		c-0.1-0.1-0.2-0.1-0.2-0.1c-0.1,0-0.1,0.1-0.2,0.1c0.1,0,0.1,0.1,0.2,0.1C45.2,27.6,45.3,27.5,45.4,27.4"/>
	<path class="st0" d="M40.6,60c0.1,0,0.2,0,0.2,0.1c0.7,0.1,1.2,0.5,1.4,1.3c0.1,0.8-0.1,1.4-0.8,1.8c-0.3,0.2-0.8,0.4-1.2,0.4
		c-1.4,0.1-2.8,0.1-4.1,0.1c0,0,0,0-0.1,0c0-0.1,0-0.2,0-0.3c0-2.2,0-4.3,0-6.5c0-0.3,0.1-0.4,0.3-0.4c1.2,0,2.4,0,3.6,0.1
		c0.3,0,0.6,0.1,0.9,0.2c0.7,0.3,1.1,0.9,1,1.7c0,0.7-0.5,1.2-1.2,1.4C40.7,59.9,40.6,59.9,40.6,60C40.6,59.9,40.6,60,40.6,60
		 M38.8,60.6L38.8,60.6c-0.3,0-0.6,0-0.8,0c-0.1,0-0.2,0.1-0.2,0.2c0,0.5,0,1,0,1.4c0,0.1,0.1,0.2,0.1,0.2c0.6,0,1.2,0,1.8,0
		c0.5-0.1,0.8-0.4,0.8-0.9c0-0.5-0.3-0.8-0.9-0.8C39.3,60.6,39,60.6,38.8,60.6 M37.8,57.8v1.5c0.4,0,0.8,0,1.2,0
		c0.2,0,0.5,0,0.7-0.1c0.4-0.1,0.5-0.4,0.5-0.8c0-0.4-0.2-0.6-0.6-0.6C39,57.8,38.4,57.8,37.8,57.8"/>
	<path class="st0" d="M21.4,60.8c0.6,1,1.1,1.9,1.7,2.9c-0.7,0-1.3,0-1.9,0c-0.1,0-0.2-0.1-0.2-0.2c-0.4-0.7-0.8-1.4-1.2-2.1
		c-0.1-0.2-0.2-0.3-0.4-0.2c-0.2,0-0.4,0-0.6,0c-0.2,0-0.3,0.1-0.3,0.3c0,0.7,0,1.4,0,2c0,0.2-0.1,0.3-0.3,0.3c-0.5,0-1,0-1.5,0
		v-7.2c0.1,0,0.1,0,0.2,0c1.1,0,2.3,0,3.4,0c0.2,0,0.4,0,0.7,0.1c1.5,0.2,2.3,1.7,1.8,3.1c-0.2,0.4-0.5,0.8-0.9,1
		C21.8,60.6,21.6,60.7,21.4,60.8 M18.5,57.8c0,0.6,0,1.2,0,1.8c0,0,0.1,0.1,0.2,0.1c0.5,0,0.9,0,1.4,0c0.2,0,0.4-0.1,0.5-0.1
		c0.4-0.2,0.5-0.5,0.5-1.1c0-0.4-0.3-0.7-0.7-0.7C19.8,57.8,19.2,57.8,18.5,57.8"/>
	<path class="st0" d="M15.6,56.4c0,0.4,0,0.8,0,1.2c0,1.1,0,2.2,0,3.3c0,1.7-0.9,2.6-2.6,2.9c-0.8,0.1-1.7,0-2.4-0.5
		c-0.5-0.3-0.9-0.8-1-1.4c-0.1-0.3-0.1-0.7-0.1-1c0-1.4,0-2.8,0-4.1c0-0.1,0-0.2,0-0.3c0.6,0,1.1,0,1.6,0c0.1,0,0.1,0.2,0.1,0.3
		c0,1,0,2,0,3c0,0.5,0,1.1,0,1.6c0,0.6,0.3,0.9,0.9,1c0.2,0,0.4,0,0.6,0c0.7,0,1.1-0.4,1.1-1.1c0-1.5,0-3,0-4.5
		c0-0.3,0.1-0.4,0.4-0.3C14.6,56.5,15,56.4,15.6,56.4"/>
	<path class="st0" d="M42.4,63.7c0.3-0.8,0.6-1.5,0.8-2.2c0.6-1.6,1.2-3.2,1.8-4.7c0.1-0.2,0.2-0.3,0.4-0.3c0.5,0,0.9,0,1.4,0
		c0.2,0,0.2,0,0.3,0.2c0.8,2.3,1.7,4.6,2.5,6.9c0,0,0,0,0,0.1c-0.6,0-1.2,0-1.7,0c-0.1,0-0.1-0.1-0.2-0.2c-0.1-0.2-0.2-0.5-0.2-0.7
		c0-0.2-0.1-0.2-0.3-0.2c-0.7,0-1.5,0-2.2,0c-0.2,0-0.3,0.1-0.3,0.2c-0.1,0.2-0.1,0.5-0.2,0.7c0,0.1-0.1,0.2-0.2,0.2
		C43.6,63.7,43,63.7,42.4,63.7 M46.9,61.2c-0.3-1-0.6-2-0.9-3c0,0,0,0-0.1,0c-0.3,1-0.6,1.9-0.9,3H46.9z"/>
	<path class="st0" d="M8.6,58.1c-0.5,0.2-0.9,0.5-1.4,0.7c-0.1-0.1-0.1-0.2-0.2-0.3c-0.7-1-2.1-1.1-2.8,0c-0.6,0.9-0.6,2.4,0,3.2
		c0.7,1,2,1,2.7,0c0.2-0.3,0.2-0.4,0.6-0.1c0.3,0.2,0.6,0.3,1,0.5c-0.5,0.8-1.1,1.4-2,1.7c-2.2,0.7-4.2-0.7-4.5-2.9
		c-0.1-1.2,0-2.2,0.7-3.2C4.4,55.6,7.5,55.8,8.6,58.1"/>
	<path class="st0" d="M30.1,63.7c-0.6,0-1.1,0-1.6,0c-0.1,0-0.2-0.1-0.2-0.2c0-0.7,0-1.3,0-2c0-1.1,0-2.2,0-3.3
		c0-0.3-0.1-0.3-0.3-0.3c-0.5,0-1,0-1.5,0v-1.4H32c0,0.4,0,0.8,0,1.3c0,0-0.1,0.1-0.2,0.1c-0.4,0-0.9,0-1.4,0
		c-0.2,0-0.3,0.1-0.3,0.3c0,1.7,0,3.5,0,5.2V63.7z"/>
	<path class="st0" d="M34.6,63.6h-1.7v-7.2c0.5,0,1.1,0,1.6,0c0,0,0.1,0.1,0.1,0.1c0,0.1,0,0.1,0,0.2c0,2.2,0,4.3,0,6.5
		C34.6,63.4,34.6,63.5,34.6,63.6"/>
	<path class="st0" d="M23.8,63.7v-0.3c0-2.2,0-4.4,0-6.6c0-0.2,0.1-0.3,0.3-0.3c0.4,0,0.8,0,1.2,0c0.2,0,0.2,0.1,0.2,0.2
		c0,2.3,0,4.5,0,6.8c0,0.1-0.1,0.2-0.2,0.2C24.9,63.7,24.4,63.7,23.8,63.7"/>
	<path class="st0" d="M5.6,9.1C5.7,9.4,5.7,9.7,5.8,10c0,0-0.1,0-0.1,0L5.6,9.1C5.6,9.1,5.6,9.1,5.6,9.1"/>
	<path class="st0" d="M1.5,11.6c0.1,0.3,0.2,0.6,0.2,0.8c0,0-0.1,0-0.1,0C1.6,12.2,1.5,11.9,1.5,11.6C1.4,11.7,1.5,11.6,1.5,11.6"/>
	<path class="st0" d="M10.9,13.8c0.2-0.2,0.3-0.5,0.5-0.7c0,0,0,0,0.1,0C11.3,13.4,11.2,13.6,10.9,13.8C11,13.8,10.9,13.8,10.9,13.8
		"/>
	<path class="st0" d="M9.7,13.3c0-0.3-0.1-0.6-0.1-0.8c0,0,0,0,0.1,0c0,0.3,0.1,0.6,0.1,0.8C9.8,13.3,9.7,13.3,9.7,13.3"/>
	<path class="st0" d="M3.3,12l-0.4,0.8c0,0-0.1,0-0.1-0.1C2.9,12.5,3.1,12.2,3.3,12C3.2,12,3.2,12,3.3,12"/>
	<path class="st0" d="M7.4,9.7C7.3,9.9,7.2,10.2,7,10.4c0,0-0.1,0-0.1-0.1C7.1,10.1,7.2,9.9,7.4,9.7C7.4,9.7,7.4,9.7,7.4,9.7"/>
	<path class="st0" d="M25.3,24.8c-0.1-1.6-0.1-3.2-0.2-4.8c0,0,0,0,0.1,0C25.3,21.7,25.3,23.2,25.3,24.8
		C25.4,24.8,25.3,24.8,25.3,24.8"/>
	<path class="st0" d="M25,23.9c0-1.1-0.1-2.1-0.1-3.2c0,0,0.1,0,0.1,0L25,23.9C25,23.9,25,23.9,25,23.9"/>
	<path class="st0" d="M25.5,26.3v-3.1c0,0,0,0,0,0L25.5,26.3C25.5,26.3,25.5,26.3,25.5,26.3"/>
	<path class="st0" d="M25.5,31.7v-3.2h0L25.5,31.7C25.5,31.7,25.5,31.7,25.5,31.7"/>
	<polyline class="st0" points="24.9,27.5 24.9,25.9 24.9,25.9 24.9,27.5 24.9,27.5 	"/>
	<rect x="24.9" y="29.7" class="st0" width="0" height="1.2"/>
	<path class="st0" d="M25.2,32.4v-1.2c0,0,0,0,0,0L25.2,32.4C25.2,32.4,25.2,32.4,25.2,32.4"/>
	<path class="st0" d="M18.2,4.6c-0.1,0.4-0.3,0.3-0.5,0.3c-0.2,0-0.2-0.2-0.2-0.3c0-0.3,0.3-0.2,0.5-0.3C18,4.3,18.1,4.5,18.2,4.6"
		/>
	<path class="st0" d="M25.1,4c-0.2,0-0.3,0-0.3-0.3c0-0.3,0.1-0.3,0.3-0.3c0.2,0,0.3,0,0.3,0.3C25.5,4,25.3,4,25.1,4"/>
	<path class="st0" d="M32.1,4.6c0.1-0.1,0-0.4,0.3-0.3c0.2,0,0.5-0.1,0.4,0.3c0,0.1,0,0.4-0.3,0.3C32.4,4.9,32.1,4.9,32.1,4.6"/>
	<path class="st0" d="M22.2,42.5V42c0.2,0.1,0.4,0.1,0.6,0.2c0,0,0,0.2,0,0.2C22.6,42.5,22.4,42.5,22.2,42.5"/>
	<path class="st0" d="M30.1,43.2c0-0.2-0.2-0.4,0.1-0.5c0.2,0,0.4-0.1,0.5,0.2C30.7,43.2,30.3,43,30.1,43.2"/>
	<path class="st0" d="M29.9,42.2c0-0.2,0-0.3-0.1-0.5c0.2,0,0.4,0,0.6,0c0,0,0.1,0.2,0,0.2C30.3,42,30.1,42.1,29.9,42.2"/>
	<path class="st0" d="M40,44c0.1,0.1,0.2,0.2,0.2,0.4c0,0.1-0.2,0.2-0.2,0.2c-0.1-0.1-0.3-0.2-0.3-0.3c0-0.1,0.1-0.2,0.2-0.3L40,44z
		"/>
	<path class="st0" d="M41.2,42.1c0.2-0.1,0.3-0.3,0.4-0.3c0.2,0,0.3,0.1,0.3,0.3c0,0.1-0.2,0.3-0.2,0.3
		C41.5,42.3,41.4,42.2,41.2,42.1"/>
	<path class="st0" d="M8.7,41.7C8.8,41.9,9,42,9,42.1c0,0.1-0.2,0.2-0.3,0.3c-0.1-0.1-0.3-0.2-0.3-0.3C8.4,42,8.6,41.9,8.7,41.7"/>
	<path class="st0" d="M32.7,41.5c0.1,0.1,0.2,0.3,0.3,0.5c-0.1,0-0.2,0.1-0.3,0.1L32.7,41.5C32.7,41.5,32.7,41.5,32.7,41.5"/>
</g>
</svg>
