<?xml version="1.0" encoding="utf-8"?>
<!-- Generator: Adobe Illustrator 25.4.1, SVG Export Plug-In . SVG Version: 6.00 Build 0)  -->
<!DOCTYPE svg PUBLIC "-//W3C//DTD SVG 1.1//EN" "http://www.w3.org/Graphics/SVG/1.1/DTD/svg11.dtd" [
	<!ENTITY ns_extend "http://ns.adobe.com/Extensibility/1.0/">
	<!ENTITY ns_ai "http://ns.adobe.com/AdobeIllustrator/10.0/">
	<!ENTITY ns_graphs "http://ns.adobe.com/Graphs/1.0/">
	<!ENTITY ns_vars "http://ns.adobe.com/Variables/1.0/">
	<!ENTITY ns_imrep "http://ns.adobe.com/ImageReplacement/1.0/">
	<!ENTITY ns_sfw "http://ns.adobe.com/SaveForWeb/1.0/">
	<!ENTITY ns_custom "http://ns.adobe.com/GenericCustomNamespace/1.0/">
	<!ENTITY ns_adobe_xpath "http://ns.adobe.com/XPath/1.0/">
]>
<svg version="1.1" id="Camada_1" xmlns:x="&ns_extend;" xmlns:i="&ns_ai;" xmlns:graph="&ns_graphs;"
	 xmlns="http://www.w3.org/2000/svg" xmlns:xlink="http://www.w3.org/1999/xlink" x="0px" y="0px" viewBox="0 0 67.2 50.1"
	 style="enable-background:new 0 0 67.2 50.1;" xml:space="preserve">
<style type="text/css">
	.st0{fill:#FFFFFF;}
	.st1{clip-path:url(#SVGID_00000059292875922550267400000015812713486684054144_);fill:#FFFFFF;}
	.st2{clip-path:url(#SVGID_00000029020221106586188580000000302014049150166913_);fill:#FFFFFF;}
	.st3{fill-rule:evenodd;clip-rule:evenodd;fill:#FFFFFF;}
	.st4{opacity:0.8;}
	.st5{opacity:0.4;clip-path:url(#SVGID_00000062882501256746317450000002051706460264713149_);}
	.st6{clip-path:url(#SVGID_00000119836273315264173530000016621892773825914507_);fill:#FFFFFF;}
	.st7{clip-path:url(#SVGID_00000071531250140225667930000005165905330153108358_);fill:#FFFFFF;}
	.st8{clip-path:url(#SVGID_00000078746344047973768510000006612564130471224731_);fill:#FFFFFF;}
	.st9{clip-path:url(#SVGID_00000106825998831840561070000015338117171497852322_);fill:#FFFFFF;}
	.st10{clip-path:url(#SVGID_00000116956622159301869430000004506939919213661833_);fill:#FFFFFF;}
	.st11{clip-path:url(#SVGID_00000162337700162895461270000007975665684165739144_);fill:#FFFFFF;}
	.st12{clip-path:url(#SVGID_00000179641366545999336570000017784946755875275411_);fill:#FFFFFF;}
	.st13{clip-path:url(#SVGID_00000091017033350363210620000001260059359244187325_);fill:#FFFFFF;}
</style>
<metadata>
	<sfw  xmlns="&ns_sfw;">
		<slices></slices>
		<sliceSourceBounds  bottomLeftOrigin="true" height="280.2" width="1017.9" x="-2419.2" y="3433.6"></sliceSourceBounds>
	</sfw>
</metadata>
<g>
	<path class="st0" d="M29.3,17.9c1.2,0.5,2.3,0.8,2.2,2.2c0,1.5-0.7,2.6-2,3.1c-0.7,0.3-1.4,0.5-2.2,0.6c-1.9,0.1-3.9,0-5.8,0
		c-0.1,0-0.3-0.1-0.5-0.1c0.3-1.5,0.6-2.9,0.9-4.4c0.4-2.1,0.9-4.1,1.3-6.2c0.1-0.7,0.4-1,1.2-1c1.8,0.1,3.5,0.1,5.3,0.2
		c1.5,0.1,2.4,0.8,2.6,1.8c0.2,1.2-0.4,2.3-1.6,3C30.3,17.4,29.9,17.6,29.3,17.9 M24.5,21.8c1.2,0,2.3,0.3,3.3-0.5
		c0.7-0.6,0.8-1.8,0.1-2c-0.8-0.3-1.7-0.2-2.6-0.2c-0.1,0-0.2,0.1-0.2,0.2C24.8,20.1,24.7,20.9,24.5,21.8 M25.5,16.9
		c0.8,0,1.5,0.1,2.2,0c0.5-0.2,1-0.6,1.4-1.1c0.2-0.2,0-1.1-0.2-1.1c-0.9-0.2-1.8-0.2-2.7-0.3c-0.1,0-0.2,0.2-0.2,0.3
		C25.8,15.4,25.7,16.1,25.5,16.9"/>
	<path class="st0" d="M26.4,50.1c0.5-2.2,0.9-4.4,1.4-6.5c0.3-1.5,0.6-3,1-4.4c0.1-0.3,0.4-0.7,0.6-0.7c2.3,0,4.7,0,7,0.2
		c1.3,0.1,2.1,1.2,1.9,2.2c-0.2,1.4-0.9,2.4-2.2,2.9c-0.4,0.2-0.9,0.3-1.5,0.5c0.4,0.1,0.7,0.2,0.9,0.3c0.8,0.2,1.1,0.7,1.1,1.5
		c0,1.3,0,2.6,0,4h-3.4c0.1-1,0.1-1.9,0.2-2.9c0.1-1.2-0.2-1.5-1.3-1.6c-0.1,0-0.3,0-0.4,0c-0.8-0.1-1.3,0.1-1.4,1.1
		c-0.1,1-0.3,1.9-0.6,2.9c-0.1,0.2-0.3,0.6-0.5,0.6C28.2,50.1,27.4,50.1,26.4,50.1 M30.9,43.6c1.1-0.1,2-0.1,2.8-0.3
		c1-0.3,1.4-1.5,0.9-2.2c-0.4-0.4-2.4-0.8-2.9-0.4c-0.1,0.1-0.2,0.2-0.2,0.3C31.3,41.7,31.1,42.5,30.9,43.6"/>
	<path class="st0" d="M40.1,18.1c0.2,0.1,0.4,0.1,0.6,0.2c1.1,0.2,1.5,0.9,1.5,2c-0.1,1-0.1,1.9-0.2,2.9c0,0.5-0.2,0.7-0.6,0.6
		c-0.4,0-0.8,0-1.2,0c-1.6,0-1.6,0-1.4-1.6c0.1-0.5,0.1-0.9,0.1-1.4c0-1-0.2-1.3-1.2-1.4c-0.1,0-0.2,0-0.3,0
		c-1.4-0.1-1.4-0.1-1.7,1.2c-0.2,0.9-0.4,1.7-0.5,2.6c-0.1,0.4-0.3,0.7-0.8,0.7c-0.8,0-1.6,0-2.5,0c0.4-1.7,0.7-3.2,1-4.7
		c0.4-2,0.9-4.1,1.3-6.1c0.1-0.5,0.3-0.8,0.9-0.8c2,0.1,3.9,0.1,5.9,0.2c1.1,0.1,2.2,0.3,2.6,1.6c0.3,1.1-0.2,2.5-1.3,3.2
		C41.6,17.6,40.9,17.8,40.1,18.1 M36.4,17.3c1.1,0,2.2,0.2,3.1-0.4c0.8-0.5,1-1.9,0.3-2.1c-0.8-0.3-1.8-0.3-2.7-0.3
		c-0.1,0-0.2,0.2-0.3,0.4C36.8,15.5,36.6,16.3,36.4,17.3"/>
	<path class="st0" d="M3.1,20.3c-0.1,1,0.3,1.5,1.2,1.6c1,0.2,2.2-0.2,2.5-1c0.1-0.4,0-0.9-0.2-1.3c-0.2-0.3-0.6-0.4-0.9-0.5
		c-0.7-0.2-1.5-0.4-2.3-0.7c-2.3-0.7-2.9-2.8-1.4-4.7c1-1.3,2.5-1.7,4-1.9c1-0.1,2,0,3,0.2c1.3,0.2,2.1,1.3,2,2.5
		c0,0.5-0.2,0.8-0.8,0.7c-0.4,0-0.9,0-1.3,0c-0.6,0-1,0-1.2-0.7C7.4,14,6.7,14,6,14.1c-0.7,0.1-1.3,0.5-1.5,1.2
		c-0.1,0.7,0.5,1.1,1.1,1.3c0.9,0.3,1.7,0.4,2.6,0.7c1.3,0.4,2.1,1.3,2,2.4c-0.1,1.4-0.7,2.6-1.9,3.3c-2.1,1.3-4.4,1.4-6.8,0.7
		c-1.3-0.4-1.8-1.4-1.6-2.8c0-0.4,0.2-0.6,0.6-0.6C1.4,20.3,2.2,20.3,3.1,20.3"/>
	<path class="st0" d="M55.2,23.8c-1.1,0-2.1,0.1-3,0c-0.2,0-0.5-0.5-0.6-0.8c-0.3-1.5-0.3-1.5-1.8-1.5c-0.9,0-1.7-0.1-2.6,0
		c-0.4,0-0.9,0.3-1,0.6c-0.6,1.5-1.6,2-3.1,1.7c-0.2,0-0.5,0-0.8-0.1c0.1-0.3,0.2-0.5,0.3-0.7c2.1-3.4,4.2-6.8,6.2-10.2
		c0.3-0.5,0.6-0.7,1.2-0.7c0.7,0,1.5,0.1,2.2,0c0.7-0.1,0.9,0.3,1,0.9c0.5,2.9,1,5.7,1.5,8.6C54.9,22.3,55,23,55.2,23.8 M50.6,14.5
		l-0.3-0.1c-0.9,1.6-1.8,3.3-2.7,5h3.4C50.9,17.7,50.8,16.1,50.6,14.5"/>
	<path class="st0" d="M25,3.5c0.2-1,0.4-1.9,0.6-2.8C25.7,0.2,26,0,26.5,0c2,0,4,0,6,0c4.3,0,8.6,0,12.9,0c0.3,0,0.7,0,1.1,0.1
		c-0.3,1.1-0.4,2.1-0.7,3.1c-0.1,0.2-0.5,0.3-0.8,0.3c-2.4,0-4.7,0-7.1,0c-4,0-7.9,0-11.9,0C25.7,3.5,25.4,3.5,25,3.5"/>
	<path class="st0" d="M23.8,9.6c0.3-1.1,0.5-2.1,0.8-3.2c0-0.1,0.4-0.3,0.5-0.3c6.7,0,13.3,0,20,0c0,0,0,0,0.2,0.1
		c-0.2,1-0.4,2-0.7,3c0,0.2-0.4,0.3-0.6,0.3c-0.4,0.1-0.8,0-1.3,0c-5.9,0-11.7,0-17.6,0C24.7,9.6,24.3,9.6,23.8,9.6"/>
	<path class="st0" d="M18.2,35.9c0.2-1.1,0.4-2.1,0.7-3c0.1-0.2,0.6-0.4,0.9-0.5c2.8,0,5.6,0,8.4,0c3.5,0,7,0,10.5,0
		c0.7,0,1,0.2,0.7,0.9c-0.3,0.8-0.2,1.9-0.7,2.3c-0.5,0.4-1.6,0.2-2.4,0.2c-5.7,0-11.4,0-17.1,0H18.2z"/>
	<path class="st0" d="M19.4,29.9c0.3-1.1,0.5-2,0.7-3c0-0.2,0.3-0.3,0.4-0.4c0.1,0,0.2,0,0.2,0c6.7,0,13.3,0,20.1,0
		c-0.3,1.1-0.4,2.1-0.7,3.1c-0.1,0.2-0.5,0.3-0.7,0.3c-1.1,0-2.2,0-3.3,0c-5.2,0-10.4,0-15.7,0C20.2,29.9,19.9,29.9,19.4,29.9"/>
	<path class="st0" d="M15.1,50.1c0.6-2.7,1.2-5.4,1.7-8c0.2-1,0.4-2,0.7-3c0.1-0.2,0.4-0.6,0.6-0.6c2,0,4,0,6,0c0.1,0,0.3,0,0.4,0
		c1.9,0.3,2.7,1.4,2.4,3.3c-0.4,2.2-1.8,3.6-4.1,3.8c-1,0.1-2,0.1-3,0.1c-0.6,0-0.8,0.2-0.9,0.7c-0.2,0.9-0.4,1.8-0.6,2.7
		c-0.1,0.6-0.4,0.9-1,0.8C16.6,50.1,15.9,50.1,15.1,50.1 M19.6,43.7c1.2,0.1,2.2,0.2,3.2-0.3c1-0.6,1.3-2.1,0.4-2.5
		c-0.8-0.3-1.8-0.3-2.7-0.3c-0.1,0-0.3,0.3-0.3,0.4C19.9,41.9,19.8,42.7,19.6,43.7"/>
	<path class="st0" d="M67.2,12.4C67,12.9,67,13.5,66.8,14c-0.1,0.2-0.4,0.3-0.7,0.3c-1.4,0-2.9,0-4.3,0c-0.6,0-0.9,0.2-0.9,0.8
		c-0.1,0.6-0.2,1.1-0.4,1.8h5.2c-0.1,0.6-0.2,1.2-0.3,1.7c-0.1,0.2-0.5,0.4-0.7,0.4c-1.3,0-2.6,0-3.9,0c-0.5,0-0.8,0.2-0.9,0.7
		c-0.1,0.6-0.2,1.2-0.4,2H65c0.1,0.2,0.1,0.3,0.1,0.3c-0.2,1.7-0.2,1.7-2,1.7c-2.3,0-4.7,0-7,0c0-0.2-0.1-0.4-0.1-0.5
		c0.8-3.5,1.5-7,2.3-10.4c0.1-0.4,0.2-0.6,0.7-0.6c2.6,0,5.2,0,7.8,0C66.9,12.2,66.9,12.3,67.2,12.4"/>
	<path class="st0" d="M19.9,21.8c0,0.2,0,0.2,0,0.3c-0.2,1.7-0.2,1.7-1.9,1.7c-2.1,0-4.2,0-6.2,0c-0.7,0-1-0.1-0.8-0.9
		c0.8-3.3,1.4-6.6,2.1-9.9c0.1-0.3,0.4-0.7,0.6-0.7c2.7,0,5.5,0,8.4,0c-0.1,0.7-0.2,1.2-0.4,1.8c-0.1,0.2-0.5,0.3-0.8,0.3
		c-1.4,0-2.9,0-4.3,0c-0.5,0-0.8,0.1-0.9,0.7c-0.1,0.6-0.2,1.2-0.4,1.9h5.2c-0.2,0.7-0.3,1.3-0.5,1.9c0,0.1-0.4,0.2-0.6,0.2
		c-1.3,0-2.6,0-4,0c-0.5,0-0.7,0.1-0.8,0.6c-0.6,2.1-0.6,2.1,1.6,2.1C17.5,21.8,18.7,21.8,19.9,21.8"/>
</g>
</svg>
