<?xml version="1.0" encoding="utf-8"?>
<!-- Generator: Adobe Illustrator 25.4.1, SVG Export Plug-In . SVG Version: 6.00 Build 0)  -->
<!DOCTYPE svg PUBLIC "-//W3C//DTD SVG 1.1//EN" "http://www.w3.org/Graphics/SVG/1.1/DTD/svg11.dtd" [
	<!ENTITY ns_extend "http://ns.adobe.com/Extensibility/1.0/">
	<!ENTITY ns_ai "http://ns.adobe.com/AdobeIllustrator/10.0/">
	<!ENTITY ns_graphs "http://ns.adobe.com/Graphs/1.0/">
	<!ENTITY ns_vars "http://ns.adobe.com/Variables/1.0/">
	<!ENTITY ns_imrep "http://ns.adobe.com/ImageReplacement/1.0/">
	<!ENTITY ns_sfw "http://ns.adobe.com/SaveForWeb/1.0/">
	<!ENTITY ns_custom "http://ns.adobe.com/GenericCustomNamespace/1.0/">
	<!ENTITY ns_adobe_xpath "http://ns.adobe.com/XPath/1.0/">
]>
<svg version="1.1" id="Camada_1" xmlns:x="&ns_extend;" xmlns:i="&ns_ai;" xmlns:graph="&ns_graphs;"
	 xmlns="http://www.w3.org/2000/svg" xmlns:xlink="http://www.w3.org/1999/xlink" x="0px" y="0px" viewBox="0 0 83.1 26"
	 style="enable-background:new 0 0 83.1 26;" xml:space="preserve">
<style type="text/css">
	.st0{fill:#FFFFFF;}
	.st1{clip-path:url(#SVGID_00000109717948936050898300000016775193903989284019_);fill:#FFFFFF;}
	.st2{clip-path:url(#SVGID_00000171703040139160248590000014156338629555522748_);fill:#FFFFFF;}
	.st3{fill-rule:evenodd;clip-rule:evenodd;fill:#FFFFFF;}
	.st4{opacity:0.8;}
	.st5{opacity:0.4;clip-path:url(#SVGID_00000101825173069458928240000013315660780179987888_);}
	.st6{clip-path:url(#SVGID_00000138551944702639691710000013393237127847100568_);fill:#FFFFFF;}
	.st7{clip-path:url(#SVGID_00000101785984115672576920000001904063146513281455_);fill:#FFFFFF;}
	.st8{clip-path:url(#SVGID_00000028287176712451631090000003436200054758674830_);fill:#FFFFFF;}
	.st9{clip-path:url(#SVGID_00000036222102352857677410000009998981582968553090_);fill:#FFFFFF;}
	.st10{clip-path:url(#SVGID_00000056395068138031181170000002955099691422579370_);fill:#FFFFFF;}
	.st11{clip-path:url(#SVGID_00000121246686385579714200000004807707702520294073_);fill:#FFFFFF;}
	.st12{clip-path:url(#SVGID_00000156562425383469457390000014749531674445085329_);fill:#FFFFFF;}
	.st13{clip-path:url(#SVGID_00000160161438633577748650000005997262401618873260_);fill:#FFFFFF;}
</style>
<metadata>
	<sfw  xmlns="&ns_sfw;">
		<slices></slices>
		<sliceSourceBounds  bottomLeftOrigin="true" height="280.2" width="1017.9" x="-2419.2" y="3433.6"></sliceSourceBounds>
	</sfw>
</metadata>
<g>
	<g class="st4">
		<g>
			<defs>
				<rect id="SVGID_00000035494493861342485260000012624538049469889211_" x="6.3" y="0.8" width="76.8" height="7.6"/>
			</defs>
			<use xlink:href="#SVGID_00000035494493861342485260000012624538049469889211_"  style="overflow:visible;fill:#FFFFFF;"/>
			<clipPath id="SVGID_00000032608856364067917720000008521436579456923834_">
				<use xlink:href="#SVGID_00000035494493861342485260000012624538049469889211_"  style="overflow:visible;"/>
			</clipPath>
			<g style="opacity:0.4;clip-path:url(#SVGID_00000032608856364067917720000008521436579456923834_);">
				<g>
					<defs>
						<rect id="SVGID_00000000943041283949919200000005145032572270423208_" x="6.3" y="4" width="76.7" height="3.2"/>
					</defs>
					<use xlink:href="#SVGID_00000000943041283949919200000005145032572270423208_"  style="overflow:visible;fill:#FFFFFF;"/>
					<clipPath id="SVGID_00000029021985909612871950000012998753109335123884_">
						<use xlink:href="#SVGID_00000000943041283949919200000005145032572270423208_"  style="overflow:visible;"/>
					</clipPath>
					<polygon style="clip-path:url(#SVGID_00000029021985909612871950000012998753109335123884_);fill:#FFFFFF;" points="6.3,5.5 
						83.1,4 6.3,7.2 					"/>
				</g>
			</g>
			<g style="opacity:0.4;clip-path:url(#SVGID_00000032608856364067917720000008521436579456923834_);">
				<g>
					<defs>
						<rect id="SVGID_00000057131470776676786340000006549922773938388918_" x="6.3" y="2.9" width="76.8" height="4.3"/>
					</defs>
					<use xlink:href="#SVGID_00000057131470776676786340000006549922773938388918_"  style="overflow:visible;fill:#FFFFFF;"/>
					<clipPath id="SVGID_00000156550860757279270910000002077939662145567371_">
						<use xlink:href="#SVGID_00000057131470776676786340000006549922773938388918_"  style="overflow:visible;"/>
					</clipPath>
					<polygon style="clip-path:url(#SVGID_00000156550860757279270910000002077939662145567371_);fill:#FFFFFF;" points="6.3,5.5 
						83.1,2.9 6.3,7.2 					"/>
				</g>
			</g>
			<g style="opacity:0.4;clip-path:url(#SVGID_00000032608856364067917720000008521436579456923834_);">
				<g>
					<defs>
						<rect id="SVGID_00000109732350165438068730000003798107203751568266_" x="6.3" y="1.8" width="76.8" height="5.4"/>
					</defs>
					<use xlink:href="#SVGID_00000109732350165438068730000003798107203751568266_"  style="overflow:visible;fill:#FFFFFF;"/>
					<clipPath id="SVGID_00000018212379285688261890000011669229453143463561_">
						<use xlink:href="#SVGID_00000109732350165438068730000003798107203751568266_"  style="overflow:visible;"/>
					</clipPath>
					<polygon style="clip-path:url(#SVGID_00000018212379285688261890000011669229453143463561_);fill:#FFFFFF;" points="6.3,5.5 
						83.1,1.8 6.3,7.2 					"/>
				</g>
			</g>
			<g style="opacity:0.4;clip-path:url(#SVGID_00000032608856364067917720000008521436579456923834_);">
				<g>
					<defs>
						<rect id="SVGID_00000121996305987645831320000017285021254523529623_" x="6.3" y="0.8" width="76.7" height="6.5"/>
					</defs>
					<use xlink:href="#SVGID_00000121996305987645831320000017285021254523529623_"  style="overflow:visible;fill:#FFFFFF;"/>
					<clipPath id="SVGID_00000110453689934941445930000006687505013584911750_">
						<use xlink:href="#SVGID_00000121996305987645831320000017285021254523529623_"  style="overflow:visible;"/>
					</clipPath>
					<polygon style="clip-path:url(#SVGID_00000110453689934941445930000006687505013584911750_);fill:#FFFFFF;" points="6.3,5.5 
						83.1,0.8 6.3,7.2 					"/>
				</g>
			</g>
			<g style="opacity:0.4;clip-path:url(#SVGID_00000032608856364067917720000008521436579456923834_);">
				<g>
					<defs>
						<rect id="SVGID_00000125567365025498080340000012681439261375947444_" x="6.3" y="5.5" width="76.7" height="2.9"/>
					</defs>
					<use xlink:href="#SVGID_00000125567365025498080340000012681439261375947444_"  style="overflow:visible;fill:#FFFFFF;"/>
					<clipPath id="SVGID_00000101080004918474329380000009543387407813323185_">
						<use xlink:href="#SVGID_00000125567365025498080340000012681439261375947444_"  style="overflow:visible;"/>
					</clipPath>
					<polygon style="clip-path:url(#SVGID_00000101080004918474329380000009543387407813323185_);fill:#FFFFFF;" points="83.1,8.4 
						6.3,5.5 6.3,7.2 					"/>
				</g>
			</g>
			<g style="opacity:0.4;clip-path:url(#SVGID_00000032608856364067917720000008521436579456923834_);">
				<g>
					<defs>
						<rect id="SVGID_00000139280792696860784310000004207564983145993108_" x="6.3" y="5.5" width="76.7" height="1.8"/>
					</defs>
					<use xlink:href="#SVGID_00000139280792696860784310000004207564983145993108_"  style="overflow:visible;fill:#FFFFFF;"/>
					<clipPath id="SVGID_00000173143973386631594040000016951353588394739083_">
						<use xlink:href="#SVGID_00000139280792696860784310000004207564983145993108_"  style="overflow:visible;"/>
					</clipPath>
					<polygon style="clip-path:url(#SVGID_00000173143973386631594040000016951353588394739083_);fill:#FFFFFF;" points="83.1,7.3 
						6.3,5.5 6.3,7.2 					"/>
				</g>
			</g>
			<g style="opacity:0.4;clip-path:url(#SVGID_00000032608856364067917720000008521436579456923834_);">
				<g>
					<defs>
						<rect id="SVGID_00000020400589299496366680000011194009887067741325_" x="6.3" y="5.5" width="76.7" height="1.8"/>
					</defs>
					<use xlink:href="#SVGID_00000020400589299496366680000011194009887067741325_"  style="overflow:visible;fill:#FFFFFF;"/>
					<clipPath id="SVGID_00000180361166325721856690000001179488851219843465_">
						<use xlink:href="#SVGID_00000020400589299496366680000011194009887067741325_"  style="overflow:visible;"/>
					</clipPath>
					<polygon style="clip-path:url(#SVGID_00000180361166325721856690000001179488851219843465_);fill:#FFFFFF;" points="83.1,6.2 
						6.3,5.5 6.3,7.2 					"/>
				</g>
			</g>
			<g style="opacity:0.4;clip-path:url(#SVGID_00000032608856364067917720000008521436579456923834_);">
				<g>
					<defs>
						<rect id="SVGID_00000011737804814193123730000011128057849830645387_" x="6.3" y="5.1" width="76.7" height="2.1"/>
					</defs>
					<use xlink:href="#SVGID_00000011737804814193123730000011128057849830645387_"  style="overflow:visible;fill:#FFFFFF;"/>
					<clipPath id="SVGID_00000017504075038118196870000008475601574887335092_">
						<use xlink:href="#SVGID_00000011737804814193123730000011128057849830645387_"  style="overflow:visible;"/>
					</clipPath>
					<polygon style="clip-path:url(#SVGID_00000017504075038118196870000008475601574887335092_);fill:#FFFFFF;" points="83.1,5.1 
						6.3,5.5 6.3,7.2 					"/>
				</g>
			</g>
		</g>
	</g>
	<path class="st0" d="M15.1,15.2h6c0.1,0.3,0.1,0.6,0.1,0.9c0,0.3,0,0.6-0.1,0.9h-3.9v2.5h3.1c0.1,0.3,0.1,0.6,0.1,0.9
		c0,0.3,0,0.6-0.1,0.9h-3.1v4.4c-0.4,0.1-0.7,0.1-1.1,0.1c-0.4,0-0.7,0-1.1-0.1V15.2z"/>
	<path class="st0" d="M25,22l-3.3-6.8c0.4-0.1,0.8-0.1,1.2-0.1c0.4,0,0.7,0,1.1,0.1l2.1,4.8l2.1-4.8c0.4-0.1,0.7-0.1,1.1-0.1
		c0.4,0,0.7,0,1.1,0.1L27.1,22v3.8c-0.2,0-0.4,0-0.6,0.1c-0.2,0-0.4,0-0.5,0c-0.2,0-0.3,0-0.5,0c-0.2,0-0.4,0-0.6-0.1V22z"/>
	<path class="st0" d="M30.9,15.2c0.4,0,0.8-0.1,1.2-0.1c0.4,0,0.8-0.1,1.3-0.1c0.5,0,1.1,0,1.6,0.1c0.5,0.1,1,0.3,1.4,0.5
		c0.4,0.3,0.8,0.6,1,1c0.3,0.4,0.4,1,0.4,1.6c0,0.4-0.1,0.7-0.1,1c-0.1,0.3-0.2,0.6-0.4,0.8c-0.2,0.2-0.3,0.4-0.5,0.6
		c-0.2,0.2-0.3,0.3-0.5,0.4L36,21.3l2.6,4.5c-0.2,0-0.4,0-0.6,0.1c-0.2,0-0.4,0-0.7,0c-0.4,0-0.7,0-1.1-0.1l-2.8-4.9l0.4-0.2
		c0.1-0.1,0.3-0.2,0.5-0.3c0.2-0.1,0.4-0.2,0.6-0.4c0.2-0.2,0.3-0.4,0.5-0.6c0.1-0.2,0.2-0.5,0.2-0.8c0-0.6-0.2-1.1-0.5-1.4
		c-0.4-0.3-0.8-0.4-1.4-0.4c-0.2,0-0.4,0-0.6,0v9c-0.2,0-0.4,0-0.5,0.1c-0.2,0-0.3,0-0.5,0s-0.3,0-0.5,0c-0.2,0-0.4,0-0.6-0.1V15.2z
		"/>
	<path class="st0" d="M39.2,24.6c0.1,0,0.3,0.1,0.4,0.1c0.1,0,0.3,0.1,0.5,0.1c0.2,0,0.4,0.1,0.6,0.1c0.2,0,0.5,0,0.8,0
		c0.5,0,0.9-0.1,1.2-0.2c0.3-0.1,0.6-0.3,0.8-0.5c0.2-0.2,0.4-0.4,0.5-0.7c0.1-0.3,0.2-0.5,0.2-0.8c0-0.3,0-0.5-0.1-0.8
		c-0.1-0.2-0.2-0.4-0.4-0.6c-0.2-0.2-0.4-0.3-0.8-0.5c-0.3-0.2-0.7-0.3-1.2-0.5c-0.3-0.1-0.7-0.3-1-0.4c-0.3-0.1-0.6-0.3-0.8-0.5
		c-0.2-0.2-0.4-0.5-0.6-0.8c-0.1-0.3-0.2-0.7-0.2-1.1c0-0.8,0.3-1.4,0.9-1.9c0.6-0.5,1.4-0.7,2.5-0.7c0.2,0,0.4,0,0.7,0
		c0.2,0,0.4,0,0.6,0.1c0.2,0,0.4,0.1,0.5,0.1c0.2,0,0.3,0.1,0.4,0.1c0,0.1,0,0.3-0.1,0.5c0,0.2-0.1,0.3-0.1,0.4
		c-0.2-0.1-0.5-0.2-0.9-0.2c-0.4-0.1-0.7-0.1-1.1-0.1c-0.8,0-1.4,0.2-1.8,0.5c-0.4,0.3-0.5,0.8-0.5,1.3c0,0.3,0.1,0.5,0.2,0.7
		c0.1,0.2,0.3,0.4,0.5,0.5c0.2,0.1,0.4,0.3,0.7,0.4c0.3,0.1,0.6,0.2,0.9,0.4c0.4,0.2,0.8,0.3,1.2,0.5c0.4,0.2,0.7,0.4,0.9,0.6
		c0.3,0.2,0.5,0.5,0.6,0.8c0.1,0.3,0.2,0.7,0.2,1.2c0,0.5-0.1,1-0.3,1.4c-0.2,0.4-0.4,0.7-0.8,1c-0.3,0.3-0.7,0.5-1.2,0.6
		c-0.5,0.1-1,0.2-1.6,0.2c-0.6,0-1.1,0-1.4-0.1c-0.4-0.1-0.7-0.2-1.1-0.3c0-0.1,0.1-0.3,0.1-0.5C39.1,24.9,39.2,24.7,39.2,24.6"/>
	<path class="st0" d="M48.4,16.1h-2.8c0-0.1,0-0.1,0-0.2c0-0.1,0-0.2,0-0.2c0-0.1,0-0.1,0-0.2c0-0.1,0-0.2,0-0.2h6.7
		c0,0.1,0,0.1,0,0.2c0,0.1,0,0.2,0,0.2c0,0.1,0,0.2,0,0.2c0,0.1,0,0.2,0,0.2h-2.8v9.7c-0.1,0-0.1,0-0.2,0c-0.1,0-0.2,0-0.3,0
		c-0.1,0-0.2,0-0.3,0c-0.1,0-0.2,0-0.2,0V16.1z"/>
	<path class="st0" d="M53.1,15.2c0.1,0,0.2,0,0.3,0c0.1,0,0.2,0,0.3,0c0.1,0,0.2,0,0.3,0c0.1,0,0.2,0,0.2,0v6.4
		c0,0.6,0.1,1.1,0.2,1.6c0.1,0.4,0.3,0.8,0.5,1.1c0.2,0.3,0.5,0.5,0.8,0.6c0.3,0.1,0.7,0.2,1.2,0.2c0.9,0,1.6-0.3,2-0.8
		c0.4-0.5,0.6-1.4,0.6-2.6v-6.4c0.1,0,0.1,0,0.2,0c0.1,0,0.2,0,0.3,0c0.1,0,0.2,0,0.3,0c0.1,0,0.2,0,0.2,0v6.5
		c0,1.4-0.3,2.5-0.9,3.2c-0.6,0.7-1.5,1.1-2.7,1.1c-1.2,0-2.2-0.4-2.7-1.1c-0.6-0.7-0.9-1.8-0.9-3.2V15.2z"/>
	<path class="st0" d="M62.3,15.2c0.1,0,0.3,0,0.5-0.1c0.2,0,0.4,0,0.6-0.1c0.2,0,0.5,0,0.7,0c0.2,0,0.4,0,0.6,0
		c0.9,0,1.7,0.1,2.4,0.4c0.7,0.3,1.2,0.6,1.7,1.1c0.4,0.5,0.8,1,1,1.7c0.2,0.7,0.3,1.4,0.3,2.3c0,3.7-1.8,5.5-5.4,5.5
		c-0.2,0-0.4,0-0.7,0c-0.2,0-0.5,0-0.7,0c-0.2,0-0.4,0-0.6-0.1c-0.2,0-0.4,0-0.5-0.1V15.2z M63.3,24.9c0.2,0,0.4,0,0.6,0.1
		c0.2,0,0.5,0,0.7,0c0.7,0,1.3-0.1,1.8-0.2c0.5-0.1,1-0.4,1.4-0.8c0.4-0.4,0.7-0.8,0.9-1.4c0.2-0.6,0.3-1.3,0.3-2.2
		c0-1.5-0.4-2.6-1.2-3.4c-0.8-0.7-1.9-1.1-3.3-1.1c-0.2,0-0.5,0-0.7,0c-0.3,0-0.5,0-0.6,0.1V24.9z"/>
	<path class="st0" d="M71.8,15.2c0.1,0,0.2,0,0.3,0c0.1,0,0.2,0,0.3,0c0.1,0,0.2,0,0.3,0c0.1,0,0.2,0,0.2,0v10.6c-0.1,0-0.1,0-0.2,0
		c-0.1,0-0.2,0-0.3,0c-0.1,0-0.2,0-0.3,0c-0.1,0-0.2,0-0.2,0V15.2z"/>
	<path class="st0" d="M78.7,26c-0.7,0-1.4-0.1-1.9-0.4c-0.6-0.3-1-0.7-1.4-1.1c-0.4-0.5-0.6-1.1-0.8-1.7c-0.2-0.7-0.3-1.4-0.3-2.2
		c0-0.8,0.1-1.5,0.3-2.2c0.2-0.7,0.5-1.2,0.8-1.7c0.4-0.5,0.8-0.9,1.4-1.1c0.6-0.3,1.2-0.4,1.9-0.4c0.7,0,1.4,0.1,1.9,0.4
		c0.6,0.3,1,0.7,1.4,1.1c0.4,0.5,0.6,1.1,0.8,1.7c0.2,0.7,0.3,1.4,0.3,2.2c0,0.8-0.1,1.5-0.3,2.2c-0.2,0.7-0.5,1.3-0.8,1.7
		c-0.4,0.5-0.8,0.9-1.4,1.1C80.1,25.8,79.5,26,78.7,26 M78.7,25c0.6,0,1.1-0.1,1.5-0.3c0.4-0.2,0.8-0.5,1-0.9
		c0.3-0.4,0.5-0.9,0.6-1.4c0.1-0.6,0.2-1.2,0.2-1.8c0-0.7-0.1-1.3-0.2-1.8c-0.1-0.6-0.3-1-0.6-1.4c-0.3-0.4-0.6-0.7-1-0.9
		c-0.4-0.2-0.9-0.3-1.5-0.3c-0.6,0-1.1,0.1-1.5,0.3c-0.4,0.2-0.8,0.5-1,0.9c-0.3,0.4-0.5,0.9-0.6,1.4c-0.1,0.6-0.2,1.2-0.2,1.8
		c0,0.7,0.1,1.3,0.2,1.8c0.1,0.6,0.3,1,0.6,1.4c0.3,0.4,0.6,0.7,1,0.9C77.7,24.9,78.2,25,78.7,25"/>
	<path class="st0" d="M8,9.3C7.9,9.3,7.9,9.3,8,9.3L7.9,4.4c0,0,0-0.1-0.1-0.1L5.1,2.7c0,0-0.1-0.1-0.1-0.1V0.4c0,0,0-0.1,0-0.2
		C5,0.3,4.9,0,4.7,0C4.5,0,4.3,0.3,4.3,0.3c0,0,0,0.1,0,0.2v2.1c0,0,0,0.1-0.1,0.1L1.5,4.3c0,0-0.1,0.1-0.1,0.1v4.9
		c0,0,0,0.1-0.1,0.1H0.1c0,0-0.1,0-0.1,0.1v2c0,0,0,0.1,0.1,0.1l1.3,0.7c0,0,0.1,0.1,0.1,0.1l-0.3,4.5c0,0,0,0.1,0.1,0L8,13.5
		c0,0,0.1-0.1,0.1-0.1l0-1c0,0,0-0.1,0.1-0.1l1.1-0.7c0,0,0.1-0.1,0.1-0.1v-2c0,0,0-0.1-0.1-0.1H8z"/>
	<path class="st0" d="M1,19.5c0,0-0.1,0.1-0.1,0.1l-0.4,3.9c0,0,0,0.1,0.1,0l7.8-3.8c0,0,0.1-0.1,0.1-0.1L8.3,16c0,0,0-0.1-0.1,0
		L1,19.5z"/>
	<path class="st0" d="M0.1,25.9C0,25.9,0,25.9,0.1,25.9C0,25.9,0,25.9,0.1,25.9l8.8,0c0,0,0.1,0,0.1-0.1l-0.2-3.8c0,0,0-0.1-0.1,0
		L0.1,25.9z"/>
	<path class="st0" d="M15.1,15.2h6c0.1,0.3,0.1,0.6,0.1,0.9c0,0.3,0,0.6-0.1,0.9h-3.9v2.5h3.1c0.1,0.3,0.1,0.6,0.1,0.9
		c0,0.3,0,0.6-0.1,0.9h-3.1v4.4c-0.4,0.1-0.7,0.1-1.1,0.1c-0.4,0-0.7,0-1.1-0.1V15.2z"/>
	<path class="st0" d="M25,22l-3.3-6.8c0.4-0.1,0.8-0.1,1.2-0.1c0.4,0,0.7,0,1.1,0.1l2.1,4.8l2.1-4.8c0.4-0.1,0.7-0.1,1.1-0.1
		c0.4,0,0.7,0,1.1,0.1L27.1,22v3.8c-0.2,0-0.4,0-0.6,0.1c-0.2,0-0.4,0-0.5,0c-0.2,0-0.3,0-0.5,0c-0.2,0-0.4,0-0.6-0.1V22z"/>
	<path class="st0" d="M30.9,15.2c0.4,0,0.8-0.1,1.2-0.1c0.4,0,0.8-0.1,1.3-0.1c0.5,0,1.1,0,1.6,0.1c0.5,0.1,1,0.3,1.4,0.5
		c0.4,0.3,0.8,0.6,1,1c0.3,0.4,0.4,1,0.4,1.6c0,0.4-0.1,0.7-0.1,1c-0.1,0.3-0.2,0.6-0.4,0.8c-0.2,0.2-0.3,0.4-0.5,0.6
		c-0.2,0.2-0.3,0.3-0.5,0.4L36,21.3l2.6,4.5c-0.2,0-0.4,0-0.6,0.1c-0.2,0-0.4,0-0.7,0c-0.4,0-0.7,0-1.1-0.1l-2.8-4.9l0.4-0.2
		c0.1-0.1,0.3-0.2,0.5-0.3c0.2-0.1,0.4-0.2,0.6-0.4c0.2-0.2,0.3-0.4,0.5-0.6c0.1-0.2,0.2-0.5,0.2-0.8c0-0.6-0.2-1.1-0.5-1.4
		c-0.4-0.3-0.8-0.4-1.4-0.4c-0.2,0-0.4,0-0.6,0v9c-0.2,0-0.4,0-0.5,0.1c-0.2,0-0.3,0-0.5,0s-0.3,0-0.5,0c-0.2,0-0.4,0-0.6-0.1V15.2z
		"/>
	<path class="st0" d="M39.2,24.6c0.1,0,0.3,0.1,0.4,0.1c0.1,0,0.3,0.1,0.5,0.1c0.2,0,0.4,0.1,0.6,0.1c0.2,0,0.5,0,0.8,0
		c0.5,0,0.9-0.1,1.2-0.2c0.3-0.1,0.6-0.3,0.8-0.5c0.2-0.2,0.4-0.4,0.5-0.7c0.1-0.3,0.2-0.5,0.2-0.8c0-0.3,0-0.5-0.1-0.8
		c-0.1-0.2-0.2-0.4-0.4-0.6c-0.2-0.2-0.4-0.3-0.8-0.5c-0.3-0.2-0.7-0.3-1.2-0.5c-0.3-0.1-0.7-0.3-1-0.4c-0.3-0.1-0.6-0.3-0.8-0.5
		c-0.2-0.2-0.4-0.5-0.6-0.8c-0.1-0.3-0.2-0.7-0.2-1.1c0-0.8,0.3-1.4,0.9-1.9c0.6-0.5,1.4-0.7,2.5-0.7c0.2,0,0.4,0,0.7,0
		c0.2,0,0.4,0,0.6,0.1c0.2,0,0.4,0.1,0.5,0.1c0.2,0,0.3,0.1,0.4,0.1c0,0.1,0,0.3-0.1,0.5c0,0.2-0.1,0.3-0.1,0.4
		c-0.2-0.1-0.5-0.2-0.9-0.2c-0.4-0.1-0.7-0.1-1.1-0.1c-0.8,0-1.4,0.2-1.8,0.5c-0.4,0.3-0.5,0.8-0.5,1.3c0,0.3,0.1,0.5,0.2,0.7
		c0.1,0.2,0.3,0.4,0.5,0.5c0.2,0.1,0.4,0.3,0.7,0.4c0.3,0.1,0.6,0.2,0.9,0.4c0.4,0.2,0.8,0.3,1.2,0.5c0.4,0.2,0.7,0.4,0.9,0.6
		c0.3,0.2,0.5,0.5,0.6,0.8c0.1,0.3,0.2,0.7,0.2,1.2c0,0.5-0.1,1-0.3,1.4c-0.2,0.4-0.4,0.7-0.8,1c-0.3,0.3-0.7,0.5-1.2,0.6
		c-0.5,0.1-1,0.2-1.6,0.2c-0.6,0-1.1,0-1.4-0.1c-0.4-0.1-0.7-0.2-1.1-0.3c0-0.1,0.1-0.3,0.1-0.5C39.1,24.9,39.2,24.7,39.2,24.6"/>
	<path class="st0" d="M48.4,16.1h-2.8c0-0.1,0-0.1,0-0.2c0-0.1,0-0.2,0-0.2c0-0.1,0-0.1,0-0.2c0-0.1,0-0.2,0-0.2h6.7
		c0,0.1,0,0.1,0,0.2c0,0.1,0,0.2,0,0.2c0,0.1,0,0.2,0,0.2c0,0.1,0,0.2,0,0.2h-2.8v9.7c-0.1,0-0.1,0-0.2,0c-0.1,0-0.2,0-0.3,0
		c-0.1,0-0.2,0-0.3,0c-0.1,0-0.2,0-0.2,0V16.1z"/>
	<path class="st0" d="M53.1,15.2c0.1,0,0.2,0,0.3,0c0.1,0,0.2,0,0.3,0c0.1,0,0.2,0,0.3,0c0.1,0,0.2,0,0.2,0v6.4
		c0,0.6,0.1,1.1,0.2,1.6c0.1,0.4,0.3,0.8,0.5,1.1c0.2,0.3,0.5,0.5,0.8,0.6c0.3,0.1,0.7,0.2,1.2,0.2c0.9,0,1.6-0.3,2-0.8
		c0.4-0.5,0.6-1.4,0.6-2.6v-6.4c0.1,0,0.1,0,0.2,0c0.1,0,0.2,0,0.3,0c0.1,0,0.2,0,0.3,0c0.1,0,0.2,0,0.2,0v6.5
		c0,1.4-0.3,2.5-0.9,3.2c-0.6,0.7-1.5,1.1-2.7,1.1c-1.2,0-2.2-0.4-2.7-1.1c-0.6-0.7-0.9-1.8-0.9-3.2V15.2z"/>
	<path class="st0" d="M62.3,15.2c0.1,0,0.3,0,0.5-0.1c0.2,0,0.4,0,0.6-0.1c0.2,0,0.5,0,0.7,0c0.2,0,0.4,0,0.6,0
		c0.9,0,1.7,0.1,2.4,0.4c0.7,0.3,1.2,0.6,1.7,1.1c0.4,0.5,0.8,1,1,1.7c0.2,0.7,0.3,1.4,0.3,2.3c0,3.7-1.8,5.5-5.4,5.5
		c-0.2,0-0.4,0-0.7,0c-0.2,0-0.5,0-0.7,0c-0.2,0-0.4,0-0.6-0.1c-0.2,0-0.4,0-0.5-0.1V15.2z M63.3,24.9c0.2,0,0.4,0,0.6,0.1
		c0.2,0,0.5,0,0.7,0c0.7,0,1.3-0.1,1.8-0.2c0.5-0.1,1-0.4,1.4-0.8c0.4-0.4,0.7-0.8,0.9-1.4c0.2-0.6,0.3-1.3,0.3-2.2
		c0-1.5-0.4-2.6-1.2-3.4c-0.8-0.7-1.9-1.1-3.3-1.1c-0.2,0-0.5,0-0.7,0c-0.3,0-0.5,0-0.6,0.1V24.9z"/>
	<path class="st0" d="M71.8,15.2c0.1,0,0.2,0,0.3,0c0.1,0,0.2,0,0.3,0c0.1,0,0.2,0,0.3,0c0.1,0,0.2,0,0.2,0v10.6c-0.1,0-0.1,0-0.2,0
		c-0.1,0-0.2,0-0.3,0c-0.1,0-0.2,0-0.3,0c-0.1,0-0.2,0-0.2,0V15.2z"/>
	<path class="st0" d="M78.7,26c-0.7,0-1.4-0.1-1.9-0.4c-0.6-0.3-1-0.7-1.4-1.1c-0.4-0.5-0.6-1.1-0.8-1.7c-0.2-0.7-0.3-1.4-0.3-2.2
		c0-0.8,0.1-1.5,0.3-2.2c0.2-0.7,0.5-1.2,0.8-1.7c0.4-0.5,0.8-0.9,1.4-1.1c0.6-0.3,1.2-0.4,1.9-0.4c0.7,0,1.4,0.1,1.9,0.4
		c0.6,0.3,1,0.7,1.4,1.1c0.4,0.5,0.6,1.1,0.8,1.7c0.2,0.7,0.3,1.4,0.3,2.2c0,0.8-0.1,1.5-0.3,2.2c-0.2,0.7-0.5,1.3-0.8,1.7
		c-0.4,0.5-0.8,0.9-1.4,1.1C80.1,25.8,79.5,26,78.7,26 M78.7,25c0.6,0,1.1-0.1,1.5-0.3c0.4-0.2,0.8-0.5,1-0.9
		c0.3-0.4,0.5-0.9,0.6-1.4c0.1-0.6,0.2-1.2,0.2-1.8c0-0.7-0.1-1.3-0.2-1.8c-0.1-0.6-0.3-1-0.6-1.4c-0.3-0.4-0.6-0.7-1-0.9
		c-0.4-0.2-0.9-0.3-1.5-0.3c-0.6,0-1.1,0.1-1.5,0.3c-0.4,0.2-0.8,0.5-1,0.9c-0.3,0.4-0.5,0.9-0.6,1.4c-0.1,0.6-0.2,1.2-0.2,1.8
		c0,0.7,0.1,1.3,0.2,1.8c0.1,0.6,0.3,1,0.6,1.4c0.3,0.4,0.6,0.7,1,0.9C77.7,24.9,78.2,25,78.7,25"/>
	<path class="st0" d="M7.9,9.3v-5L5.1,2.7V0.4C5.1,0.2,4.9,0,4.7,0C4.5,0,4.4,0.2,4.4,0.4v2.3L1.5,4.3v5H0v2.2l1.4,0.8L1,17l7.1-3.5
		l0-1.2l1.3-0.8V9.3H7.9z"/>
	<polygon class="st0" points="1,19.6 0.4,23.6 8.5,19.8 8.3,15.9 	"/>
	<polygon class="st0" points="0,25.9 0,25.9 9,25.9 8.7,22 	"/>
	<path class="st0" d="M7.9,9.3v-5L5.1,2.7V0.4C5.1,0.2,4.9,0,4.7,0C4.5,0,4.4,0.2,4.4,0.4v2.3L1.5,4.3v5H0v2.2l1.4,0.8L1,17l7.1-3.5
		l0-1.2l1.3-0.8V9.3H7.9z"/>
	<polygon class="st0" points="1,19.6 0.4,23.6 8.5,19.8 8.3,15.9 	"/>
	<polygon class="st0" points="0,25.9 0,25.9 9,25.9 8.7,22 	"/>
</g>
</svg>
