<?xml version="1.0" encoding="utf-8"?>
<!-- Generator: Adobe Illustrator 25.4.1, SVG Export Plug-In . SVG Version: 6.00 Build 0)  -->
<!DOCTYPE svg PUBLIC "-//W3C//DTD SVG 1.1//EN" "http://www.w3.org/Graphics/SVG/1.1/DTD/svg11.dtd" [
	<!ENTITY ns_extend "http://ns.adobe.com/Extensibility/1.0/">
	<!ENTITY ns_ai "http://ns.adobe.com/AdobeIllustrator/10.0/">
	<!ENTITY ns_graphs "http://ns.adobe.com/Graphs/1.0/">
	<!ENTITY ns_vars "http://ns.adobe.com/Variables/1.0/">
	<!ENTITY ns_imrep "http://ns.adobe.com/ImageReplacement/1.0/">
	<!ENTITY ns_sfw "http://ns.adobe.com/SaveForWeb/1.0/">
	<!ENTITY ns_custom "http://ns.adobe.com/GenericCustomNamespace/1.0/">
	<!ENTITY ns_adobe_xpath "http://ns.adobe.com/XPath/1.0/">
]>
<svg version="1.1" id="Camada_1" xmlns:x="&ns_extend;" xmlns:i="&ns_ai;" xmlns:graph="&ns_graphs;"
	 xmlns="http://www.w3.org/2000/svg" xmlns:xlink="http://www.w3.org/1999/xlink" x="0px" y="0px" viewBox="0 0 65.3 48.9"
	 style="enable-background:new 0 0 65.3 48.9;" xml:space="preserve">
<style type="text/css">
	.st0{fill:#FFFFFF;}
	.st1{clip-path:url(#SVGID_00000181794172380418128960000012269127763317181360_);fill:#FFFFFF;}
	.st2{clip-path:url(#SVGID_00000150103250756950321480000001314714895788086426_);fill:#FFFFFF;}
	.st3{fill-rule:evenodd;clip-rule:evenodd;fill:#FFFFFF;}
	.st4{opacity:0.8;}
	.st5{opacity:0.4;clip-path:url(#SVGID_00000090994683458397707360000015149337692974220445_);}
	.st6{clip-path:url(#SVGID_00000028297085994458844110000015206755708502255807_);fill:#FFFFFF;}
	.st7{clip-path:url(#SVGID_00000127731448277252267850000011474855498980545471_);fill:#FFFFFF;}
	.st8{clip-path:url(#SVGID_00000101074821792775737800000015481537247555822268_);fill:#FFFFFF;}
	.st9{clip-path:url(#SVGID_00000176723939027878053540000017223976912988972437_);fill:#FFFFFF;}
	.st10{clip-path:url(#SVGID_00000129189911584311237340000013555968080270565017_);fill:#FFFFFF;}
	.st11{clip-path:url(#SVGID_00000148633279799679974150000000427637908782019999_);fill:#FFFFFF;}
	.st12{clip-path:url(#SVGID_00000088831202215339111570000006178592308568045461_);fill:#FFFFFF;}
	.st13{clip-path:url(#SVGID_00000055702729912230607800000005515878348157163675_);fill:#FFFFFF;}
</style>
<metadata>
	<sfw  xmlns="&ns_sfw;">
		<slices></slices>
		<sliceSourceBounds  bottomLeftOrigin="true" height="280.2" width="1017.9" x="-2419.2" y="3433.6"></sliceSourceBounds>
	</sfw>
</metadata>
<g>
	<rect x="37.2" y="42.6" class="st0" width="1.4" height="6.2"/>
	<rect x="37.2" y="41" class="st0" width="1.4" height="1.2"/>
	<path class="st0" d="M65.3,42.6v0.2c0,0,0,0,0,0h0v0.3h-1.4v-0.7H59c-0.1,0-0.1,0-0.1,0.1v1.5c0,0.1,0,0.1,0.1,0.1h4.5
		c0.5,0,0.9,0.2,1.2,0.5c0.3,0.3,0.5,0.8,0.5,1.3v1.3c0,0.4-0.2,0.8-0.5,1.1c-0.3,0.3-0.7,0.5-1.1,0.5h-4.7c-0.4,0-0.8-0.2-1.1-0.5
		c-0.3-0.3-0.5-0.7-0.5-1.1v-0.6h1.4v0.7h4.9c0.1,0,0.1,0,0.1-0.1v-1.5c0-0.1,0-0.1-0.1-0.1h-4.5c-0.5,0-0.9-0.2-1.3-0.5
		c-0.4-0.4-0.5-0.8-0.5-1.3v-1.2c0-0.4,0.2-0.8,0.5-1.1c0.3-0.3,0.7-0.5,1.1-0.5h4.7c0.4,0,0.8,0.2,1.1,0.5
		C65.2,41.8,65.3,42.2,65.3,42.6"/>
	<path class="st0" d="M35.3,44.4c-0.3-0.3-0.6-0.5-1-0.6c0.1-0.2,0.1-0.5,0.1-0.7c0-0.4-0.1-0.7-0.3-1c-0.2-0.3-0.4-0.6-0.8-0.8
		c-0.3-0.2-0.7-0.3-1-0.3h-3.8h-0.2v0.2v7.5v0.2h0.2h4.1h0.3h0.8c0.6,0,1.1-0.2,1.5-0.6c0.4-0.4,0.6-0.9,0.6-1.5v-1.1
		C35.8,45.2,35.6,44.8,35.3,44.4 M32.9,42.8v0.6c0,0.2-0.2,0.4-0.4,0.4h-2.7v-1.3h2.7C32.7,42.5,32.9,42.6,32.9,42.8 M34.2,47
		c0,0.2-0.2,0.4-0.4,0.4h-3.9v-2.2h3.9c0.2,0,0.4,0.2,0.4,0.4V47z"/>
	<path class="st0" d="M50,45.7h6h0v-2.8c0,0,0,0,0-0.1v-0.2c0-0.4-0.2-0.8-0.5-1.1c-0.3-0.3-0.7-0.5-1.1-0.5h-4.7
		c-0.4,0-0.8,0.2-1.1,0.5c-0.3,0.3-0.5,0.7-0.5,1.1v0.1c0,0,0,0,0,0.1v4.4h0v0.1c0,0.4,0.2,0.8,0.5,1.1c0.3,0.3,0.7,0.5,1.1,0.5h4.7
		c0.4,0,0.8-0.2,1.1-0.5c0.3-0.3,0.5-0.7,0.5-1.1v-0.6h-1.4v0.7h-4.9c-0.1,0-0.1,0-0.1-0.1v-1.6H50z M49.7,44.2v-1.8h4.4
		c0.4,0,0.7,0.3,0.7,0.7v1.1H49.7z"/>
	<polygon class="st0" points="45.1,41 42.1,44 41.5,43.4 41.5,41 40,41 40,48.8 41.5,48.8 41.5,45.4 44.9,48.9 46.9,48.9 43.1,45.1 
		47.1,41 	"/>
	<path class="st0" d="M5.5,41H2.3H0v2.3v1v2.3v2.3h2.3v-2.3h3.2c1.2,0,2.3-1,2.3-2.3v-1C7.7,42,6.7,41,5.5,41 M5.5,44.3H2.3v-1h3.2
		V44.3z"/>
	<polygon class="st0" points="23.6,48.9 27,48.9 22.6,45.3 26.9,41 23.4,41 20.8,43.8 20.6,43.6 20.6,41 18.3,41 18.3,48.9 
		20.6,48.9 20.6,47.3 21,46.9 	"/>
	<path class="st0" d="M14,41h-2.6H9.2v2.3v3.3v2.3h2.3H14c1.5,0,2.8-1.2,2.8-2.8v-2.3C16.8,42.3,15.6,41,14,41 M14.6,45.4
		c0,0.6-0.5,1.2-1.2,1.2h-2v-3.3h2c0.6,0,1.2,0.5,1.2,1.2V45.4z"/>
	<path class="st0" d="M8.2,13.1C8,14.6,7.9,16,7.9,17.2c0.3,0.7,0.8,1.7,1.5,2.8c0.5,0.9,1.4,2.4,2.9,4.1c0.8,1,2.5,2.8,4.9,4.5
		c2,1.4,3.8,2.3,4.9,2.8c3.8,1.6,7.3,2.1,10,2.2c-2.2-0.3-4-0.9-5.2-1.3c-3.7-1.4-6.1-3.5-7-4.3c-0.7-0.6-1.1-1.1-1.6-1.6
		c-0.5-0.6-2.2-2.4-4-5.3c-0.4-0.6-1.7-2.7-2.9-5.7c-1-2.3-1.7-4.4-2.1-6.2C8.7,10.2,8.4,11.5,8.2,13.1"/>
	<g>
		<defs>
			<path id="SVGID_1_" d="M8.2,13.1C8,14.6,7.9,16,7.9,17.2c0.3,0.7,0.8,1.7,1.5,2.8c0.5,0.9,1.4,2.4,2.9,4.1c0.8,1,2.5,2.8,4.9,4.5
				c2,1.4,3.8,2.3,4.9,2.8c3.8,1.6,7.3,2.1,10,2.2c-2.2-0.3-4-0.9-5.2-1.3c-3.7-1.4-6.1-3.5-7-4.3c-0.7-0.6-1.1-1.1-1.6-1.6
				c-0.5-0.6-2.2-2.4-4-5.3c-0.4-0.6-1.7-2.7-2.9-5.7c-1-2.3-1.7-4.4-2.1-6.2C8.7,10.2,8.4,11.5,8.2,13.1"/>
		</defs>
		<use xlink:href="#SVGID_1_"  style="overflow:visible;fill:#FFFFFF;"/>
		<clipPath id="SVGID_00000080887917730733663020000002563395890670458501_">
			<use xlink:href="#SVGID_1_"  style="overflow:visible;"/>
		</clipPath>
		
			<rect x="7.9" y="9.1" style="clip-path:url(#SVGID_00000080887917730733663020000002563395890670458501_);fill:#FFFFFF;" width="24.1" height="24.5"/>
	</g>
	<path class="st0" d="M8.3,20.9c0.2,1.1,0.5,2.3,0.9,3.7c0.4,1.2,0.9,2.3,1.3,3.2c1.3,1,2.4,1.8,3.4,2.3c0.3,0.2,1.3,0.8,2.8,1.5
		c1.6,0.8,2.8,1.2,3,1.3c0.5,0.2,2.1,0.8,4.5,1.3c1.9,0.4,4.6,0.9,8,0.9c-0.9-0.1-2-0.3-3.5-0.6c-1.6-0.3-2.8-0.6-4.4-1.1
		c-0.3-0.1-1.7-0.6-3.5-1.5c-0.9-0.4-3.1-1.6-5.7-3.7c-2.5-2-4-3.9-4.9-4.9C9.4,22.4,8.8,21.5,8.3,20.9"/>
	<path class="st0" d="M53.8,15.3c-1.3,3-2.6,5.1-2.9,5.7c-1.8,2.8-3.5,4.7-4,5.3c-0.5,0.5-0.9,1-1.6,1.6c-0.9,0.8-3.3,2.9-7,4.3
		c-1.2,0.5-3,1-5.2,1.3c2.6-0.1,6.2-0.5,10-2.2c1.1-0.5,2.9-1.3,4.9-2.8c2.4-1.7,4.1-3.5,4.9-4.5c1.4-1.7,2.4-3.2,2.9-4.1
		c0.7-1.1,1.1-2.1,1.5-2.8c0-1.2,0-2.5-0.3-4.1c-0.2-1.5-0.6-2.9-0.9-4C55.5,10.9,54.8,13,53.8,15.3"/>
	<g>
		<defs>
			<path id="SVGID_00000178901313435260414430000016515233763975882390_" d="M53.8,15.3c-1.3,3-2.6,5.1-2.9,5.7
				c-1.8,2.8-3.5,4.7-4,5.3c-0.5,0.5-0.9,1-1.6,1.6c-0.9,0.8-3.3,2.9-7,4.3c-1.2,0.5-3,1-5.2,1.3c2.6-0.1,6.2-0.5,10-2.2
				c1.1-0.5,2.9-1.3,4.9-2.8c2.4-1.7,4.1-3.5,4.9-4.5c1.4-1.7,2.4-3.2,2.9-4.1c0.7-1.1,1.1-2.1,1.5-2.8c0-1.2,0-2.5-0.3-4.1
				c-0.2-1.5-0.6-2.9-0.9-4C55.5,10.9,54.8,13,53.8,15.3"/>
		</defs>
		<use xlink:href="#SVGID_00000178901313435260414430000016515233763975882390_"  style="overflow:visible;fill:#FFFFFF;"/>
		<clipPath id="SVGID_00000090997700368039023460000013552098303697582509_">
			<use xlink:href="#SVGID_00000178901313435260414430000016515233763975882390_"  style="overflow:visible;"/>
		</clipPath>
		
			<rect x="33" y="9.1" style="clip-path:url(#SVGID_00000090997700368039023460000013552098303697582509_);fill:#FFFFFF;" width="24.1" height="24.5"/>
	</g>
	<path class="st0" d="M56.7,20.9c-0.2,1.1-0.5,2.3-0.9,3.7c-0.4,1.2-0.9,2.3-1.3,3.2c-1.3,1-2.4,1.8-3.4,2.3
		c-0.3,0.2-1.3,0.8-2.8,1.5c-1.6,0.8-2.8,1.2-3,1.3c-0.5,0.2-2.1,0.8-4.5,1.3c-1.9,0.4-4.6,0.9-8,0.9c0.9-0.1,2-0.3,3.5-0.6
		c1.6-0.3,2.8-0.6,4.4-1.1c0.3-0.1,1.7-0.6,3.5-1.5c0.9-0.4,3.1-1.6,5.7-3.7c2.5-2,4-3.9,4.9-4.9C55.6,22.4,56.3,21.5,56.7,20.9"/>
	<path class="st0" d="M53.3,3.3C52.5,2,51.6,0.9,50.8,0c0.2,4.4-0.3,8-0.9,10.4c-0.6,2.8-1.4,5-1.9,6.2c-1,2.4-1.9,3.9-2.3,4.5
		c-0.7,1.1-1.3,1.9-1.5,2.1c-0.4,0.6-0.8,1-1.2,1.4c-0.1,0.1-0.6,0.6-1.4,0.7c-0.1,0-0.5,0-1-0.3c-0.2-0.1-0.5-0.3-0.9-0.9
		c-0.3-0.4-0.9-1.4-1.1-2.7c-0.1-0.6-0.1-1.1-0.1-1.1c0-0.4,0-0.5,0-0.9c0-0.1,0-0.6-0.2-1.2c-0.2-0.5-0.4-0.9-0.5-1.1
		c-0.4-0.8-0.9-1.3-1-1.4c-0.1-0.2-0.6-0.6-1.2-1c-0.6-0.4-1.2-0.6-1.4-0.7c-0.2-0.1-0.7-0.2-1.5-0.3c-1.5-0.1-2.6,0.1-3.5,0.3
		c-1,0.2-1.8,0.5-2.2,0.6c-1,0.4-1.5,0.7-1.7,0.8c-0.5,0.3-0.9,0.6-1.2,1c-0.4,0.4-0.5,0.6-0.5,0.7c-0.1,0.2-0.3,0.6-0.2,1
		c0,0.3,0.2,0.6,0.3,0.7c0.3-0.1,1-0.3,1.9-0.2c1.1,0.2,1.8,0.8,2,1c0,0.6,0,1.5-0.4,2.4c-0.3,0.7-0.6,1.2-0.8,1.5
		c-0.4,0.5-0.7,0.9-0.8,0.9c-0.3,0.3-0.6,0.4-1.1,0.8c0,0-0.1,0.1-0.2,0.1c-0.4,0.2-0.8,0.2-0.9,0.2c-0.1,0-0.4,0-0.8-0.3
		c-0.2-0.1-0.3-0.2-0.4-0.3c-0.6-0.6-1.4-1.5-2.2-2.6c-0.5-0.6-1.5-2.1-2.6-4.5c-0.4-0.8-1.8-4-2.7-8.7c-0.4-2.3-0.8-5.5-0.7-9.2
		c-0.7,0.7-1.4,1.6-2.1,2.7C11,4.3,10.3,5.8,9.8,7.1c0.6,2.6,1.4,4.8,2,6.4c1.8,4.5,3.8,7.4,4.3,8.2c1.3,1.9,2.5,3.2,2.9,3.6
		c0.5,0.6,1.2,1.3,2.2,2.2c1,0.9,2.9,2.4,5.8,3.5c2.6,0.9,4.8,1,5.4,1c0.7,0,3.2,0,6.1-1.2c1.7-0.7,2.8-1.5,3.6-2
		c2.2-1.5,3.6-3.1,4.5-4.1c1.8-2.1,2.9-4,3.7-5.4c0.6-1.1,1.1-2,1.4-2.7c0.7-1.5,1.6-3.5,2.4-5.8c0.3-1,0.7-2.2,1.1-3.6
		C54.8,6,54.2,4.7,53.3,3.3 M30.5,16.9c-0.9,0.2-2-0.1-2.6-0.9c1.5-0.3,3-0.5,4.5-0.8C32.3,15.3,31.8,16.6,30.5,16.9"/>
</g>
</svg>
