<?xml version="1.0" encoding="utf-8"?>
<!-- Generator: Adobe Illustrator 25.4.1, SVG Export Plug-In . SVG Version: 6.00 Build 0)  -->
<!DOCTYPE svg PUBLIC "-//W3C//DTD SVG 1.1//EN" "http://www.w3.org/Graphics/SVG/1.1/DTD/svg11.dtd" [
	<!ENTITY ns_extend "http://ns.adobe.com/Extensibility/1.0/">
	<!ENTITY ns_ai "http://ns.adobe.com/AdobeIllustrator/10.0/">
	<!ENTITY ns_graphs "http://ns.adobe.com/Graphs/1.0/">
	<!ENTITY ns_vars "http://ns.adobe.com/Variables/1.0/">
	<!ENTITY ns_imrep "http://ns.adobe.com/ImageReplacement/1.0/">
	<!ENTITY ns_sfw "http://ns.adobe.com/SaveForWeb/1.0/">
	<!ENTITY ns_custom "http://ns.adobe.com/GenericCustomNamespace/1.0/">
	<!ENTITY ns_adobe_xpath "http://ns.adobe.com/XPath/1.0/">
]>
<svg version="1.1" id="Camada_1" xmlns:x="&ns_extend;" xmlns:i="&ns_ai;" xmlns:graph="&ns_graphs;"
	 xmlns="http://www.w3.org/2000/svg" xmlns:xlink="http://www.w3.org/1999/xlink" x="0px" y="0px" viewBox="0 0 98.9 50"
	 style="enable-background:new 0 0 98.9 50;" xml:space="preserve">
<style type="text/css">
	.st0{fill:#FFFFFF;}
	.st1{clip-path:url(#SVGID_00000139294676124062377930000015870885898705612954_);fill:#FFFFFF;}
	.st2{clip-path:url(#SVGID_00000166641619252496259600000003203595880303773061_);fill:#FFFFFF;}
	.st3{fill-rule:evenodd;clip-rule:evenodd;fill:#FFFFFF;}
	.st4{opacity:0.8;}
	.st5{opacity:0.4;clip-path:url(#SVGID_00000156574782795338108870000011546305150072808844_);}
	.st6{clip-path:url(#SVGID_00000004528880865013088610000005222727027453109134_);fill:#FFFFFF;}
	.st7{clip-path:url(#SVGID_00000037671801779309818730000011746877710608417949_);fill:#FFFFFF;}
	.st8{clip-path:url(#SVGID_00000178164771350496650330000013001251082557569207_);fill:#FFFFFF;}
	.st9{clip-path:url(#SVGID_00000032640594746524738520000008713434844058731689_);fill:#FFFFFF;}
	.st10{clip-path:url(#SVGID_00000121244037201803039460000006129622206391962025_);fill:#FFFFFF;}
	.st11{clip-path:url(#SVGID_00000022558486192005196770000001478294060247787156_);fill:#FFFFFF;}
	.st12{clip-path:url(#SVGID_00000003086203019797580500000011174408186406199441_);fill:#FFFFFF;}
	.st13{clip-path:url(#SVGID_00000001647083181764516660000016031265086067032493_);fill:#FFFFFF;}
</style>
<metadata>
	<sfw  xmlns="&ns_sfw;">
		<slices></slices>
		<sliceSourceBounds  bottomLeftOrigin="true" height="280.2" width="1017.9" x="-2419.2" y="3433.6"></sliceSourceBounds>
	</sfw>
</metadata>
<g>
	<path class="st0" d="M47.9,42.8c-0.1,0-0.2,0-0.3-0.1c-0.1,0-0.1-0.1-0.2-0.2l-3-5.2v5.3h-1v-7.1c0-0.1,0-0.2,0.1-0.3
		c0.1-0.1,0.2-0.2,0.3-0.2c0,0,0.1,0,0.1,0c0,0,0,0,0,0c0.1,0,0.1,0,0.2,0c0.1,0,0.1,0,0.1,0.1c0,0,0.1,0.1,0.1,0.1l3.5,6l3.5-6
		c0.1-0.1,0.1-0.2,0.2-0.2c0.1,0,0.1,0,0.2,0c0,0,0.1,0,0.1,0c0.1,0,0.2,0.1,0.3,0.2c0.1,0.1,0.1,0.2,0.1,0.3v7.1h-1v-5.3l-3,5.2
		c0,0.1-0.1,0.1-0.2,0.2C48.1,42.8,48,42.8,47.9,42.8"/>
	<path class="st0" d="M57.4,42.8c-0.4,0-0.9-0.1-1.3-0.2c-0.4-0.2-0.7-0.4-1-0.6c-0.3-0.3-0.5-0.6-0.7-1c-0.2-0.4-0.2-0.8-0.2-1.3
		v-1.5c0-0.5,0.1-0.9,0.2-1.3c0.2-0.4,0.4-0.7,0.7-1c0.3-0.3,0.6-0.5,1-0.6c0.4-0.2,0.8-0.2,1.3-0.2h2c0.4,0,0.9,0.1,1.2,0.2
		c0.4,0.2,0.7,0.4,1,0.6c0.3,0.3,0.5,0.6,0.7,1c0.2,0.4,0.2,0.8,0.2,1.3v1.5c0,0.5-0.1,0.9-0.2,1.3c-0.2,0.4-0.4,0.7-0.7,1
		c-0.3,0.3-0.6,0.5-1,0.6c-0.4,0.2-0.8,0.2-1.3,0.2H57.4z M57.4,36.1c-0.3,0-0.6,0.1-0.8,0.1c-0.3,0.1-0.5,0.2-0.7,0.4
		c-0.2,0.2-0.3,0.4-0.4,0.7c-0.1,0.3-0.2,0.5-0.2,0.8v1.5c0,0.3,0.1,0.6,0.2,0.8c0.1,0.3,0.2,0.5,0.4,0.7c0.2,0.2,0.4,0.3,0.7,0.4
		c0.3,0.1,0.5,0.1,0.8,0.1h1.9c0.3,0,0.6-0.1,0.8-0.1c0.3-0.1,0.5-0.2,0.7-0.4c0.2-0.2,0.3-0.4,0.4-0.7c0.1-0.3,0.2-0.5,0.2-0.8
		v-1.5c0-0.3-0.1-0.6-0.2-0.8c-0.1-0.3-0.2-0.5-0.4-0.7c-0.2-0.2-0.4-0.3-0.7-0.4c-0.3-0.1-0.5-0.1-0.8-0.1H57.4z"/>
	<polygon class="st0" points="66.8,42.7 66.8,36.2 63.6,36.2 63.6,35.2 71,35.2 71,36.2 67.8,36.2 67.8,42.7 	"/>
	<path class="st0" d="M75.3,42.8c-0.4,0-0.9-0.1-1.3-0.2c-0.4-0.2-0.7-0.4-1-0.6c-0.3-0.3-0.5-0.6-0.7-1c-0.2-0.4-0.2-0.8-0.2-1.3
		v-1.5c0-0.5,0.1-0.9,0.2-1.3c0.2-0.4,0.4-0.7,0.7-1c0.3-0.3,0.6-0.5,1-0.6c0.4-0.2,0.8-0.2,1.3-0.2h2c0.4,0,0.9,0.1,1.2,0.2
		s0.7,0.4,1,0.6c0.3,0.3,0.5,0.6,0.7,1c0.2,0.4,0.2,0.8,0.2,1.3v1.5c0,0.5-0.1,0.9-0.2,1.3c-0.2,0.4-0.4,0.7-0.7,1
		c-0.3,0.3-0.6,0.5-1,0.6c-0.4,0.2-0.8,0.2-1.3,0.2H75.3z M75.3,36.1c-0.3,0-0.6,0.1-0.8,0.1c-0.3,0.1-0.5,0.2-0.7,0.4
		c-0.2,0.2-0.3,0.4-0.4,0.7c-0.1,0.3-0.2,0.5-0.2,0.8v1.5c0,0.3,0.1,0.6,0.2,0.8c0.1,0.3,0.2,0.5,0.4,0.7c0.2,0.2,0.4,0.3,0.7,0.4
		c0.3,0.1,0.5,0.1,0.8,0.1h1.9c0.3,0,0.6-0.1,0.8-0.1c0.3-0.1,0.5-0.2,0.7-0.4c0.2-0.2,0.3-0.4,0.4-0.7c0.1-0.3,0.2-0.5,0.2-0.8
		v-1.5c0-0.3-0.1-0.6-0.2-0.8c-0.1-0.3-0.2-0.5-0.4-0.7c-0.2-0.2-0.4-0.3-0.7-0.4c-0.3-0.1-0.5-0.1-0.8-0.1H75.3z"/>
	<path class="st0" d="M87.8,40.1c0.2,0,0.4-0.1,0.6-0.2c0.2-0.1,0.4-0.2,0.5-0.3c0.2-0.1,0.3-0.3,0.4-0.5c0.1-0.2,0.2-0.4,0.3-0.6
		c0.1-0.2,0.1-0.5,0.1-0.8v-0.9c0-0.2,0-0.3-0.1-0.5c-0.1-0.2-0.1-0.3-0.3-0.5c-0.1-0.2-0.3-0.3-0.5-0.4c-0.2-0.1-0.4-0.2-0.7-0.2
		h-5.5c-0.1,0-0.1,0-0.2,0c-0.1,0-0.1,0.1-0.2,0.1c0,0-0.1,0.1-0.1,0.2c0,0.1,0,0.1,0,0.2v2.5v2.6v1.9h1v-1.9v-0.7h1.9l3,2.6h1.6
		l-3-2.6h0.6C87.4,40.1,87.6,40.1,87.8,40.1 M83.2,39.1v-0.8v-2h5c0,0,0.1,0,0.1,0c0.1,0,0.1,0,0.2,0.1c0.1,0,0.1,0.1,0.2,0.2
		c0,0.1,0.1,0.2,0.1,0.3v0.9c0,0.2,0,0.4-0.1,0.6c-0.1,0.2-0.2,0.3-0.3,0.4c-0.1,0.1-0.3,0.2-0.5,0.3c-0.2,0.1-0.4,0.1-0.6,0.1H83.2
		z"/>
	<path class="st0" d="M91.4,42.7v-1h5.4c0.3,0,0.6-0.1,0.8-0.3c0.2-0.2,0.3-0.5,0.3-0.8c0-0.2,0-0.3-0.1-0.4
		c-0.1-0.1-0.1-0.3-0.2-0.4c-0.1-0.1-0.2-0.2-0.4-0.2c-0.1-0.1-0.3-0.1-0.4-0.1h-3.3c-0.2,0-0.4,0-0.7-0.1c-0.2-0.1-0.5-0.2-0.7-0.4
		c-0.2-0.2-0.4-0.4-0.5-0.7c-0.1-0.3-0.2-0.6-0.2-1c0-0.4,0.1-0.7,0.2-1c0.1-0.3,0.3-0.5,0.5-0.7c0.2-0.2,0.4-0.3,0.7-0.4
		c0.2-0.1,0.5-0.1,0.7-0.1h4.7v1h-4.7c-0.3,0-0.6,0.1-0.8,0.3c-0.2,0.2-0.3,0.5-0.3,0.8c0,0.3,0.1,0.6,0.3,0.8
		c0.2,0.2,0.5,0.3,0.8,0.3h3.3c0.1,0,0.3,0,0.5,0.1c0.2,0,0.3,0.1,0.5,0.2c0.2,0.1,0.3,0.2,0.5,0.3c0.1,0.1,0.3,0.2,0.4,0.4
		c0.1,0.2,0.2,0.3,0.3,0.5c0.1,0.2,0.1,0.4,0.1,0.7c0,0.3,0,0.5-0.1,0.7c-0.1,0.2-0.2,0.4-0.3,0.5c-0.1,0.2-0.2,0.3-0.4,0.4
		c-0.1,0.1-0.3,0.2-0.5,0.3c-0.2,0.1-0.3,0.1-0.5,0.2c-0.2,0-0.3,0.1-0.5,0.1H91.4z"/>
	<path class="st0" d="M79.7,20.6c0,0.7-0.1,1.3-0.3,1.9c-0.2,0.6-0.4,1-0.7,1.5c-0.3,0.4-0.6,0.8-1,1.1c-0.4,0.3-0.8,0.5-1.2,0.7
		c-0.4,0.2-0.8,0.3-1.3,0.4c-0.4,0.1-0.8,0.1-1.2,0.1h-1.2v5.6h-3.1v-5.6h-1.2c-0.4,0-0.8,0-1.2-0.1c-0.4-0.1-0.9-0.2-1.3-0.4
		c-0.4-0.2-0.8-0.4-1.2-0.7c-0.4-0.3-0.7-0.7-1-1.1c-0.3-0.4-0.5-0.9-0.7-1.5c-0.2-0.6-0.3-1.2-0.3-1.9V15h3.1v5.7
		c0,0.4,0.1,0.8,0.2,1.1c0.1,0.3,0.3,0.6,0.5,0.8c0.2,0.2,0.5,0.4,0.8,0.5c0.3,0.1,0.7,0.2,1.1,0.2H74c0.3,0,0.6-0.1,0.9-0.2
		c0.3-0.1,0.6-0.2,0.8-0.4c0.3-0.2,0.5-0.4,0.6-0.8c0.2-0.3,0.2-0.8,0.2-1.3V15h3.1V20.6z"/>
	<path class="st0" d="M82.4,32h3.1v-5.7h3.4l5.7,5.7h4.3l-7.4-7.2c0.6-0.4,1.4-0.9,2.1-1.4c3.4-2.7,3.8-6.2,3.9-8.4h-2.9
		c-0.1,1.5-0.3,4.3-3,6.4c0,0,0,0,0,0c-1.4,1.2-3.3,1.9-5.1,1.9h-0.8V15h-3.1v8.2v3.1V32z"/>
	<path class="st0" d="M54.8,26.4c0.4,0,0.8,0,1.2-0.1c0.4-0.1,0.9-0.2,1.3-0.4c0.4-0.2,0.8-0.4,1.2-0.7c0.4-0.3,0.7-0.7,1-1.1
		c0.3-0.4,0.5-0.9,0.7-1.5c0.2-0.6,0.3-1.2,0.3-1.9v-2c0-0.4-0.1-0.8-0.2-1.2c-0.1-0.4-0.3-0.8-0.6-1.2c-0.3-0.4-0.7-0.7-1.2-0.9
		C58,15.1,57.4,15,56.7,15H45.1c-0.2,0-0.4,0-0.6,0.1c-0.2,0.1-0.4,0.2-0.5,0.3c-0.1,0.1-0.2,0.3-0.3,0.5c-0.1,0.2-0.1,0.4-0.1,0.6
		v9.9v5.5h3.1v-5.5H50l6.4,5.5h4.7L54.8,26.4z M46.6,23.3V18h10.1c0.1,0,0.1,0,0.2,0c0.1,0,0.1,0,0.2,0.1c0.1,0,0.1,0.1,0.2,0.2
		c0,0.1,0.1,0.2,0.1,0.4v1.9c0,0.4-0.1,0.8-0.2,1.1c-0.1,0.3-0.3,0.6-0.5,0.8c-0.2,0.2-0.5,0.4-0.8,0.5c-0.3,0.1-0.6,0.2-1,0.2v0h0
		H46.6z"/>
	<path class="st0" d="M23.1,34.8c-1.9-1.3-3.3-3.2-4-5.3c-0.1-0.2-0.2-0.8-0.3-0.8c0,0-0.1,0.1-0.2,0.5c-0.2,0.6-1.3,3.2-1.9,6.7
		c-0.9,4.9,1.2,7.3,3.5,9.8c1.4,1.6,3.4,3.4,3.7,4.3c0,0.1,0.1,0.1,0.1,0C29.5,43.1,28.6,38.7,23.1,34.8"/>
	<path class="st0" d="M14.9,5.8c1.1-0.3,2.5-0.5,4.4-0.5c1.7,0,3.3,0.3,4.4,0.5c0-0.6,1.1-4.6,1.1-4.6L24,1.6
		c-0.2,0.1-0.2,0.3-0.1,0.5l0.1,0.2l-1.2,0.5l-1.2,0.6c-0.1,0.1-0.3,0-0.4-0.1l-1.7-2.2c0,0,0.1,0,0.1-0.1l0.3-0.3
		c0.1-0.1,0.1-0.3,0-0.4L19.3,0l-0.5,0.5c-0.1,0.1-0.1,0.3,0,0.4l0.3,0.3c0,0,0.1,0,0.1,0.1l-1.9,2.1c-0.1,0.1-0.3,0.1-0.4,0
		l-1.1-0.5l-1.1-0.5l0.1-0.2c0.1-0.2,0-0.4-0.1-0.5l-0.7-0.4L14.9,5.8z"/>
	<path class="st0" d="M30,17c-0.4-0.3-0.8-0.6-1.4-0.9c-0.5-0.3-0.9-0.5-1.3-0.6c0,0,0,0.2,0.3,0.4c-0.6,0.2-1.8,0.9-2,1.3
		C26.8,17,28.7,17.1,30,17"/>
	<path class="st0" d="M37.2,16.8c-0.1-0.1-0.2-0.1-0.3-0.2c-0.3-0.2-0.5-0.3-0.8-0.4l-0.3-0.1c-1.6-0.6-3.4-0.6-5-1.1
		c-0.3-0.1-0.6-0.2-0.9-0.4c-1.8-1.5-2.7-1.2-4.1-1c0,0,0.7,0.1,1.2,0.2c0.2,0.1,0.4,0.1,0.7,0.3c0.4,0.2,0.9,0.4,1.6,1.1
		c0.3,0.3,0.7,0.5,1.2,0.6c1.8,0.6,3.9,0.4,5.6,1.3l-2,0.6l-2.4-0.4L31,17.2c0,0,2,0.6,2.6,0.8c0.5,0.2,0.8,0.3,1.6,0.3l1.1,0.6
		c-0.2,0.6-0.3,1.3-0.5,1.9c-0.1,0.2-0.1,0.2-0.2,0.2c-0.1,0.1-0.2,0.1-0.4,0.2c-0.7,0.3-1.4,0.4-2.1,0.5c0,0,0,0-0.1,0
		c-0.8,0-1.7-0.1-2.2-0.4c-0.3-0.2-0.5-0.4-0.9-0.5c0.2,0.2,0.6,0.5,0.6,0.8l-2.9,4.1c1,2.2,4.2,3.4,6.5,3.8c-0.7,1.6-0.4,1-0.5,2.6
		c-0.2,0.4-1,0.5-1.3,0.6c-0.2,0.1-1,0.4-1,0.4c1.5,0.3,3.4-0.1,3-2.2c0.2-0.6,1-1.7,0.1-2c-0.1,0-0.1,0-0.2,0
		c0.1-0.5,0-1.2-0.1-1.7c-0.1-0.2-0.2-0.3-0.3,0c-0.2,0.5-0.4,1.1-0.7,1.4c0,0,0,0,0,0c0.1-0.5,0-1,0-1.3c-0.1-0.2-0.1-0.2-0.2,0
		c-0.1,0.4-0.3,0.8-0.5,1.1c-0.5-0.2-1-0.4-1.4-0.6c-3.1-1.3-1.6-3.7,0.1-5.5c0.5,0.1,0.9,0.2,2.1,0.3c0.2,0.7,0.3,1.7,0.2,3.1
		c0,0.3,0.1,0.3,0.2,0.1c0.4-0.7,1-1.9,1-3c0.1,0.4,0.1,0.9,0.1,1.4c0,0.4,0.1,0.5,0.3,0.1c0.3-0.5,0.7-1.3,0.6-2.4
		c0.3-0.2,0.7-0.4,0.8-0.8c0.4-1.2,0.6-2.5,0.9-3.8C37.5,17.2,37.4,17,37.2,16.8"/>
	<path class="st0" d="M26.1,9.7c-0.3-1-1.6-1.6-2.6-1.8c-1.2-0.3-2.4-0.4-2.7-0.3c0,0-0.1,0-0.1,0.1c0,0,0,0.1,0,0.1l0.6,1.1
		c0,0,0,0,0,0c0,0,0,0,0,0c0,0-1.7-0.8-4-0.9c-2.1-0.1-5.2,0.3-8,3c0,0,0,0.1,0,0.1c0.1,0.3,1.8,0.9,3.9,1.5
		c0.8,0.2,1.4,0.4,1.7,0.6c0,0,0,0,0,0c0,0,0,0,0,0c-0.2,0-0.5-0.1-0.8-0.1c-2.4-0.4-7.3-1.3-10.3,2.3c-0.1,0.1-0.1,0.1-0.1,0.2
		c0.1,0.1,0.4,0.1,0.9,0.1c0.4,0,0.8,0,0.8,0.1c0,0,0,0.1,0,0.1C1,18.6-0.6,22.3,0.2,27c0.7,4.2,3.2,8.6,5.4,12.4
		c0,0.1,0.1,0.1,0.2,0.1c0.1,0,0.1-0.1,0.1-0.1c0-0.1,0-0.3,0-0.6C5.8,37,5.5,31.2,9.7,25.3c0,0,0.9-1.2,0.9-1.2
		c1.6-1.9,3.7-3.6,4.9-4.3c0,0,0,0,0,0c0,0,0,0,0,0c-2,1.9-4.7,5.8-6.4,11.2c-0.5,1.7-0.9,3.5-1,5.2c-0.3,4.2,0.8,7.3,3.7,11
		c0.1,0.1,0.2,0.1,0.3,0.1c0.1-0.1,0.1-0.3,0.1-0.4c-0.4-1.4-0.5-2-0.3-2.1c0.2-0.2,0.8,0.2,1.6,0.8c1.2,0.8,3,2,5.3,2.6
		c0.1,0,0.1,0,0.2,0c0.1,0,0.1,0,0.1-0.1c0.1-0.2-0.4-0.6-1.1-1.3c-0.6-0.6-1.7-1.8-1.7-1.8c-4.9-5.9-2.7-10.9,0.1-15.4
		c0.6-0.9,1.4-2.1,2-3.9c0.4-1.5,1.1-4.3,2.9-5.8c0.7-0.6,1.4-1.2,1.8-2.1c0-0.1,0-0.1,0-0.2c0-0.1-0.1-0.1-0.1-0.1
		c-0.4,0-0.8-0.1-1.2-0.5c-0.3-0.3-0.4-0.6-0.5-1.1l0,0c0-0.2,0-0.3,0.2-0.4c0.8-0.2,3.3-1.3,3.7-1.5c0.2-0.1,0.4-0.3,0.5-0.5
		C26.3,12.3,26.5,10.9,26.1,9.7 M13.8,15.6c-0.1,0.4,0.2,1,0.3,1.3c0.1,0.3,0.3,0.5,0.5,0.7c0.2,0.2,0.4,0.4,0.5,0.3
		c0.1,0,0.1-0.1,0.1-0.1c0-0.1,0.1-0.2,0.2-0.2c0.1,0,0.2,0,0.2,0.1c0.2,0.2,0.3,0.3,0.5,0.5c0.1,0.1,0.1,0.2,0,0.3
		c0,0.1-0.1,0.2-0.2,0.2c-0.8,0.1-1.5-0.3-2.1-0.9c-0.8-0.9-1.1-2.2-0.8-3.4c0,0,0,0,0-0.1c0.3-0.6,2.7-0.7,3.3-0.6
		c0.6,0,1.9,0.3,2.4,2.1c0,0,0,0,0,0c0.2,0.7-0.7,2.8-1.3,3.1c-0.1,0-0.1,0-0.2,0c-0.1-0.1-0.1-0.4-0.1-0.8c0-0.6-0.1-1.2-0.4-1.8
		c-0.4-0.7-1.2-1.1-2.1-1.1c-0.1,0-0.2,0-0.3,0C14.1,15.2,13.9,15.4,13.8,15.6"/>
	<path class="st0" d="M32.1,19.1C32.1,19.1,32.1,19.1,32.1,19.1"/>
	<path class="st0" d="M32.3,19.7c0-0.1,0-0.1-0.1-0.2c-0.1,0-0.1,0-0.2,0c0,0-0.1,0.1-0.1,0.2c0,0,0,0.1,0.1,0.1c0,0,0.1,0,0.2,0
		C32.2,19.8,32.2,19.8,32.3,19.7"/>
	<path class="st0" d="M33.3,19.4c0,0.1-0.1,0.2-0.1,0.2c-0.1,0-0.2,0-0.2-0.1c0-0.1,0.1-0.2,0.2-0.2C33.2,19.3,33.3,19.3,33.3,19.4"
		/>
	<path class="st0" d="M34.3,19.2c0,0.1,0,0.2-0.2,0.2c-0.1,0-0.2-0.1-0.2-0.2c0-0.1,0.1-0.2,0.2-0.2C34.2,19.1,34.3,19.1,34.3,19.2"
		/>
	<path class="st0" d="M33,20.5c0,0.1-0.1,0.2-0.2,0.2c-0.1,0-0.2-0.1-0.2-0.2c0-0.1,0.1-0.2,0.2-0.2C32.9,20.3,33,20.4,33,20.5"/>
	<path class="st0" d="M34.3,20.2c0,0.1-0.1,0.2-0.2,0.2c-0.1,0-0.2-0.1-0.2-0.2c0-0.1,0.1-0.2,0.2-0.2
		C34.2,20.1,34.2,20.1,34.3,20.2"/>
	<path class="st0" d="M31.8,20.7c0,0.1,0,0.1-0.1,0.1c-0.1,0-0.1,0-0.2-0.1c0-0.1,0-0.2,0.1-0.2C31.7,20.5,31.7,20.6,31.8,20.7"/>
	<path class="st0" d="M31,33.4c-0.2-0.2-0.5-0.3-0.8-0.4c-1.8-0.5-3.7-1.2-5.1-2.3c0.2,0,0.5,0,0.7,0c0.8-0.1,1.4-0.2,2.1-0.5
		c0.1-0.1,0.4-0.2,0.5-0.3c0.1-0.1,0-0.2-0.1-0.2c-1.3-0.2-2.6-0.5-3.9-1.1c-0.5-0.2-1-0.5-1.5-0.8c-0.4-0.2-0.6-0.6-0.7-1
		c-0.6-2.1-0.5-4.9-0.5-5.5c0,0-0.1-0.1-0.1,0c-2,2.9-2.9,8.9,1.2,11.6c0.4,0.2,0.7,0.5,1.1,0.8c2.1,1.5,4.2,2.4,5.1,6.8
		c0.3,1.5,0.9-1.3,1.3-1.5c0.2,0,0.4,1,0.6,0.3C32.5,35.3,31.7,34,31,33.4"/>
</g>
</svg>
