<?xml version="1.0" encoding="utf-8"?>
<!-- Generator: Adobe Illustrator 25.4.1, SVG Export Plug-In . SVG Version: 6.00 Build 0)  -->
<!DOCTYPE svg PUBLIC "-//W3C//DTD SVG 1.1//EN" "http://www.w3.org/Graphics/SVG/1.1/DTD/svg11.dtd" [
	<!ENTITY ns_extend "http://ns.adobe.com/Extensibility/1.0/">
	<!ENTITY ns_ai "http://ns.adobe.com/AdobeIllustrator/10.0/">
	<!ENTITY ns_graphs "http://ns.adobe.com/Graphs/1.0/">
	<!ENTITY ns_vars "http://ns.adobe.com/Variables/1.0/">
	<!ENTITY ns_imrep "http://ns.adobe.com/ImageReplacement/1.0/">
	<!ENTITY ns_sfw "http://ns.adobe.com/SaveForWeb/1.0/">
	<!ENTITY ns_custom "http://ns.adobe.com/GenericCustomNamespace/1.0/">
	<!ENTITY ns_adobe_xpath "http://ns.adobe.com/XPath/1.0/">
]>
<svg version="1.1" id="Camada_1" xmlns:x="&ns_extend;" xmlns:i="&ns_ai;" xmlns:graph="&ns_graphs;"
	 xmlns="http://www.w3.org/2000/svg" xmlns:xlink="http://www.w3.org/1999/xlink" x="0px" y="0px" viewBox="0 0 89 35.8"
	 style="enable-background:new 0 0 89 35.8;" xml:space="preserve">
<style type="text/css">
	.st0{fill:#FFFFFF;}
	.st1{clip-path:url(#SVGID_00000013168413292266192150000009965564562912726666_);fill:#FFFFFF;}
	.st2{clip-path:url(#SVGID_00000162331533584998240040000014620352249661403545_);fill:#FFFFFF;}
	.st3{fill-rule:evenodd;clip-rule:evenodd;fill:#FFFFFF;}
	.st4{opacity:0.8;}
	.st5{opacity:0.4;clip-path:url(#SVGID_00000030449444391913119850000013521310616392954799_);}
	.st6{clip-path:url(#SVGID_00000052084298833230743550000003039324253846499993_);fill:#FFFFFF;}
	.st7{clip-path:url(#SVGID_00000078724481339498267330000012830170343252554635_);fill:#FFFFFF;}
	.st8{clip-path:url(#SVGID_00000048468745608095839610000008642159793548232093_);fill:#FFFFFF;}
	.st9{clip-path:url(#SVGID_00000123442595478692734420000004946095407119524996_);fill:#FFFFFF;}
	.st10{clip-path:url(#SVGID_00000096774246450591715660000013498972323537864890_);fill:#FFFFFF;}
	.st11{clip-path:url(#SVGID_00000157986706216821794140000005805040691757800883_);fill:#FFFFFF;}
	.st12{clip-path:url(#SVGID_00000125604543228598567250000017614835561711198362_);fill:#FFFFFF;}
	.st13{clip-path:url(#SVGID_00000163065066632352211840000001616647549238368435_);fill:#FFFFFF;}
</style>
<metadata>
	<sfw  xmlns="&ns_sfw;">
		<slices></slices>
		<sliceSourceBounds  bottomLeftOrigin="true" height="280.2" width="1017.9" x="-2419.2" y="3433.6"></sliceSourceBounds>
	</sfw>
</metadata>
<g>
	<path class="st0" d="M8.9,25.7H5.8c-1.6,0-2.9,0.4-3.8,1.3c-0.9,0.8-1.5,2.1-1.8,3.9c-0.2,0.9-0.2,1.7,0,2.3
		c0.1,0.7,0.4,1.2,0.9,1.6c0.3,0.3,0.7,0.5,1.1,0.7c0.4,0.1,1,0.2,1.8,0.2h3.3c0.1,0,0.2-0.1,0.2-0.2l0.2-1.2c0-0.2-0.1-0.3-0.2-0.3
		H4.3c-0.9,0-1.5-0.2-1.8-0.7c-0.3-0.4-0.3-1.2-0.1-2.3c0.2-1.3,0.6-2.2,1.1-2.7c0.5-0.5,1.2-0.8,2-0.8h3.2c0.1,0,0.2-0.1,0.2-0.2
		L9.2,26C9.2,25.8,9.1,25.7,8.9,25.7"/>
	<path class="st0" d="M15.2,31.2c-0.2,1-0.5,1.8-1,2.3c-0.5,0.5-1.1,0.7-1.9,0.7c-0.8,0-1.4-0.3-1.7-0.8c-0.3-0.5-0.3-1.3-0.1-2.4
		c0.2-1,0.5-1.8,1-2.2c0.5-0.5,1.1-0.7,1.9-0.7c0.8,0,1.4,0.2,1.7,0.8C15.3,29.4,15.4,30.2,15.2,31.2 M16.8,27.8
		c-0.6-0.7-1.6-1.1-3.1-1.1c-1.5,0-2.7,0.4-3.5,1.1c-0.9,0.7-1.4,1.9-1.7,3.4c-0.3,1.6-0.2,2.8,0.4,3.5c0.6,0.8,1.6,1.1,3.1,1.1
		c1.5,0,2.7-0.4,3.5-1.1c0.9-0.8,1.4-1.9,1.7-3.5C17.5,29.7,17.3,28.5,16.8,27.8"/>
	<path class="st0" d="M44.1,31.2c-0.2,1-0.5,1.8-1,2.3c-0.5,0.5-1.1,0.7-1.9,0.7c-0.8,0-1.4-0.3-1.7-0.8c-0.3-0.5-0.3-1.3-0.1-2.4
		c0.2-1,0.5-1.8,1-2.2c0.5-0.5,1.1-0.7,1.9-0.7c0.8,0,1.4,0.2,1.7,0.8C44.3,29.4,44.3,30.2,44.1,31.2 M45.7,27.8
		c-0.6-0.7-1.6-1.1-3.1-1.1c-1.5,0-2.7,0.4-3.5,1.1c-0.9,0.7-1.4,1.9-1.7,3.4c-0.3,1.6-0.2,2.8,0.4,3.5c0.6,0.8,1.6,1.1,3.1,1.1
		c1.5,0,2.7-0.4,3.5-1.1c0.9-0.8,1.4-1.9,1.7-3.5C46.4,29.7,46.3,28.5,45.7,27.8"/>
	<path class="st0" d="M37.2,26.8h-2.7c-0.8,0-1.5,0.1-2.1,0.2c-0.6,0.2-1.1,0.4-1.5,0.8c-0.4,0.3-0.7,0.8-0.9,1.3
		c-0.1,0.2-0.2,0.5-0.3,0.8l-0.2,0.6c-0.1,0.3-0.2,0.7-0.2,1.1l-0.7,3.7c0,0.2,0.1,0.3,0.3,0.3h1.3c0.1,0,0.3-0.1,0.3-0.2l0.6-3.3
		c0-0.1,0.1-0.1,0.1-0.1h4.7c0.1,0,0.3-0.1,0.3-0.2l0.2-0.9c0-0.2-0.1-0.3-0.3-0.3l-4.6,0c-0.1,0-0.1-0.1-0.1-0.1l0.1-0.5
		c0.2-0.4,0.4-0.8,0.7-1c0.4-0.3,1-0.5,1.8-0.5h3c0.1,0,0.3-0.1,0.3-0.2l0.2-1C37.5,27,37.4,26.8,37.2,26.8"/>
	<path class="st0" d="M53.1,29.5c-0.1,0.4-0.2,0.7-0.5,0.9c-0.3,0.2-0.7,0.2-1.3,0.2l-2.3,0l0.3-2c0-0.1,0.1-0.2,0.3-0.2h2
		c0.6,0,1,0.1,1.2,0.2C53.1,28.8,53.2,29.1,53.1,29.5 M54.6,27.5c-0.4-0.4-1.2-0.6-2.2-0.6h-4.3c-0.1,0-0.3,0.1-0.3,0.2l-1.5,8.2
		c0,0.2,0.1,0.3,0.3,0.3h1.3c0.1,0,0.3-0.1,0.3-0.2l0.5-3c0-0.1,0.1-0.2,0.3-0.2h1.7c0.1,0,0.2,0.1,0.3,0.2l1.2,3.1
		c0,0.1,0.2,0.2,0.3,0.2h1.5c0.2,0,0.3-0.2,0.3-0.4l-1.2-3c-0.1-0.2,0-0.3,0.2-0.4c0.5-0.1,0.8-0.4,1.2-0.7c0.4-0.4,0.6-1,0.8-1.7
		C55.2,28.6,55,27.9,54.6,27.5"/>
	<path class="st0" d="M87.1,29.5c-0.1,0.4-0.2,0.7-0.5,0.9c-0.3,0.2-0.7,0.2-1.3,0.2h-2.1c-0.1,0-0.1-0.1-0.1-0.1l0.3-1.8
		c0-0.1,0.1-0.2,0.3-0.2h2c0.6,0,1,0.1,1.2,0.2C87.1,28.8,87.2,29.1,87.1,29.5 M88.6,27.5c-0.4-0.4-1.2-0.6-2.2-0.6h-4.3
		c-0.1,0-0.3,0.1-0.3,0.2l-1.5,8.2c0,0.2,0.1,0.3,0.3,0.3h1.3c0.1,0,0.3-0.1,0.3-0.2l0.5-3c0-0.1,0.1-0.2,0.3-0.2h1.7
		c0.1,0,0.2,0.1,0.3,0.2l1.2,3.1c0,0.1,0.1,0.2,0.3,0.2h1.4c0.2,0,0.3-0.2,0.3-0.4l-1.2-3c-0.1-0.2,0-0.3,0.2-0.4
		c0.5-0.1,0.8-0.4,1.2-0.7c0.4-0.4,0.6-1,0.8-1.7C89.1,28.6,89,27.9,88.6,27.5"/>
	<path class="st0" d="M63.4,26.8h-7c-0.1,0-0.3,0.1-0.3,0.2l-0.2,1c0,0.2,0.1,0.3,0.3,0.3h2.5l-1.3,6.9c0,0.2,0.1,0.3,0.3,0.3H59
		c0.1,0,0.3-0.1,0.3-0.2l1.3-7h2.6c0.1,0,0.3-0.1,0.3-0.2l0.2-1C63.7,27,63.6,26.8,63.4,26.8"/>
	<path class="st0" d="M19.3,26.8h2.2c0.1,0,0.3,0.1,0.3,0.2l0.8,5.6c0,0.3,0.4,0.3,0.5,0.1l3-5.8c0-0.1,0.1-0.2,0.3-0.2h2.2
		c0.2,0,0.3,0.2,0.3,0.3l-1.5,8.2c0,0.1-0.1,0.2-0.3,0.2h-1.2c-0.2,0-0.3-0.2-0.3-0.3l1.2-5.7c0-0.1-0.2-0.2-0.2-0.1l-3,5.9
		c0,0.1-0.1,0.2-0.3,0.2h-1.5c-0.1,0-0.3-0.1-0.3-0.2l-0.9-5.9c0-0.1-0.2-0.1-0.2,0l-0.9,5.9c0,0.1-0.1,0.2-0.3,0.2h-1.3
		c-0.2,0-0.3-0.2-0.3-0.3l1.5-8.2C19,26.9,19.1,26.8,19.3,26.8"/>
	<path class="st0" d="M76.7,32h-2.3c-0.1,0-0.1-0.1-0.1-0.2l0.2-0.4l1.4-2.5c0.1-0.1,0.2-0.1,0.2,0l0.6,2.9
		C76.8,31.9,76.8,32,76.7,32 M79.6,35.3l-2-8.2c0-0.1-0.1-0.2-0.3-0.2h-1.6c-0.1,0-0.2,0.1-0.2,0.1l-4.2,6.9H68
		c-0.9,0-1.5-0.2-1.8-0.7c-0.3-0.4-0.3-1.2-0.1-2.3c0.2-1.3,0.6-2.2,1.1-2.7c0.5-0.5,1.2-0.8,2-0.8h3.2c0.1,0,0.2-0.1,0.2-0.2
		l0.2-1.2c0-0.2-0.1-0.3-0.2-0.3h-3.2c-1.6,0-2.9,0.4-3.8,1.3c-0.9,0.8-1.5,2.1-1.8,3.9c-0.2,0.9-0.2,1.7,0,2.3
		c0.1,0.7,0.4,1.2,0.9,1.6c0.3,0.3,0.7,0.5,1.1,0.7c0.4,0.1,1,0.2,1.8,0.2H72c0.1,0,0.2-0.1,0.3-0.1l1-1.8c0.1-0.1,0.1-0.1,0.3-0.1
		h3.4c0.1,0,0.3,0.1,0.3,0.2l0.3,1.6c0,0.1,0.1,0.2,0.3,0.2h1.5C79.5,35.6,79.6,35.5,79.6,35.3"/>
	<path class="st0" d="M46.7,0h-6.1c-3.1,0-5.5,0.8-7.2,2.4c-1.7,1.6-2.9,4.1-3.5,7.4c-0.3,1.7-0.3,3.2-0.1,4.5
		c0.3,1.2,0.8,2.3,1.6,3c0.6,0.6,1.4,1,2.2,1.3c0.8,0.3,2,0.4,3.4,0.4h6.4c0.2,0,0.4-0.2,0.5-0.4l0.4-2.4c0.1-0.3-0.2-0.6-0.5-0.6
		h-6c-1.7,0-2.8-0.4-3.4-1.3c-0.5-0.9-0.6-2.3-0.2-4.4c0.4-2.4,1.1-4.1,2-5.2c0.9-1.1,2.2-1.6,3.9-1.6h6.2c0.2,0,0.4-0.2,0.5-0.4
		l0.4-2.3C47.3,0.3,47,0,46.7,0"/>
	<path class="st0" d="M46.6,19h6.1c3.1,0,5.5-0.8,7.2-2.4c1.7-1.6,2.9-4.1,3.5-7.4c0.3-1.7,0.3-3.2,0.1-4.5c-0.3-1.2-0.8-2.3-1.6-3
		c-0.6-0.6-1.4-1-2.2-1.3c-0.8-0.3-2-0.4-3.4-0.4h-6.4c-0.2,0-0.4,0.2-0.5,0.4L49,2.8C49,3,49.2,3.3,49.5,3.3h6
		c1.7,0,2.8,0.4,3.4,1.3c0.5,0.9,0.6,2.3,0.2,4.4c-0.4,2.4-1.1,4.1-2,5.2c-0.9,1.1-2.2,1.6-3.9,1.6H47c-0.2,0-0.4,0.2-0.5,0.4
		l-0.4,2.3C46.1,18.7,46.3,19,46.6,19"/>
</g>
</svg>
