<?xml version="1.0" encoding="utf-8"?>
<!-- Generator: Adobe Illustrator 25.4.1, SVG Export Plug-In . SVG Version: 6.00 Build 0)  -->
<!DOCTYPE svg PUBLIC "-//W3C//DTD SVG 1.1//EN" "http://www.w3.org/Graphics/SVG/1.1/DTD/svg11.dtd" [
	<!ENTITY ns_extend "http://ns.adobe.com/Extensibility/1.0/">
	<!ENTITY ns_ai "http://ns.adobe.com/AdobeIllustrator/10.0/">
	<!ENTITY ns_graphs "http://ns.adobe.com/Graphs/1.0/">
	<!ENTITY ns_vars "http://ns.adobe.com/Variables/1.0/">
	<!ENTITY ns_imrep "http://ns.adobe.com/ImageReplacement/1.0/">
	<!ENTITY ns_sfw "http://ns.adobe.com/SaveForWeb/1.0/">
	<!ENTITY ns_custom "http://ns.adobe.com/GenericCustomNamespace/1.0/">
	<!ENTITY ns_adobe_xpath "http://ns.adobe.com/XPath/1.0/">
]>
<svg version="1.1" id="Camada_1" xmlns:x="&ns_extend;" xmlns:i="&ns_ai;" xmlns:graph="&ns_graphs;"
	 xmlns="http://www.w3.org/2000/svg" xmlns:xlink="http://www.w3.org/1999/xlink" x="0px" y="0px" viewBox="0 0 91.8 29.6"
	 style="enable-background:new 0 0 91.8 29.6;" xml:space="preserve">
<style type="text/css">
	.st0{fill:#FFFFFF;}
	.st1{clip-path:url(#SVGID_00000016753948418479727430000015908816858319329947_);fill:#FFFFFF;}
	.st2{clip-path:url(#SVGID_00000116229516345573683210000001519883128916854197_);fill:#FFFFFF;}
	.st3{fill-rule:evenodd;clip-rule:evenodd;fill:#FFFFFF;}
	.st4{opacity:0.8;}
	.st5{opacity:0.4;clip-path:url(#SVGID_00000037658433655144284830000008966064563638359432_);}
	.st6{clip-path:url(#SVGID_00000150072978132091354330000004965994743936245661_);fill:#FFFFFF;}
	.st7{clip-path:url(#SVGID_00000092416673685619157970000017043458053681512064_);fill:#FFFFFF;}
	.st8{clip-path:url(#SVGID_00000050623386384918987090000003739319272914388395_);fill:#FFFFFF;}
	.st9{clip-path:url(#SVGID_00000106123470560433819990000016566931366103087233_);fill:#FFFFFF;}
	.st10{clip-path:url(#SVGID_00000178162753927174319760000016174626763418685365_);fill:#FFFFFF;}
	.st11{clip-path:url(#SVGID_00000174573300476696312740000002968623043539023777_);fill:#FFFFFF;}
	.st12{clip-path:url(#SVGID_00000019676464572483044960000006553127536111744658_);fill:#FFFFFF;}
	.st13{clip-path:url(#SVGID_00000066513078141865336500000017490937039947620506_);fill:#FFFFFF;}
</style>
<metadata>
	<sfw  xmlns="&ns_sfw;">
		<slices></slices>
		<sliceSourceBounds  bottomLeftOrigin="true" height="280.2" width="1017.9" x="-2419.2" y="3433.6"></sliceSourceBounds>
	</sfw>
</metadata>
<g>
	<polygon class="st0" points="15.9,0.1 15.9,2.6 9.4,2.6 9.4,19.5 6.5,19.5 6.5,2.6 0,2.6 0,0.1 	"/>
	<path class="st0" d="M54.3,19.5l1.3-1.9l0-0.1L64.4,3l0.4-0.7H64h-5v0h-3.4V0.3V0.1h0.2h0.3h1.5h9.7h1.5c0,0-10.7,18-11.6,19.4
		h-1.6"/>
	<path class="st0" d="M72.7,0.1L71.5,2l0,0.1l-8.7,14.6l-0.4,0.7h0.8h5v0h3.4v1.9v0.2h-0.2H71h-1.5h-9.7h-1.5c0,0,10.7-18,11.6-19.4
		h1.6"/>
	<path class="st0" d="M44,8.3c1.3,0,2.3-0.3,2.9-0.8c0.6-0.5,1-1.1,1-2.1c0-1.1-0.3-1.4-0.9-1.9c-0.7-0.5-1.6-0.8-3-0.8h-5.2v0h-3
		V0.1h8.6c2,0,3.5,0.4,4.7,1.3c1.2,1,1.7,2.3,1.7,3.8c0,0.9-0.3,1.9-0.9,2.6c-0.4,0.6-1.4,1.5-2.5,1.7v0.1c1.7,0.4,2.8,2.4,3,4.3
		l0.3,2.6c0.1,1.2,0.5,2.1,1.1,2.8h-3.2c-0.5-0.6-0.7-1.5-0.8-2.6l-0.2-2c-0.1-1.1-0.6-2.5-1.2-2.9c-0.6-0.5-1.4-1.3-2.5-1.3l-5.1,0
		l0,8.7h-3l0-11.2L44,8.3z"/>
	<path class="st0" d="M89.9,2.5c-1.7-2-4.1-2.5-7.1-2.5c-3,0-5.4,0.6-7.1,2.6C74,4.4,73.8,7,73.8,10c0,3,0.2,5.2,1.9,7
		c1.7,1.9,4.1,2.5,7.1,2.5c3,0,5.3-0.6,7.1-2.5c1.7-1.9,1.9-4.1,1.9-7.1C91.8,7,91.5,4.4,89.9,2.5 M87.6,15.3
		c-1.1,1.4-2.8,1.7-4.9,1.7c-2.1,0-3.7-0.3-4.9-1.7c-1.1-1.4-1.1-2.9-1.1-5.2c0-2.3,0-4.3,1.1-5.6c1.2-1.4,2.8-1.7,4.9-1.7
		c2.1,0,3.7,0.3,4.9,1.7c1.1,1.4,1.1,3.4,1.1,5.7C88.7,12.4,88.7,14,87.6,15.3"/>
	<polygon class="st0" points="32.7,0.1 32.7,2.6 21.7,2.6 21.7,8.3 32.1,8.3 32.1,10.8 21.7,10.8 21.7,17 33.2,17 33.2,19.5 
		18.7,19.5 18.7,0.1 	"/>
	<polygon class="st0" points="10.7,25.2 11,25.2 12.7,28.4 14.4,25.2 14.7,25.2 14.7,29.5 14.4,29.5 14.4,25.8 12.7,29 11,25.8 
		11,29.5 10.7,29.5 	"/>
	<path class="st0" d="M24.6,28.4H22l-0.5,1.1h-0.3l1.9-4.4h0.3l1.9,4.4h-0.3L24.6,28.4z M24.4,28.1l-1.1-2.6l-1.1,2.6H24.4z"/>
	<path class="st0" d="M31.7,27.3c0-1.2,1-2.3,2.2-2.3c0.6,0,1.2,0.3,1.6,0.7L35.2,26c-0.3-0.4-0.8-0.6-1.3-0.6c-1,0-1.9,0.9-1.9,1.9
		c0,1.1,0.9,2,1.9,2c0.5,0,1-0.2,1.3-0.6l0.2,0.2c-0.4,0.4-1,0.7-1.6,0.7C32.7,29.6,31.7,28.6,31.7,27.3"/>
	<path class="st0" d="M41.7,27.3c0-1.2,1-2.3,2.2-2.3c0.6,0,1.2,0.3,1.6,0.7L45.3,26c-0.3-0.4-0.8-0.6-1.3-0.6c-1,0-1.9,0.9-1.9,1.9
		c0,1.1,0.9,2,1.9,2c0.5,0,1-0.2,1.3-0.6l0.2,0.2c-0.4,0.4-1,0.7-1.6,0.7C42.7,29.6,41.7,28.6,41.7,27.3"/>
	<polygon class="st0" points="55.3,25.2 55.3,29.5 54.9,29.5 54.9,27.4 52.2,27.4 52.2,29.5 51.9,29.5 51.9,25.2 52.2,25.2 
		52.2,27.1 54.9,27.1 54.9,25.2 	"/>
	<rect x="62" y="25.2" class="st0" width="0.3" height="4.4"/>
	<polygon class="st0" points="69.1,25.2 69.4,25.2 72.3,29 72.3,25.2 72.6,25.2 72.6,29.5 72.3,29.5 69.4,25.7 69.4,29.5 69.1,29.5 
			"/>
	<path class="st0" d="M82.5,28.4h-2.5l-0.5,1.1h-0.3l1.9-4.4h0.3l1.9,4.4H83L82.5,28.4z M82.4,28.1l-1.1-2.6l-1.1,2.6H82.4z"/>
</g>
</svg>
