<?xml version="1.0" encoding="utf-8"?>
<!-- Generator: Adobe Illustrator 25.4.1, SVG Export Plug-In . SVG Version: 6.00 Build 0)  -->
<!DOCTYPE svg PUBLIC "-//W3C//DTD SVG 1.1//EN" "http://www.w3.org/Graphics/SVG/1.1/DTD/svg11.dtd" [
	<!ENTITY ns_extend "http://ns.adobe.com/Extensibility/1.0/">
	<!ENTITY ns_ai "http://ns.adobe.com/AdobeIllustrator/10.0/">
	<!ENTITY ns_graphs "http://ns.adobe.com/Graphs/1.0/">
	<!ENTITY ns_vars "http://ns.adobe.com/Variables/1.0/">
	<!ENTITY ns_imrep "http://ns.adobe.com/ImageReplacement/1.0/">
	<!ENTITY ns_sfw "http://ns.adobe.com/SaveForWeb/1.0/">
	<!ENTITY ns_custom "http://ns.adobe.com/GenericCustomNamespace/1.0/">
	<!ENTITY ns_adobe_xpath "http://ns.adobe.com/XPath/1.0/">
]>
<svg version="1.1" id="Camada_1" xmlns:x="&ns_extend;" xmlns:i="&ns_ai;" xmlns:graph="&ns_graphs;"
	 xmlns="http://www.w3.org/2000/svg" xmlns:xlink="http://www.w3.org/1999/xlink" x="0px" y="0px" viewBox="0 0 66.1 51.1"
	 style="enable-background:new 0 0 66.1 51.1;" xml:space="preserve">
<style type="text/css">
	.st0{fill:#FFFFFF;}
	.st1{clip-path:url(#SVGID_00000141440608337444198480000009973750469484586884_);fill:#FFFFFF;}
	.st2{clip-path:url(#SVGID_00000031924607607872061190000013648235644932987810_);fill:#FFFFFF;}
	.st3{fill-rule:evenodd;clip-rule:evenodd;fill:#FFFFFF;}
	.st4{opacity:0.8;}
	.st5{opacity:0.4;clip-path:url(#SVGID_00000122695317064887686640000007945578747937592208_);}
	.st6{clip-path:url(#SVGID_00000098934453690924886630000012312151687857343619_);fill:#FFFFFF;}
	.st7{clip-path:url(#SVGID_00000046310807104096197980000002330040574144637358_);fill:#FFFFFF;}
	.st8{clip-path:url(#SVGID_00000080209031078151378300000003827971160731202215_);fill:#FFFFFF;}
	.st9{clip-path:url(#SVGID_00000067928149782070369650000017738626506243359639_);fill:#FFFFFF;}
	.st10{clip-path:url(#SVGID_00000011009428929872205890000005363210913484263832_);fill:#FFFFFF;}
	.st11{clip-path:url(#SVGID_00000143609098158412590750000016209585899482602663_);fill:#FFFFFF;}
	.st12{clip-path:url(#SVGID_00000169551266933220397500000007449886841117937032_);fill:#FFFFFF;}
	.st13{clip-path:url(#SVGID_00000152983677506931342920000017668232398523676305_);fill:#FFFFFF;}
</style>
<metadata>
	<sfw  xmlns="&ns_sfw;">
		<slices></slices>
		<sliceSourceBounds  bottomLeftOrigin="true" height="280.2" width="1017.9" x="-2419.2" y="3433.6"></sliceSourceBounds>
	</sfw>
</metadata>
<g>
	<path class="st0" d="M10.2,43.1l-1.6,3.6c-0.1,0.1-0.1,0.3-0.2,0.5c-0.1,0.2-0.2,0.6-0.4,1.1c0-0.3,0-0.5,0-0.8c0-0.3,0-0.6,0-1
		l0-3.4H5.8l-1.6,7.8h1.4l1-5.4c0.1-0.4,0.1-0.7,0.2-0.9c0-0.3,0.1-0.5,0.1-0.7H7c0,0.2,0,0.4,0,0.8c0,0.3,0,0.6,0,0.8l0,5.6h0.9
		l2.5-5.7c0.1-0.1,0.1-0.3,0.2-0.5c0.1-0.2,0.2-0.5,0.3-0.9H11c-0.1,0.3-0.2,0.6-0.2,0.8c-0.1,0.2-0.1,0.4-0.2,0.6l-1.4,5.7h1.4
		l1.6-7.8H10.2z"/>
	<path class="st0" d="M16.3,43.1l-1.1,5.4c-0.1,0.6-0.3,1-0.4,1.2C14.6,50,14.4,50,14.1,50c-0.3,0-0.5-0.1-0.7-0.2
		c-0.2-0.2-0.3-0.4-0.3-0.6c0-0.1,0-0.2,0-0.4c0-0.1,0.1-0.3,0.1-0.5l1.1-5.2h-1.4l-1,4.8c-0.1,0.4-0.1,0.6-0.2,0.8s0,0.4,0,0.5
		c0,0.6,0.2,1,0.6,1.4c0.4,0.3,1,0.5,1.7,0.5c0.4,0,0.8-0.1,1.1-0.2c0.3-0.1,0.6-0.3,0.8-0.5c0.2-0.2,0.3-0.4,0.4-0.6
		c0.1-0.2,0.2-0.7,0.3-1.3l1.1-5.4H16.3z"/>
	<path class="st0" d="M21.8,43.1L21,47.2c0,0.2-0.1,0.5-0.1,0.8c0,0.3-0.1,0.6-0.1,1h-0.1c0-0.3,0-0.6,0-0.9c0-0.3,0-0.5-0.1-0.7
		l-0.7-4.3h-1.6l-1.6,7.8h1.4l0.8-4.2c0.1-0.3,0.1-0.6,0.1-0.9c0-0.3,0.1-0.6,0.1-0.9l0.1,0c0,0.3,0,0.5,0,0.8
		c0,0.3,0.1,0.5,0.1,0.8l0.7,4.4h1.6l1.6-7.8H21.8z"/>
	<path class="st0" d="M28.1,45.1c0-0.7-0.2-1.2-0.6-1.5c-0.4-0.3-0.9-0.5-1.7-0.5h-2.1l-1.6,7.8H25c0.5,0,0.9-0.1,1.3-0.3
		c0.3-0.2,0.6-0.5,0.9-0.9c0.1-0.2,0.2-0.6,0.4-1c0.1-0.4,0.2-0.9,0.4-1.6c0.1-0.4,0.1-0.8,0.2-1.2C28.1,45.6,28.1,45.3,28.1,45.1
		 M26.6,45.8c0,0.3-0.1,0.7-0.2,1.2c-0.1,0.5-0.2,0.9-0.3,1.2c-0.1,0.3-0.2,0.6-0.2,0.8c-0.1,0.3-0.3,0.5-0.5,0.6
		c-0.2,0.1-0.5,0.2-0.9,0.2h-0.8l1.2-5.6h0.6c0.4,0,0.7,0.1,0.9,0.2c0.2,0.1,0.3,0.4,0.3,0.7C26.7,45.3,26.7,45.6,26.6,45.8"/>
	<path class="st0" d="M32.9,43.5c-0.4-0.3-1-0.5-1.8-0.5c-0.6,0-1,0.1-1.4,0.4c-0.4,0.3-0.7,0.7-1,1.3c-0.1,0.3-0.2,0.7-0.4,1.2
		c-0.1,0.5-0.2,1.1-0.4,1.7c-0.1,0.3-0.1,0.5-0.1,0.8c0,0.2,0,0.4,0,0.6c0,0.7,0.2,1.2,0.6,1.6c0.4,0.4,0.9,0.5,1.7,0.5
		c0.7,0,1.2-0.2,1.6-0.5c0.4-0.3,0.7-0.9,1-1.7c0.1-0.4,0.2-0.8,0.3-1.3c0.1-0.5,0.2-1,0.3-1.6c0-0.2,0-0.3,0.1-0.5
		c0-0.2,0-0.3,0-0.5C33.5,44.4,33.3,43.8,32.9,43.5 M31.9,46.2c-0.1,0.6-0.2,1.3-0.4,2c-0.2,0.8-0.4,1.3-0.6,1.5
		c-0.2,0.2-0.4,0.3-0.8,0.3c-0.3,0-0.5-0.1-0.7-0.3c-0.2-0.2-0.2-0.4-0.2-0.8c0-0.2,0.1-0.6,0.2-1.3c0.1-0.7,0.3-1.4,0.6-2.3
		c0.1-0.5,0.3-0.9,0.5-1.1c0.2-0.2,0.4-0.3,0.7-0.3c0.3,0,0.5,0.1,0.7,0.2c0.1,0.2,0.2,0.4,0.2,0.7C32.1,45.2,32,45.6,31.9,46.2"/>
	<path class="st0" d="M43.4,43.1l-1.9,5.1c-0.1,0.3-0.2,0.7-0.3,0.9C41,49.4,41,49.7,40.9,50c0-0.1,0-0.3,0-0.5
		c0-0.9,0.1-1.3,0.1-1.4l0.1-4.8h-1.3h-0.1h-1.3L37,49.7h-2.5l1.4-6.5h-1.4l-1.6,7.8h3.9h0.1h1.3l1.5-7.2l0.1,7.2h1.8l3.4-7.8H43.4z
		"/>
	<path class="st0" d="M48,47.1c0.5-0.1,0.9-0.3,1.2-0.7c0.3-0.4,0.4-0.8,0.4-1.4c0-0.7-0.2-1.2-0.6-1.5c-0.4-0.3-1-0.4-1.9-0.4h-2
		l-1.6,7.8h1.4l0.7-3.4c0.1,0,0.1,0,0.2,0c0.1,0,0.1,0,0.2,0c0.5,0,0.8,0.1,1,0.2c0.2,0.1,0.3,0.3,0.3,0.6c0,0.1,0,0.2,0,0.3
		c0,0.1,0,0.2,0,0.3l-0.1,0.9c0,0.1,0,0.2,0,0.3c0,0.1,0,0.2,0,0.3c0,0.1,0,0.2,0,0.3c0,0.1,0,0.2,0.1,0.2h1.6
		c-0.1-0.1-0.1-0.3-0.1-0.4c0-0.1,0-0.2,0-0.3c0-0.1,0-0.2,0-0.2c0-0.1,0-0.1,0-0.2l0.2-1c0-0.2,0-0.3,0.1-0.4c0-0.1,0-0.2,0-0.2
		c0-0.3-0.1-0.6-0.2-0.8C48.5,47.3,48.3,47.2,48,47.1 M46.6,46.5h-0.7l0.5-2.3H47c0.4,0,0.7,0.1,0.8,0.2c0.2,0.1,0.2,0.3,0.2,0.7
		c0,0.5-0.1,0.9-0.4,1.1C47.5,46.4,47.1,46.5,46.6,46.5"/>
	<polygon class="st0" points="54,44.4 54.2,43.1 50.4,43.1 48.8,50.9 52.8,50.9 53,49.7 50.5,49.7 50.9,47.5 53.3,47.5 53.5,46.3 
		51.2,46.3 51.6,44.4 	"/>
	<path class="st3" d="M53.6,50.9l1-4.8h-0.5l0.2-0.9h0.5l0.2-0.9c0.1-0.4,0.2-0.7,0.4-0.8c0.2-0.2,0.5-0.2,0.9-0.2
		c0.1,0,0.1,0,0.3,0c0.1,0,0.3,0,0.5,0.1l-0.2,0.9c0,0,0,0-0.1,0c0,0-0.1,0-0.1,0c-0.1,0-0.2,0-0.3,0.1c-0.1,0.1-0.1,0.2-0.1,0.3
		l-0.1,0.6h0.6l-0.2,0.9h-0.5l-1,4.8H53.6z"/>
	<path class="st3" d="M56.9,51h-1.3l1.2-5.6h1.2l-0.1,0.5c0.2-0.2,0.4-0.4,0.7-0.5c0.2-0.1,0.5-0.2,0.7-0.2c0.3,0,0.5,0.1,0.7,0.2
		c0.2,0.1,0.3,0.3,0.4,0.5c0.2-0.2,0.5-0.4,0.7-0.5c0.2-0.1,0.5-0.2,0.7-0.2c0.4,0,0.6,0.1,0.8,0.3c0.2,0.2,0.3,0.4,0.3,0.8
		c0,0.1,0,0.2,0,0.3c0,0.1,0,0.2-0.1,0.4l-0.9,4h-1.3l0.8-3.9c0-0.1,0-0.2,0.1-0.3c0-0.1,0-0.1,0-0.2c0-0.1,0-0.3-0.1-0.3
		c-0.1-0.1-0.2-0.1-0.3-0.1c-0.2,0-0.4,0.1-0.5,0.2c-0.1,0.2-0.2,0.4-0.3,0.8L59.3,51H58l0.8-3.9c0-0.1,0-0.2,0.1-0.3
		c0-0.1,0-0.1,0-0.2c0-0.1,0-0.3-0.1-0.3c-0.1-0.1-0.2-0.1-0.3-0.1c-0.2,0-0.4,0.1-0.5,0.2c-0.1,0.2-0.2,0.4-0.3,0.8L56.9,51z"/>
	<path class="st3" d="M48.7,11.2c0.1,0,0.1-0.1,0.1,0v0.6c0.1,0,0.2,0,0.2,0.1v1.1h0.2c0-0.2-0.1-0.4,0-0.5c0.2,0.1,0.1,0.3,0,0.5
		c0,0.8,0,1.9,0.1,2.7c0.1-0.7,0-1.7,0-2.4c0-0.1-0.1-0.3,0.1-0.3c0.1,0.9,0,2.1,0.1,3c0.1-0.7,0-1.8,0.1-2.5c0.1,0.7,0,1.7,0,2.5
		c0,0.1-0.1,0.3,0.1,0.3c0.1-0.6-0.1-1.4,0.1-1.9c0.1,0.2,0,0.9,0.1,1.1c0.2-0.1-0.1-0.6,0.1-0.7c0.1,0.1,0,0.6,0.1,0.7
		c0.1-0.1-0.1-0.4,0.1-0.3c0.1,0.7-0.1,1.6,0.1,2.2c0.1-0.5,0-1.3,0.1-1.8c0.1,0,0.1,0.3,0.1,0.4c0.1,0,0-0.1,0.2-0.1
		c0.1,0.5,0,1.1,0,1.6c0.2,0,0,0.4,0.1,0.5c0.1-0.3,0-0.9,0.1-1.3h0.2v1.2c-0.2,0-0.1,0.3-0.1,0.4h0.2c0-0.4-0.1-1,0-1.3
		c0.2,0.1,0,0.7,0.1,0.8c0.1-0.4,0-1,0.1-1.5h0.2v0.5c0,0.2-0.1,0.4,0.1,0.5c0.1-0.4-0.1-1.1,0.1-1.4c0.2,0.6-0.1,1.6,0.1,2.1
		c0.1-0.4,0-1,0.1-1.4h0.2v1.2c0.2,0.1,0.2-0.1,0.3-0.1c0-0.5,0-1,0-1.5h0.2c0,0.6-0.1,1.4,0.1,2c0.1-0.3,0-1,0.1-1.4
		c0,0.1,0.2,0.1,0.1,0.3c0,0.1-0.1,0-0.1,0.1c0,0.3-0.1,0.7,0,0.9c0.1,0,0-0.2,0.1-0.1c0-0.1,0-0.3,0-0.4c0-0.1-0.1-0.3,0.1-0.4
		c0.1,0.4,0,1.1,0.1,1.4c0.1-0.1,0-0.3,0-0.5c0-0.2-0.1-0.4,0.1-0.4c0.1,0.3,0,0.7,0,1h0.2V18c0-0.2-0.1-0.5,0.1-0.6
		c0.1,0.4,0,1.1,0.1,1.6c0.1-0.4,0-0.9,0-1.2h0.2c0,0.3,0,0.8,0,1.1c0,0.1-0.1,0.3,0.1,0.3c0.1-0.2-0.1-0.6,0.1-0.7
		c0.2,0.1,0.1,0.3,0,0.5c0,0.2,0,0.5,0.1,0.6c0-0.2,0.1-0.5,0-0.7c0.1,0,0.1,0,0.2,0c0,0.2-0.1,0.4,0,0.5c0.1-0.1,0-0.4,0.1-0.4
		c0,0.1,0,0.3,0,0.5c0,0.2-0.1,0.4,0.1,0.4c0.1-0.2,0-0.6,0.1-0.8h0.2c0,0.3-0.1,0.7,0,0.9c0.1-0.2-0.1-0.7,0.1-0.8
		c0.1,0.1-0.1,0.6,0.1,0.6c0.1-0.1,0-0.3,0-0.4c0.1,0,0.1,0,0.2,0c0,0.3-0.1,0.7,0.1,0.9c0.1-0.1,0-0.4,0.1-0.5
		c0.1,0-0.1,0.3,0.1,0.3c0.1-0.1-0.1-0.4,0.1-0.5c0.2,0.2-0.1,0.7,0.1,0.8c0.1-0.2-0.1-0.5,0.1-0.6c0.1,0.1,0.1,0.3,0,0.5
		c0.1,0.1,0.2,0,0.3,0c0-0.2-0.1-0.5,0.1-0.6c0.1,0.2-0.1,0.7,0.1,0.8c0.1-0.1-0.1-0.4,0.1-0.5c0.2,0,0,0.4,0.1,0.4
		C57,20.3,56.9,20,57,20c0.1,0,0,0.2,0.1,0.2c0.2,0.1,0.1-0.1,0.3-0.1c0.1,0.1,0.3,0.1,0.4,0.2c0,0.1-0.1,0.4,0,0.4
		c0.1,0,0-0.3,0.1-0.3c0.2,0,0.4,0.1,0.5,0.2c0,0.1-0.1,0.3,0,0.3c0.1,0,0-0.3,0.1-0.3c0.1,0.1,0.2,0.1,0.3,0.1
		c0,0.1-0.1,0.3,0.1,0.3c0.1-0.1,0-0.2,0.1-0.3c0,0.1,0.2,0.1,0.3,0.1c0,0.1,0,0.3,0.1,0.3c0.1,0,0-0.2,0.1-0.2
		c0.1,0,0.1,0.2,0.2,0.1c0.1,0,0-0.2,0.1-0.2c0.1,0,0,0.1,0.1,0.1c0.1,0,0-0.3,0.1-0.2c0.1,0,0,0.3,0.1,0.3c0.2,0.1,0.1-0.2,0.2-0.2
		c0.1,0,0,0.3,0.1,0.3c0.1-0.1,0.2-0.1,0.3-0.1c0-0.1,0-0.2,0.1-0.2c0.1,0,0,0.3,0.1,0.3c0.1,0,0-0.2,0.1-0.2H61
		c0.1,0,0,0.2,0.1,0.2c0.1,0,0-0.2,0.1-0.1c0.1,0,0,0.2,0.1,0.2c0.1,0,0-0.2,0.2-0.1c0.1,0,0,0.1,0.1,0.1c0.1,0,0-0.2,0.1-0.2
		c0.2,0,0,0.2,0.1,0.2c0-0.1,0.1-0.1,0.2-0.2c0.1,0,0,0.3,0.1,0.3c0.1,0,0-0.1,0.1-0.1c0.1,0,0.1,0.1,0.2,0.1c0.1,0,0-0.1,0.1-0.1
		c0.1,0.2,0.3,0,0.4,0.2c0.1,0,0-0.1,0.1-0.1c0.1,0,0,0.2,0.1,0.1c0-0.2,0.2-0.1,0.3,0c0.1,0,0-0.2,0.1-0.1c0.1,0,0,0.2,0.1,0.2
		c0.1,0.1,0-0.1,0.2-0.1c0.1,0,0,0.2,0.1,0.1c0-0.2,0.2-0.1,0.3,0c0.1,0,0-0.1,0.1-0.1c0,0.2,0.4,0,0.4,0.2c0.1,0,0-0.1,0.1-0.1
		c0.1,0,0,0.2,0.1,0.1c0-0.2,0.2-0.1,0.3,0c0.1,0,0-0.1,0.1-0.1c0.1,0.2,0.4,0.1,0.6,0.1V22C66,21.9,66,22,66,22.1h-1.3
		c-0.1,0,0,0.1-0.1,0.1c-0.2,0.1-0.1-0.1-0.2-0.1c-0.1,0.2-0.8-0.1-0.9,0.2c-0.1,0,0-0.2-0.1-0.1c0,0.2-0.6,0-0.6,0.2
		c-0.1,0,0-0.1-0.1-0.1c-0.1,0,0,0.1-0.1,0.1c-0.3,0-0.5,0-0.8,0c0,0.1-0.2,0.1-0.3,0.1c-0.1,0,0-0.1-0.1-0.1
		c-0.1,0.1,0,0.2-0.2,0.2c-0.1,0,0-0.2-0.2-0.1c-0.1-0.1,0,0.1-0.1,0.1c-0.2,0-0.2,0.1-0.3,0.1c-0.1-0.2-0.6-0.1-0.7,0
		c-0.2,0-0.2-0.1-0.2-0.1c-0.1,0,0,0.1-0.1,0.1c0-0.2-0.3-0.1-0.5-0.1c-0.1,0,0,0.1-0.1,0.1c-0.2,0-0.3,0-0.5,0
		c0,0.1-0.1,0.1-0.2,0.2c-0.1,0,0-0.2-0.1-0.1c-0.1,0,0,0.2-0.1,0.2c-0.1,0,0-0.2-0.1-0.1c-0.1,0,0,0.1-0.1,0.1
		c-0.2-0.1-0.4,0.1-0.5,0.2c-0.2,0.1-0.1-0.1-0.2-0.1c-0.1,0,0,0.2-0.1,0.2c-0.1,0.1,0-0.2-0.1-0.1c-0.1,0.1-0.2,0.3-0.4,0.3
		c-0.1,0,0-0.3-0.1-0.2c-0.2,0-0.1,0.3-0.3,0.2c0,0.1,0,0.2,0,0.2c-0.1,0,0-0.3-0.1-0.3c-0.1,0,0,0.2-0.1,0.2
		c-0.1-0.1,0-0.4-0.1-0.4c-0.1,0.1,0,0.4-0.1,0.5c-0.1,0-0.1,0-0.2,0c0,0.1,0,0.2-0.1,0.2c-0.1,0-0.1-0.1-0.2-0.1
		c-0.1,0,0,0.2-0.1,0.2c-0.1,0,0-0.1-0.1-0.1c-0.1,0.1,0,0.3-0.1,0.4h-0.1c-0.1,0,0-0.2-0.1-0.2c-0.1,0.1,0.1,0.4-0.1,0.4
		c-0.1,0,0.1-0.3-0.1-0.2c-0.1,0.1,0,0.3,0,0.4c-0.2,0-0.2-0.2-0.3-0.2c-0.1,0,0,0.2,0,0.3c-0.2,0-0.1,0.3-0.4,0.2
		c0,0.1,0,0.2-0.1,0.2c-0.1-0.2,0-0.4-0.2-0.4c-0.1,0.2,0,0.7-0.1,0.9c-0.1-0.1,0-0.2,0-0.4c-0.2,0,0-0.3-0.2-0.3
		c-0.1,0.1,0,0.4,0,0.5c-0.2,0-0.2,0.2-0.3,0.2c0,0.1,0.1,0.4,0,0.4c-0.1-0.1-0.1-0.2-0.2-0.2c0-0.2,0.1-0.5-0.1-0.6
		c-0.1,0.1,0,0.3,0,0.4c-0.1,0-0.1,0.2-0.2,0.1c0,0.2,0,0.2-0.1,0.2c0,0.1,0,0.3,0,0.4h-0.2c0-0.2,0.1-0.6-0.1-0.7
		c-0.1,0.1,0.1,0.4-0.1,0.4c-0.1-0.3,0-0.9-0.1-1.1c-0.1,0.1,0,0.3,0,0.5c-0.1,0-0.1,0-0.2,0c0,0.2,0.1,0.4-0.1,0.5
		c-0.1,0,0-0.3-0.2-0.2c-0.1,0.1,0.1,0.4-0.1,0.5c-0.1,0,0-0.3-0.1-0.3c-0.1,0.2-0.1,0.5-0.4,0.5c0,0.1,0,0.2,0,0.4
		c0,0.1,0.1,0.3-0.1,0.3c-0.1-0.1,0.1-0.4-0.1-0.5c-0.1,0.3,0,0.7-0.1,0.9c-0.1-0.1,0-0.5-0.1-0.6c-0.1,0.2,0,0.8-0.1,1
		c-0.1-0.1-0.1-0.3-0.2-0.4c-0.1,0.1,0,0.4,0,0.6c0,0.1-0.1,0-0.1,0.1v0.3c0,0-0.1,0-0.1,0c0,0.1,0,0.2-0.1,0.1c0,0.1,0,0.2-0.1,0.2
		c-0.1-0.2,0.1-0.6-0.1-0.7c-0.1,0.6,0.1,1.4-0.1,1.9c-0.1-0.3,0.1-0.9-0.1-1.1c0-0.1,0.1-0.4,0-0.4V14c0.1-0.8,0.1-1.9,0-2.7V11.2z
		 M48.7,29.8L48.7,29.8C48.7,29.8,48.7,29.8,48.7,29.8C48.8,29.7,48.7,29.8,48.7,29.8 M47,9.1c0.1,1,0,2.3,0.1,3.3
		c0.2,0,0-0.2,0.2-0.1c0,0.3-0.1,0.7,0.1,0.8c0-0.7,0.1-1.6,0-2.3c0-0.1-0.1-0.3,0.1-0.4c0.1,0.2,0,0.5,0,0.7c0.1,0,0.2,0,0.2,0V12
		c0,0.3-0.1,0.6,0.1,0.8c0.1-0.8,0-1.9,0-2.7c0-0.1-0.1-0.3,0.1-0.3c0.1,0.7,0,1.7,0.1,2.4c0.1-0.8,0-2,0-2.8c0-0.1-0.1-0.3,0.1-0.3
		c0.1,1.4-0.1,3.1,0.1,4.5c0.1-0.9,0-2.1,0.1-3c0.1,0.7,0,1.6,0,2.4c0,0.1-0.1,0.3,0.1,0.3c0.1-0.1,0.1-0.3,0.2-0.4V10
		c0-0.1-0.1,0-0.1-0.1c0.1,0,0-0.2,0.2-0.1c0.1,0.4,0,1,0,1.5c0,0,0,0,0.1,0v0.1l0,0h-0.1v0.1c0,0.9-0.1,1.9,0.1,2.7l0,0v14.8h0
		c-0.1,0.2,0,0.6-0.1,0.9c0,0,0,0,0.1,0v0.1c-0.1,0.1,0,0.4-0.1,0.4c-0.1,0.3,0.1,0.7-0.1,0.9h-0.1c0-0.2-0.1-0.2-0.1-0.3
		c0-0.4,0.1-1,0-1.4c-0.1,0.2,0.1,0.8-0.1,0.9c0,0.1,0.1,0,0.1,0.1c-0.2,0.1,0,0.6-0.2,0.6c0,0.2,0.1,0.7-0.1,0.8
		c-0.1-0.4,0-1.1-0.1-1.6c-0.1,0.2,0.1,0.7-0.1,0.8c-0.1-0.6,0-1.6-0.1-2.3c-0.1,0.2,0,0.7,0,1c0,0.1-0.1,0-0.1,0.1
		c0,0.3,0.1,0.7,0,0.9c-0.1,0,0-0.3-0.1-0.2c-0.1,0.2,0,0.6,0,0.9H47v-0.1l0,0c0.1-0.1,0-0.3,0-0.4H47v-5.6c0.1-0.1-0.1-0.5,0.1-0.5
		c0.1,0.1,0,0.4,0.1,0.5c0.1,0,0-0.2,0.1-0.1v-1.1c0.2,0.1,0-0.2,0.2-0.1v-3.8c-0.2,0-0.1-0.3-0.1-0.5c-0.2,0-0.1-0.3-0.1-0.5
		c-0.2,0,0-0.5-0.2-0.5c-0.1,0,0,0.1-0.1,0.1c-0.1,0-0.1,0-0.1,0V9.1z M45.9,10.8c0-0.4,0-0.8,0-1.1c0-0.1,0-0.2,0-0.3V9.2
		c0-0.1,0-0.1,0.1-0.2c0.1,1.2,0,2.7,0.1,3.8c0.1-0.8,0-1.9,0-2.7c0-0.1-0.1-0.3,0.1-0.3c0.1,1-0.1,2.2,0.1,3.1
		c0.1-0.9,0-2.2,0.1-3.1c0.2,0.4,0,1.2,0.1,1.6c0.1-0.9,0-2,0-2.9c0-0.1-0.1-0.3,0.1-0.3c0.1,1-0.1,2.3,0.1,3.3c0.1-0.9,0-2,0-2.9
		c0-0.1,0-0.3,0.1-0.3c0,1.1,0,2.4,0,3.6c0,0.2-0.1,0.4,0.1,0.4c0.1-1-0.1-2.2,0.1-3.2c0,0.1,0,0.1,0,0.2v9.7c0,0,0,0,0,0
		c-0.1-0.2,0-0.6-0.1-0.7c-0.1,0.2,0,0.7-0.1,0.9c-0.1-0.1,0-0.3,0-0.5c-0.3-0.1,0-0.7-0.2-0.7c-0.1,0.1,0,0.3,0,0.4
		c-0.1-0.1-0.1,0.1-0.1,0.1c-0.1-0.1,0-0.5-0.1-0.6c-0.1,0.1,0,0.4-0.1,0.5C46,18.3,46,18,45.9,18c-0.1,0.1,0,0.5-0.1,0.7V17
		c0,0,0.1,0,0.1,0v-0.2c0,0-0.1,0-0.1,0V10.8z M47,31.5L47,31.5c-0.1,0.1-0.1,0.2-0.1,0.3h-0.2c0,0.3,0.1,0.6,0,0.8
		c-0.2-0.1,0-0.6-0.1-0.8c-0.1,0.2,0.1,0.7-0.1,0.8c-0.1-0.5,0.1-1.3-0.1-1.8c-0.1,0,0,0.3-0.1,0.2c-0.1-0.2,0.1-0.7-0.1-0.8
		c-0.1,0.2,0,0.6-0.1,0.8c-0.1,0,0-0.2-0.2-0.1v0.4c0,0.1,0,0.3,0,0.4v-4.4c0.1,0.1-0.1,0.5,0.1,0.6c0.1-0.2,0-0.5,0.2-0.5V27
		c0.2,0,0-0.4,0.1-0.4c0.2,0.1-0.1,0.5,0.1,0.5c0.1-0.1,0-0.3,0-0.4c0.3,0,0-0.5,0.2-0.5c0.2,0.1-0.1,0.5,0.1,0.5
		c0.1-0.1,0-0.3,0-0.4c0,0,0.1,0,0.1,0v-0.8c0,0,0.1,0,0.1,0V31h0C46.9,31.1,46.9,31.4,47,31.5L47,31.5z M45.4,8.1
		c0.1,0.2,0,0.6,0,0.9c0,0.1,0.1,0,0.1,0.1c0,1,0,2.1,0,3.1c0,0.1-0.1,0.3,0.1,0.4c0.1-0.6-0.1-1.5,0.1-2c0.2,0.4,0,1.2,0.1,1.7
		c0-0.4,0-0.9,0-1.3v6c0,0,0,0,0,0c0-0.1,0.1-0.3,0-0.4h0V17c0,0,0.1,0,0.1,0v1.6c0,0,0,0,0,0h-0.1v-0.3c-0.2-0.2,0-0.9-0.1-1.2
		c-0.1,0.1,0,0.4-0.1,0.5c-0.1,0-0.1,0-0.1-0.1v-1h0.1c0,0.1-0.1,0.2,0,0.2c0.1-0.1,0.1-0.5,0-0.6c-0.1,0,0,0.1-0.1,0.1
		c0,0-0.1,0-0.1,0V8.1z M45.9,9.4V9.2C45.9,9.2,45.9,9.3,45.9,9.4 M45.9,31.8C45.9,31.8,45.8,31.8,45.9,31.8c-0.2,0-0.1-0.2-0.1-0.3
		c0-0.1-0.1,0-0.1-0.1V31c0-0.1,0.1-0.4-0.1-0.4c-0.1,0.1,0,0.4-0.1,0.4v0.8h0v-3.6c0,0,0.1,0,0-0.1c0-0.3-0.1-0.8,0-1.1
		c0.1,0.3,0,0.9,0.1,1.2c0.1-0.1,0-0.4,0.1-0.5c0.2,0,0-0.4,0.1-0.5c0,0,0.1,0,0.1,0.1V31.8z M45.4,24.8v-2c0.1,0.3,0,0.7,0,1
		c0.1,0,0.1,0,0.1,0.1c0.1,0,0.2,0,0.2,0c0,0.1,0,0.3,0,0.3c0,0-0.1,0-0.1,0c0,0.1,0,0.2,0,0.2c0,0-0.2,0-0.1,0c0,0.1,0.1,0.3,0,0.4
		C45.4,25,45.5,24.8,45.4,24.8 M44.2,3.7C44.2,3.7,44.2,3.7,44.2,3.7c0.1,2.1,0,4.4,0.1,6.6c0,0.1-0.1,0.3,0.1,0.4
		c0.1-0.9-0.1-2,0.1-2.8c0.2,0.2,0,0.7,0.1,0.9c0.1-0.2-0.1-0.6,0.1-0.7c0.1,0.1,0.1,0.2,0.1,0.3c0,1-0.1,2.1,0,2.9
		c0.1-0.9,0-2,0-2.9c0-0.1,0-0.3,0.1-0.3c0.1,0.5,0,1.1,0,1.6c0.1,0,0.2,0,0.2,0v1.6c0,0.2-0.1,0.4,0.1,0.5c0.1-0.1,0-0.3,0-0.4
		c0-0.1,0.1,0.1,0.1-0.1c0-1.1,0-2.2,0-3.2h0.1l0,0v8.2c0,0,0,0-0.1,0v-0.4h-0.2v0.2c0.2,0,0.1,0.3,0.1,0.5h0.2v1c0,0,0,0-0.1,0
		c0-0.2,0.1-0.5-0.1-0.6c-0.1,0.2,0,0.6,0,0.8c-0.1,0-0.1-0.1-0.2-0.1V17c-0.2,0,0-0.3-0.1-0.3h0v0.3c-0.1,0-0.1,0-0.2,0v0.5
		c-0.1,0-0.2,0.1-0.2,0c0-0.2,0.1-0.5-0.1-0.5c-0.1,0.1,0,0.4,0,0.5h-0.2v-1c0,0,0,0,0.1,0c0,0.1,0,0.2,0,0.2c0.1,0,0-0.3,0-0.4h0.1
		c0-0.1,0-0.2,0-0.3c0,0,0.1,0,0.1,0c0,0.1,0,0.2,0,0.3h0.2c0.1,0,0-0.1,0.1-0.1c0.1,0,0,0.2,0.1,0.1c0.1-0.1,0-0.3,0-0.5
		c-0.2,0-0.1-0.2-0.1-0.3c-0.3,0-0.1-0.3-0.3-0.4c-0.1,0.1,0,0.3,0,0.5c-0.1,0-0.1,0-0.2,0c-0.1-0.2,0-0.4,0-0.6
		c-0.2,0,0-0.4-0.1-0.4c-0.1,0,0,0.1-0.1,0.1c0,0,0,0,0,0V3.7z M45.4,31.8h-0.2c0,0.3,0.1,0.7-0.1,0.8c-0.1-0.3,0-0.7-0.1-1.1
		c0-0.1-0.1,0-0.1-0.1c0-0.4,0.1-1,0-1.3c-0.1,0.3,0,0.9,0,1.3c-0.2,0,0,0.2-0.1,0.3c0,0.1-0.1-0.1-0.1,0.1c0,0.3,0.1,0.8-0.2,0.8
		c0,0.6,0,1.4,0,2c0,0.1,0.1,0.3-0.1,0.4c-0.1-0.6,0-1.5,0-2.2c0-0.1,0.1-0.3-0.1-0.3c-0.1,0.2,0.1,0.7-0.1,0.8v2.8c0,0,0,0-0.1,0
		v-6.6c0,0,0.1-0.1,0.1-0.1c0.1,0.2-0.1,0.6,0.1,0.7c0.1-0.1,0-0.5,0-0.7c0,0,0.1,0,0.1,0v-2.8h-0.1c-0.1,0.1,0,0.4,0,0.5
		c-0.3,0,0,0.5-0.2,0.5c-0.1,0,0-0.3-0.1-0.3l0,0v-3.5c0,0,0,0,0.1,0c0-0.1-0.1-0.5,0.1-0.5c0.1,0.1,0,0.3,0,0.4h0.2
		c0,0.1,0,0.2,0,0.2c0.1,0,0-0.2,0.2-0.1v-0.4h0.1v-0.2c0.1,0,0.1-0.1,0.2-0.1c0-0.2-0.1-0.4,0.1-0.5c0.1,0.1,0,0.3,0,0.5
		c0,0,0.1,0,0.2,0c0-0.1-0.1-0.4,0.1-0.4l0,0v2c0,0,0,0-0.1,0c0,0.3-0.2,0.8,0,1.1c-0.2,0,0,0.4-0.2,0.3c0,0.3,0.1,0.7,0,0.9
		c-0.1-0.1-0.1-0.1-0.2-0.1c0-0.1,0.1-0.2-0.1-0.2c-0.1,0.2,0.1,0.5-0.1,0.6c0,0.7-0.1,1.4,0,2c0.1-0.1,0-0.4,0-0.5h0.2
		c0,0.1,0,0.2,0,0.2c0.1,0,0-0.2,0.1-0.2h0.2c0-0.1,0.1-0.2,0.1-0.2v-0.5c0,0,0,0,0.1,0V31.8z M43.4,4.8C43.4,4.8,43.4,4.8,43.4,4.8
		c0.2,1.8,0,4,0.1,5.8c0-0.6,0-1.5,0-2.1c0-0.2-0.1-0.6,0.1-0.6c0.1,0.1-0.1,0.5,0.1,0.5c0.1-1.1,0-2.5,0.1-3.6
		c0.2,1.4,0,3.1,0.1,4.5c0.1-0.9,0-2.1,0-3c0-0.1-0.1-0.3,0.1-0.4c0.1,0.3,0,0.8,0.1,1.1c0,0.1-0.1,0.3,0.1,0.3c0-1,0-2.2,0-3.3
		c0-0.1-0.1-0.3,0-0.4v10.9c-0.1,0-0.1,0-0.2,0c0-0.1,0.1-0.3-0.1-0.3c-0.1,0.6,0,1.6-0.1,2.3c-0.1-0.9,0-1.9-0.1-2.7h0v0.2
		c-0.3,0.1-0.2,0.5-0.2,0.8c0.2,0,0,0.4,0.1,0.6c0,0.1,0.1,0,0.1,0.1c0,0.1-0.2,0-0.2,0c0,0.1,0.1,0.2,0,0.2c-0.1-0.2,0.1-0.2,0-0.4
		c-0.1,0-0.1-0.1-0.1-0.1V15c0.1-0.2,0-0.7,0-0.9h0V4.8z M44.2,36.2c-0.1,0,0,0.3-0.1,0.3c-0.1-0.6,0-1.5,0-2.2
		c0-0.1,0.1-0.3-0.1-0.3c-0.1,0.1,0.1,0.5-0.1,0.6c0,0.2,0.1,0.5-0.1,0.5c0,0.1,0.1,0.3,0,0.4c-0.2-0.6,0.1-1.6-0.1-2.3
		c-0.1,0,0,0.2-0.1,0.1v1.7c0,0,0,0-0.1,0v-4.4h0v-0.9h0v-5.8c0.1,0,0-0.1,0.2-0.1V23c0.3,0,0-0.6,0.2-0.6c0.1,0.3,0,0.6,0,0.9
		c0.1,0,0.1,0.1,0.2,0.1v0.5c0.1,0,0.2,0,0.3,0v3.5c-0.1,0.1,0,0.3,0,0.5c-0.1,0-0.1,0-0.1,0v0.5c-0.1,0-0.2,0-0.3,0V29
		c0,0-0.1,0-0.1,0c0,0.4,0,0.8,0,1.2c0,0.1-0.1,0.3,0.1,0.3c0.1-0.1,0-0.4,0-0.5c0.2,0.1,0-0.3,0.1-0.3c0.1,0,0.2,0,0.2,0
		c0,0.1-0.1,0.4,0,0.4c0.1-0.1,0-0.4,0.1-0.6V36.2z M44.2,16.4c0,0-0.1,0-0.1,0c-0.1,0,0,0.1,0,0.2h-0.3c0-0.1,0-0.1-0.1-0.1v-0.3
		c-0.1,0-0.1-0.2-0.2-0.1c0-0.1,0-0.2-0.1-0.2v1.5c0.1,0.1,0,0.4,0,0.6c0,0.1,0.1,0,0.2,0c0.1-0.2,0-0.6,0-0.9
		c0.1,0,0.1-0.1,0.1-0.2c0.2,0,0,0.3,0.1,0.4c0.1,0,0-0.3,0.1-0.3c0.2,0,0,0.4,0.2,0.3v0.2h0V16.4z M43.2,5.9
		C43.2,5.9,43.2,5.9,43.2,5.9c0.1,0.4,0,0.8,0,1.3c0,0.4-0.1,0.9,0.1,1.3c0-1,0-2.2,0-3.3c0-0.1-0.1-0.3,0.1-0.4V14h0
		c0,0.2-0.1,0.7,0,0.9c0,0,0,0,0,0v0.3c0,0,0,0,0,0c-0.1,0.1,0,0.4,0,0.6c0,0,0,0,0.1,0v1.5c0,0,0,0,0,0c-0.1,0.1,0,0.4,0,0.5h-0.1
		v-2.7c0.1-0.4,0.1-1.2,0-1.6V5.9z M43.4,35.1c-0.2,0,0,0.4-0.1,0.4c-0.1-0.3,0-0.8,0-1.1c0-0.1,0-0.3,0-0.3v-2.7
		c0.1-0.2,0-0.5,0-0.7h0.2V35.1z M43.4,23.9v5.8h-0.2c0-0.1,0-0.2,0-0.2v-6h0c0-0.1-0.1-0.3,0-0.3C43.4,23.4,43.3,23.7,43.4,23.9
		C43.3,23.9,43.3,23.9,43.4,23.9 M42.8,11C42.8,11,42.9,11.1,42.8,11c0.1-0.7,0-1.6,0-2.4c0-0.3-0.1-0.6,0.1-0.7
		c0.1,0.4-0.1,1.1,0.1,1.5c0.1-0.9,0-2.1,0-3c0-0.1-0.1-0.3,0.1-0.4v7.6c0,0,0,0,0-0.1h0c0,0.6-0.1,1.3,0,1.7c0,0,0,0,0,0v2.7h-0.1
		v0.5c-0.2,0,0,0.3-0.1,0.4c0,0-0.1,0-0.1,0v-4c0,0,0,0,0,0c0.1-0.1,0-0.3,0-0.5c0,0,0,0,0,0V14c0,0,0,0,0,0c0.1-0.1,0-0.4,0-0.5h0
		V11z M43.2,34.1C43.2,34.1,43.1,34.1,43.2,34.1c-0.1,0.1,0,0.4-0.1,0.5c-0.2-0.7,0-1.7-0.1-2.4c-0.1,0.2,0,0.5,0,0.7c0,0,0,0-0.1,0
		V23c0,0,0,0,0,0c0.1,0,0-0.2,0.1-0.1c0.1,0.2,0,0.5,0,0.7h0.2v6h0h0v0.1c0,0.6-0.1,1.3,0,1.8c0,0,0,0,0,0V34.1z M42.6,8.8
		C42.6,8.8,42.6,8.8,42.6,8.8c0.1-0.2,0-0.7,0.1-0.8c0.1,0.9,0,2.1,0.1,3v2.5h0c0,0.2-0.1,0.4,0,0.5v0.3c-0.1,0,0-0.3-0.1-0.2
		c-0.1,0,0.1,0.3-0.1,0.3c0,0,0,0,0,0V8.8z M42.8,32.8C42.8,32.8,42.8,32.8,42.8,32.8c-0.1,0.7,0,1.6-0.1,2.3h-0.1v-1.8
		c0,0,0.1,0,0.1-0.1c0-0.1,0.1-0.4-0.1-0.4v-1.4h0.1c0,0.3-0.1,0.8,0,1c0.2-0.1,0.1-0.3,0-0.4c0-0.7,0-1.7,0-2.4
		c0-0.1,0.1-0.3-0.1-0.3c-0.1,0.4,0,0.9,0,1.2h0v-8.5c0,0,0,0,0,0c0.1,0.2,0,0.6,0,0.8c0.1-0.1,0.1,0.1,0.2,0.1V32.8z M42.8,14.8v4
		c0,0,0,0,0,0c-0.1-0.1,0-0.3-0.1-0.3c-0.1,0.1,0,0.4,0,0.5h-0.1v-4.5c0.1,0,0.1,0,0.2,0C42.8,14.6,42.8,14.8,42.8,14.8 M42.2,7.4
		c0-1,0-2.1,0-3.1c0-0.2-0.1-0.5,0.1-0.5c0,2.1,0,4.5,0,6.7c0,0.1-0.1,0.3,0.1,0.4c0.1-0.7-0.1-1.5,0.1-2.1c0.1,0,0,0.2,0.1,0.2v5.5
		c-0.1-0.3,0-0.7-0.1-1c0,0,0,0,0,0V14c-0.2,0-0.1,0.3,0,0.3c0,0.2-0.1,0.6,0,0.7c0.1-0.1,0-0.4,0.1-0.5l0,0V19h-0.1v1
		c0,0-0.1,0-0.1,0v2c0.1-0.1,0.1,0.1,0.1,0.1c0.1,0,0-0.1,0.1-0.1v8.5h-0.1c0-0.2,0.1-0.5-0.1-0.5c-0.1,0.1,0,0.4-0.1,0.4h-0.1V14.6
		c0.1-0.3,0.1-0.9,0-1.1V7.4z M42.6,35.1L42.6,35.1l0-1.8c0,0,0,0,0,0V35.1z M42.6,32.8v-1.4h-0.1c-0.1,0.2,0,0.6,0,0.8
		c-0.1,0-0.1-0.2-0.1-0.2c0-0.4,0.1-1,0-1.4c-0.1,0.4,0,1-0.1,1.5c0,0,0,0.1,0,0.1v4.5c0.1-0.1,0-0.3,0.1-0.4v-3
		c0.2,0.1,0-0.2,0.2-0.1C42.6,33,42.6,32.8,42.6,32.8C42.6,32.8,42.6,32.8,42.6,32.8 M41.2,7.5C41.2,7.5,41.2,7.5,41.2,7.5
		c0.1-0.7,0-1.5,0.1-2.1c0.1,0,0.1,0.1,0.1,0.1v2.3c0,0.1-0.1,0-0.1,0.1c0,1.1-0.1,2.3,0,3.2c0.1-1,0-2.1,0-3.2c0.1,0,0.3,0,0.3,0
		c0,0.5-0.1,1.1,0.1,1.5c0.1-0.9,0.1-2.1,0.1-3.1c0-0.1-0.1-0.3,0.1-0.4c0.1,1,0,2.4,0.1,3.4c0-0.9,0-2.1,0-3c0-0.1-0.1-0.3,0.1-0.4
		c0.1,0.3,0,1,0.1,1.3l0,0v6.1l0,0h0c0,0.4-0.1,0.9,0,1.1l0,0v15.9h-0.1c-0.1-0.1,0.1-0.4-0.1-0.5c-0.1,0.2,0,0.7-0.1,1h-0.2
		c0-0.1,0.1-0.3-0.1-0.3c-0.1,0.2,0,0.5,0,0.7c-0.2,0-0.1,0.2-0.2,0.2c0,0.2,0,0.3,0,0.4c0,0.1-0.1,0-0.1,0.1
		c-0.1,0.7-0.1,1.5-0.1,2.3c0,0.1-0.1,0-0.1,0.1c0,0.1,0.1,0.4,0,0.5V8.9c0.1-0.3,0.1-1,0-1.3V7.5z M42.2,36.6v-4.5c0,0-0.1,0-0.1,0
		c0,0.2,0,0.5,0,0.7c-0.1,0-0.1-0.2-0.1-0.4c0-0.1,0-0.3,0-0.4h-0.2c-0.1,0.1,0,0.3,0,0.3c-0.2,0,0-0.2-0.1-0.2h-0.1
		c0,0.2-0.1,0.6,0.1,0.7v0.8c0.2,0.1,0,0.7,0.1,0.9c0.1-0.1,0-0.5,0.1-0.6c0.2,0.1,0,0.5,0.1,0.6c0.1-0.1,0-0.5,0.1-0.6
		c0.1,0.4,0,0.9,0,1.4C42.2,35.7,42.1,36.3,42.2,36.6L42.2,36.6z M40.9,5.5c0.1,0,0-0.2,0.2-0.1v2c0.1,0,0.1,0,0.1,0v0.1l0,0h0
		c0,0.4-0.1,1,0,1.3l0,0V35c0,0,0,0,0,0c-0.1-0.1,0-0.3,0-0.4c-0.1,0-0.1-0.1-0.3-0.1V12.7c0,0,0,0,0,0c0-0.2,0.1-0.6,0-0.7V5.5z
		 M40.5,9.2C40.5,9.2,40.5,9.2,40.5,9.2c0.1-0.2,0-0.7,0.1-1.1c0-0.1,0.1,0,0.1-0.1c0-1.2,0-2.4,0-3.5h0.2c0,0.4,0,0.8,0,1.1
		c0,0,0,0,0,0V12h0c0,0.2-0.1,0.6,0,0.7v21.8c0,0,0,0,0,0c0,0.4,0,0.7,0,1c-0.2-0.1,0,0.2-0.2,0.1c0,0.1,0.1,0.3,0,0.3
		c-0.1-0.7,0-1.7,0-2.4c0-0.1,0.1-0.3-0.1-0.3V12.9c0,0,0.1,0,0.2,0v-0.5h0.1c0-0.1,0-0.1,0-0.2c-0.2,0,0-0.4-0.1-0.6h-0.2V9.2z
		 M40.5,12.8c0,0,0.1-0.1,0-0.2c0,0,0,0,0,0V12.8z M40.5,11.8L40.5,11.8C40.5,11.7,40.5,11.7,40.5,11.8L40.5,11.8z M39.9,9.5
		c0-0.9,0-2.1,0-3.1c0-0.1-0.1-0.3,0.1-0.4c0.1,1.1,0,2.4,0.1,3.5c0.1-0.9,0-2.1,0-3.1c0-0.1-0.1-0.3,0.1-0.4c0.1,1.2,0,2.6,0.1,3.8
		c0-0.8,0-1.7,0-2.5c0-0.3-0.1-0.6,0.1-0.8c0.1,0.8,0,1.8,0.1,2.6v2.4h0c0,0.1,0,0.1,0,0.1v0.1h-0.1c0,0.1,0,0.3-0.1,0.2v0.3
		c0,0,0.1,0,0.1,0v0.3c0.1,0,0.1,0,0.1,0v0.2c0,0,0,0,0,0.1c0,0,0,0,0,0v20.3c0,0,0,0,0,0c-0.1,0.1,0,0.2-0.1,0.2c0,0.2,0,0.4,0,0.6
		c-0.1,0,0-0.1-0.1-0.1c-0.1,0.1,0.1,0.4-0.1,0.5c-0.1-0.1,0-0.4,0-0.5c-0.1,0-0.1-0.1-0.1-0.1V12.2c0.1,0,0.1,0,0.1,0
		c0,0.1-0.1,0.3,0,0.3c0.1-0.1,0.1-0.3,0.1-0.5c0-0.1,0-0.3-0.1-0.3c-0.1,0,0,0.2-0.1,0.2c0,0-0.1,0-0.1,0V9.5z M39.2,11
		c0,0.1,0,0.1,0,0.2c0.1-0.9,0-2,0-2.9c0-0.1,0-0.3,0.1-0.3c0.1,0.1-0.1,0.4,0.1,0.5c0.1-0.7,0-1.7,0.1-2.4c0.1,0.9,0,1.8,0,2.8
		c0,0.6-0.1,1.1,0.1,1.6c0.1-1.1,0-2.3,0.1-3.4c0.1,0.7,0,1.8,0.1,2.4l0,0v2.4c0,0,0,0,0,0c0-0.2,0-0.4,0-0.5h-0.1
		c0,0.1,0,0.2-0.1,0.2v0.7c0,0,0.1,0,0.1,0c0,0.1-0.1,0.3,0,0.3c0.1,0,0-0.3,0-0.4c0,0,0,0,0,0v21.6c0,0,0,0,0,0
		c0-0.3,0-0.7-0.1-0.9c-0.1,0.1,0,0.4,0,0.6c-0.2,0,0,0.3-0.2,0.4c0,0.3,0,0.7,0,1c0,0.2,0.1,0.6-0.1,0.6c-0.1-0.8,0-1.7,0-2.5
		c-0.1,0-0.1-0.1-0.2-0.1V12.1c0,0,0,0,0,0c0,0.1,0,0.3,0.1,0.3c0-0.3,0.1-0.9,0-1.2h0c0,0.3,0,0.6-0.1,0.8V11z M38.8,9.8
		C38.9,9.8,38.9,9.8,38.8,9.8c0.1-1.1,0-2.4,0.1-3.4c0.2,0,0,0.4,0.1,0.4c0-1,0-2.2,0-3.3c0-0.1-0.1-0.3,0.1-0.4
		c0.1,2.5,0,5.3,0.1,7.8v1c0,0,0,0,0,0c-0.1-0.2,0.1-0.6-0.1-0.7c-0.1,0.2,0,0.6,0,0.8c0.1,0,0.1,0,0.2,0v20.7c0,0,0,0,0,0
		c-0.1,1.3,0,2.7,0,4c-0.2,0,0,0.2-0.2,0.2c-0.1-1.1,0-2.5-0.1-3.5c-0.1,0.1,0,0.5-0.1,0.6V12c0.1,0,0,0.1,0.1,0.1
		c0.1-0.3,0-0.7,0-1h-0.1c0,0.1,0,0.1-0.1,0.1V9.8z M37.9,9.6C37.9,9.7,38,9.7,37.9,9.6c0.1,0.2,0,0.2,0,0.2V9.6z M37.9,9.9v1.3h0
		c0,0.1,0.1,0.5,0,0.6c0,0,0,0,0,0V33c0.3-0.1,0.1,0.3,0.2,0.4c0.1-0.1,0.1-0.4,0.1-0.6v-0.6c0.2-0.1,0-0.6,0.1-0.8
		c0.1,0.7,0,1.7,0.1,2.4c0.2-0.1,0-0.5,0.1-0.6c0.1,0.4,0.1,1,0.1,1.5c0,0.5,0,1.1,0,1.5c0.2,0,0-0.4,0.2-0.4v-1.8c0,0,0,0,0.1,0V12
		c0,0,0,0-0.1,0v-0.4c0-0.1-0.1,0-0.1-0.1c0-0.1,0.1,0,0.1,0v-0.3c0,0,0,0,0.1,0V9.8c-0.1-0.1,0-0.2-0.1-0.3c-0.1-1.8,0.1-3.8,0-5.5
		c-0.1,0.1-0.1,0.3-0.1,0.4c0,1,0,2.3,0,3.3c-0.1-0.2,0-0.8-0.1-1c-0.1,0.1-0.1,0.3-0.1,0.4c0,0.9,0,2.1,0,3c-0.1-0.4,0-1.1-0.1-1.6
		c-0.1,0.1-0.1,0.4-0.1,0.6v2c0,0.1,0.1,0,0.1,0.1c0,0.2,0,0.4,0,0.5c0,0.1-0.1,0-0.1,0c0,0.1,0,0.3,0,0.3c-0.1,0,0-0.1-0.1-0.2
		c0-0.1-0.1,0-0.1-0.1c0-0.2,0-0.5,0-0.6c0,0,0.1,0,0.1,0c0-1.2,0.1-2.5,0-3.6c-0.1,0.9,0,2-0.1,2.9C37.9,10.4,38.1,10,37.9,9.9
		 M37.6,4.6C37.6,4.6,37.6,4.6,37.6,4.6l0,1c0.1,0,0.1,0.1,0.2,0.1v3.8c0,0,0,0.1,0.1,0.1v0.2c0,0,0,0,0,0.1c0,0,0,0,0,0v1.3h0
		c0,0.1-0.1,0.5,0,0.6V33l0,0c-0.1,0.4,0,0.8,0,1.2c-0.2-0.1-0.1,0.1-0.2,0.1c0,0.2,0,0.4,0,0.5V12c0,0,0,0,0,0c0-0.1,0.1-0.4,0-0.4
		h0V9.1c0,0,0,0,0,0c0-0.1,0.1-0.4,0-0.5h0V4.6z M37.1,3.3C37.1,3.3,37.1,3.3,37.1,3.3c0.2,1.5,0,3.4,0.2,4.9c0-1,0-2.2,0-3.2
		c0-0.1-0.1-0.3,0.1-0.4c0.1,1.1,0,2.5,0.1,3.6c0.1-1.1,0-2.5,0-3.6c0.1,0,0.1,0,0.1,0v4h0c0,0.1-0.1,0.4,0,0.5v2.5h0
		c0,0.1-0.1,0.4,0,0.4v22.9c0,0,0,0,0,0c0,0.2,0.1,0.5-0.1,0.5c0,0.1,0.1,0.4-0.1,0.3c-0.1-0.1,0.1-0.4-0.1-0.4
		c-0.1,0.1,0,0.4-0.1,0.5c0,0.3,0,0.6,0,0.9c-0.1,0-0.1,0-0.1,0V11.2c0,0,0,0,0,0h0.2c0.1,0.2-0.1,0.4,0.1,0.4
		c0-0.3,0.1-0.8-0.1-0.9c-0.1,0,0,0.2-0.1,0.2c0-0.1-0.1-0.1-0.1-0.1V3.3z M36.5,6.1h0.1c0-0.7,0-1.5,0-2.2h0.2c0,1.1-0.1,2.3,0,3.3
		C37,7.1,36.9,7,37,6.9V3.7c0-0.1,0-0.2,0-0.3v7.4c0,0,0-0.1,0-0.1c-0.1,0-0.2,0-0.2,0v-0.2c0.1,0,0.1,0,0.1-0.1
		c-0.1,0-0.1-0.1-0.2-0.1c0,0.4-0.1,0.9,0,1.1c0-0.1,0.2-0.1,0.3-0.2v25.6c0,0.1,0,0.2-0.1,0.2c-0.1-1.2,0.1-2.6-0.1-3.7
		c-0.1,0,0,0.2,0,0.3c0,0.1-0.1-0.1-0.1,0v2.5c-0.1,0-0.1,0.2-0.1,0.3c-0.1,0-0.1,0-0.1,0.1c0,0.1,0.1,0.4,0,0.4v-12
		c0,0,0.1-0.1,0-0.2c0.1,0,0-0.2,0.2-0.1c0-0.1,0-0.2,0.1-0.2v-1.2c-0.2,0-0.2-0.2-0.3-0.2c0-0.1,0-0.1,0-0.2V7c0,0,0,0,0,0V6.9h0
		V6.1z M36.3,3.9c0.1,0,0.1-0.1,0.1,0v2.1h0.1v0.8h0c0,0.1,0,0.1,0,0.1v15.8c0,0-0.1-0.1-0.1-0.2c-0.1,0-0.1,0-0.1,0V7.5
		c0.1-1,0.1-2.4,0-3.4V3.9z M36.5,36.9C36.5,36.9,36.5,36.9,36.5,36.9c-0.1-0.2,0-0.5-0.1-0.8h-0.1V25.2c0,0,0,0,0,0
		c0-0.1,0-0.1,0.1-0.1c0-0.1,0-0.2,0.1-0.2V36.9z M35.9,8.8c0,0.1,0,0.2,0,0.3c0.1-1.2,0-2.6,0-3.8c0.1,0,0.2,0,0.2-0.1
		c0,0-0.1,0-0.1-0.1V1.5c0.1,0,0.1-0.1,0.1-0.1c0.1,0.8,0,1.7,0,2.6c0,0,0,0,0.1,0V4l0,0h0v0.1c0,1.1-0.1,2.4,0,3.4l0,0v15.1
		c-0.1,0-0.1-0.2-0.2-0.2c-0.1,0,0,0.2-0.1,0.2c-0.1,0,0-0.2,0-0.3c0,0,0,0,0,0v-9.3c0,0,0,0,0,0c0.1,0,0-0.1,0-0.2h0V8.8z
		 M36.3,36.1L36.3,36.1c-0.1,0.8,0,1.7-0.1,2.5c-0.1,0-0.2,0-0.3,0c0-0.8,0-1.7,0-2.5c0-0.5,0.1-0.9-0.1-1.3v-9.6
		c0.1,0,0-0.1,0.1-0.1c0.1,0,0,0.2,0.1,0.2c0.1-0.1,0.1-0.1,0.2-0.1V36.1z M35.8,3.9C35.8,3.9,35.8,3.9,35.8,3.9
		c0.1,1.6,0,3.3,0.1,4.9v3.9h-0.1c0,0.1,0,0.2,0.1,0.2v9.3c0,0-0.1,0-0.1-0.1v-10c0,0,0,0,0.1,0v-0.1h-0.1V3.9z M35.9,34.8
		L35.9,34.8c-0.1,0.3,0,0.8-0.1,1.2c0,0,0,0-0.1,0V25.5h0.1v-0.3c0,0,0,0,0.1,0V34.8z M35.7,6.8c0-0.8,0-1.7,0-2.5c0,0,0,0,0-0.1V4
		c0,0,0-0.1,0-0.1v8.2h0l0,0V6.8z M35.8,36C35.7,36,35.7,36.1,35.8,36l0-10.2h0v-0.3h0V36z M35.7,36.2
		C35.7,36.3,35.7,36.3,35.7,36.2L35.7,36.2L35.7,36.2z M35.8,12.2v10c0,0,0-0.1,0-0.1v0c0,0,0,0,0,0l0,0v-9.2l0,0v-0.2h0L35.8,12.2
		C35.7,12.2,35.7,12.2,35.8,12.2 M34.9,0L34.9,0c0.1,2.7,0,5.5,0.1,8.1c0.1-0.9,0-2,0.1-2.9c0.2,0.1,0,0.6,0.1,0.7
		c0.1-0.6-0.1-1.4,0.1-1.9c0.1,0.2,0.1,0.6,0.1,0.9c0,0.9,0,2,0,2.8c0.1-1,0-2.2,0-3.3c0-0.1-0.1-0.3,0.1-0.4
		c0.1,1.1-0.1,2.5,0.1,3.6c0-0.3,0-0.5,0-0.8v5.4c0,0,0,0,0,0.1v0.3c-0.2,0-0.1-0.2-0.3-0.3c-0.1,0,0,0.2-0.1,0.2
		c-0.1,0-0.2,0-0.3,0v-0.1c-0.1,0-0.1,0-0.2,0c0,0,0,0.1,0,0.1h-0.2c0,0,0-0.1,0-0.1c-0.1,0,0,0.1-0.1,0.1h-0.2
		c0.1-0.1-0.1,0-0.1-0.2c0-0.1,0.1,0,0.2,0c0,0,0,0.1,0.1,0.1c0,0,0,0,0,0v-0.2c0.2,0.1,0.1-0.1,0.2-0.1v-0.3c0,0-0.1,0-0.1,0
		c0-0.1,0.2,0,0.2,0v0.5h0.2c0,0,0-0.1,0.1-0.1c0.1,0,0,0.1,0,0.1c0.2,0,0.2-0.1,0.4-0.1v-0.4c-0.2,0.1,0-0.3-0.2-0.3
		c-0.1,0.1,0.1,0.4-0.1,0.4c-0.1-0.1,0-0.4-0.1-0.5c-0.1,0,0,0.2-0.1,0.2c-0.1,0-0.1-0.1-0.2-0.1c-0.1,0.1-0.1,0.1-0.2,0.1
		c0-0.1,0-0.1,0-0.2c-0.2,0.1,0-0.2-0.2-0.2c-0.1,0,0,0.1,0,0.2c-0.1,0-0.1,0-0.2,0c0-0.1,0.1-0.3,0-0.3c-0.1,0,0,0.3-0.1,0.4
		c-0.1,0-0.2,0-0.2,0c0-0.1,0.1-0.3-0.1-0.3c-0.1,0,0,0.2,0,0.2c-0.1,0-0.1,0.1-0.2,0.1c0-0.1,0-0.2,0-0.2h0V1.5c0,0,0.1,0,0.1,0
		c0,1.2-0.1,2.5,0.1,3.6c0.1,0,0.1,0,0.1,0c0.1-1.1-0.1-2.5,0.1-3.6C34.1,1.6,34,1.8,34,2c0,1.1,0,2.4,0,3.4c0-1.1,0-2.4,0-3.6
		c0-0.1-0.1-0.3,0.1-0.4c0.1,1.8,0,3.9,0.1,5.6c0-0.4,0-1,0-1.5c0-0.1-0.1-0.4,0.1-0.4c0.1,0-0.1,0.3,0.1,0.3c0.1-1.2-0.1-2.7,0.1-4
		c0.2,0.3,0,0.9,0.1,1.3c0,0.1,0.2-0.1,0.2,0.1c0,0.4-0.1,1,0,1.3C34.9,2.8,34.8,1.3,34.9,0 M35.7,4.3V4C35.7,4.1,35.7,4.2,35.7,4.3
		 M35.7,36.1c0,0-0.1,0.1-0.1,0.1c0,0,0.1,0,0.1,0.1v0.1h-0.2c0-0.1,0.1-0.4-0.1-0.4c-0.1,0.1,0,0.2,0,0.3c0,0-0.1,0-0.1,0
		c0,0.4,0,0.9,0,1.3c0,0.1,0.1,0.3-0.1,0.4c-0.1-0.7,0-1.4,0-2.1c-0.1,0.1,0-0.1-0.2-0.1c-0.1,1,0,2.1,0,3.1h-0.2
		c0-0.6,0.1-1.2,0-1.7c-0.1,0.1-0.1,0.2-0.1,0.3c0,0.4,0.1,0.7,0,1c-0.1-0.1,0,0.1-0.2,0.1c-0.1-0.5,0-1.2,0-1.7
		c-0.2,0-0.2,0-0.2,0.1c0-0.2-0.3-0.1-0.3-0.1c0-0.3,0.1-0.8-0.1-1c0,0.1-0.1,0.1-0.1,0.1v-8.3c0,0,0,0,0,0c0.1-0.1,0-0.5,0-0.7
		c0.1,0,0.2,0,0.2,0c0,0.2-0.1,0.5,0,0.6c0.1-0.1,0-0.4,0-0.5h0.2c-0.1,0.2,0.2,0,0.1,0.2h0.2v-0.4h0.1c0-0.2,0.2-0.3,0.1-0.6
		c0.2,0,0-0.2,0.2-0.1v0.2h0.2c0,0.1,0,0.2,0.1,0.2c0.1-0.1,0-0.4,0-0.5h0.1c0-0.2,0-0.5,0-0.6c0.2,0,0.1,0.3,0.1,0.4
		c0.1,0,0.1,0,0.1,0.1h0.2V36.1z M33.6,36v1.8c0,0,0,0,0.1,0C33.6,37.3,33.7,36.7,33.6,36C33.7,36,33.6,36,33.6,36 M35.7,12.7
		c-0.2,0-0.2,0-0.2,0.1c-0.1,0-0.1-0.1-0.1-0.2c-0.1,0-0.3,0-0.3,0.1h-0.2c0-0.1,0-0.1,0-0.1c-0.2,0-0.1,0.1-0.3,0.1
		c-0.1,0,0-0.2-0.1-0.2c-0.1,0.1-0.3,0.1-0.3,0.2c-0.1,0,0-0.2-0.1-0.3H34c-0.1,0,0,0.2,0,0.2c-0.1,0-0.1-0.2-0.2-0.2
		c-0.1,0,0,0.1,0,0.2c0,0,0,0-0.1,0v7.3c0.2,0-0.1,0.5,0.2,0.5c0,0.1-0.1,0.3,0,0.3c0.1,0,0-0.3,0.1-0.3c0.2,0-0.1,0.5,0.2,0.4v0.6
		H34v0.2c0.1,0,0.1,0.1,0.2,0.1c0-0.1,0.2-0.1,0.1-0.2h0.2c0,0.1-0.1,0.3,0.1,0.3V22c0.1,0,0.1,0.2,0.2,0.1c0,0.2,0,0.3,0,0.4
		c0.1,0,0.1-0.2,0.1-0.3h0.2c0-0.2-0.1-0.4,0.1-0.5c0.1,0,0,0.3,0.1,0.2c0,0.1,0,0.3,0,0.4c0.1,0,0.1-0.2,0.1-0.3
		c0.2,0.1,0.1-0.2,0.1-0.2c0.1,0,0,0.2,0.2,0.1V12.7z M35.7,22L35.7,22C35.7,22,35.7,22,35.7,22 M33.6,35.9
		C33.6,36,33.6,36,33.6,35.9C33.6,36,33.6,36,33.6,35.9v1.9c-0.1,0-0.2,0-0.3,0c0-0.2,0.1-0.6,0-0.7c-0.1,0,0,0.3-0.1,0.2
		c-0.1-0.5,0.1-1.4-0.1-1.8c-0.1,0.1,0.1,0.4-0.1,0.4c0-0.4,0.1-1-0.1-1.3c-0.1,0.4-0.1,0.9-0.2,1.3c-0.1,0-0.2,0-0.2,0v-0.1
		c0,0,0,0,0.1,0v-0.1h-0.1v-8c0,0,0,0,0,0c0.1,0,0-0.2,0-0.2c0.1,0,0.1,0,0.2,0v-0.4c0.1,0,0.2,0,0.2,0v0.4c0.2-0.1,0,0.3,0.1,0.3
		c0.1,0,0-0.2,0.1-0.2h0.2v-0.4c0.1,0,0.2,0,0.2,0c0,0.1,0,0.3,0,0.4V35.9z M32.5,7.9L32.5,7.9c0.1-1,0-2.1,0-3.2
		c0-0.1-0.1-0.3,0.1-0.4c0.1,1.1,0,2.5,0.1,3.6c0.1-1.1,0-2.5,0.1-3.6c0.1,1.4,0,3.2,0.1,4.6c0.1-0.9,0-2.1,0.1-3.1
		c0-0.1-0.1-0.3,0.1-0.4c0.1,0.7,0,1.8,0.1,2.6c0-1,0-2.2,0-3.2c0-0.1-0.1-0.3,0.1-0.4c0.1,0.6,0,1.6,0.1,2.2c0.1-1.2,0-2.5,0-3.8
		c0-0.1,0.1,0,0.1-0.1c0-0.4-0.1-1,0.1-1.3c0,0,0,0.1,0.1,0.1v9.6h-0.1c0,0.1,0.1,0.2,0,0.2c-0.1-0.1,0-0.3-0.1-0.3
		c-0.1,0.1,0,0.4,0,0.5h-0.2c0,0.1,0,0.2,0,0.2c-0.1,0,0-0.2,0-0.2c-0.1,0,0-0.3-0.1-0.3c-0.1,0,0,0.1-0.1,0.1c-0.1,0-0.1,0-0.2,0
		c0-0.2,0.1-0.7-0.1-0.8c-0.1,0.3,0.1,0.8-0.1,1c-0.1,0,0-0.3,0-0.4c0,0,0,0-0.1,0V7.9z M33.6,12.6v7.3l0,0c-0.1,0.1,0,0.3-0.1,0.3
		c-0.1,0-0.2,0-0.2,0v-0.5c-0.1,0-0.2,0-0.2,0c0-0.1,0.1-0.3,0-0.3c-0.1,0,0,0.3-0.1,0.2c0,0.1,0,0.3,0,0.4c0,0-0.2,0-0.2,0v-0.5
		c-0.1,0-0.2,0-0.2,0c0,0,0.1-0.2,0-0.2v0v-6.6c0.1,0,0.1,0,0.1,0c0,0.1,0,0.2,0.1,0.1c0.1,0,0-0.2,0-0.2h0.2c0,0.1,0,0.3,0.1,0.3
		c0.1,0,0-0.1,0-0.2c0.2,0,0.1-0.2,0.3-0.2v0.3h0.2C33.5,12.7,33.6,12.6,33.6,12.6 M32.5,19.7C32.5,19.7,32.5,19.7,32.5,19.7
		c0-0.1,0-0.1,0-0.2V19.7z M32.5,35.9c-0.1,0-0.2,0-0.3-0.1c0,0.1,0.2,0.1,0.1,0.3h-0.1c0-0.4,0.1-0.6,0.1-1H32v1.3
		c-0.2,0-0.1,0.3-0.2,0.3h-0.1v-1c0.1,0,0.1-0.4,0-0.4c-0.1,0,0,0.3,0,0.3h-0.1c0.1-0.7,0.1-1.6,0.1-2.4h-0.2c0,0.2,0,0.4,0.1,0.5
		c0,0.1-0.1,0-0.1,0.1v1.5c0,0.1-0.1,0-0.1,0.1c0,0.1,0.1,0.3-0.1,0.4c-0.1-0.1,0.1-0.6-0.2-0.7c0-0.3,0.1-0.8,0-1
		c-0.2,0-0.1,0.3-0.1,0.4v0.6c0,0-0.1,0-0.1,0v1.1c-0.2,0,0,0.4-0.2,0.4c-0.1-0.1,0-0.4-0.1-0.4c-0.1,0.1,0,0.4-0.1,0.4
		c-0.1-0.3,0-0.8,0-1.2c0-0.1,0.1-0.3-0.1-0.3c-0.1,0.1,0.1,0.4-0.1,0.4c-0.1-1.3,0-3-0.1-4.3c-0.1,0-0.1,0.1-0.1,0.1
		c0.1,0.2,0,0.6,0.1,0.8c0,0.1-0.1,0-0.1,0.1c0.1,0.4-0.1,0.4-0.1,0.8c0,0-0.1,0-0.1,0.1c0,0.8,0,1.7,0,2.4c-0.1,0-0.1,0-0.2,0V35
		c0-0.1,0.1,0,0.1-0.1c0-0.1-0.1,0-0.1-0.1v-0.4c0-0.1,0.1,0,0.1-0.1c0-0.1-0.1,0-0.1-0.1c0-0.1,0.1,0,0.1-0.1c0-0.1-0.1,0-0.1-0.1
		c0.2-0.1,0.1-0.5,0.1-0.7c-0.2,0.1,0-0.1-0.2-0.1c-0.1,1.1,0,2.5,0,3.6c-0.2-0.1-0.1,0.2-0.2,0.2c-0.1-1.1,0-2.5-0.1-3.6
		c-0.1,1,0,2.2,0,3.3c-0.2,0-0.1,0.2-0.3,0.3c0-1.3,0-2.8,0-4.1c0-0.2,0.1-0.4-0.1-0.5c-0.1,0.4,0,0.9,0,1.4h-0.2
		c-0.1,0.2,0,0.5-0.1,0.6c-0.1-0.3,0-0.9-0.1-1.2l0,0v-1.4c0.1,0,0.1,0,0.2-0.1c0,0-0.1,0-0.2,0v-1.1h0.2v-1.1
		c0.1,0,0.1-0.1,0.2-0.1c0,0.2,0,0.4,0,0.6c0.2-0.1,0,0.2,0.1,0.2c0.1-0.2,0-0.7,0.1-0.8c0.1,0,0.1,0.1,0.1,0.1
		c0,0.2-0.1,0.6,0.1,0.7c0.1-0.3,0-0.6,0-0.9h0.1c0-0.1-0.1-0.4,0.1-0.4c0.2,0.2-0.1,0.7,0.1,0.8c0.1,0,0-0.2,0-0.3h0.2v-0.6
		c0.2,0.1,0-0.2,0.2-0.1c0.1,0.2,0,0.4,0,0.6c0.2,0,0,0.4,0.1,0.4c0.1-0.1,0-0.2,0-0.4h0.2v-0.3c0.1,0.1,0.1-0.1,0.2-0.1
		c0.1,0.1,0,0.3,0.1,0.4c0.1-0.2,0-0.6,0-0.9c0.1,0,0.2,0,0.2,0c0,0.2-0.1,0.7,0.1,0.8c0.1-0.1-0.1-0.5,0.1-0.6c0.1,0,0.1,0,0.1,0
		c0,0.1,0,0.2,0,0.3c0.2-0.1,0,0.2,0.2,0.2c0.1,0,0-0.2,0-0.3h0.2c0-0.1,0.1-0.2,0.2-0.2v-0.3c0.1,0,0.1,0,0.1,0v-0.3H32
		c0-0.1,0-0.1,0.1-0.1v-0.3c0.1,0,0.1,0,0.2,0c0-0.1,0-0.3,0-0.4h0.1c0,0.2-0.1,0.5,0,0.6v8h0C32.4,35.8,32.4,35.8,32.5,35.9
		L32.5,35.9z M28.3,7.1c0.1,0,0.1,0,0.2,0v1.3c0,0.4-0.1,0.9,0.1,1.2c0.1-1.1-0.1-2.4,0.1-3.5c0.1,0.3,0.1,0.8,0.1,1.2
		c0,1.4,0,3.1,0,4.4h-0.1c-0.1,0,0-0.2-0.1-0.2c-0.1,0.2,0.1,0.6-0.1,0.8l0,0V7.1z M28.3,13.5v4.2c0,0,0,0,0.1,0
		c0-0.2-0.1-0.4,0-0.5c0.1,0.2,0,0.7,0,1c0.1,0,0.1-0.1,0.2-0.1c0-0.2,0-0.5,0-0.7c0,0,0.1,0,0.1,0c0-0.1,0-0.2,0-0.3
		c0.2,0.1,0,0.4,0.1,0.6c0,0.1,0.1,0,0.2,0c0-0.3-0.1-0.7,0-0.9c0.2,0.3-0.1,1,0.1,1.2c0,0.1-0.1,0.3,0.1,0.3c0.1-0.3,0-0.7,0-0.9
		c0.2,0,0,0.3,0.1,0.5c0,0.1,0.1,0,0.2,0v0.5c0,0.1,0.1,0,0.2,0c0.1-0.2,0-0.5,0-0.7H30c0-0.1-0.1-0.3,0-0.3c0.1,0,0,0.2,0,0.3
		c0,0.1,0.1,0,0.2,0v0.6c0.1,0,0.1,0.1,0.2,0.1c0.1-0.1,0-0.4,0.1-0.5c0.1,0.2,0,0.5,0,0.8c0.1,0,0.1,0.1,0.1,0.1
		c0.1-0.2,0-0.6,0.1-0.8c0.1,0,0,0.2,0.1,0.2c0.1,0,0.1-0.1,0.2-0.1v-0.2c0.2,0.1,0-0.2,0.1-0.2c0.1,0,0,0.1,0.1,0.2h0.2v0.6
		c0,0.1,0.1,0,0.2,0v0.4c0,0.1,0.1,0.1,0.1,0v0.3c0,0.1,0.1,0,0.2,0c0-0.1-0.1-0.4,0-0.4c0.1,0,0,0.3,0.1,0.4c0,0.1,0.1,0,0.2,0v0.5
		c0,0,0.1,0,0.2,0v-0.2c0-0.1-0.1-0.2,0-0.3v-6.6c0,0,0,0,0,0c0,0.1,0,0.3,0,0.4c-0.2,0,0-0.3-0.1-0.4c-0.1,0-0.1,0-0.2,0v0.3
		c-0.2-0.1,0,0.2-0.2,0.1c0,0.1,0,0.2,0,0.3c-0.1,0-0.1-0.2-0.1-0.4v-0.4c-0.2,0-0.1,0.3-0.1,0.5c-0.1-0.1-0.1,0.1-0.1,0.1
		c-0.1-0.6-0.1-1.6,0-2.2c0.1,0,0,0.3,0.1,0.3c0.1,0,0-0.2,0.2-0.1c0-0.2-0.1-0.6,0-0.7c0.1,0.1,0,0.6,0.1,0.7
		c0.1-0.1,0-0.5,0.1-0.6c0.2,0,0,0.3,0.1,0.4c0,0,0.2,0,0.2,0c0-0.2,0-0.5,0-0.6c0.2,0.1,0,0.6,0.1,0.8c0,0,0,0,0,0V7.9
		c-0.1-1.1,0-2.6-0.1-3.7c-0.1,0.1-0.1,0.3-0.1,0.4c0,1.1,0,2.2,0,3.2c-0.1-0.9,0-1.9-0.1-2.9c0-0.1-0.2,0-0.2,0c0-0.5,0.1-1,0-1.4
		c-0.1,1.1,0,2.6-0.1,3.8c-0.1-0.8,0-1.9-0.1-2.6c-0.1,0.1-0.1,0.3-0.1,0.4c0,1.1,0,2.3,0,3.3c-0.1-0.4,0-1.1-0.1-1.5
		c-0.1,0.1-0.1,0.2-0.1,0.3c0,1,0,2.1,0,3c-0.1,0-0.1-0.2-0.1-0.3c-0.1-1.7,0.1-3.6,0-5.2c-0.1,1.1,0,2.5-0.1,3.6
		c-0.1-0.3,0-0.8-0.1-1.2c-0.2,0-0.1,0.3-0.1,0.4c0,0.5,0,1,0,1.5C30.9,8.5,31,8,31,7.5c0-0.5,0-1.1,0-1.5c-0.1,0-0.1,0.2-0.1,0.3
		c0,0.9,0,1.9,0,2.7c-0.1,0-0.1-0.2-0.1-0.2c-0.1-1.6,0.1-3.4,0-5c-0.1,0.1-0.1,0.3-0.1,0.4c0,1.1,0,2.3,0,3.3
		c-0.1-1.1,0-2.6-0.1-3.7c-0.1,0.1-0.1,0.3-0.1,0.4c0,1.1,0,2.3,0,3.3c-0.1-0.8,0-1.8-0.1-2.6c-0.1,0.1-0.1,0.3-0.1,0.4
		c0,1.1,0,2.2,0,3.2c0,0.1-0.1,0-0.1,0.1c0,0.5,0,1.1,0,1.6c-0.1,0-0.1-0.2-0.1-0.2c0-0.7,0-1.6,0-2.2c-0.1,0-0.1,0-0.1,0
		c-0.1,0.2,0.1,0.7-0.1,0.9c-0.1,0,0-0.2-0.2-0.1c0-0.6,0-1.2,0-1.7c-0.1,0.1-0.1,0.2-0.1,0.3c0,1,0.1,2.1,0,3
		c-0.1-2.2,0-4.6-0.1-6.9h-0.2c-0.1,1,0,2.3,0,3.3H29V3.2h-0.2c-0.1,1.2,0,2.5,0,3.7c0,0,0,0.1-0.1,0.1c0,1.5-0.1,3,0,4.5
		c0.1,0.1,0.1,0.3,0.1,0.4c0.2-0.1,0-0.5,0.1-0.7c0.1,0,0.1-0.2,0.1-0.2c0.1,0.1,0,0.3,0,0.5c0.2,0.1,0.1,0.3,0.2,0.4v0.4
		c0.1,0,0.1,0.1,0.1,0.1c0.1-0.3,0-0.8,0.1-1.1c0.2,0,0,0.4,0.2,0.3c0,0.1,0,0.3,0,0.4c0.2-0.4,0-1,0.1-1.4c0.1,0.1,0,0.4,0.1,0.5
		c0.2,0,0-0.3,0.1-0.4c0.1,0,0,0.1,0.2,0.1v0.7c0.2,0.1,0,0.5,0.1,0.6c0.2-0.4,0-1.2,0.1-1.6c0.2,0.1-0.1,0.5,0.1,0.5
		c0,0.2-0.1,0.5,0,0.6c0.1-0.2,0-0.5,0-0.7c0.1,0,0.1-0.2,0.1-0.3c0.1,0.1,0,0.5,0,0.7c0,0.1,0.1,0,0.1,0.1c0,0.3-0.1,0.8,0.1,1
		c0.1-0.2,0-0.7,0.1-0.9c0.2,0-0.1,0.5,0.2,0.5v1.5c-0.1,0-0.1,0.3-0.1,0.4c-0.2,0.1,0-0.2-0.1-0.2c-0.1,0,0,0.2-0.2,0.1
		c0,0.2,0.1,0.4,0,0.4c-0.1-0.1-0.2-0.2-0.2-0.3h-0.1c-0.1,0.1,0,0.5,0,0.6c-0.1,0-0.1-0.2-0.1-0.2c0-0.3,0-0.8,0-1
		c-0.4,0.1,0,0.9-0.2,1.1c-0.1,0,0-0.3-0.1-0.4c-0.1,0,0,0.2-0.2,0.1c0,0.2,0,0.4,0,0.5c-0.1-0.1-0.1-0.3-0.1-0.4c0-0.2,0-0.4,0-0.5
		c-0.2,0,0,0.2-0.2,0.1v0.6h-0.2c0,0.2,0,0.4,0,0.5c-0.1,0-0.1-0.1-0.1-0.2c0-0.3,0-0.5,0-0.7c-0.1,0,0,0.3-0.2,0.2
		c0,0.1,0.2,0.1,0.1,0.3c-0.2,0.1-0.2-0.1-0.3-0.1c0-0.2,0.1-0.6,0-0.7c-0.1,0.1,0,0.4-0.2,0.4c0,0.1,0.1,0.3,0,0.4
		c-0.1,0,0-0.3-0.2-0.2c-0.2-0.1,0,0.2-0.1,0.2C28.2,14.1,28.4,13.7,28.3,13.5L28.3,13.5z M28.3,33.3c-0.1,0.1,0,0.4,0,0.6
		C28,33.8,28.1,33.9,28,34c-0.1,0,0-0.1-0.1-0.1c-0.1,0.2,0,0.4-0.1,0.6c-0.2,0,0,0.3-0.1,0.3c-0.2-0.2,0-0.7-0.1-0.9h-0.1
		c-0.1,0.6,0,1.3,0,1.9c-0.2,0-0.1,0.4-0.2,0.4c-0.1-0.1-0.2-0.3,0-0.4v-0.5c0-0.2,0.1-0.4-0.1-0.5c-0.1,0.1,0.1,0.4-0.1,0.4
		c-0.1-0.6,0-1.4-0.1-1.9c-0.1,0.2,0.1,0.5-0.1,0.6V29c0.1,0.1,0.1,0.1,0.2,0.2c-0.1,0.1-0.1,0.2-0.1,0.4c0.1,0,0.1,0.1,0.1,0.2
		c0.2,0,0.1,0.2,0.1,0.3c0,0,0.1,0,0.1,0v1c0.1,0,0.1,0.1,0.1,0.1c0.1,0,0.2,0,0.2,0c0,0.1-0.1,0.3,0,0.3c0.1-0.1,0-0.4,0-0.5
		c0.1,0,0.2,0,0.2,0v0.6c0,0.2-0.1,0.5,0.1,0.6c0.1-0.3,0-0.6,0-0.9c0.2,0.1,0.1-0.1,0.2-0.1c0-0.2,0.1-0.2,0.1-0.3
		c-0.1,0-0.1-0.4,0-0.4c0.1,0,0,0.1,0,0.1h0v1.1c0,0-0.1,0,0-0.1h-0.1c0,0.1-0.1,0.3,0,0.3c0-0.1,0-0.1,0.1-0.1V33.3z M26.8,5.2
		C26.8,5.2,26.9,5.2,26.8,5.2l0,1.5c0,0.1,0.1,0,0.1,0.1v1.5c0,0.1-0.1,0.4,0.1,0.4c0.1-1.1-0.1-2.4,0.1-3.5
		c0.1,0.1,0.1,0.4,0.1,0.6c0,0.6,0,1.4,0,1.9c0.1-1,0-2.2,0-3.3c0-0.1-0.1-0.3,0.1-0.4c0.1,1.9,0,4.1,0.1,6c0.1-0.3,0-0.8,0-1.1
		c0-0.1-0.1-0.3,0.1-0.3c0.1,0.1,0,0.5,0.1,0.5c0.1-0.9,0-2,0-3.1c0-0.1-0.1-0.3,0.1-0.3c0.1,1.1,0,2.6,0.1,3.8c0-1,0-2.1,0-3.1
		c0-0.1-0.1-0.3,0.1-0.4c0.1,1,0,2.4,0.1,3.5c0-1,0-2.1,0-3.1c0-0.1-0.1-0.3,0.1-0.4c0.1,0.2,0,0.7,0,1c0,0,0,0,0,0v5.1
		c-0.1-0.1,0-0.3-0.1-0.3c0-0.1,0.1-0.4-0.1-0.4c-0.1,0.1,0,0.4-0.1,0.5c-0.4,0.1,0-0.5-0.2-0.6c-0.1,0.1,0,0.6-0.1,0.7
		c-0.1,0,0-0.3-0.1-0.2c0,0.2,0.1,0.4,0,0.5c-0.1,0-0.1,0-0.1,0c-0.1,0,0-0.2-0.1-0.2c0,0.5-0.1,1.2,0,1.7c0.1-0.1,0.1-0.3,0.2-0.3
		c0.1,0.1,0,0.4,0,0.5c0.2-0.1,0.2,0.1,0.3,0.1c0,0,0-0.1,0.1-0.1c0-0.3-0.1-0.6,0.2-0.6c0.1,0.1-0.1,0.4,0.1,0.4
		c0.1-0.1,0-0.4,0.1-0.4v4.2c-0.1,0,0,0.2-0.1,0.1c0,0.3,0,0.6,0,0.8c-0.1,0-0.1-0.1-0.2-0.1c0-0.3,0.1-0.7,0-0.9
		c-0.1,0,0,0.3-0.1,0.4c-0.1,0-0.1,0-0.2,0c0-0.1,0.1-0.2,0-0.2c-0.1,0,0,0.3-0.1,0.3c-0.1,0-0.2,0-0.2,0c0-0.1,0.1-0.3,0-0.3
		c-0.1,0,0,0.2-0.1,0.2c-0.1,0-0.1,0-0.2,0c0-0.1-0.1-0.2-0.1-0.3c0.2-0.1,0.1-0.4,0.1-0.6h0.2c0,0.1,0,0.1,0.1,0.1
		c0.1-0.1,0-0.4,0.1-0.5c0.1,0,0.1,0,0.2,0c0,0.1,0,0.1,0.1,0.1c0-0.1,0.2,0,0.2-0.1c-0.1-0.1-0.2-0.2-0.2-0.2c-0.1,0,0,0.1-0.1,0.1
		c-0.1,0-0.1-0.1-0.1-0.1c0-0.1,0.1-0.3,0-0.3c-0.1,0,0,0.2,0,0.3H27c0-0.1,0-0.1,0-0.2c0,0-0.1,0-0.1,0v-0.3c0-0.1,0.1-0.1,0.2-0.1
		v-0.3h0.2c0,0.1,0,0.2,0,0.2c0.1,0,0-0.2,0-0.3c0.2,0,0.2-0.2,0.3-0.3c-0.1-0.1-0.2,0-0.3,0c0,0,0-0.1-0.1-0.1c-0.1,0,0,0.2,0,0.3
		H27c0-0.1,0-0.2,0-0.2c-0.1,0,0,0.2,0,0.3h-0.1v-1.2c0,0,0,0,0.1,0c0,0,0,0.1,0,0.1c0.1-0.1,0-0.4,0-0.6h0.1v-0.5c0,0-0.1,0-0.1,0
		v-1h-0.1v0.5c0,0,0,0-0.1,0v-2.5c0,0,0,0,0,0.1c0.1-0.4,0-1,0-1.4h0V5.2z M26.8,28.8v-4.6h0.1c0-0.1,0-0.2,0-0.3
		c0.2,0,0.1-0.3,0.1-0.4c0.1,0,0.2,0,0.2,0c0,0.4-0.1,0.9,0.1,1.2c0.1,0,0-0.2,0.1-0.2h0.4v0.3h-0.1v0.3h-0.1V26
		c-0.1,0-0.1,0.2-0.1,0.3h-0.1v1.6c-0.2,0-0.1,0.3-0.1,0.4h-0.1v0.2c-0.2-0.1,0,0.2-0.2,0.1L26.8,28.8
		C26.9,28.7,26.9,28.8,26.8,28.8 M26.8,19.5L26.8,19.5c0,0.1,0,0.2,0.2,0.2V20c0.1,0,0.1,0,0.2,0c0-0.3,0-0.7,0-0.9
		c0.1,0,0.1,0.1,0.1,0.2h0.3v0.3c0,0.1,0.1,0,0.2,0v-1c-0.1,0-0.1-0.1-0.1-0.1c-0.1,0,0,0.2-0.1,0.2c-0.1,0,0-0.2,0-0.3
		c0-0.1-0.1,0-0.2,0c-0.1,0,0,0.2-0.1,0.2c-0.1,0-0.1-0.1-0.2-0.2c-0.1,0.1,0,0.4-0.1,0.5c-0.1-0.1,0-0.5,0-0.7c0,0,0,0-0.1-0.1
		V19.5z M26.8,33.9C26.8,33.9,26.8,33.9,26.8,33.9c-0.1,0.3,0.1,0.8-0.2,0.9c0,0.1,0.1,0.3,0,0.4c-0.1-0.3,0-0.8,0-1.2
		c0-0.1,0.1-0.3-0.1-0.3c-0.1,0.1,0.1,0.5-0.1,0.6c-0.1-0.3,0-1-0.1-1.3c-0.1,0-0.1,0-0.1,0V21.5c0,0,0,0,0.1,0.1v0.3
		c0.2,0,0.1,0.3,0.1,0.4c0.2,0,0.1,0.1,0.1,0.2c0,0,0.1,0,0.1,0v1.1c0.2,0,0,0.4,0.1,0.6h0.2v4.6c-0.1,0-0.1,0.1-0.2,0.2
		c0.1,0,0.1,0.1,0.2,0.1V33.9z M26.2,6.1L26.2,6.1c0.1,0.6,0,1.3,0.1,1.9c0,0.1,0.1,0,0.1,0.1c0,0.5-0.1,1.2,0,1.7
		c0.1-1,0-2.4,0.1-3.5c0.1,0.7,0,1.7,0.1,2.5c0.1-1,0-2.4,0.1-3.5c0.1,0,0.1,0,0.1,0v3.5h0c0,0.4-0.1,1,0,1.4v2.5
		c-0.1,0-0.1,0.1-0.2,0.1c-0.1,0,0-0.2-0.1-0.2c-0.1,0,0,0.2-0.1,0.1c-0.1,0,0-0.2-0.1-0.1c-0.1,0.1,0,0.3,0,0.4h-0.1v-2
		c0,0,0,0,0,0v-0.1h0V6.1z M26.8,14.2v1.2h-0.2c0,0.1,0,0.3,0,0.3c-0.2,0,0-0.4-0.1-0.4c0,0.1-0.1,0.1-0.1,0.2
		c0.1,0,0.1,0.2,0.1,0.3c-0.2,0-0.2,0.1-0.3,0.1v-1.3c0,0,0,0,0,0c0.1,0,0,0.2,0.1,0.2c0.1-0.1,0.1-0.2,0.1-0.3h0.2
		c0-0.1-0.1-0.4,0-0.4C26.7,14.1,26.7,14.2,26.8,14.2 M26.8,15.9c0,0.1-0.1,0.2-0.1,0.3c0,0,0,0,0.1,0V15.9z M26.8,18.1v1.4h-0.2
		v0.3c0,0-0.1,0-0.1,0v0.6h-0.2c0-0.1,0-0.2-0.1-0.2c-0.1,0.2,0.1,0.3,0.1,0.5h-0.1c0,0.1,0,0.3,0,0.3c0,0,0,0,0,0v-4.4
		c0,0,0,0,0-0.1c0,0,0,0,0-0.1v-0.1h0.2c-0.1,0.1,0.1,0.1,0.1,0.1c0,0.1-0.1,0-0.1,0.1v0.1c0.1,0,0.1,0.1,0.1,0.2c0,0,0.1,0,0.1,0
		v0.4c0.2,0,0,0.4,0.1,0.6C26.8,18,26.8,18.1,26.8,18.1 M26.2,33C26.2,33,26.2,33,26.2,33c-0.1,0.3,0,0.6,0,0.9
		c-0.3,0,0,0.6-0.2,0.6c0-0.1,0-0.3,0-0.5c0-0.2,0.1-0.4-0.1-0.4c-0.1,0.1,0.1,0.5-0.1,0.6l0,0V16.1c0,0,0,0,0.1,0v0.2
		c0.1,0,0.2,0,0.2,0v0.3c0,0,0.1,0,0.2,0v4.4c-0.1,0-0.1,0-0.1,0c0,0.1-0.1,0.1-0.1,0.1c0,0.2,0.1,0.3,0.3,0.4V33z M25.8,7.3
		L25.8,7.3l0.1-0.9c0.1,0,0.1,0,0.2,0c0-0.1,0-0.3,0-0.3h0.1v4.8h0c0,0.1,0,0.1,0,0.1v2h-0.1c0,0.1,0,0.3,0,0.4c0,0-0.1,0-0.1,0v1
		c0.2,0,0.1,0.1,0.1,0.2c0.1,0,0.1,0,0.2,0v1.3c0,0,0,0,0,0c0-0.1,0.1-0.3-0.1-0.3c-0.1,0,0,0.2-0.1,0.2c-0.1-0.2,0-0.6-0.1-0.8
		c-0.1,0-0.1,0-0.2,0V9.7c0,0,0.1,0,0.1-0.1c0,0,0,0-0.1,0V7.3z M26.2,16.4L26.2,16.4C26.2,16.5,26.2,16.5,26.2,16.4L26.2,16.4z
		 M25.8,34.2c-0.1-0.4,0.1-1.2-0.1-1.5c-0.1,0.2,0.1,0.6-0.1,0.7c-0.1-0.4,0-0.9-0.1-1.2V15.7c0.1,0,0.1,0,0.2,0v0.4
		c0,0,0.1,0,0.1,0V34.2z M25.5,8.3c0.1,0,0.1,0,0.2,0v-1h0.1v2.4c0,0,0,0,0,0c0,0,0,0.1,0,0.1V15c0,0,0,0,0,0c0-0.6,0-1.4,0-2h-0.1
		v0.4h-0.2v-2c0,0,0,0,0,0c0.1-0.2,0-0.6,0-0.8h0V8.3z M25.5,32.1C25.5,32.1,25.5,32.1,25.5,32.1c-0.1,0,0,0.2-0.1,0.3
		c-0.1,0,0-0.1-0.1-0.1c-0.1,0.2,0.1,0.6-0.1,0.7c-0.1-0.1,0.1-0.4-0.1-0.5c0,0,0,0,0,0V15.7c0,0,0.1,0,0.2,0c0,0.2-0.1,0.6,0,0.7
		c0.1-1.1,0.1-2.4,0-3.4h0v0.5c-0.1,0-0.1,0-0.2,0v-6c0-0.1,0.1-0.1,0.1-0.1c0.1,0,0,0.2,0,0.2c0.1,0,0.2-0.1,0.2,0
		c0,0.2,0,0.5,0,0.7c0,0,0,0,0,0v2.3h0c0,0.2-0.1,0.6,0,0.8v2h0c0,0.6,0,1.5,0,2.2c0,0,0,0,0.1,0V32.1z M25.1,14.9c0,0,0.1,0,0.2,0
		v-0.8c0,0-0.1,0-0.2,0V14.9z M25.1,32.5c-0.1,0.1,0.1,0.6-0.1,0.7c-0.1-1.1,0-2.4-0.1-3.5c0,0.7,0,1.5,0,2.2h-0.2
		c0,0.2,0.1,0.6-0.1,0.7c0-0.4,0-0.9,0-1.4c0-0.1,0.1-0.3-0.1-0.4V12.9c0,0,0,0,0,0.1c0.1-0.5,0-1.1,0-1.7h0v-1c0,0,0,0.1,0,0.1h0.1
		c0.1-0.7,0-1.6,0-2.4h0.2v3.6c0,0.1-0.1,0.3,0.1,0.4c0.1-1,0-2.1,0-3.2c0,0,0.1,0,0.1-0.1c0.1-0.3-0.1-1,0-1.3v6
		c0,0-0.1,0.1-0.1,0.1c-0.1,0,0-0.2-0.1-0.2c-0.1,0.2,0,0.6,0,0.7c0.1-0.1,0-0.4,0.1-0.4c0.1,0.1,0.1,0.2,0.1,0.3c0,0,0,0,0,0v0.8
		c0,0-0.1,0-0.1,0c0-0.1,0-0.2-0.1-0.1c0,0.2,0,0.4,0,0.6c0,0.2-0.1,0.5,0.1,0.6c0.1-0.1,0-0.3,0.2-0.3c0,0,0,0,0,0V32.5z M24.5,31
		L24.5,31c-0.1,0.3,0.1,0.6,0,0.9c0,0-0.1,0.1-0.1,0.1c0,0.2,0,0.3,0,0.4c-0.2,0,0,0.3-0.2,0.3c0-0.2,0-0.4,0-0.7
		c0-0.2,0.1-0.4-0.1-0.4c-0.1,0.4,0,0.8,0,1.2c-0.1,0-0.1,0.1-0.2,0.1V10.3c0,0,0,0,0,0v-0.1h0V7.1c0.1,0,0.1,0,0.2,0
		c0,1.6-0.1,3.4,0,5c0.1-0.9,0-2.2,0.1-3.2c0.2,0.7-0.1,1.8,0.1,2.5c0.1-0.9,0-2,0-2.9c0-0.1-0.1-0.3,0.1-0.3c0.1,0.6,0,1.6,0.1,2.3
		v1h0c0,0.5-0.1,1.1,0,1.6V31z M23.9,32.9C23.8,32.9,23.8,32.9,23.9,32.9c-0.1,0.2,0.1,0.5-0.1,0.6c0-0.4-0.1-1.1,0-1.5
		c0-0.1-0.1,0-0.2,0c0,0.2,0.1,0.6,0,0.7c-0.2-0.1,0.1-0.8-0.1-0.9c-0.1,0.2,0.1,0.6-0.1,0.7c-0.2-0.1,0.1-0.6-0.1-0.7
		c-0.2,0.1,0.1,0.6-0.1,0.7c-0.1-0.3,0.1-0.9-0.1-1.1c0.1-0.2,0-0.4,0-0.6h-0.2v0.9c-0.3,0,0,0.6-0.2,0.7v-1.7c0,0,0,0,0,0
		c0.1-0.4,0-0.8,0-1.2h0V11.3c0,0,0,0.1,0,0.1c0.1-1,0-2.3,0.1-3.3c0.1,1.5,0,3.2,0,4.8c0,0.1-0.1,0.2,0.1,0.2
		c0.1-0.4-0.1-1,0.1-1.3c0.2,0.1,0,0.5,0.1,0.6c0-0.6,0-1.4,0-2.1c0-0.2-0.1-0.5,0.1-0.6c0.1,0.5-0.1,1.2,0.1,1.6c0.1-0.9,0-2,0-3
		c0-0.1,0-0.3,0.1-0.3c0.1,1-0.1,2.3,0.1,3.3c0.1-1,0-2.3,0.1-3.3c0.1,0.4,0.1,1,0.1,1.6c0,0.5,0,1.1,0,1.6c0.1-1,0-2.1,0-3.2
		c0,0,0.1,0,0.1-0.1c0-0.3,0-0.6,0-0.9l0,0v3.2h0c0,0.1,0,0.1,0,0.1V32.9z M22.6,32.5C22.6,32.5,22.6,32.5,22.6,32.5
		c-0.1-0.4,0-1.1-0.1-1.5c-0.2,0.2,0.1,0.8-0.1,0.8c-0.1-0.4,0-1.1-0.1-1.6c-0.1,0.1,0,0.2-0.1,0.3v0.3c0,0.1-0.1,0-0.1,0.1
		c0,0.3,0.1,0.7,0,0.9c-0.1,0,0-0.2-0.1-0.3c-0.1-0.1,0-0.3-0.1-0.3c-0.1,0,0,0.2,0,0.3c-0.2-0.1,0,0.2-0.2,0.1c0,0.2,0,0.2-0.1,0.2
		c0,0.2,0.1,0.6-0.1,0.8c-0.1-0.2,0.1-0.7-0.1-0.8c-0.1,0.2,0.1,0.7-0.1,0.7c-0.1-0.5,0.1-1.1-0.1-1.6c-0.1,0.2,0,0.7-0.1,0.8
		c-0.1-0.7,0-1.7,0-2.5c0-0.1,0.1-0.3-0.1-0.3c-0.1,0.1,0,0.4-0.1,0.4c0.1,0.6-0.2,0.9-0.3,1.4c-0.1-0.1,0-0.5,0-0.7
		c-0.2,0,0-0.4-0.1-0.5c-0.1,0.4,0,1-0.1,1.4c-0.1,0,0-0.2-0.2-0.1v0.4c0,0.1,0.1,0.4-0.1,0.4c-0.1-0.4,0-0.9-0.1-1.4
		c-0.1,0-0.2,0-0.2,0c0-0.2,0-0.3,0.1-0.3c0-0.1-0.1,0-0.1-0.1c0-0.1,0.1,0,0.1-0.1c0-0.1-0.1,0-0.1-0.1v-0.5c0-0.1,0.1,0,0.1-0.1
		c0,0-0.1,0-0.2-0.1v1c-0.2-0.1-0.1,0.1-0.2,0.1c0,0.3,0,0.6,0.1,0.8h-0.2c0-0.8,0.1-1.4,0.1-2.2c-0.1,0-0.2,0-0.2,0v-0.6
		c-0.1,0-0.2,0-0.2,0c0-0.1,0.1-0.4,0-0.5c-0.1,0,0,0.1-0.1,0.1c-0.1,0,0-0.2-0.1-0.2c-0.1,0,0,0.2-0.1,0.1
		c-0.1-0.2,0.1-0.7-0.1-0.7c-0.1,0.3,0,0.7,0,1.1c0,0.1,0.1,0.3-0.1,0.3c0-0.4,0-0.9,0-1.4c0-0.1,0.1-0.3-0.1-0.4
		c-0.1,0.4,0.1,1-0.1,1.3c-0.2-0.5,0-1.4-0.1-1.9c-0.1,0.3,0,0.9-0.1,1.1c-0.1-0.2,0-0.8-0.1-1c-0.1,0.1,0,0.5-0.1,0.6
		c-0.1-0.1-0.1-0.3-0.3-0.3c0-0.1,0-0.2,0-0.2c-0.2,0-0.2,0.2-0.3,0.3c-0.1,0,0-0.3-0.1-0.4c-0.1,0.2,0.1,0.6-0.1,0.7
		c-0.1,0,0-0.2,0-0.3c0-0.1-0.1,0-0.1-0.1c0-0.5,0.1-1.2-0.1-1.6c-0.1,0.6,0,1.5-0.1,2c-0.2-0.1,0.1-0.7-0.1-0.8v-0.3
		c0.1,0,0-0.1,0-0.2h0v-9.8h0.1c0,1,0,2.2,0.1,3.2c0-0.8,0-1.8,0-2.8c0-0.3-0.1-0.6,0.1-0.8c0.1,0.4,0,1.1,0.1,1.5
		c0.1-0.4,0-1,0-1.4c0.1,0.1,0-0.1,0.2-0.1c0,0.5,0,1.1,0,1.6c0,0.1-0.1,0.4,0.1,0.4c0.1-0.5,0-1.1,0-1.6c0.2,0,0.1-0.3,0.1-0.4h0.2
		v-0.3h0.2c0-0.1-0.1-0.4,0.1-0.4c0.2,0.6,0,1.6,0.1,2.2c0-0.6,0-1.4,0-2c0-0.2-0.1-0.5,0.1-0.6c0.1,0.5,0,1.3,0.1,1.8
		c0-0.7,0-1.6,0-2.3c0-0.1-0.1-0.3,0.1-0.3c0.1,0.6,0,1.3,0,2c0,0-0.1,0.2,0.1,0.2c0.1-0.7,0-1.6,0-2.4c0-0.1-0.1-0.3,0.1-0.3
		c0.1,0.6,0,1.6,0.1,2.2c0.1-0.8-0.1-2,0.1-2.8c0.1,0.5,0.1,1.1,0.1,1.7c0,0.6,0,1.2,0,1.7c0.1-0.7,0-1.7,0-2.5
		c0-0.1-0.1-0.3,0.1-0.3c0.1,0.5,0,1.3,0.1,1.7c0.1-0.8,0-1.9,0-2.9h0.2c0-0.2-0.1-0.5,0.1-0.6c0.1,0.4,0,1.2,0.1,1.7
		c0-0.8,0.1-1.7,0-2.5c0-0.2-0.1-0.4,0.1-0.5c0.1,1.5-0.1,3.3,0,4.9c0,0.1-0.1,0.2,0.1,0.2c0.1-0.4,0-1,0-1.5c0.1,0,0.1,0,0.2,0
		c0-0.9,0-1.8,0-2.7c0-0.1-0.1-0.3,0.1-0.3c0.1,0.4,0,1.2,0.1,1.7c0-0.5,0-1.1,0-1.6c0-0.5-0.1-1.1,0.1-1.6c0.1,1.2,0,2.8,0.1,4
		c0.1-0.8,0-1.9,0-2.9c0-0.1-0.1-0.3,0.1-0.3c0.1,0.9,0,2,0,3c0,0.1-0.1,0.3,0.1,0.3c0.1-0.4,0.1-1,0-1.5c0-0.1-0.1-0.3,0-0.4
		c0,0.4,0,1.2,0,1.7c0,0.2-0.1,0.4,0.1,0.5c0.1-0.8,0-1.8,0-2.7c0-0.1-0.1-0.3,0.1-0.3c0.2,1.3,0,2.8,0,4.2c0,0-0.1,0.2,0.1,0.2
		c0.1-0.8,0-1.8,0-2.7c0.1,0,0.1-0.1,0.2-0.1c-0.1-1-0.1-2-0.1-3.1c0.1,0,0.2,0,0.2,0c0-0.3,0-0.7,0-0.9c0.1,0,0,0.1,0.1,0.1
		c0-0.1,0.1-0.1,0.2-0.1v1.6c0.1,0,0.3,0,0.3,0c0,0.7,0,1.4,0,2.1c0,0.1-0.1,0.2,0.1,0.2c0.1-0.8,0-1.9,0-2.8c0-0.1-0.1-0.3,0.1-0.3
		c0.1,1.3-0.1,2.8,0,4.2c0,0-0.1,0.2,0.1,0.2c0.1-0.9-0.1-2.1,0.1-3c0.1,0.3,0.1,0.9,0.1,1.3c0,0.1-0.1,0.3,0,0.3
		c0.1-0.9,0-1.9,0-2.9c0-0.1,0-0.3,0.1-0.3c0.1,0.7,0,1.6,0.1,2.4v18.4h0c0,0.4-0.1,0.9,0,1.2V32.5z M16.6,26.1
		C16.6,26.1,16.6,26.1,16.6,26.1c-0.1,0.1,0,0.4-0.1,0.4c-0.1-0.3,0-0.8,0-1.2c-0.3-0.1-0.2,0.2-0.4,0.2v0.3c-0.2,0-0.2,0.2-0.3,0.3
		c-0.1-0.1,0-0.2,0-0.4c-0.2,0.1-0.2-0.1-0.3-0.1c-0.1,0.1,0.1,0.5-0.1,0.6c-0.1-0.3,0-0.9-0.1-1.4c0-0.1,0.1-0.3-0.1-0.4
		c0,0.5,0,1.1,0,1.6c0,0.2,0.1,0.4-0.1,0.5c-0.1-0.1,0-0.5,0-0.7c-0.2-0.1-0.2,0.1-0.3,0.1v-0.6h-0.2c0,0.1,0.1,0.4-0.1,0.4
		c-0.2-0.1,0.1-0.6-0.1-0.6c-0.1,0.3,0.1,0.9-0.1,1.1c-0.1-0.1-0.1-0.4-0.1-0.6c0-0.2,0.1-0.5-0.1-0.6c-0.1,0.1,0.1,0.5-0.1,0.5
		c0-0.2,0-0.5,0-0.7c-0.1,0-0.1-0.1-0.2-0.1c-0.1,0.1,0.1,0.5-0.1,0.6c-0.1-0.2,0-0.5,0-0.8h-0.2c-0.1,0,0.1,0.3-0.1,0.3
		c-0.1-0.1,0.1-0.4-0.1-0.4c-0.2,0.1,0.1,0.6-0.1,0.6c-0.1-0.2,0-0.6,0-0.8c-0.1,0.1-0.1-0.1-0.1-0.1c-0.1,0.2,0.1,0.6-0.1,0.7
		c-0.1-0.2,0-0.7-0.1-0.9c-0.1,0.1,0,0.6-0.1,0.7c-0.2-0.2,0.1-0.8-0.1-0.9h-0.1c-0.1,0.1,0,0.5-0.1,0.6c-0.1-0.1,0.1-0.6-0.1-0.7
		c-0.1,0.1,0.1,0.4-0.1,0.5c-0.2-0.1,0.1-0.7-0.2-0.6c-0.1,0.1,0.1,0.4-0.1,0.4c-0.1-0.1,0-0.5-0.1-0.6c-0.1,0.1,0,0.3-0.1,0.3
		c-0.1,0,0-0.2-0.1-0.1c-0.1,0,0,0.2-0.1,0.2c-0.1,0,0-0.2,0-0.3h-0.2c0-0.1,0-0.2,0-0.2c-0.1,0,0,0.2-0.1,0.2H11
		c0-0.2-0.1-0.3-0.2-0.4c0,0.1-0.1,0.1-0.2,0.1c-0.1,0,0,0.1-0.1,0.1c-0.1,0,0-0.2-0.1-0.2c-0.2-0.1-0.1,0.1-0.2,0.1
		c-0.1-0.1,0-0.3-0.1-0.3c-0.1,0,0,0.2-0.1,0.2c-0.1,0,0-0.2-0.1-0.2c-0.1,0,0,0.2-0.1,0.2c-0.1,0-0.1-0.1-0.1-0.2
		c-0.2,0-0.2,0-0.2-0.1c0,0.2-0.4,0.1-0.4,0H8.6c-0.1,0,0,0.1-0.1,0.1c-0.1,0.1-0.1-0.1-0.2-0.1c-0.1,0,0,0.2-0.1,0.1
		c-0.1,0,0-0.1-0.1-0.1c-0.1,0-0.2,0-0.3,0c0-0.1,0-0.2,0-0.2c-0.1,0.1-0.2,0.1-0.2,0.2c-0.1-0.2-0.6-0.2-0.7,0
		c-0.1,0,0-0.2-0.1-0.2c-0.1,0,0,0.2-0.1,0.2c-0.1-0.1-0.3-0.1-0.4-0.2c-0.1,0-0.1,0.1-0.2,0.1c-0.1,0,0-0.2-0.1-0.1
		c-0.1,0,0,0.3-0.1,0.2c-0.1-0.1-0.1-0.2,0-0.3c-0.1,0-0.1,0.2-0.3,0.1c-0.1,0,0-0.2-0.1-0.1c-0.1,0,0,0.2-0.1,0.1
		c-0.1,0,0-0.2-0.1-0.1H5c-0.1,0,0,0.1-0.1,0.1c-0.1,0,0-0.2-0.1-0.2c-0.2-0.1-0.1,0.1-0.2,0.1c-0.1,0,0-0.1-0.1-0.1
		c-0.1,0,0,0.1-0.1,0.1c-0.1-0.2-0.7,0.1-0.9-0.2c-0.1,0,0,0.2-0.1,0.1c-0.1-0.2-0.7-0.1-0.8,0c-0.1,0,0-0.2-0.1-0.2
		c0,0.1-0.5,0.1-0.5,0c-0.1,0,0,0.1-0.1,0.1c-0.1,0-0.1-0.1-0.2-0.1c-0.1,0,0,0.2-0.1,0.1c-0.1-0.3-0.8,0.1-0.9-0.2
		c-0.1,0.2-0.4,0.1-0.6,0v-0.3c0.2,0.1,0-0.1,0.2-0.1c0.1,0,0,0.1,0.1,0.1c0.1,0,0-0.1,0.1-0.1c0.1,0,0,0.2,0.1,0.1
		c0.1,0.1,0-0.1,0.2-0.1c0.1,0,0,0.1,0.1,0.1c0-0.1,0.3-0.1,0.3,0c0.1,0,0-0.2,0.1-0.2c0.1,0,0,0.1,0.1,0.1c0.1,0,0.1-0.1,0.2-0.1
		c0.1,0,0,0.2,0.1,0.2c0.1,0,0-0.2,0.1-0.2c0.1,0,0,0.2,0.1,0.1c0.1,0.1,0-0.1,0.2-0.1c0.1,0,0,0.1,0.1,0.1c0.1,0,0-0.2,0.1-0.1
		c0.1,0,0.1,0.1,0.2,0.1c0.1,0,0-0.2,0.1-0.2c0.1,0,0,0.1,0.1,0.1c0,0,0-0.2,0.1-0.1c0.1,0,0,0.3,0.1,0.2c0.1,0,0.1,0,0.1-0.1
		c0.2,0.1,0.1-0.1,0.2-0.1c0,0,0.1,0,0.1,0c0.1,0,0.1-0.2,0.2-0.1c0.1,0,0,0.2,0.1,0.2c0.1,0,0-0.2,0.1-0.2c0.1,0,0,0.1,0.1,0.1
		c0-0.1,0.1-0.1,0.2-0.1c0,0.1,0,0.2,0,0.2c0.1,0,0-0.3,0.1-0.3c0,0.2,0.1,0.2,0.2,0.3c0.1,0-0.1-0.3,0.1-0.3c0.1,0,0,0.3,0.1,0.2
		c0.1,0,0-0.3,0.1-0.3c0,0,0,0.1,0.1,0.1c0,0.1-0.1,0.2,0.1,0.2c0.1,0,0-0.3,0.1-0.3c0.1,0,0,0.3,0.1,0.2c0.1,0,0-0.2,0.1-0.2
		c0.1,0.1,0.1,0.1,0.2,0.2c0.1,0,0-0.2,0-0.2c0.1,0,0.1,0.1,0.1,0.1c0.1,0,0-0.2,0.1-0.2H6C6,21,5.9,21.2,6,21.2
		c0.1-0.1,0-0.4,0.1-0.4c0.1,0.1,0,0.2,0,0.3c0.3,0,0.4-0.1,0.5-0.3c0.1,0,0,0.3,0.2,0.2c0.1,0,0-0.3,0.1-0.3C7,20.8,6.9,21,7,21
		c0.1,0,0-0.2,0.1-0.2c0.1,0,0,0.2,0.1,0.2c0-0.1,0.2-0.1,0.3-0.1c0-0.1,0.1-0.1,0.2-0.1c0,0.1-0.1,0.3,0.1,0.3C7.9,21,8,21,8.1,21
		v-0.3c0.2,0,0.3,0,0.4-0.1c0.1,0,0,0.1,0.1,0.1c0.1,0,0.1-0.1,0.2-0.1c0.1,0,0,0.3,0.1,0.3c0-0.2,0.1-0.2,0.2-0.3
		c0.1,0,0,0.1,0.1,0.1c0.1,0,0-0.1,0-0.1c0.1,0,0.2,0,0.2-0.1c0.2,0.1,0.2-0.1,0.3-0.1c0.1,0,0,0.2,0.1,0.2c0.1,0-0.1-0.3,0.1-0.3
		c0.1,0.1,0,0.4,0.1,0.4c0.1-0.1-0.1-0.5,0.1-0.5c0.1,0-0.1,0.4,0.1,0.4c0.1-0.1-0.1-0.4,0.1-0.5c0.2,0.1-0.1,0.5,0.1,0.6
		c0.1-0.1-0.1-0.5,0.1-0.5c0.1,0,0,0.3,0.1,0.3c0.1-0.1-0.1-0.5,0.1-0.5c0.1,0,0,0.4,0.1,0.4c0.1-0.1-0.1-0.5,0.1-0.5
		c0.1,0-0.1,0.3,0.1,0.3c0.1-0.1-0.1-0.5,0.1-0.6c0.1,0.2,0,0.7,0.1,0.9c0.1,0,0-0.1,0-0.2h0.2c0-0.2,0-0.3,0-0.5
		c0.2,0,0.1-0.2,0.1-0.3h0.2c0-0.2-0.1-0.6,0.1-0.7H12c0.1,0.3,0,0.8,0.1,1.1c0.1-0.2,0-0.6,0-1c0-0.1-0.1-0.3,0.1-0.2
		c0.1,0.3-0.1,0.8,0.1,1h0.1c0-0.2,0-0.2-0.1-0.3v-0.9c0.1,0.1,0-0.1,0.2-0.1c0.1,0.3-0.1,0.9,0.1,1.1c0-0.2,0-0.5,0-0.7
		c0-0.2-0.1-0.5,0.1-0.6c0.1,0.2-0.1,0.6,0.1,0.8h0.1c0.1-0.2,0-0.5,0-0.7c-0.2,0-0.1-0.3-0.1-0.4c0.2,0.1,0-0.1,0.2-0.1
		c0.1,0.3-0.1,0.9,0.1,1.1c0.1-0.4,0-0.9,0-1.3h0.2c0,0.4-0.1,0.8,0.1,1.1c0-0.2,0-0.5,0-0.7c0-0.3-0.1-0.6,0.1-0.7
		c0,0.4,0,0.9,0,1.4c0,0.1-0.1,0.3,0.1,0.4c0.1-0.5,0-1.1,0-1.5h0.2c0,0.3-0.1,0.6,0,0.8c0.1-0.3,0-0.7,0-1.1c0-0.1-0.1-0.3,0.1-0.3
		c0.1,0.1,0,0.3,0,0.5c0,0.2-0.1,0.4,0.1,0.5c0.1-0.4,0-0.9,0-1.3h0.2c0,0.6,0,1.3,0.1,1.9c0.1-0.8,0-1.8,0-2.6c0.1,0,0.1,0,0.2,0
		c0,0.1-0.1,0-0.1,0.1c0,0.7-0.1,1.5,0,2.1h0.1c0-0.1,0.1-0.4-0.1-0.5c0.1,0,0.1-0.1,0.1-0.1c0.1,0,0,0.2,0.1,0.1
		c0.1-0.3,0-0.8,0-1.1c0-0.1-0.1-0.3,0.1-0.3c0.1,0.1,0,0.5,0,0.7c0,0.1,0.1,0,0.1,0.1c0,0.7-0.1,1.5,0,2.1c0-1,0-2.1,0-3.2
		c0-0.1-0.1-0.3,0.1-0.4c0.1,0.4,0,1,0,1.4c0,0.1-0.1,0.4,0.1,0.4c0.1-0.3,0-0.8,0-1.2c0-0.1-0.1-0.3,0.1-0.3c0.1,0.3,0,0.8,0,1.2
		c0,0.1-0.1,0.3,0.1,0.3h0c0.2-0.2-0.1-0.8,0.1-0.9c0.1,0.2,0,0.6,0,0.9c0,0.1,0,0.2,0.1,0.2c0.1-0.4,0-1,0-1.4h0.2v1.6
		c0,0.1-0.1,0.4,0.1,0.4c0.1-0.4,0-0.8,0-1.2h0.2c0-0.5,0-1.1,0-1.5h0v9.8h0c0,0.1,0,0.2,0,0.2h0V26.1z"/>
</g>
</svg>
