<?xml version="1.0" encoding="utf-8"?>
<!-- Generator: Adobe Illustrator 25.4.1, SVG Export Plug-In . SVG Version: 6.00 Build 0)  -->
<!DOCTYPE svg PUBLIC "-//W3C//DTD SVG 1.1//EN" "http://www.w3.org/Graphics/SVG/1.1/DTD/svg11.dtd" [
	<!ENTITY ns_extend "http://ns.adobe.com/Extensibility/1.0/">
	<!ENTITY ns_ai "http://ns.adobe.com/AdobeIllustrator/10.0/">
	<!ENTITY ns_graphs "http://ns.adobe.com/Graphs/1.0/">
	<!ENTITY ns_vars "http://ns.adobe.com/Variables/1.0/">
	<!ENTITY ns_imrep "http://ns.adobe.com/ImageReplacement/1.0/">
	<!ENTITY ns_sfw "http://ns.adobe.com/SaveForWeb/1.0/">
	<!ENTITY ns_custom "http://ns.adobe.com/GenericCustomNamespace/1.0/">
	<!ENTITY ns_adobe_xpath "http://ns.adobe.com/XPath/1.0/">
]>
<svg version="1.1" id="Camada_1" xmlns:x="&ns_extend;" xmlns:i="&ns_ai;" xmlns:graph="&ns_graphs;"
	 xmlns="http://www.w3.org/2000/svg" xmlns:xlink="http://www.w3.org/1999/xlink" x="0px" y="0px" viewBox="0 0 74.1 55.7"
	 style="enable-background:new 0 0 74.1 55.7;" xml:space="preserve">
<style type="text/css">
	.st0{fill:#FFFFFF;}
	.st1{clip-path:url(#SVGID_00000098913621600776011840000002136635037010949302_);fill:#FFFFFF;}
	.st2{clip-path:url(#SVGID_00000133520164819045924880000015449678094159208085_);fill:#FFFFFF;}
	.st3{fill-rule:evenodd;clip-rule:evenodd;fill:#FFFFFF;}
	.st4{opacity:0.8;}
	.st5{opacity:0.4;clip-path:url(#SVGID_00000066493849331762090500000003302298644344612280_);}
	.st6{clip-path:url(#SVGID_00000057131013295199859000000017816514193771448994_);fill:#FFFFFF;}
	.st7{clip-path:url(#SVGID_00000055704452717067163810000012058966131939362210_);fill:#FFFFFF;}
	.st8{clip-path:url(#SVGID_00000041287029016458284360000006014747699662897078_);fill:#FFFFFF;}
	.st9{clip-path:url(#SVGID_00000004511323022241109910000007078853325083064474_);fill:#FFFFFF;}
	.st10{clip-path:url(#SVGID_00000015313439631556445320000005685011066849134469_);fill:#FFFFFF;}
	.st11{clip-path:url(#SVGID_00000096779387789803869920000012528913950093618307_);fill:#FFFFFF;}
	.st12{clip-path:url(#SVGID_00000057114495407971162910000005772413503518377875_);fill:#FFFFFF;}
	.st13{clip-path:url(#SVGID_00000084509779845743567520000008267239685346014388_);fill:#FFFFFF;}
</style>
<metadata>
	<sfw  xmlns="&ns_sfw;">
		<slices></slices>
		<sliceSourceBounds  bottomLeftOrigin="true" height="280.2" width="1017.9" x="-2419.2" y="3433.6"></sliceSourceBounds>
	</sfw>
</metadata>
<g>
	<path class="st3" d="M44.9,8.8c-1.6-1.2-3.5-2.7-5.1-2.9c-0.8-0.1-1.9-0.3-2.7-0.3c-1.2-0.1-1.2-1.1-3.4-0.1
		c-1.7,0.8-3.3,2.1-4.7,3.3c-1.4,1.2-1.8,2.6-2.7,4c-0.2,0.6-0.3,0.9-0.5,1.6c-0.4,1,0.1,2.3,0.5,3.3c1.2,2.1,3.5,3.5,5.5,3.9
		c5.3,1.2,13.1,0.1,14.9-4.4C47.7,14.7,47,10.9,44.9,8.8 M45.8,16.5c-0.6,2.1-2.5,3.3-4.5,4.2c-0.8,0.2-1.5,0.5-2.3,0.5
		c-1.4,0.4-2.4,0.3-4.2,0.2c-0.3,0-1.3-0.3-1.3-0.3c-4.3,0-7.4-3.3-6.8-6.6c0.5-3,3.5-6.4,6.6-7.5c1.7-0.6,4.2-0.1,6.4,0.4
		C44.3,8.3,47.2,11.9,45.8,16.5"/>
	<path class="st3" d="M39.1,10.5c0.2,0.4-0.2,0.9-0.7,0.9c-0.6-0.2-0.9-0.9-0.3-1.3C38.6,9.8,38.9,10.1,39.1,10.5"/>
	<path class="st3" d="M35.1,10c0.3,0.1,0.3,0.9,0.1,1.1c-0.4,0.2-0.9,0-1.1-0.4C33.9,10.1,34.7,9.8,35.1,10"/>
	<path class="st3" d="M31.5,14.1c-0.1,0.8-1,2.1,0.1,2.4c3,0.7,6.3,1,9,0.3c1.3-0.3,1.7-1.3,1.7-2.8h0.4c0.4,1.7-0.6,3.4-2,3.4
		c-3.1,0.2-6.7,0.8-9.7-0.7c-0.9-0.4-1-1.9-0.4-2.7C30.8,14,31.6,13.9,31.5,14.1"/>
	<path class="st3" d="M27.8,45.7c0.2,0,0.5,0,0.6,0c0.4-0.1,0.9-0.2,1.2-0.4c0.8-0.5,0.8-1.8,0-2.2c-0.3-0.2-0.9-0.2-1.2-0.2
		c-0.2,0-0.3,0.1-0.4,0.2c-0.1,0.2-0.2,2.1-0.2,2.4C27.8,45.5,27.7,45.7,27.8,45.7"/>
	<path class="st3" d="M74,32.5c0-0.8-0.6-1.1-0.6-1.1c1-0.8,0.8-1.6,0.2-2.1c-0.5-0.4-2-0.8-2.5-0.8c-0.1,0-0.2-4.5-0.2-4.6
		c0-2.7,0.1-6.1,0.3-7.3c0.1-0.4,1.3-0.1,1.3-0.9c0-0.4-1-0.2-1.2-0.6c0-0.6-0.2-1.3-0.8-1.1c-0.7,0.2-0.5,1.2-0.9,1.2
		c-4.3,0-11.3-0.2-15.8-0.3c1.4-1.6,3.1-3.1,4.3-5.1C58.5,9.3,58,9,58,9C50.5,6.4,45,3.9,38.1,1c-0.6-0.4-2-1.1-2.1-1
		c-4.4,3-8.3,6.1-12.4,9.7c-1.6,1.4-3.3,3.4-4.6,4.1c-0.2,0.1-0.9,0.3-1.1,0.4c-2.4,0.2-5.6-0.2-8.9,0.2c-1.2,0.1-4.2,0.5-5.6,0.1
		c-0.9-0.3-1.7-0.4-2.2-0.3c-0.2,0-0.6,0.6-0.4,0.8c0.4,0.2,1,0.4,1,0.8c-0.2,3,1.4,13.8,0.4,15c-0.2,0.3-0.9,0.2-1.5,0.8
		c-1.3,1.3,0.1,2.5,0.1,2.5S0.1,34.7,0,35c-0.1,0.5,0,0.8,0.4,1.3c0.3,0.4-0.2,0.8-0.2,1.3C0.4,38.4,1,38.4,1,38.8
		c0,0.6-0.6,1.2-0.2,1.9c0.3,0.4,0.8,0.8,1.7,0.7c0.1,0,0,1,0,1.2c0.2,3.1,0.4,9.2,0.6,12.1c0.2,0.6,1.8,0.6,2.6,0.2
		c0.8-0.2,3.1-0.4,3.8-0.5c2.7-0.2,12.8-0.2,19.9-0.1c1.4,0,2.8-0.1,3.8,0c11.1,1.4,18.1,0.4,28.6,1.2c0.7,0,5.4,0,5.6,0
		c0.5,0,1.1,0.1,1.7,0.1h1c0.1,0,0.2,0,0.3-0.1c-0.4-4.9-0.3-11.3,0.1-16.2c0-0.2,0-0.9,0-0.9s1.3,0,2.1-0.7
		c0.5-0.4,0.7-1.3,0.4-1.8c-0.5-0.6,0.7-0.5,0.7-1.5c0-0.5-0.4-0.6-0.4-1.1C73.5,33.3,74,33.2,74,32.5 M1.5,32.1
		C2,31.9,3,31.6,3.3,31.6c0.4-0.1,1.1,0.2,0.8,0.6c-0.6,1-2,1.3-2.7,1.3C1,33.4,0.7,32.3,1.5,32.1 M2.9,40.5
		c-0.4,0.2-1.7,0.1-1.4-0.7c0.1-0.3,0.4-0.5,1-0.6c0.8-0.2,2.1-0.6,2.3,0C5,40,3.9,40,2.9,40.5 M5.3,36.7c-0.3,1.2-3.7,1.9-3.9,1
		c-0.2-0.7,0.3-0.7,1.5-1.1C3.7,36.4,5.7,35.4,5.3,36.7 M5.6,34.6c-1,1-3.6,1.7-4.5,1.2c-0.4-0.2-0.2-0.7-0.1-0.8
		c0.8-0.6,1.7-0.5,2.6-1c0.4-0.2,0.9-0.4,1.3-0.4C5.5,33.6,5.9,34.3,5.6,34.6 M14.6,30.4c-0.1-0.1-0.1-0.1-0.2-0.1
		c-0.1,0-2.2,0.1-2.5,0.1c0,0.5-0.1,2.3-0.1,2.4c0.6-0.1,2-0.1,2.1-0.1c0.5,0,0.9-0.1,0.8,0.8c0,0.3-0.5,0.4-0.9,0.5
		c-0.3,0-0.8,0-1.3,0.1c-0.3,0-0.8,0-0.9,0c0,0.4,0,1.4,0.1,1.7c0,0.3,0.4,1.6-0.1,1.9c-0.4,0.3-0.8,0.4-1.4-0.8
		c-0.1-0.1-0.1-0.5,0.1-0.7c-0.1-0.5-0.2-1.4-0.2-2.3c0-0.9,0.1-3.1,0.1-3.7c-0.4-0.3-0.6-0.5-0.6-0.9c0-0.4,0.2-0.4,0.5-0.4
		c0.4,0,2.1-0.2,2.9-0.2c0.8,0,2.3,0.1,2.4,1.2C15.6,31,14.7,30.4,14.6,30.4 M55.4,28.4c0.5,0,0.9,0,0.9,0.4
		c0.1,0.7-0.4,0.6-0.8,0.7c-0.2,0-1,0.1-1.6,0c-0.4,0-0.9,0-1.1,0c-0.1,0-0.6,0.1-0.6-0.3c0-0.3,0.2-0.5,0.6-0.6
		C53.5,28.5,54.4,28.4,55.4,28.4 M17.1,16.7c4.5-4,8.7-7.6,13.6-11.9c1.6-1.4,2.8-2.3,4.7-3.3c0.6-0.2,1.4-0.3,2.4,0.2
		c0.8,0.4,1.6,0.6,2.6,1c2,1.2,4.3,1.6,6.5,2.7c1.4,0.4,2.8,1,4.3,1.8c0.4,0,1,0.2,1.4,0.4c1.4,0.6,3.2,0.6,4.3,2v0.8
		c-0.8,1-1.6,1.8-2.4,2.9c-4.7,4.3-8.6,8.4-13.9,12.7c-0.7,0.5-1.4-0.2-2.6-0.6c-0.4-0.1-1.7-0.8-2.1-0.8c-1.4-0.4-2.8-1.2-4.3-1.6
		c-4.9-1.8-8.5-3.7-13.3-5.3C17.7,17.6,16.7,17,17.1,16.7 M30.9,31.5c-0.5-0.2-0.9-0.5-0.7-1c0.2-0.5,2-0.6,2.9-0.4
		c0.9,0.2,2.6,0.8,3.2,2.4c0.7,1.7,0.2,3.4-0.3,4c-0.5,0.6-1.1,1.1-2.7,1.3c-1.4,0.1-2.3-0.1-2.5-0.3c-0.3-0.2-0.5-0.9,0.2-1.1
		C31,35.8,30.9,32.4,30.9,31.5 M24.7,37.6c0,0.4-0.4,0.5-0.8,0.3c-0.4-0.1-0.8-0.6-0.7-1c0-0.4,0.1-1.3,0.1-1.9
		c0.1-1.3,0.1-3.1-0.1-4.1c-0.1-0.5,0.1-0.6,0.2-0.6c0-0.1,0.4-0.4,1,0.1c1.1,1,2.8,4.6,3.5,5.3c0-0.7,0-4.8,0-5.3
		c0-0.1,0-0.7,0.6-0.6c0.6,0.1,0.9,0.7,0.9,1.1c0,0.3,0.1,5.7,0.1,6.4c0,0.6-0.8,0.7-1.3,0.3c-0.4-0.3-0.6-0.6-1-1
		c-0.4-0.4-1.4-1.8-2.3-3.6C24.9,33.7,24.7,37.2,24.7,37.6 M16.8,36.6c-0.9-1.3-0.6-3.8-0.5-5.3c0-0.4-0.2-0.9,0.2-1.1
		c0.3-0.1,0.8,0.2,1.2,0.7c0.1,0.2,0.1,0.5,0.1,0.7c0,0.5-0.5,3.2-0.1,4.2c0.4,1,1.3,1,1.7,1c0.6-0.1,1.1-0.6,1-2.5
		c-0.1-2-0.1-2.7-0.1-3.1c0-0.4,0.1-0.8,0.3-0.9c0.3-0.2,0.8-0.4,1.4,0.6c0.2,0.4-0.2,0.7-0.2,0.9c0,0.4,0.2,2.7,0.1,3.5
		c-0.1,1.1-0.2,2.5-1.7,2.8c-0.7,0.1-1.3,0-1.7-0.1C17.5,37.5,17,36.9,16.8,36.6 M24.9,49.8c-0.2,0.1-0.5,0.2-1-0.3
		c-0.4-0.3-0.5-0.8-0.6-1.5c-0.5-0.1-1.5-0.5-3.4-0.1c-0.3,0.7-0.7,1.8-0.9,2c-0.1,0.2-0.4,0.2-0.7-0.1c-0.5-0.3-0.8-0.7-0.6-1.3
		c0.4-1,2.5-6.7,2.8-7.2c0-0.1-0.3-0.9,1-0.8c0.6,0.1,1.8,0.5,2.3,2.3c0.5,1.7,0.7,4.7,1.3,6.3C25.1,49,25.3,49.5,24.9,49.8
		 M30.3,49.6c-1.1,0.4-3.3,0.4-4.1-0.5c-0.1-0.1-0.1-0.3,0.1-0.4c0-0.2,0-0.1,0-0.3c-0.1-1.1-0.1-2.4,0-3.6c0-0.5,0.1-1.2,0.2-1.7
		c-0.2-0.1-0.4-0.2-0.5-0.3c-0.6-0.7,0.4-1,1.3-1.1c0.4,0,1.4-0.2,2.7,0.3c1.4,0.6,2.5,2.3,1,3.7c-0.2,0.1-0.4,0.3-0.6,0.4
		c0.1,0,0.2,0,0.2,0.1c0.6,0.2,0.9,0.6,1.2,1.1C32.1,48.3,31.3,49.2,30.3,49.6 M37.6,49.8c-0.9-0.1-1.8-1.9-2.4-2.7
		c-0.2,0.1-0.3,0.1-0.7,0.2c0,0.7,0,1.6,0,2c0,0.2,0,0.5-0.3,0.5c-0.3,0-0.6-0.1-1.1-0.7c-0.1-0.2-0.1-0.5-0.1-0.7
		c0-1.8-0.1-3.4,0-4.7c-0.4-0.2-1-0.8-0.6-1.3c0.4-0.5,1.9-0.7,2.6-0.7c1.1,0.1,3.1,0.6,3.2,2.4c0,1-0.7,1.8-1.5,2.4
		c0.1,0.4,0.7,1.3,0.9,1.6c0.3,0.4,0.4,0.7,0.9,0.8C38.7,49,38.3,49.9,37.6,49.8 M41.1,49.3c0,0.2,0,0.5-0.3,0.5
		c-0.3,0-0.6-0.1-1.1-0.7c-0.1-0.2-0.1-0.4-0.1-0.6c0.1-2.6-0.1-5.3-0.1-6c0-0.6,0.8-0.7,1.3,0.1c0.1,0.1,0.1,0.2,0.2,0.4
		C41,43.8,41.2,47.9,41.1,49.3 M39.1,36.2c-0.3,0.6-0.6,1.5-0.8,1.7c-0.1,0.1-0.3,0.2-0.6-0.1c-0.4-0.3-0.7-0.6-0.5-1.2
		c0.4-0.8,2.2-5.9,2.4-6.3c0,0-0.3-0.8,0.9-0.7c0.5,0.1,1.5,0.4,2,2c0.4,1.5,0.6,4.1,1.1,5.4c0,0,0.2,0.4-0.1,0.7
		C43.2,38,43,38,42.6,37.6c-0.3-0.3-0.4-0.7-0.6-1.3C41.6,36.2,40.7,35.9,39.1,36.2 M47.4,49.6c-0.4-0.3-0.6-0.6-1-1
		c-0.4-0.4-1.4-1.8-2.3-3.6c0.1,0.7-0.1,4.2-0.1,4.6c0,0.4-0.4,0.5-0.8,0.3c-0.4-0.1-0.8-0.6-0.7-1c0-0.4,0.1-1.3,0.1-1.9
		c0.1-1.3,0.1-3.1-0.1-4.1c-0.1-0.5,0.1-0.6,0.2-0.6c0-0.1,0.4-0.4,1,0.1c1.1,1,2.8,4.6,3.5,5.3c0-0.7,0-4.8,0-5.3
		c0-0.1,0-0.7,0.6-0.6c0.6,0.1,0.9,0.7,0.9,1.1c0,0.3,0.1,5.7,0.1,6.4C48.7,49.9,47.9,50,47.4,49.6 M47.5,38c-0.1,0-0.2,0-0.3,0
		c-0.1,0.1-0.2,0.3-0.3,0.4c-0.1,0.2-0.3,0.4-0.3,0.5c0,0,0,0.2-0.5,0.2c-0.4-0.1-0.4-0.1-0.4-0.3c0-0.3,0.2-0.6,0.4-1
		c-1.1-0.4-2.2-1.3-2.2-3.8c0-2.4,1.3-4.1,2.7-4.2c0.9,0,1.7,0.2,2.4,0.8c0.6,0.5,1,1.1,1.3,2.1c0.3,1-1.3,0.7-1.5,0
		c-0.3-1.1-0.9-1.6-1.5-1.7c-0.9,0-1.7,1.6-1.8,3.2c0,2,0.9,3,1.6,3c0.5,0,1.2-0.4,1.6-1.4c0.1-0.4,1.9-1.3,1.6,0.1
		C49.7,37.5,48.5,38,47.5,38 M55.9,49.9c-0.3,0.2-0.6-0.1-1.1-0.5c-0.4,0.4-1.1,0.5-1.6,0.6c-1.5,0-3.6-0.5-3.6-4
		c0-2.4,1.4-4.2,2.7-4.2c0.8,0,1.4,0.3,1.6,0.5c0.2,0.2,2.2,0.7,2.2,3.8c0,1.1-0.2,1.9-0.5,2.5c0.4,0.2,0.5,0.4,0.6,0.6
		C56.2,49.4,56.2,49.7,55.9,49.9 M57,37.9c-0.2,0.1-0.4,0.2-0.8-0.2c-0.3-0.3-0.4-0.7-0.6-1.3c-0.4-0.1-1.3-0.4-2.9-0.1
		c-0.3,0.6-0.6,1.5-0.8,1.7c-0.1,0.1-0.3,0.2-0.6-0.1c-0.4-0.3-0.7-0.6-0.5-1.2c0.4-0.8,2.2-5.9,2.4-6.3c0,0-0.3-0.8,0.9-0.7
		c0.5,0.1,1.5,0.4,2,2c0.4,1.5,0.6,4.1,1.1,5.4C57.2,37.3,57.3,37.7,57,37.9 M61.3,38c-1.5,0-3.6-0.5-3.6-4c0-2.4,1.4-4.2,2.7-4.2
		c0.8,0,1.4,0.3,1.6,0.5c0.2,0.2,2.2,0.7,2.2,3.8C64.2,37.2,62.6,38,61.3,38 M69.6,29.7c0.3-0.7,3.3-0.7,3.5,0.3
		c0.2,0.6-0.8,0.6-1.8,0.5C71.2,30.4,69.3,30.3,69.6,29.7 M71.8,37.6c-1.2,0.3-2,0.5-3.1-0.3c-0.3-0.2,0-0.8,0.3-0.8
		c0.8,0.1,1.2,0.1,1.8,0c0.6-0.1,1.4-0.5,1.6,0.3C72.4,37.1,72.4,37.4,71.8,37.6 M72.8,34.7c-0.1,0.8-2.7,1-3.7,0.7
		c-0.7-0.2-0.6-0.6-0.6-0.6c0.2-1,1.7-0.5,2.7-0.7C72.3,33.9,72.9,34.2,72.8,34.7 M70.1,32.9c-0.2,0-1.3-0.2-1.3-0.6
		c0-1.1,1.8-1,2.5-0.8c0.8,0.2,1.9,0.4,1.9,0.9C73.2,33.3,71.2,33,70.1,32.9"/>
	<path class="st3" d="M28.7,46.8c-0.2,0-0.6,0.1-1,0.1c0,0.7,0,1.2,0.1,1.6c0,0.1,0.1,0.1,0.1,0.2c0.1,0.1,0.4,0.2,0.8,0.1
		c0.4,0,1-0.1,1.3-0.3C31,47.6,30,46.7,28.7,46.8"/>
	<path class="st3" d="M22.1,42.2C22.1,42.1,22.1,42.2,22.1,42.2c-0.1,0-1.2,2.9-1.5,3.8c0.9,0,1.9,0.1,2.3,0.3
		c-0.1-0.5-0.3-1.7-0.3-1.9C22.5,43.7,22.3,43,22.1,42.2"/>
	<path class="st3" d="M36.7,43.9c-0.2-1-1.6-0.7-2.3-0.7c0,0.6,0.1,1.7,0.1,2.7C35.9,45.7,36.9,44.9,36.7,43.9"/>
	<path class="st3" d="M35.5,34.1c0.2-2.7-2.8-2.8-3.2-2.7c0.1,0.6,0,4.5-0.1,5.2C34.6,36.8,35.4,35.7,35.5,34.1"/>
	<path class="st3" d="M52.8,42.9c-0.9,0-1.7,1.6-1.8,3.2c0,2,0.9,3,1.6,3c0.2,0,0.6-0.1,0.8-0.3c-1.3-0.2-0.9-0.9-0.6-1
		c0.2-0.1,0.8,0,1.3,0.2c0.2-0.4,0.4-1,0.4-1.8C54.6,44,53.7,43,52.8,42.9"/>
	<path class="st3" d="M54.6,31.3C54.6,31.3,54.6,31.3,54.6,31.3c-0.1,0-1.1,2.5-1.3,3.3c0.8,0,1.6,0.1,2,0.2
		c-0.1-0.4-0.3-1.5-0.3-1.6C54.9,32.6,54.8,32,54.6,31.3"/>
	<path class="st3" d="M61,31c-0.9,0-1.7,1.6-1.8,3.2c0,2,0.9,3,1.6,3c0.7,0,1.8-0.7,1.9-2.9C62.7,32.1,61.9,31.1,61,31"/>
	<path class="st3" d="M41,31.3C41,31.2,40.9,31.2,41,31.3c0,0-1.1,2.5-1.3,3.3c0.8,0,1.6,0.1,2,0.2c-0.1-0.4-0.3-1.5-0.3-1.6
		C41.3,32.5,41.2,32,41,31.3"/>
</g>
</svg>
