<?xml version="1.0" encoding="utf-8"?>
<!-- Generator: Adobe Illustrator 25.4.1, SVG Export Plug-In . SVG Version: 6.00 Build 0)  -->
<!DOCTYPE svg PUBLIC "-//W3C//DTD SVG 1.1//EN" "http://www.w3.org/Graphics/SVG/1.1/DTD/svg11.dtd" [
	<!ENTITY ns_extend "http://ns.adobe.com/Extensibility/1.0/">
	<!ENTITY ns_ai "http://ns.adobe.com/AdobeIllustrator/10.0/">
	<!ENTITY ns_graphs "http://ns.adobe.com/Graphs/1.0/">
	<!ENTITY ns_vars "http://ns.adobe.com/Variables/1.0/">
	<!ENTITY ns_imrep "http://ns.adobe.com/ImageReplacement/1.0/">
	<!ENTITY ns_sfw "http://ns.adobe.com/SaveForWeb/1.0/">
	<!ENTITY ns_custom "http://ns.adobe.com/GenericCustomNamespace/1.0/">
	<!ENTITY ns_adobe_xpath "http://ns.adobe.com/XPath/1.0/">
]>
<svg version="1.1" id="Camada_1" xmlns:x="&ns_extend;" xmlns:i="&ns_ai;" xmlns:graph="&ns_graphs;"
	 xmlns="http://www.w3.org/2000/svg" xmlns:xlink="http://www.w3.org/1999/xlink" x="0px" y="0px" viewBox="0 0 99.3 41.6"
	 style="enable-background:new 0 0 99.3 41.6;" xml:space="preserve">
<style type="text/css">
	.st0{fill:#FFFFFF;}
	.st1{clip-path:url(#SVGID_00000055670123344416793420000001622684903200909721_);fill:#FFFFFF;}
	.st2{clip-path:url(#SVGID_00000012433507013470645920000010561214675196521379_);fill:#FFFFFF;}
	.st3{fill-rule:evenodd;clip-rule:evenodd;fill:#FFFFFF;}
	.st4{opacity:0.8;}
	.st5{opacity:0.4;clip-path:url(#SVGID_00000073722867014292276710000013689927989462878632_);}
	.st6{clip-path:url(#SVGID_00000157286367277093306420000008765975412908535682_);fill:#FFFFFF;}
	.st7{clip-path:url(#SVGID_00000083081279785581821580000007257579784757741977_);fill:#FFFFFF;}
	.st8{clip-path:url(#SVGID_00000165922231734528911030000009514669379102893477_);fill:#FFFFFF;}
	.st9{clip-path:url(#SVGID_00000015338542860174607070000005677832997116066472_);fill:#FFFFFF;}
	.st10{clip-path:url(#SVGID_00000133490899828419941260000001995291421465741229_);fill:#FFFFFF;}
	.st11{clip-path:url(#SVGID_00000139268906824055385050000012214964977531573919_);fill:#FFFFFF;}
	.st12{clip-path:url(#SVGID_00000138559295021135088740000016805832817098079121_);fill:#FFFFFF;}
	.st13{clip-path:url(#SVGID_00000068658601604736911330000005739390225575201704_);fill:#FFFFFF;}
</style>
<metadata>
	<sfw  xmlns="&ns_sfw;">
		<slices></slices>
		<sliceSourceBounds  bottomLeftOrigin="true" height="280.2" width="1017.9" x="-2419.2" y="3433.6"></sliceSourceBounds>
	</sfw>
</metadata>
<g>
	<path class="st0" d="M31.6,41.2c-0.2,0-0.4,0-0.6,0c-0.3,0-0.5-0.1-0.7-0.2c-0.2-0.1-0.3-0.3-0.4-0.5c-0.1-0.2-0.1-0.6-0.1-1
		c0-0.4,0-0.8,0.1-1c0.1-0.2,0.2-0.4,0.4-0.5c0.2-0.1,0.4-0.2,0.7-0.2c0.1,0,0.3,0,0.4,0c0.1,0,0.2,0,0.3,0c0.1,0,0.2,0,0.3,0l0-0.3
		c-0.1,0-0.2,0-0.3-0.1s-0.2,0-0.3,0c-0.1,0-0.3,0-0.4,0c-0.4,0-0.7,0.1-0.9,0.2c-0.2,0.1-0.4,0.3-0.5,0.6c-0.1,0.3-0.1,0.7-0.1,1.2
		c0,0.5,0,0.9,0.1,1.2c0.1,0.3,0.3,0.5,0.5,0.6c0.2,0.1,0.5,0.2,0.9,0.2c0.3,0,0.5,0,0.6,0c0.2,0,0.3,0,0.5-0.1l0-0.3
		C31.9,41.2,31.8,41.2,31.6,41.2"/>
	<path class="st0" d="M43.6,37.6C43.6,37.6,43.5,37.6,43.6,37.6l-0.5,0c0,0-0.1,0-0.1,0c0,0,0,0-0.1,0.1l-1.3,3.9H42l0.4-1.3h1.7
		l0.4,1.3H45L43.6,37.6C43.7,37.6,43.6,37.6,43.6,37.6 M42.5,39.9l0.6-1.7c0-0.1,0-0.1,0.1-0.2c0-0.1,0-0.1,0-0.2h0.2
		c0,0,0,0.1,0.1,0.2c0,0.1,0,0.1,0.1,0.2l0.6,1.7H42.5z"/>
	<path class="st0" d="M57,40c0-0.1-0.1-0.1-0.2-0.2c-0.1,0-0.1-0.1-0.2-0.1v0c0.2,0,0.3-0.1,0.4-0.2c0.1-0.1,0.2-0.2,0.2-0.3
		c0-0.1,0.1-0.3,0.1-0.5c0-0.3,0-0.5-0.1-0.7c-0.1-0.2-0.2-0.3-0.4-0.3c-0.2-0.1-0.4-0.1-0.7-0.1c-0.2,0-0.4,0-0.5,0
		c-0.1,0-0.3,0-0.4,0c-0.1,0-0.3,0-0.4,0v4h0.4v-1.7c0.1,0,0.2,0,0.4,0c0.2,0,0.4,0,0.6,0c0.1,0,0.3,0,0.4,0.1
		c0.1,0.1,0.2,0.2,0.2,0.3l0.4,1.2h0.4l-0.4-1.3C57.1,40.1,57,40.1,57,40 M56.1,39.5h-0.9v-1.6c0,0,0.1,0,0.2,0c0.2,0,0.5,0,0.8,0
		c0.2,0,0.4,0,0.5,0.1c0.1,0,0.2,0.1,0.3,0.2c0.1,0.1,0.1,0.3,0.1,0.5c0,0.2,0,0.4-0.1,0.5c-0.1,0.1-0.1,0.2-0.3,0.3
		C56.5,39.5,56.3,39.5,56.1,39.5"/>
	<path class="st0" d="M69.7,39.8c-0.1-0.2-0.3-0.3-0.6-0.3l-0.8-0.2c-0.2,0-0.3-0.1-0.4-0.2c-0.1-0.1-0.1-0.3-0.1-0.5
		c0-0.2,0-0.3,0-0.4c0-0.1,0.1-0.2,0.2-0.2c0.1,0,0.2-0.1,0.3-0.1c0.1,0,0.2,0,0.4,0c0.2,0,0.4,0,0.6,0c0.2,0,0.4,0,0.5,0l0-0.3
		c-0.2,0-0.4-0.1-0.6-0.1c-0.2,0-0.4,0-0.6,0c-0.2,0-0.4,0-0.6,0c-0.2,0-0.3,0.1-0.4,0.1s-0.2,0.2-0.2,0.3c-0.1,0.1-0.1,0.3-0.1,0.6
		c0,0.3,0.1,0.5,0.2,0.7c0.1,0.2,0.3,0.3,0.6,0.3l0.8,0.2c0.1,0,0.2,0.1,0.3,0.1c0.1,0.1,0.1,0.1,0.2,0.2c0,0.1,0.1,0.2,0.1,0.4
		c0,0.2,0,0.4-0.1,0.5c-0.1,0.1-0.1,0.2-0.3,0.2c-0.1,0-0.3,0.1-0.5,0.1c-0.1,0-0.2,0-0.3,0c-0.1,0-0.2,0-0.4,0c-0.1,0-0.3,0-0.5,0
		l0,0.3c0.3,0,0.5,0.1,0.7,0.1c0.2,0,0.4,0,0.5,0c0.2,0,0.4,0,0.6,0c0.2,0,0.3-0.1,0.4-0.1c0.1-0.1,0.2-0.2,0.2-0.3
		c0.1-0.1,0.1-0.3,0.1-0.6C69.8,40.2,69.8,39.9,69.7,39.8"/>
	<path class="st3" d="M12.1,30.1c0.7,0,1.3,0.6,1.3,1.3c0,0.7-0.6,1.3-1.3,1.3H1.4v-1.8c0-0.4,0.4-0.8,0.8-0.8H12.1z M0,34.1h12.1
		c1,0,1.9-0.6,2.4-1.4c0.2-0.4,0.3-0.8,0.3-1.3c0-0.8-0.3-1.5-0.9-2c0.5-0.5,0.9-1.2,0.9-2c0-1.5-1.2-2.7-2.7-2.7H0V34.1z M1.4,26.1
		h10.7c0.7,0,1.3,0.6,1.3,1.3c0,0.7-0.6,1.3-1.3,1.3H2.2c-0.3,0-0.5,0.1-0.8,0.1V26.1z"/>
	<path class="st3" d="M83.3,27.4c0-1.5-1.2-2.7-2.7-2.7h-9.5c-1.5,0-2.7,1.2-2.7,2.7v6.7h1.4v-3.2c0-0.4,0.4-0.8,0.8-0.8h10.5
		c0.4,0,0.8,0.4,0.8,0.8v3.2h1.4V27.4z M81.9,28.7h-12v-1.3c0-0.7,0.6-1.3,1.3-1.3h9.5c0.7,0,1.3,0.6,1.3,1.3V28.7z"/>
	<path class="st3" d="M29.3,34.1c1.5,0,2.7-1.2,2.7-2.7v-6.7h-1.4v6.7c0,0.7-0.6,1.3-1.3,1.3h-9.4c-0.7,0-1.3-0.6-1.3-1.3v-6.7h-1.4
		v6.7c0,1.5,1.2,2.7,2.7,2.7H29.3z"/>
	<path class="st3" d="M49.1,28.7v3.2c0,1.2-1,2.2-2.2,2.2H36.5c-1.2,0-2.2-1-2.2-2.2v-7.2h14.9c0,1.4-1.2,1.4-1.3,1.4H35.7v5.7
		c0,0.4,0.4,0.8,0.8,0.8h10.5c0.4,0,0.8-0.4,0.8-0.8v-1.8H37.1v-1.4H49.1z"/>
	<path class="st3" d="M66.3,28.7v3.2c0,1.2-1,2.2-2.2,2.2H53.6c-1.2,0-2.2-1-2.2-2.2v-7.2h14.9c0,1.4-1.2,1.4-1.3,1.4H52.8v5.7
		c0,0.4,0.4,0.8,0.8,0.8H64c0.4,0,0.8-0.4,0.8-0.8v-1.8H54.3v-1.4H66.3z"/>
	<path class="st3" d="M84.5,24.7v0.2c0,0.4,0.3,1.3,1.8,1.3h4.9v7.9h1.4v-7.9h4.9c1.6,0,1.8-0.9,1.8-1.3v-0.2H84.5z"/>
	<path class="st0" d="M54.3,17.5c2.7-0.1,5.2-0.5,6.6-2.9C63,10.9,59,9.4,59,9.4h0c0.2,0.5,0.2,1,0,1.6c-0.4,1.3-1.6,2.4-2.9,2.7
		c-0.1,0-0.1,0-0.2,0c-0.1,0-0.3,0-0.6,0.1c-0.4,0-0.8,0-1.3,0.1h-4.7h-0.8h-8.7c0,0-3.1,0-3.9,2.4l-0.4,1.3
		c-0.4,1.3-0.5,1.5-0.5,1.5s1.1-1.5,3.3-1.5h4H54L54.3,17.5z"/>
	<path class="st0" d="M59.8,0c2.6,0.1,4.5,1.2,4.4,3.7c-0.2,3.8-4.9,4.5-4.9,4.5c0.5-0.5,0.8-1,1-1.6c0.4-1.3-0.1-2.4-1.2-2.7
		c-0.1,0-0.1,0-0.2,0c-0.1,0-0.3,0-0.6-0.1c-0.3,0-0.8,0-1.3-0.1h-4.7h-0.8h-9c-2.1,0-3.2,1.5-3.2,1.5s0.1-0.2,0.5-1.5l0.4-1.3
		C41,0.2,43.6,0,44.1,0h15.5L59.8,0z"/>
	<path class="st0" d="M40.6,10.6h4h8.7c0,0,3.2,0.1,4.4-3.7H42c0,0-3.1-0.1-3.9,2.4c-0.2,0.5-0.3,0.9-0.4,1.3
		c-0.4,1.3-0.5,1.5-0.5,1.5S38.4,10.6,40.6,10.6"/>
</g>
</svg>
