<?xml version="1.0" encoding="utf-8"?>
<!-- Generator: Adobe Illustrator 25.4.1, SVG Export Plug-In . SVG Version: 6.00 Build 0)  -->
<!DOCTYPE svg PUBLIC "-//W3C//DTD SVG 1.1//EN" "http://www.w3.org/Graphics/SVG/1.1/DTD/svg11.dtd" [
	<!ENTITY ns_extend "http://ns.adobe.com/Extensibility/1.0/">
	<!ENTITY ns_ai "http://ns.adobe.com/AdobeIllustrator/10.0/">
	<!ENTITY ns_graphs "http://ns.adobe.com/Graphs/1.0/">
	<!ENTITY ns_vars "http://ns.adobe.com/Variables/1.0/">
	<!ENTITY ns_imrep "http://ns.adobe.com/ImageReplacement/1.0/">
	<!ENTITY ns_sfw "http://ns.adobe.com/SaveForWeb/1.0/">
	<!ENTITY ns_custom "http://ns.adobe.com/GenericCustomNamespace/1.0/">
	<!ENTITY ns_adobe_xpath "http://ns.adobe.com/XPath/1.0/">
]>
<svg version="1.1" id="Camada_1" xmlns:x="&ns_extend;" xmlns:i="&ns_ai;" xmlns:graph="&ns_graphs;"
	 xmlns="http://www.w3.org/2000/svg" xmlns:xlink="http://www.w3.org/1999/xlink" x="0px" y="0px" viewBox="0 0 106.7 23"
	 style="enable-background:new 0 0 106.7 23;" xml:space="preserve">
<style type="text/css">
	.st0{fill:#FFFFFF;}
	.st1{clip-path:url(#SVGID_00000084514254049171374100000001913484217470571145_);fill:#FFFFFF;}
	.st2{clip-path:url(#SVGID_00000133518843855301988660000008239406648418304152_);fill:#FFFFFF;}
	.st3{fill-rule:evenodd;clip-rule:evenodd;fill:#FFFFFF;}
	.st4{opacity:0.8;}
	.st5{opacity:0.4;clip-path:url(#SVGID_00000093872670725834205250000013473471211111441292_);}
	.st6{clip-path:url(#SVGID_00000059296199252856387000000005107933336594398905_);fill:#FFFFFF;}
	.st7{clip-path:url(#SVGID_00000100356688358662413370000016759657869031419796_);fill:#FFFFFF;}
	.st8{clip-path:url(#SVGID_00000062188057567748718370000014511010733122170519_);fill:#FFFFFF;}
	.st9{clip-path:url(#SVGID_00000160890720993042301070000002784656625047531446_);fill:#FFFFFF;}
	.st10{clip-path:url(#SVGID_00000140009232151784488920000012551402630549435030_);fill:#FFFFFF;}
	.st11{clip-path:url(#SVGID_00000134947455880300145170000014679847653667623296_);fill:#FFFFFF;}
	.st12{clip-path:url(#SVGID_00000141442001684048496740000007370158979333521551_);fill:#FFFFFF;}
	.st13{clip-path:url(#SVGID_00000016063485240930046870000011794417364238665150_);fill:#FFFFFF;}
</style>
<metadata>
	<sfw  xmlns="&ns_sfw;">
		<slices></slices>
		<sliceSourceBounds  bottomLeftOrigin="true" height="280.2" width="1017.9" x="-2419.2" y="3433.6"></sliceSourceBounds>
	</sfw>
</metadata>
<g>
	<path class="st3" d="M31,23v-3.5L28.5,22c-0.1,0.1-0.3,0.2-0.5,0.2c-0.2,0-0.4-0.1-0.5-0.2l-2.6-2.4V23h-1.1v-4.9
		c0-0.2,0.1-0.3,0.2-0.4c0.1-0.1,0.3-0.1,0.4-0.1c0.1,0,0.2,0,0.3,0.1c0.1,0,0.2,0.1,0.2,0.2l3,3l3-3c0.1-0.1,0.1-0.2,0.2-0.2
		c0.1,0,0.2-0.1,0.3-0.1c0.2,0,0.3,0,0.4,0.1c0.1,0.1,0.2,0.2,0.2,0.4V23H31z M38.5,23c-0.4,0-0.7,0-1-0.1c-0.3-0.1-0.5-0.2-0.6-0.3
		c-0.2-0.1-0.3-0.3-0.3-0.6c-0.1-0.2-0.1-0.5-0.1-0.8v-1.6c0-0.3,0-0.6,0.1-0.8c0.1-0.2,0.2-0.4,0.3-0.6c0.2-0.1,0.4-0.2,0.6-0.3
		c0.3-0.1,0.6-0.1,1-0.1h2c0.4,0,0.7,0,1,0.1c0.3,0.1,0.5,0.2,0.6,0.3c0.2,0.1,0.3,0.3,0.3,0.6c0.1,0.2,0.1,0.5,0.1,0.8v1.6
		c0,0.3,0,0.6-0.1,0.8c-0.1,0.2-0.2,0.4-0.3,0.6c-0.2,0.1-0.4,0.2-0.6,0.3c-0.3,0.1-0.6,0.1-1,0.1H38.5z M41.4,19.6
		c0-0.2,0-0.3,0-0.4c0-0.1-0.1-0.2-0.1-0.3c-0.1-0.1-0.2-0.1-0.3-0.1c-0.1,0-0.3,0-0.4,0h-1.9c-0.2,0-0.3,0-0.4,0
		c-0.1,0-0.2,0.1-0.3,0.1c-0.1,0.1-0.1,0.2-0.1,0.3c0,0.1,0,0.2,0,0.4v1.5c0,0.2,0,0.3,0,0.4c0,0.1,0.1,0.2,0.1,0.3
		c0.1,0.1,0.2,0.1,0.3,0.1c0.1,0,0.3,0,0.4,0h1.9c0.2,0,0.3,0,0.4,0c0.1,0,0.2-0.1,0.3-0.1c0.1-0.1,0.1-0.2,0.1-0.3
		c0-0.1,0-0.2,0-0.4V19.6z M48.9,23v-4.2h-2.2v-1h5.6v1H50V23H48.9z M58.4,23c-0.4,0-0.7,0-1-0.1c-0.3-0.1-0.5-0.2-0.6-0.3
		c-0.2-0.1-0.3-0.3-0.3-0.6c-0.1-0.2-0.1-0.5-0.1-0.8v-1.6c0-0.3,0-0.6,0.1-0.8c0.1-0.2,0.2-0.4,0.3-0.6c0.2-0.1,0.4-0.2,0.6-0.3
		c0.3-0.1,0.6-0.1,1-0.1h2c0.4,0,0.7,0,1,0.1c0.3,0.1,0.5,0.2,0.6,0.3c0.2,0.1,0.3,0.3,0.3,0.6c0.1,0.2,0.1,0.5,0.1,0.8v1.6
		c0,0.3,0,0.6-0.1,0.8c-0.1,0.2-0.2,0.4-0.3,0.6c-0.2,0.1-0.4,0.2-0.6,0.3c-0.3,0.1-0.6,0.1-1,0.1H58.4z M61.2,19.6
		c0-0.2,0-0.3,0-0.4c0-0.1-0.1-0.2-0.1-0.3c-0.1-0.1-0.2-0.1-0.3-0.1c-0.1,0-0.3,0-0.4,0h-1.9c-0.2,0-0.3,0-0.4,0
		c-0.1,0-0.2,0.1-0.3,0.1c-0.1,0.1-0.1,0.2-0.1,0.3c0,0.1,0,0.2,0,0.4v1.5c0,0.2,0,0.3,0,0.4c0,0.1,0.1,0.2,0.1,0.3
		c0.1,0.1,0.2,0.1,0.3,0.1c0.1,0,0.3,0,0.4,0h1.9c0.2,0,0.3,0,0.4,0c0.1,0,0.2-0.1,0.3-0.1c0.1-0.1,0.1-0.2,0.1-0.3
		c0-0.1,0-0.2,0-0.4V19.6z M71,23l-3.1-1.9V23h-1.2v-5.2h4.1c0.4,0,0.7,0,0.9,0.1c0.3,0,0.5,0.1,0.6,0.2c0.2,0.1,0.3,0.3,0.4,0.5
		c0.1,0.2,0.1,0.5,0.1,0.8v0.4c0,0.3,0,0.6-0.1,0.7c-0.1,0.2-0.2,0.4-0.4,0.5c-0.2,0.1-0.4,0.2-0.7,0.2c-0.3,0-0.6,0.1-0.9,0.1H70
		L73,23H71z M71.8,19.4c0-0.1,0-0.3,0-0.3c0-0.1-0.1-0.2-0.2-0.2c-0.1,0-0.2-0.1-0.3-0.1c-0.1,0-0.3,0-0.5,0h-2.9v1.6h2.9
		c0.2,0,0.3,0,0.5,0c0.1,0,0.2,0,0.3-0.1c0.1,0,0.1-0.1,0.2-0.2c0-0.1,0-0.2,0-0.3V19.4z M77.2,23v-1h4c0.2,0,0.4,0,0.5-0.1
		c0.1-0.1,0.1-0.2,0.1-0.4v-0.3c0-0.2,0-0.3-0.1-0.3c-0.1-0.1-0.2-0.1-0.4-0.1h-2.5c-0.3,0-0.5,0-0.7-0.1c-0.2-0.1-0.3-0.1-0.5-0.2
		c-0.1-0.1-0.2-0.2-0.2-0.4c0-0.2-0.1-0.4-0.1-0.6v-0.3c0-0.3,0-0.5,0.1-0.7c0.1-0.2,0.1-0.3,0.3-0.5c0.1-0.1,0.3-0.2,0.5-0.3
		c0.2-0.1,0.4-0.1,0.7-0.1h3.8v1h-3.7c-0.2,0-0.3,0-0.4,0.1c-0.1,0.1-0.1,0.2-0.1,0.4v0.2c0,0.2,0,0.3,0.1,0.3
		c0.1,0.1,0.2,0.1,0.4,0.1h2.5c0.3,0,0.5,0,0.7,0.1c0.2,0,0.4,0.1,0.5,0.2c0.1,0.1,0.2,0.2,0.3,0.4c0.1,0.2,0.1,0.4,0.1,0.6v0.4
		c0,0.2,0,0.5-0.1,0.6c-0.1,0.2-0.1,0.3-0.3,0.4c-0.1,0.1-0.3,0.2-0.5,0.2C81.8,23,81.5,23,81.2,23H77.2z"/>
	<path class="st3" d="M0,0.4h10.3c0.7,0,1.3,0,1.8,0.1C12.6,0.6,13,0.8,13.3,1c0.3,0.2,0.5,0.5,0.7,0.9c0.1,0.4,0.2,0.8,0.2,1.3v1
		c0,0.7-0.1,1.2-0.4,1.5c-0.3,0.3-0.6,0.5-1,0.6c0.2,0,0.4,0.1,0.6,0.2C13.7,6.7,13.8,6.9,14,7c0.1,0.2,0.2,0.4,0.3,0.7
		c0.1,0.3,0.1,0.7,0.1,1.1V10c0,0.5-0.1,0.9-0.2,1.2c-0.1,0.3-0.4,0.6-0.7,0.8c-0.3,0.2-0.7,0.4-1.2,0.5c-0.5,0.1-1.1,0.1-1.8,0.1H0
		V5.4l10.4,0c0.5,0,0.8-0.1,1-0.2c0.2-0.2,0.3-0.4,0.3-0.8V3.6c0-0.4-0.1-0.6-0.3-0.8c-0.2-0.1-0.6-0.2-1.2-0.2H0V0.4z M2.7,7.4v3
		h7.6c0.5,0,0.9-0.1,1.1-0.2c0.2-0.1,0.3-0.4,0.3-0.8V8.7c0-0.5-0.1-0.8-0.3-1c-0.2-0.2-0.5-0.3-1.1-0.3H2.7z"/>
	<polygon class="st0" points="21,12.5 28.5,12.5 24.8,6.5 	"/>
	<path class="st0" d="M31.7,9.1l-4.9-7.9l0,0c-0.2-0.4-0.5-0.7-0.8-0.9C25.7,0.1,25.3,0,24.7,0s-1,0.1-1.2,0.3
		c-0.3,0.2-0.5,0.5-0.8,0.9l0,0l-5,8.1l-2,3.3h2H19l5.8-9.5l5.8,9.5h1.1h2.2L31.7,9.1z"/>
	<path class="st3" d="M61,8.5h2.2c0.8,0,1.6-0.1,2.2-0.2c0.6-0.1,1.1-0.3,1.5-0.6s0.7-0.6,0.9-1.1c0.2-0.5,0.3-1,0.3-1.8V4.1
		c0-0.7-0.1-1.3-0.3-1.8c-0.2-0.5-0.5-0.9-0.9-1.1c-0.4-0.3-0.9-0.5-1.5-0.6c-0.6-0.1-1.3-0.2-2.2-0.2h-9.6v12.3h2.7V8.2l7.2,4.5
		h4.7L61,8.5z M56.3,2.7H63c0.4,0,0.8,0,1.1,0.1c0.3,0,0.5,0.1,0.7,0.2c0.2,0.1,0.3,0.3,0.4,0.5c0.1,0.2,0.1,0.5,0.1,0.8v0.7
		c0,0.3,0,0.6-0.1,0.8c-0.1,0.2-0.2,0.4-0.4,0.5c-0.2,0.1-0.4,0.2-0.7,0.2c-0.3,0-0.7,0.1-1.1,0.1h-6.7V2.7z"/>
	<polygon class="st3" points="47.8,12.7 47.8,7.8 38.8,7.8 38.8,12.7 36,12.7 36,0.4 38.8,0.4 38.8,5.4 47.8,5.4 47.8,0.4 50.5,0.4 
		50.5,12.7 	"/>
	<path class="st3" d="M75.2,12.7c-0.9,0-1.7-0.1-2.2-0.2c-0.6-0.1-1.1-0.4-1.4-0.7c-0.4-0.3-0.6-0.8-0.8-1.3c-0.2-0.5-0.2-1.2-0.2-2
		V4.6c0-0.8,0.1-1.4,0.2-2c0.1-0.5,0.4-1,0.8-1.3C71.9,1,72.4,0.8,73,0.6c0.6-0.2,1.3-0.2,2.2-0.2h3v2.3h-3c-0.4,0-0.7,0-1,0.1
		C74,2.9,73.8,3,73.6,3.1c-0.1,0.1-0.3,0.3-0.3,0.6c-0.1,0.2-0.1,0.5-0.1,0.9v0.8h10.5v2.2H73.3v0.9c0,0.4,0,0.7,0.1,0.9
		c0.1,0.2,0.2,0.4,0.3,0.6c0.1,0.1,0.3,0.2,0.6,0.3c0.3,0.1,0.6,0.1,1,0.1h8.6v2.3H75.2z"/>
	<rect x="86.5" y="0.4" class="st3" width="2.7" height="12.3"/>
	<path class="st3" d="M105.3,12.9c-0.3,0-0.6,0-0.8-0.1c-0.2-0.1-0.5-0.2-0.7-0.4l-8.9-8.4v8.7h-2.5V1.2c0-0.4,0.1-0.7,0.4-0.9
		c0.3-0.2,0.6-0.3,1.1-0.3c0.3,0,0.6,0,0.8,0.1c0.2,0.1,0.4,0.2,0.5,0.3l9,8.7V0.4h2.6v11.4c0,0.4-0.1,0.7-0.4,0.9
		C106,12.8,105.7,12.9,105.3,12.9"/>
</g>
</svg>
