<?xml version="1.0" encoding="utf-8"?>
<!-- Generator: Adobe Illustrator 25.4.1, SVG Export Plug-In . SVG Version: 6.00 Build 0)  -->
<!DOCTYPE svg PUBLIC "-//W3C//DTD SVG 1.1//EN" "http://www.w3.org/Graphics/SVG/1.1/DTD/svg11.dtd" [
	<!ENTITY ns_extend "http://ns.adobe.com/Extensibility/1.0/">
	<!ENTITY ns_ai "http://ns.adobe.com/AdobeIllustrator/10.0/">
	<!ENTITY ns_graphs "http://ns.adobe.com/Graphs/1.0/">
	<!ENTITY ns_vars "http://ns.adobe.com/Variables/1.0/">
	<!ENTITY ns_imrep "http://ns.adobe.com/ImageReplacement/1.0/">
	<!ENTITY ns_sfw "http://ns.adobe.com/SaveForWeb/1.0/">
	<!ENTITY ns_custom "http://ns.adobe.com/GenericCustomNamespace/1.0/">
	<!ENTITY ns_adobe_xpath "http://ns.adobe.com/XPath/1.0/">
]>
<svg version="1.1" id="Camada_1" xmlns:x="&ns_extend;" xmlns:i="&ns_ai;" xmlns:graph="&ns_graphs;"
	 xmlns="http://www.w3.org/2000/svg" xmlns:xlink="http://www.w3.org/1999/xlink" x="0px" y="0px" viewBox="0 0 69.6 44.5"
	 style="enable-background:new 0 0 69.6 44.5;" xml:space="preserve">
<style type="text/css">
	.st0{fill:#FFFFFF;}
	.st1{clip-path:url(#SVGID_00000105391504653746730020000011363102337798068109_);fill:#FFFFFF;}
	.st2{clip-path:url(#SVGID_00000018926517027233094250000015751484279299157655_);fill:#FFFFFF;}
	.st3{fill-rule:evenodd;clip-rule:evenodd;fill:#FFFFFF;}
	.st4{opacity:0.8;}
	.st5{opacity:0.4;clip-path:url(#SVGID_00000002343020257876935480000010780343384871295906_);}
	.st6{clip-path:url(#SVGID_00000067219223932256917640000015303413785444315037_);fill:#FFFFFF;}
	.st7{clip-path:url(#SVGID_00000095338549795863466160000016686606409896861618_);fill:#FFFFFF;}
	.st8{clip-path:url(#SVGID_00000065046526279688870420000015179872245619006626_);fill:#FFFFFF;}
	.st9{clip-path:url(#SVGID_00000091703969980828378110000013060601441257866657_);fill:#FFFFFF;}
	.st10{clip-path:url(#SVGID_00000018217688081843825870000009865065118997565063_);fill:#FFFFFF;}
	.st11{clip-path:url(#SVGID_00000137132337524015485450000003851260483052833154_);fill:#FFFFFF;}
	.st12{clip-path:url(#SVGID_00000059270985459187186520000000967989130610517902_);fill:#FFFFFF;}
	.st13{clip-path:url(#SVGID_00000143604206761333066610000003178607216080031382_);fill:#FFFFFF;}
</style>
<metadata>
	<sfw  xmlns="&ns_sfw;">
		<slices></slices>
		<sliceSourceBounds  bottomLeftOrigin="true" height="280.2" width="1017.9" x="-2419.2" y="3433.6"></sliceSourceBounds>
	</sfw>
</metadata>
<g>
	<path class="st0" d="M30,29.2L30,29.2c-1.2,0.2-2.3-0.6-2.5-1.9L23.7,2.6c-0.2-1.2,0.6-2.3,1.9-2.5c1.2-0.2,2.3,0.6,2.5,1.9
		l3.7,24.8C32,27.9,31.2,29,30,29.2"/>
	<path class="st0" d="M21.8,29.2L21.8,29.2c1.2,0.2,2.3-0.6,2.5-1.9l3.7-24.8c0.2-1.2-0.6-2.3-1.9-2.5c-1.2-0.2-2.3,0.6-2.5,1.9
		L20,26.7C19.8,27.9,20.6,29,21.8,29.2"/>
	<path class="st0" d="M28.1,1.9l0.5,3.2c0,0-0.1-0.2-0.4-0.2c-0.5,0.2-0.6,1.1-0.6,1.1L28.1,1.9z"/>
	<path class="st0" d="M27.5,27.3L27,24.1c0,0,0.1,0.2,0.4,0.2c0.5-0.2,0.6-1.1,0.6-1.1L27.5,27.3z"/>
	<path class="st0" d="M37.5,29.2L37.5,29.2c-1.2,0.2-2.3-0.6-2.5-1.9L31.2,2.6c-0.2-1.2,0.6-2.3,1.9-2.5c1.2-0.2,2.3,0.6,2.5,1.9
		l3.7,24.8C39.5,27.9,38.7,29,37.5,29.2"/>
	<path class="st0" d="M29.3,29.2L29.3,29.2c1.2,0.2,2.3-0.6,2.5-1.9l3.7-24.8c0.2-1.2-0.6-2.3-1.9-2.5c-1.2-0.2-2.3,0.6-2.5,1.9
		l-3.7,24.8C27.3,27.9,28.1,29,29.3,29.2"/>
	<path class="st0" d="M35.6,1.9l0.5,3.2c0,0-0.1-0.2-0.4-0.2c-0.5,0.2-0.6,1.1-0.6,1.1L35.6,1.9z"/>
	<path class="st0" d="M35,27.3l-0.5-3.2c0,0,0.1,0.2,0.4,0.2c0.5-0.2,0.6-1.1,0.6-1.1L35,27.3z"/>
	<path class="st0" d="M45,29.2L45,29.2c-1.2,0.2-2.3-0.6-2.5-1.9L38.8,2.6c-0.2-1.2,0.6-2.3,1.9-2.5c1.2-0.2,2.3,0.6,2.5,1.9
		l3.7,24.8C47.1,27.9,46.2,29,45,29.2"/>
	<path class="st0" d="M36.9,29.2L36.9,29.2c1.2,0.2,2.3-0.6,2.5-1.9l3.7-24.8c0.2-1.2-0.6-2.3-1.9-2.5c-1.2-0.2-2.3,0.6-2.5,1.9
		L35,26.7C34.8,27.9,35.7,29,36.9,29.2"/>
	<path class="st0" d="M43.1,1.9l0.5,3.2c0,0-0.1-0.2-0.4-0.2c-0.5,0.2-0.6,1.1-0.6,1.1L43.1,1.9z"/>
	<path class="st0" d="M42.5,27.3L42,24.1c0,0,0.1,0.2,0.4,0.2c0.5-0.2,0.6-1.1,0.6-1.1L42.5,27.3z"/>
	<path class="st0" d="M44.4,29.2L44.4,29.2c1.2,0.2,2.3-0.6,2.5-1.9l2.7-17.6c0.2-1.2-0.6-2.3-1.9-2.5C46.5,7,45.4,7.8,45.2,9
		l-2.7,17.6C42.4,27.9,43.2,29,44.4,29.2"/>
	<polygon class="st0" points="3.1,40.1 2.3,40.8 1.8,44.3 0,44.3 1.3,35.1 3.1,35.1 2.7,38.1 5.8,35.1 8.3,35.1 4.6,38.7 7.1,44.3 
		4.9,44.3 	"/>
	<polygon class="st0" points="8.1,44.3 9.4,35.1 11.2,35.1 9.9,44.3 	"/>
	<polygon class="st0" points="14.5,40.1 13.6,40.8 13.1,44.3 11.3,44.3 12.6,35.1 14.4,35.1 14,38.1 17.1,35.1 19.6,35.1 15.9,38.7 
		18.4,44.3 16.2,44.3 	"/>
	<path class="st0" d="M28.5,39.7c-0.4,2.6-2.8,4.8-5.4,4.8c-2.6,0-4.5-2.1-4.1-4.8c0.4-2.6,2.8-4.8,5.4-4.8
		C27.1,34.9,28.9,37.1,28.5,39.7 M20.9,39.7c-0.2,1.6,0.9,2.9,2.5,2.9c1.6,0,3.1-1.3,3.3-2.9c0.2-1.6-0.9-2.9-2.5-2.9
		C22.6,36.8,21.1,38.1,20.9,39.7"/>
	<path class="st0" d="M44.6,40.9c-0.3,2-2.1,3.6-4.1,3.6c-2,0-3.3-1.6-3.1-3.6l0.8-5.8h1.8l-0.8,5.8c-0.1,0.5,0.1,0.9,0.3,1.2
		c0.3,0.3,0.7,0.5,1.2,0.5c0.5,0,0.9-0.2,1.3-0.5c0.4-0.3,0.6-0.8,0.7-1.2h0l0.8-5.8h1.8L44.6,40.9L44.6,40.9z"/>
	<polygon class="st0" points="53.2,35.1 53,36.9 50.4,36.9 49.4,44.3 47.5,44.3 48.6,36.9 46,36.9 46.3,35.1 	"/>
	<path class="st0" d="M62.3,39.7c-0.4,2.6-2.8,4.8-5.4,4.8c-2.6,0-4.5-2.1-4.1-4.8c0.4-2.6,2.8-4.8,5.4-4.8
		C60.8,34.9,62.6,37.1,62.3,39.7 M54.6,39.7c-0.2,1.6,0.9,2.9,2.5,2.9c1.6,0,3.1-1.3,3.3-2.9c0.2-1.6-0.9-2.9-2.5-2.9
		C56.3,36.8,54.8,38.1,54.6,39.7"/>
	<path class="st0" d="M65.7,40.4c-0.3-0.1-0.8-0.2-1.3-0.6c-0.7-0.5-1-1.2-0.9-2.1c0.1-0.7,0.4-1.4,0.9-1.9c0.8-0.7,1.8-0.9,2.3-0.9
		c1.3,0,2,0.5,2.6,0.9l0.3,0.2l-1.2,1.6l-0.3-0.2c-0.5-0.4-0.9-0.6-1.7-0.6c-0.1,0-0.6,0.1-0.9,0.3c-0.1,0.1-0.2,0.2-0.2,0.5
		c0,0.5,0.2,0.7,1.1,0.9c0.1,0,0.2,0,0.2,0.1c0.8,0.3,1.5,0.7,1.9,1.2c0.4,0.5,0.6,1.1,0.5,1.8c-0.1,0.6-0.5,1.3-1,1.8
		c-0.6,0.6-1.4,0.9-2.3,0.9c-0.4,0-1,0-1.6-0.2c-0.8-0.3-1.5-0.7-2-1.4l1.5-1.3c0.8,1,1.9,1,2.3,1c0.8,0,1.1-0.7,1.1-0.9
		C67.2,41.2,66.7,40.7,65.7,40.4L65.7,40.4L65.7,40.4z"/>
	<polygon class="st0" points="34.1,35 33.5,35 27.5,44.2 29.6,44.2 30.1,43.5 32.9,43.5 33.9,41.7 31.3,41.8 33.2,38.7 34.3,41.7 
		34.9,43.5 35.1,44.2 37.1,44.2 	"/>
</g>
</svg>
