<?xml version="1.0" encoding="utf-8"?>
<!-- Generator: Adobe Illustrator 25.4.1, SVG Export Plug-In . SVG Version: 6.00 Build 0)  -->
<!DOCTYPE svg PUBLIC "-//W3C//DTD SVG 1.1//EN" "http://www.w3.org/Graphics/SVG/1.1/DTD/svg11.dtd" [
	<!ENTITY ns_extend "http://ns.adobe.com/Extensibility/1.0/">
	<!ENTITY ns_ai "http://ns.adobe.com/AdobeIllustrator/10.0/">
	<!ENTITY ns_graphs "http://ns.adobe.com/Graphs/1.0/">
	<!ENTITY ns_vars "http://ns.adobe.com/Variables/1.0/">
	<!ENTITY ns_imrep "http://ns.adobe.com/ImageReplacement/1.0/">
	<!ENTITY ns_sfw "http://ns.adobe.com/SaveForWeb/1.0/">
	<!ENTITY ns_custom "http://ns.adobe.com/GenericCustomNamespace/1.0/">
	<!ENTITY ns_adobe_xpath "http://ns.adobe.com/XPath/1.0/">
]>
<svg version="1.1" id="Camada_1" xmlns:x="&ns_extend;" xmlns:i="&ns_ai;" xmlns:graph="&ns_graphs;"
	 xmlns="http://www.w3.org/2000/svg" xmlns:xlink="http://www.w3.org/1999/xlink" x="0px" y="0px" viewBox="0 0 84.8 29.2"
	 style="enable-background:new 0 0 84.8 29.2;" xml:space="preserve">
<style type="text/css">
	.st0{fill:#FFFFFF;}
	.st1{clip-path:url(#SVGID_00000139977174948260157360000011851391982567209863_);fill:#FFFFFF;}
	.st2{clip-path:url(#SVGID_00000146462300281759053880000011259841445625155754_);fill:#FFFFFF;}
	.st3{fill-rule:evenodd;clip-rule:evenodd;fill:#FFFFFF;}
	.st4{opacity:0.8;}
	.st5{opacity:0.4;clip-path:url(#SVGID_00000079449532900123155630000010949528724456784303_);}
	.st6{clip-path:url(#SVGID_00000153686670757030504660000012291977787926288781_);fill:#FFFFFF;}
	.st7{clip-path:url(#SVGID_00000154413882993465062980000001613661106425986434_);fill:#FFFFFF;}
	.st8{clip-path:url(#SVGID_00000091724308995707016020000002000681689621256123_);fill:#FFFFFF;}
	.st9{clip-path:url(#SVGID_00000165228518244406796950000011539919529317407407_);fill:#FFFFFF;}
	.st10{clip-path:url(#SVGID_00000042736294442524808440000010629007652330747553_);fill:#FFFFFF;}
	.st11{clip-path:url(#SVGID_00000078020797341894351970000007564695694710964125_);fill:#FFFFFF;}
	.st12{clip-path:url(#SVGID_00000062914436004561680130000008192236797385681855_);fill:#FFFFFF;}
	.st13{clip-path:url(#SVGID_00000179635842393507413500000006671699008538783395_);fill:#FFFFFF;}
</style>
<metadata>
	<sfw  xmlns="&ns_sfw;">
		<slices></slices>
		<sliceSourceBounds  bottomLeftOrigin="true" height="280.2" width="1017.9" x="-2419.2" y="3433.6"></sliceSourceBounds>
	</sfw>
</metadata>
<g>
	<path class="st0" d="M82.1,9h-2.7c-1.8,0-3.3,1.4-3.5,3.2l-0.3,3.4l0,0l0,0.1l0,0.1l0,0.1l0,0.1l0,0.1l0,0.1l0,0.1l0,0.1l0,0.1
		L75.1,22l0,0.1l0,0.1l0,0.1l0,0.1l0,0.1l0,0.1l0,0.1l0,0.1l0,0.1l0,0.1l0,0.1l0,0.1l0,0.1l0,0.1l0,0.1l0,0.1l0,0.1l0,0.1l0,0.1
		l0,0.1l0,0.1l0,0l-0.2,1.8L74.7,26l-0.3,3.2h2.9l0,0l0.3-3.6l0-0.4l0.2-1.8l0.2-2.2l0.1-0.7h0.7h1.1h1.1l-0.4,4.6l-0.1,1l-0.3,2.9
		H82h1.3l0.9-9.8l0.1-0.7l0.6-6.8C84.9,10.3,83.7,9,82.1,9z M81.3,17.6L81.3,17.6h-1.1h-1.1h-0.7l0.1-0.7l0.1-1.4l0.3-2.9
		c0-0.4,0.4-0.7,0.7-0.7h2.3L81.3,17.6z"/>
	<path class="st0" d="M28.6,9h-2.7c-1.8,0-3.3,1.4-3.5,3.2l-0.3,3.4l0,0l0,0.1l0,0.1l0,0.1l0,0.1l0,0.1l0,0.1l0,0.1l0,0.1l0,0.1
		L21.6,22l0,0.1l0,0.1l0,0.1l0,0.1l0,0.1l0,0.1l0,0.1l0,0.1l0,0.1l0,0.1l0,0.1l0,0.1l0,0.1l0,0.1l0,0.1l0,0.1l0,0.1l0,0.1l0,0.1
		l0,0.1l0,0.1l0,0l-0.2,1.8L21.2,26l-0.3,3.2h2.9l0,0l0.3-3.6l0-0.4l0.2-1.8l0.2-2.2l0.1-0.7h0.7h1.1h1.1l-0.4,4.6l-0.1,1l-0.3,2.9
		h1.7h1.3l0.9-9.8l0.1-0.7l0.6-6.8C31.4,10.3,30.2,9,28.6,9 M27.8,17.6L27.8,17.6h-1.1h-1.1h-0.7l0.1-0.7l0.1-1.4l0.3-2.9
		c0-0.4,0.4-0.7,0.7-0.7h2.3L27.8,17.6z"/>
	<path class="st0" d="M13.2,9h1.7h2.7c1.8,0,3.1,1.4,2.9,3.2l-0.2,2.6l-0.1,1.5L19.6,22l-0.1,1.5L19.2,26c-0.2,1.8-1.7,3.2-3.5,3.2
		h-2.7h-1.7h-1.3l0.9-9.8l0.1-0.7L11.9,9H13.2z M13.8,20.6l-0.2,2.8l-0.2,2.8h2.3c0.4,0,0.7-0.3,0.7-0.7l0.2-2.2l0.2-2.2l0.4-4.3
		l0.2-2.2l0.2-2.2c0-0.4-0.3-0.7-0.6-0.7h-2.3l-0.2,2.8l-0.2,2.8L13.8,20.6z"/>
	<path class="st0" d="M58.8,9h-1.2c-1.8,0-3.3,1.4-3.5,3.2l-0.2,2.6l-0.1,1.5L53.2,22l-0.1,1.5L52.9,26c-0.2,1.8,1.2,3.2,2.9,3.2H57
		h1.2c1.8,0,3.3-1.4,3.5-3.2l0.2-2.6l0.1-1.5l0.5-5.7l0.1-1.5l0.2-2.6C63.1,10.4,61.8,9,60,9H58.8z M57.3,26.3h-0.8
		c-0.4,0-0.7-0.3-0.6-0.7l0.2-2.2l0.2-2.2l0.4-4.3l0.2-2.2l0.2-2.2c0-0.4,0.4-0.7,0.7-0.7h0.8h0.8c0.4,0,0.7,0.3,0.6,0.7l-0.2,2.2
		l-0.2,2.2l-0.4,4.3L59,23.4l-0.2,2.2c0,0.4-0.4,0.7-0.7,0.7H57.3z"/>
	<polygon class="st0" points="0.5,29.2 0,29.2 1.8,9 2.2,9 	"/>
	<polygon class="st0" points="2.7,29.2 4.5,9 3.5,9 1.7,29.2 	"/>
	<polygon class="st0" points="5.5,29.2 7.3,9 5.7,9 4,29.2 	"/>
	<polygon class="st0" points="8.9,29.2 10.6,9 8.5,9 6.8,29.2 	"/>
	<path class="st0" d="M66.7,9h4.4c1.8,0,3.1,1.4,2.9,3.2l-1.5,17h-2.9L71,12.6c0-0.4-0.3-0.7-0.6-0.7h-2.3l-1.5,17.3h-2.9L65.4,9
		H66.7z"/>
	<polygon class="st0" points="46.6,29.2 47,29.2 48.3,29.2 49.8,11.9 52.4,11.9 52.6,9 50.1,9 47.1,9 44.5,9 44.3,11.9 46.8,11.9 
		45.3,29.2 	"/>
	<polygon class="st0" points="38.7,19.9 37.9,29.2 34.9,29.2 35.7,19.9 35.7,19.7 32.9,9 36,9 37.6,15.2 40.3,9 43.4,9 38.8,19.7 	
		"/>
	<path class="st3" d="M38.1,0h-0.3l-0.4,3c-0.1,0.5,0.3,0.8,0.7,0.8h1.8c0.5,0,0.9-0.4,0.9-0.8l0.4-3h-0.3l-0.4,3
		c0,0.3-0.3,0.5-0.5,0.5h-1.8c-0.1,0-0.3,0-0.4-0.2c-0.1-0.2-0.1-0.4,0-0.6L38.1,0z"/>
	<polygon class="st3" points="25.5,0 25.5,0.3 27.1,0.3 26.7,3.9 27,3.9 27.5,0.3 29.1,0.3 29.2,0 	"/>
	<path class="st3" d="M16.1,0.9h0.3l0-0.1c0-0.4-0.2-0.7-0.5-0.8c-0.1,0-0.2,0-0.3,0H14c-0.1,0-0.2,0-0.3,0
		c-0.4,0.1-0.6,0.4-0.7,0.8L13,1.3c0,0.2,0,0.4,0.1,0.5c0.1,0.1,0.2,0.2,0.3,0.2c0.1,0,0.2,0,0.3,0h1.8c0.3,0,0.5,0.2,0.4,0.5
		L15.9,3c0,0.3-0.3,0.5-0.5,0.5h-1.8c-0.3,0-0.5-0.2-0.4-0.5l0-0.1h-0.3l0,0.1c0,0.4,0.2,0.7,0.5,0.8c0.1,0,0.2,0,0.3,0h1.8
		c0.1,0,0.2,0,0.3,0c0.4-0.1,0.6-0.4,0.7-0.8l0.1-0.4c0-0.2,0-0.4-0.1-0.5c-0.1-0.1-0.2-0.2-0.3-0.2c-0.1,0-0.2,0-0.3,0h-1.8
		c-0.3,0-0.5-0.2-0.4-0.5l0.1-0.4c0-0.3,0.3-0.5,0.5-0.5h1.8C16,0.3,16.2,0.6,16.1,0.9L16.1,0.9z"/>
	<path class="st3" d="M72.1,3.9h1.8c0.5,0,0.9-0.4,0.9-0.8l0.3-2.2C75.1,0.4,74.8,0,74.3,0h-1.8c-0.5,0-0.9,0.4-0.9,0.8L71.3,3
		C71.3,3.5,71.6,3.9,72.1,3.9 M74.7,0.8L74.4,3c0,0.3-0.3,0.5-0.5,0.5h-1.8c-0.3,0-0.5-0.2-0.4-0.5L72,0.8c0-0.3,0.3-0.5,0.5-0.5
		h1.8C74.5,0.3,74.7,0.6,74.7,0.8"/>
	<polygon class="st3" points="62.4,0 62,3.9 62.3,3.9 62.8,0 	"/>
	<path class="st3" d="M50.1,0l-0.5,3.9h2.6c0.5,0,0.9-0.4,0.9-0.8l0.3-2.2C53.5,0.4,53.2,0,52.7,0H50.1z M53,1.5l-0.1,1.2
		c0,0.1,0,0.2,0,0.3c0,0.3-0.2,0.6-0.6,0.6H50l0.4-3.2h1.4c0.3,0,0.5,0,0.8,0c0.2,0,0.3,0,0.4,0.1c0.1,0.1,0.1,0.3,0.1,0.4
		C53.1,1.1,53.1,1.3,53,1.5"/>
</g>
</svg>
