<?xml version="1.0" encoding="utf-8"?>
<!-- Generator: Adobe Illustrator 25.4.1, SVG Export Plug-In . SVG Version: 6.00 Build 0)  -->
<!DOCTYPE svg PUBLIC "-//W3C//DTD SVG 1.1//EN" "http://www.w3.org/Graphics/SVG/1.1/DTD/svg11.dtd" [
	<!ENTITY ns_extend "http://ns.adobe.com/Extensibility/1.0/">
	<!ENTITY ns_ai "http://ns.adobe.com/AdobeIllustrator/10.0/">
	<!ENTITY ns_graphs "http://ns.adobe.com/Graphs/1.0/">
	<!ENTITY ns_vars "http://ns.adobe.com/Variables/1.0/">
	<!ENTITY ns_imrep "http://ns.adobe.com/ImageReplacement/1.0/">
	<!ENTITY ns_sfw "http://ns.adobe.com/SaveForWeb/1.0/">
	<!ENTITY ns_custom "http://ns.adobe.com/GenericCustomNamespace/1.0/">
	<!ENTITY ns_adobe_xpath "http://ns.adobe.com/XPath/1.0/">
]>
<svg version="1.1" id="Camada_1" xmlns:x="&ns_extend;" xmlns:i="&ns_ai;" xmlns:graph="&ns_graphs;"
	 xmlns="http://www.w3.org/2000/svg" xmlns:xlink="http://www.w3.org/1999/xlink" x="0px" y="0px" viewBox="0 0 66.5 46.6"
	 style="enable-background:new 0 0 66.5 46.6;" xml:space="preserve">
<style type="text/css">
	.st0{fill:#FFFFFF;}
	.st1{clip-path:url(#SVGID_00000142146758824299574580000007165081708044708277_);fill:#FFFFFF;}
	.st2{clip-path:url(#SVGID_00000163759965971134515330000012672496849001101211_);fill:#FFFFFF;}
	.st3{fill-rule:evenodd;clip-rule:evenodd;fill:#FFFFFF;}
	.st4{opacity:0.8;}
	.st5{opacity:0.4;clip-path:url(#SVGID_00000160886719521338031260000007693415668693325219_);}
	.st6{clip-path:url(#SVGID_00000006692147445677090380000008955402560862163345_);fill:#FFFFFF;}
	.st7{clip-path:url(#SVGID_00000101077828329722072220000001629734646433290415_);fill:#FFFFFF;}
	.st8{clip-path:url(#SVGID_00000176020534261957319910000000751165912341293710_);fill:#FFFFFF;}
	.st9{clip-path:url(#SVGID_00000176035499541954676710000006607168066969353638_);fill:#FFFFFF;}
	.st10{clip-path:url(#SVGID_00000020367832364098349010000015724565930389162116_);fill:#FFFFFF;}
	.st11{clip-path:url(#SVGID_00000182498444507814107230000012750038108324835759_);fill:#FFFFFF;}
	.st12{clip-path:url(#SVGID_00000098907531761754539190000014210861451918948025_);fill:#FFFFFF;}
	.st13{clip-path:url(#SVGID_00000028304539119303661830000001488809380414811826_);fill:#FFFFFF;}
</style>
<metadata>
	<sfw  xmlns="&ns_sfw;">
		<slices></slices>
		<sliceSourceBounds  bottomLeftOrigin="true" height="280.2" width="1017.9" x="-2419.2" y="3433.6"></sliceSourceBounds>
	</sfw>
</metadata>
<g>
	<path class="st0" d="M16.2,42.1c0,1.5-1.1,2.5-3,2.5h-1.4v1.9h-1.6v-6.9h3C15,39.6,16.2,40.5,16.2,42.1 M14.6,42.1
		c0-0.8-0.5-1.2-1.5-1.2h-1.3v2.4h1.3C14.1,43.3,14.6,42.8,14.6,42.1"/>
	<path class="st0" d="M17,43c0-2,1.6-3.5,3.8-3.5c2.2,0,3.8,1.5,3.8,3.5c0,2-1.6,3.5-3.8,3.5C18.5,46.6,17,45,17,43 M22.9,43
		c0-1.3-0.9-2.2-2.1-2.2c-1.2,0-2.1,0.9-2.1,2.2c0,1.3,0.9,2.2,2.1,2.2C21.9,45.2,22.9,44.3,22.9,43"/>
	<polygon class="st0" points="31.9,39.6 31.9,46.4 30.6,46.4 27.2,42.3 27.2,46.4 25.7,46.4 25.7,39.6 27,39.6 30.4,43.7 30.4,39.6 
			"/>
	<polygon class="st0" points="35,40.9 32.8,40.9 32.8,39.6 38.8,39.6 38.8,40.9 36.6,40.9 36.6,46.4 35,46.4 	"/>
	<path class="st0" d="M39.1,43c0-2,1.6-3.5,3.8-3.5c2.2,0,3.8,1.5,3.8,3.5c0,2-1.6,3.5-3.8,3.5C40.7,46.6,39.1,45,39.1,43 M45,43
		c0-1.3-0.9-2.2-2.1-2.2c-1.2,0-2.1,0.9-2.1,2.2c0,1.3,0.9,2.2,2.1,2.2C44.1,45.2,45,44.3,45,43"/>
	<polygon class="st0" points="53.1,43.7 52.1,44.7 52.1,46.4 50.6,46.4 50.6,39.6 52.1,39.6 52.1,42.8 55.2,39.6 56.9,39.6 
		54.1,42.6 57.1,46.4 55.3,46.4 	"/>
	<path class="st0" d="M35,33.3h-3.6c-0.1,0-0.1,0-0.2,0c-1.1,0-2.3-0.1-3.4-0.2c-0.9-0.1-1.8-0.2-2.8-0.3c-1.4-0.2-2.9-0.4-4.3-0.7
		c-2.3-0.5-4.5-1.1-6.7-1.8c-2.2-0.8-4.4-1.7-6.4-3c-1.6-0.9-3-2-4.3-3.3c-0.9-1-1.8-2-2.4-3.2c-0.5-1-0.9-2.1-1-3.3
		c0-0.1,0-0.2-0.1-0.3v-1.1c0-0.1,0.1-0.2,0.1-0.3c0.1-1,0.4-2,0.8-2.9c0.6-1.3,1.4-2.4,2.4-3.5c1.2-1.3,2.6-2.4,4.2-3.3
		c1.8-1.1,3.7-2,5.7-2.8C17,1.9,21,1,25.1,0.5c1.1-0.1,2.1-0.2,3.2-0.3c1.2-0.1,2.3-0.1,3.5-0.2c2.5-0.1,4.9,0,7.4,0.3
		c1,0.1,1.9,0.2,2.9,0.3c1.4,0.2,2.7,0.4,4.1,0.7c2.5,0.5,5,1.2,7.4,2.1c2.1,0.8,4.2,1.8,6.1,3.1c1.4,0.9,2.8,2,3.9,3.3
		c0.9,1,1.7,2.1,2.2,3.3c0.7,1.5,0.9,3.1,0.7,4.7c-0.1,1.2-0.5,2.3-1.1,3.3c-0.6,1.2-1.5,2.2-2.4,3.2c-1.2,1.2-2.6,2.2-4.1,3.1
		c-2,1.2-4.1,2.2-6.3,2.9c-2.1,0.8-4.3,1.4-6.6,1.8c-1.2,0.2-2.3,0.5-3.5,0.6c-0.8,0.1-1.7,0.2-2.5,0.3c-0.8,0.1-1.7,0.2-2.5,0.2
		c-0.7,0-1.4,0.1-2.1,0.1C35.2,33.3,35.1,33.3,35,33.3 M33.5,2.1c-1,0-1.8,0-2.5,0.1c-1.3,0-2.5,0.1-3.8,0.3
		c-1.3,0.1-2.5,0.3-3.8,0.5c-2.1,0.4-4.1,0.8-6.1,1.5c-2.1,0.7-4.2,1.5-6.2,2.7C9.5,8,8,9.1,6.7,10.5c-0.7,0.8-1.4,1.6-1.9,2.6
		c-0.6,1.1-0.9,2.3-0.9,3.6c0,1.3,0.3,2.5,0.9,3.7c0.6,1.1,1.3,2,2.1,2.8c1.4,1.4,2.9,2.5,4.6,3.4c1.9,1,3.9,1.8,5.9,2.5
		c2.4,0.8,4.8,1.3,7.3,1.7c1,0.1,1.9,0.3,2.9,0.3c0.9,0.1,1.9,0.2,2.8,0.2c0.7,0,1.3,0,2,0c1.4,0,2.9,0,4.3-0.1
		c1.1,0,2.1-0.2,3.2-0.3c1.1-0.1,2.2-0.3,3.3-0.5c2-0.3,4-0.8,5.9-1.4c2.4-0.8,4.7-1.7,6.9-3c1.5-0.9,2.8-1.9,4-3.1
		c0.5-0.6,1-1.2,1.4-1.8c0.7-1.2,1.2-2.5,1.3-3.9c0-1.1-0.1-2.1-0.5-3.1c-0.5-1.4-1.4-2.6-2.4-3.6C58.4,9,56.9,7.9,55.2,7
		c-2-1.1-4.2-2-6.4-2.7c-2.6-0.8-5.2-1.4-7.9-1.7c-1.3-0.2-2.7-0.3-4.1-0.4C35.7,2.1,34.5,2.1,33.5,2.1"/>
	<path class="st0" d="M11.8,9.1V8.2c0.1,0,0.1,0,0.2,0c1.6,0,3.3,0,4.9,0c0.2,0,0.4,0.1,0.4,0.4c0,1.6,0,3.2,0,4.7
		c0,0.2,0,0.4,0,0.6c0,0.1,0,0.2,0.1,0.2c0.1,0,0.2,0,0.3-0.1c0.1-0.2,0.3-0.3,0.4-0.5c0.8-1.2,1.6-2.3,2.4-3.5c0.3-0.5,0.7-1,1-1.4
		c0.1-0.1,0.1-0.2,0.2-0.2c0.1-0.1,0.2-0.2,0.4-0.2c0.2,0,0.3,0,0.5,0c1.3,0,2.6,0,3.9,0c0.2,0,0.3,0.1,0.3,0.2c0.1,0.1,0,0.2,0,0.4
		c-0.5,0.7-0.9,1.4-1.4,2c-1.1,1.6-2.2,3.2-3.2,4.8c-0.1,0.1-0.2,0.3-0.3,0.4c-0.1,0.1-0.1,0.2,0,0.3c0.1,0.1,0.2,0.3,0.3,0.4
		c1.2,1.7,2.4,3.4,3.6,5.1c0.6,0.8,1.2,1.6,1.7,2.5c0.1,0.1,0.2,0.3,0.3,0.4c0.1,0.2,0,0.4-0.3,0.4c-1.4,0-2.9,0-4.3,0
		c-0.1,0-0.1,0-0.2,0c-0.3,0-0.5-0.1-0.6-0.4c-0.8-1.2-1.7-2.3-2.5-3.5c-0.7-1-1.4-1.9-2.1-2.9c0-0.1-0.1-0.1-0.1-0.2
		c-0.1-0.1-0.1-0.1-0.2-0.1c-0.1,0-0.1,0.1-0.1,0.2c0,0.3,0,0.5,0,0.8c0,1.6,0,3.1,0,4.7c0,0.3,0,0.7,0,1c0,0.2-0.1,0.3-0.3,0.3
		c-1.2,0-2.3,0-3.5,0c-0.2,0-0.3,0-0.5,0c-0.1,0-0.2-0.1-0.2-0.2c0-0.1,0-0.2,0-0.3c0-1.3,0-2.6,0-4c0-3.7,0-7.4,0-11
		c0-0.1,0-0.3-0.1-0.3c-0.1,0-0.1-0.1-0.2-0.1C12.2,9.2,12,9.2,11.8,9.1"/>
	<path class="st0" d="M43,9.1v-1c0.1,0,0.1,0,0.2,0c1.9,0,3.8,0,5.7,0c0.2,0,0.4,0,0.6,0c0.2,0,0.3,0.1,0.3,0.2
		c0.3,0.9,0.6,1.9,1,2.8c1.4,4.3,2.9,8.6,4.3,13c0,0.1,0.1,0.3,0.1,0.4c0.1,0.2,0,0.4-0.3,0.4c-0.1,0-0.2,0-0.3,0
		c-1.1,0-2.2,0-3.3,0c-0.1,0-0.2,0-0.3,0c-0.2,0-0.4-0.1-0.4-0.4c-0.2-0.5-0.4-1-0.5-1.5c-0.9-2.8-1.8-5.7-2.7-8.5
		c0-0.1-0.1-0.3-0.1-0.4c0,0,0-0.1-0.1-0.1c-0.1-0.1-0.2-0.1-0.2,0c0,0.1-0.1,0.2-0.1,0.2c-0.2,0.7-0.4,1.3-0.6,2
		c-0.8,2.7-1.7,5.3-2.5,8c0,0.2-0.1,0.3-0.2,0.4c-0.1,0.2-0.2,0.3-0.4,0.3c-1,0-2,0-3,0c-0.3,0-0.6,0-0.9,0c-0.3,0-0.4-0.1-0.3-0.4
		c0.2-0.7,0.5-1.5,0.7-2.2c1.4-4.1,2.7-8.2,4.1-12.3c0.1-0.2,0.1-0.4,0.2-0.6c0.1-0.3,0-0.4-0.3-0.4C43.3,9.2,43.2,9.2,43,9.1"/>
	<path class="st0" d="M30,9.2v-1c0.1,0,0.1,0,0.2,0c1.7,0,3.3,0,5,0c0.2,0,0.3,0.1,0.4,0.2c0,0,0,0.1,0,0.1c0,0,0,0.1,0,0.1
		c0,5.4,0,10.7,0,16.1c0,0.1,0,0.2-0.1,0.3c-0.1,0.1-0.2,0.1-0.3,0.1c-1.2,0-2.5,0-3.7,0c-0.1,0-0.2,0-0.4,0C31,25.1,31,25,31,24.8
		c0-0.1,0-0.3,0-0.4c0-3.1,0-6.2,0-9.3c0-1.8,0-3.6,0-5.4c0-0.3-0.1-0.4-0.4-0.4c-0.1,0-0.2,0-0.2,0C30.2,9.2,30.1,9.2,30,9.2"/>
</g>
</svg>
