<?xml version="1.0" encoding="utf-8"?>
<!-- Generator: Adobe Illustrator 25.4.1, SVG Export Plug-In . SVG Version: 6.00 Build 0)  -->
<!DOCTYPE svg PUBLIC "-//W3C//DTD SVG 1.1//EN" "http://www.w3.org/Graphics/SVG/1.1/DTD/svg11.dtd" [
	<!ENTITY ns_extend "http://ns.adobe.com/Extensibility/1.0/">
	<!ENTITY ns_ai "http://ns.adobe.com/AdobeIllustrator/10.0/">
	<!ENTITY ns_graphs "http://ns.adobe.com/Graphs/1.0/">
	<!ENTITY ns_vars "http://ns.adobe.com/Variables/1.0/">
	<!ENTITY ns_imrep "http://ns.adobe.com/ImageReplacement/1.0/">
	<!ENTITY ns_sfw "http://ns.adobe.com/SaveForWeb/1.0/">
	<!ENTITY ns_custom "http://ns.adobe.com/GenericCustomNamespace/1.0/">
	<!ENTITY ns_adobe_xpath "http://ns.adobe.com/XPath/1.0/">
]>
<svg version="1.1" id="Camada_1" xmlns:x="&ns_extend;" xmlns:i="&ns_ai;" xmlns:graph="&ns_graphs;"
	 xmlns="http://www.w3.org/2000/svg" xmlns:xlink="http://www.w3.org/1999/xlink" x="0px" y="0px" viewBox="0 0 66.8 47.7"
	 style="enable-background:new 0 0 66.8 47.7;" xml:space="preserve">
<style type="text/css">
	.st0{fill:#FFFFFF;}
	.st1{clip-path:url(#SVGID_00000059291072361928916390000009655441224498177977_);fill:#FFFFFF;}
	.st2{clip-path:url(#SVGID_00000057847919465315900350000006372760643495747496_);fill:#FFFFFF;}
	.st3{fill-rule:evenodd;clip-rule:evenodd;fill:#FFFFFF;}
	.st4{opacity:0.8;}
	.st5{opacity:0.4;clip-path:url(#SVGID_00000114766366473335701390000014989790128104526761_);}
	.st6{clip-path:url(#SVGID_00000072243161507059037540000004960251505260172205_);fill:#FFFFFF;}
	.st7{clip-path:url(#SVGID_00000105428720575293269870000017293954336712422043_);fill:#FFFFFF;}
	.st8{clip-path:url(#SVGID_00000018201424364028228400000000383172010319693470_);fill:#FFFFFF;}
	.st9{clip-path:url(#SVGID_00000078761137807491138170000001213421553495353489_);fill:#FFFFFF;}
	.st10{clip-path:url(#SVGID_00000058549036235898305730000014544216387964908724_);fill:#FFFFFF;}
	.st11{clip-path:url(#SVGID_00000046337546274522913530000014409754412213877938_);fill:#FFFFFF;}
	.st12{clip-path:url(#SVGID_00000132766481034132550430000016627324003079655575_);fill:#FFFFFF;}
	.st13{clip-path:url(#SVGID_00000080196421674118818170000008209727793022235026_);fill:#FFFFFF;}
</style>
<metadata>
	<sfw  xmlns="&ns_sfw;">
		<slices></slices>
		<sliceSourceBounds  bottomLeftOrigin="true" height="280.2" width="1017.9" x="-2419.2" y="3433.6"></sliceSourceBounds>
	</sfw>
</metadata>
<g>
	<path class="st3" d="M20,38.4c1.4,0.9,2.2,2.3,2.2,4.2c0,1.4-0.4,2.5-1.3,3.5c-0.9,1-2.2,1.6-3.7,1.6H0V29.3h16.9
		c1.6,0,2.8,0.5,3.7,1.6c0.8,0.9,1.2,2.1,1.2,3.5C21.8,36.1,21.2,37.4,20,38.4 M16.9,36.4c0.6,0,0.9-0.5,0.9-1.4
		c0-0.9-0.3-1.4-0.9-1.4H4.1v2.7H16.9z M17.2,43.4c0.6,0,0.9-0.5,0.9-1.4c0-0.9-0.3-1.4-0.9-1.4h-13v2.7H17.2z M46.5,47.6h-4.1V36.5
		L35,47.3l-7.4-10.8v11.1h-4.1V29.3h4.3L35,39.9l7.2-10.6h4.3V47.6z M66.8,47.7l-18.6,0v-4.3l12.1-9.7H48.2v-4.3h18.6l0,4.2
		l-11.9,9.9l11.9,0V47.7z"/>
	<path class="st0" d="M49,4.7L35.1,0.1c-0.2-0.1-0.4-0.1-0.6,0L20.7,4.8C20.3,5,20,5.4,20.1,5.9L23,20c0,0.2,0.1,0.4,0.3,0.5l11,9.8
		c0.4,0.3,0.9,0.3,1.3,0l11-9.8c0.2-0.1,0.3-0.3,0.3-0.5l2.8-14.2C49.8,5.3,49.5,4.9,49,4.7 M35.8,13.7l11.5,0.8l-11.6,0.8l0,0
		l0,0.4l-0.8,11.2l-0.8-11.2l0-0.4l-0.4,0l-11.2-0.8l11.2-0.8l0.4,0l0.1,0.1l-0.1-0.1l0.8-11.6L35.8,13.7"/>
</g>
</svg>
