<?xml version="1.0" encoding="utf-8"?>
<!-- Generator: Adobe Illustrator 25.4.1, SVG Export Plug-In . SVG Version: 6.00 Build 0)  -->
<!DOCTYPE svg PUBLIC "-//W3C//DTD SVG 1.1//EN" "http://www.w3.org/Graphics/SVG/1.1/DTD/svg11.dtd" [
	<!ENTITY ns_extend "http://ns.adobe.com/Extensibility/1.0/">
	<!ENTITY ns_ai "http://ns.adobe.com/AdobeIllustrator/10.0/">
	<!ENTITY ns_graphs "http://ns.adobe.com/Graphs/1.0/">
	<!ENTITY ns_vars "http://ns.adobe.com/Variables/1.0/">
	<!ENTITY ns_imrep "http://ns.adobe.com/ImageReplacement/1.0/">
	<!ENTITY ns_sfw "http://ns.adobe.com/SaveForWeb/1.0/">
	<!ENTITY ns_custom "http://ns.adobe.com/GenericCustomNamespace/1.0/">
	<!ENTITY ns_adobe_xpath "http://ns.adobe.com/XPath/1.0/">
]>
<svg version="1.1" id="Camada_1" xmlns:x="&ns_extend;" xmlns:i="&ns_ai;" xmlns:graph="&ns_graphs;"
	 xmlns="http://www.w3.org/2000/svg" xmlns:xlink="http://www.w3.org/1999/xlink" x="0px" y="0px" viewBox="0 0 92.5 65.6"
	 style="enable-background:new 0 0 92.5 65.6;" xml:space="preserve">
<style type="text/css">
	.st0{fill:#FFFFFF;}
	.st1{clip-path:url(#SVGID_00000125593022241438902780000008435234035671581844_);fill:#FFFFFF;}
	.st2{clip-path:url(#SVGID_00000147221072156488979830000011700075157196217733_);fill:#FFFFFF;}
	.st3{fill-rule:evenodd;clip-rule:evenodd;fill:#FFFFFF;}
	.st4{opacity:0.8;}
	.st5{opacity:0.4;clip-path:url(#SVGID_00000030451364992863671850000017740017525508304028_);}
	.st6{clip-path:url(#SVGID_00000017508883884660910560000000628741448913160589_);fill:#FFFFFF;}
	.st7{clip-path:url(#SVGID_00000090979256812308018440000015020375393562608824_);fill:#FFFFFF;}
	.st8{clip-path:url(#SVGID_00000068638127862345404470000007369737762746059176_);fill:#FFFFFF;}
	.st9{clip-path:url(#SVGID_00000049197420205974409440000012282784762977679780_);fill:#FFFFFF;}
	.st10{clip-path:url(#SVGID_00000085239236500168770790000003687640288067196313_);fill:#FFFFFF;}
	.st11{clip-path:url(#SVGID_00000058584938482498941370000003135032254884328607_);fill:#FFFFFF;}
	.st12{clip-path:url(#SVGID_00000061434258686431916400000006818111056288240787_);fill:#FFFFFF;}
	.st13{clip-path:url(#SVGID_00000071526149397533874460000004496435653147079866_);fill:#FFFFFF;}
</style>
<metadata>
	<sfw  xmlns="&ns_sfw;">
		<slices></slices>
		<sliceSourceBounds  bottomLeftOrigin="true" height="280.2" width="1017.9" x="-2419.2" y="3433.6"></sliceSourceBounds>
	</sfw>
</metadata>
<g>
	<polygon class="st0" points="32.4,41.7 32.4,47.7 31.4,47.7 31.4,43.4 30.9,44.2 29.9,44.2 29.4,43.4 29.4,47.7 28.4,47.7 
		28.4,41.7 29.4,41.7 30.4,43.3 31.5,41.7 	"/>
	<path class="st0" d="M35.4,43.2c0-0.4,0.2-0.8,0.5-1.1c0.3-0.3,0.7-0.4,1.2-0.4s0.9,0.1,1.2,0.4c0.3,0.3,0.5,0.6,0.5,1.1v3
		c0,0.4-0.2,0.8-0.5,1.1c-0.3,0.3-0.7,0.4-1.2,0.4s-0.9-0.1-1.2-0.4c-0.3-0.3-0.5-0.6-0.5-1.1V43.2z M36.3,46.3
		c0,0.4,0.4,0.7,0.8,0.7c0.4,0,0.8-0.3,0.8-0.7v-3.1c0-0.4-0.4-0.7-0.8-0.7c-0.4,0-0.8,0.3-0.8,0.7V46.3z"/>
	<polygon class="st0" points="41.8,42.5 41.8,41.7 44.8,41.7 44.8,42.5 43.8,42.5 43.8,47.7 42.9,47.7 42.9,42.5 	"/>
	<path class="st0" d="M47.8,43.2c0-0.4,0.2-0.8,0.5-1.1c0.3-0.3,0.7-0.4,1.2-0.4c0.5,0,0.9,0.1,1.2,0.4c0.3,0.3,0.5,0.6,0.5,1.1v3
		c0,0.4-0.2,0.8-0.5,1.1c-0.3,0.3-0.7,0.4-1.2,0.4c-0.5,0-0.9-0.1-1.2-0.4c-0.3-0.3-0.5-0.6-0.5-1.1V43.2z M48.7,46.3
		c0,0.4,0.4,0.7,0.8,0.7c0.4,0,0.8-0.3,0.8-0.7v-3.1c0-0.4-0.4-0.7-0.8-0.7c-0.4,0-0.8,0.3-0.8,0.7V46.3z"/>
	<path class="st0" d="M55.2,47.7h-0.9v-6H56c0.5,0,0.9,0.1,1.2,0.4c0.3,0.3,0.5,0.7,0.5,1.1v1.2c0,0.5-0.2,0.8-0.6,1.1
		c0.4,0.3,0.6,0.7,0.6,1.1v1h-0.9v-1c0-0.2-0.1-0.3-0.2-0.5C56.4,46,56.2,46,56,46h-0.8V47.7z M55.2,42.5v2.7H56
		c0.4,0,0.8-0.3,0.8-0.7v-1.3c0-0.4-0.4-0.7-0.8-0.7H55.2z"/>
	<rect x="46.3" y="17.9" class="st0" width="3" height="20.9"/>
	<polygon class="st0" points="54.5,38.7 54.5,20.9 51.6,20.9 51.6,17.9 60.5,17.9 60.5,20.9 57.5,20.9 57.5,38.7 	"/>
	<rect x="62.7" y="35.8" class="st0" width="9" height="3"/>
	<path class="st0" d="M68,17.9h-1.6c-2,0-3.7,1.7-3.7,3.7v7.5c0,2,1.7,3.7,3.7,3.7H68c2,0,3.7-1.7,3.7-3.7v-7.5
		C71.7,19.5,70,17.9,68,17.9 M68.7,28.9c0,0.5-0.4,0.9-0.9,0.9h-1.2c-0.5,0-0.9-0.4-0.9-0.9v-7.2c0-0.5,0.4-0.9,0.9-0.9h1.2
		c0.5,0,0.9,0.4,0.9,0.9V28.9z"/>
	<path class="st0" d="M26.9,17.9h-6v20.9h3v-6h3c2.4,0,4.4-2,4.4-4.5v-6C31.3,19.9,29.4,17.9,26.9,17.9 M28.4,28.2
		c0,0.9-0.7,1.6-1.6,1.6h-2.9v-8.9h2.9c0.9,0,1.6,0.7,1.6,1.6V28.2z"/>
	<path class="st0" d="M44,38.7V22.4c0-2.5-2-4.5-4.4-4.5H38c-2.4,0-4.4,2-4.4,4.5v16.4h3v-6H41v6H44z M36.6,29.8v-7.4
		c0-0.9,0.7-1.6,1.6-1.6h1.3c0.9,0,1.6,0.7,1.6,1.6v7.4H36.6z"/>
	<path class="st0" d="M46.3,13.5v2c0.2,0,0.4,0.1,0.7,0.1c0.8,0,1.5-0.3,2.4-0.3c0.5,0,0.9,0.1,1.4,0.2v-3.1
		C48.4,12.3,48.5,13.4,46.3,13.5"/>
	<path class="st0" d="M46.3,65.6c-0.9,0-1.9-0.2-2.7-0.6L5.6,45.6C3.9,44.7,2.7,43,2.4,41L0.1,22.8c-0.4-2.7,1.2-5.3,3.7-6.3
		L44.1,0.4c1.4-0.6,3-0.6,4.4,0l40.3,16.1c2.5,1,4.1,3.6,3.7,6.3L90.1,41c-0.3,2-1.5,3.7-3.2,4.6L49,64.9
		C48.1,65.4,47.2,65.6,46.3,65.6 M46.3,1.2c-0.6,0-1.2,0.1-1.8,0.3L4.2,17.6c-2,0.8-3.3,2.9-3,5.1l2.4,18.2c0.2,1.6,1.2,2.9,2.6,3.7
		l37.9,19.4c1.4,0.7,3,0.7,4.4,0l37.9-19.4c1.4-0.7,2.4-2.1,2.6-3.7l2.4-18.2c0.3-2.2-0.9-4.3-3-5.1L48,1.5
		C47.5,1.3,46.9,1.2,46.3,1.2"/>
	<path class="st0" d="M63.6,45.1L62,43.7c-0.2-0.1-0.3-0.3-0.3-0.5v0c0-0.4,0.3-0.7,0.8-0.7s0.8,0.3,0.8,0.7v0.3h0.9v-0.3
		c0-0.4-0.2-0.8-0.5-1.1c-0.3-0.3-0.7-0.4-1.2-0.4c-0.5,0-0.9,0.1-1.2,0.4c-0.3,0.3-0.5,0.6-0.5,1.1c0,0.5,0.2,0.9,0.7,1.1l1.6,1.3
		c0.2,0.1,0.3,0.3,0.3,0.5v0c0,0.4-0.4,0.7-0.8,0.7c-0.5,0-0.8-0.3-0.8-0.7V46h-1v0.2c0,0.4,0.2,0.8,0.5,1.1
		c0.3,0.3,0.8,0.4,1.3,0.4c0.5,0,0.9-0.1,1.3-0.4c0.3-0.3,0.5-0.6,0.5-1.1C64.2,45.7,64,45.4,63.6,45.1"/>
</g>
</svg>
