<?xml version="1.0" encoding="utf-8"?>
<!-- Generator: Adobe Illustrator 25.4.1, SVG Export Plug-In . SVG Version: 6.00 Build 0)  -->
<!DOCTYPE svg PUBLIC "-//W3C//DTD SVG 1.1//EN" "http://www.w3.org/Graphics/SVG/1.1/DTD/svg11.dtd" [
	<!ENTITY ns_extend "http://ns.adobe.com/Extensibility/1.0/">
	<!ENTITY ns_ai "http://ns.adobe.com/AdobeIllustrator/10.0/">
	<!ENTITY ns_graphs "http://ns.adobe.com/Graphs/1.0/">
	<!ENTITY ns_vars "http://ns.adobe.com/Variables/1.0/">
	<!ENTITY ns_imrep "http://ns.adobe.com/ImageReplacement/1.0/">
	<!ENTITY ns_sfw "http://ns.adobe.com/SaveForWeb/1.0/">
	<!ENTITY ns_custom "http://ns.adobe.com/GenericCustomNamespace/1.0/">
	<!ENTITY ns_adobe_xpath "http://ns.adobe.com/XPath/1.0/">
]>
<svg version="1.1" id="Camada_1" xmlns:x="&ns_extend;" xmlns:i="&ns_ai;" xmlns:graph="&ns_graphs;"
	 xmlns="http://www.w3.org/2000/svg" xmlns:xlink="http://www.w3.org/1999/xlink" x="0px" y="0px" viewBox="0 0 95.6 41.3"
	 style="enable-background:new 0 0 95.6 41.3;" xml:space="preserve">
<style type="text/css">
	.st0{fill:#FFFFFF;}
	.st1{clip-path:url(#SVGID_00000125588131211095182300000003721983551768994995_);fill:#FFFFFF;}
	.st2{clip-path:url(#SVGID_00000176753118161818441380000005253588685374551203_);fill:#FFFFFF;}
	.st3{fill-rule:evenodd;clip-rule:evenodd;fill:#FFFFFF;}
	.st4{opacity:0.8;}
	.st5{opacity:0.4;clip-path:url(#SVGID_00000108278056454774727230000008036081265298217648_);}
	.st6{clip-path:url(#SVGID_00000070093295981045056800000009242242318410040499_);fill:#FFFFFF;}
	.st7{clip-path:url(#SVGID_00000058578154005631467820000006618554472958426271_);fill:#FFFFFF;}
	.st8{clip-path:url(#SVGID_00000170239394207048058140000010409380841276443551_);fill:#FFFFFF;}
	.st9{clip-path:url(#SVGID_00000061465720895501076620000017828214388166559901_);fill:#FFFFFF;}
	.st10{clip-path:url(#SVGID_00000100347817415014359750000003684057678862715808_);fill:#FFFFFF;}
	.st11{clip-path:url(#SVGID_00000091015186954323647560000013728723259794964374_);fill:#FFFFFF;}
	.st12{clip-path:url(#SVGID_00000137840555621442864500000016375208040979576755_);fill:#FFFFFF;}
	.st13{clip-path:url(#SVGID_00000175319852600319999890000011186380646144720310_);fill:#FFFFFF;}
</style>
<metadata>
	<sfw  xmlns="&ns_sfw;">
		<slices></slices>
		<sliceSourceBounds  bottomLeftOrigin="true" height="280.2" width="1017.9" x="-2419.2" y="3433.6"></sliceSourceBounds>
	</sfw>
</metadata>
<g>
	<path class="st0" d="M9.4,0c-2,0-3.9,0.2-5.7,0.4L0,25.8c1.1-1.9,2.7-5.1,9.8-7.4c8.6-2.7,16.7-4.5,17.4-9.1C28,4.1,20,0,9.4,0"/>
	<path class="st0" d="M18.4,37.9c1.9,0,3.7-0.2,5.5-0.4l2.6-17.3c-1.7-0.2-3.5-0.4-5.4-0.4C10.8,19.9,1.9,24,1.2,29
		C0.4,33.9,8.1,37.9,18.4,37.9"/>
	<path class="st0" d="M16.8,18.4c0,0,5.1-0.8,10,0l0.9-6C25.2,16.5,16.8,18.4,16.8,18.4"/>
	<path class="st0" d="M38.1,26.1c0,0.2,0,0.4-0.1,0.7c-0.1,0.3-0.2,0.6-0.2,0.7c-0.1,0.2-0.2,0.3-0.3,0.3c-0.1,0-0.2-0.1-0.3-0.2
		c-0.1-0.1-0.3-0.2-0.5-0.3c-0.2-0.1-0.4-0.2-0.7-0.3c-0.3-0.1-0.7-0.2-1.1-0.2c-0.5,0-0.9,0.1-1.3,0.3c-0.4,0.2-0.8,0.5-1.1,0.8
		c-0.3,0.3-0.6,0.7-0.8,1.1c-0.2,0.4-0.4,0.8-0.6,1.3c-0.2,0.4-0.3,0.9-0.3,1.3c-0.1,0.4-0.1,0.9-0.1,1.2c0,0.5,0.1,0.9,0.2,1.2
		c0.1,0.3,0.3,0.7,0.5,0.9c0.2,0.2,0.5,0.4,0.8,0.5c0.3,0.1,0.7,0.2,1.1,0.2c0.5,0,0.9-0.1,1.2-0.2c0.3-0.1,0.6-0.2,0.8-0.3
		c0.2-0.1,0.4-0.2,0.6-0.3c0.2-0.1,0.3-0.2,0.4-0.2c0.1,0,0.2,0,0.2,0.1c0,0.1,0,0.2,0,0.2c0,0,0,0.1,0,0.2c0,0.1,0,0.2-0.1,0.3
		c0,0.1,0,0.2-0.1,0.4c0,0.1-0.1,0.2-0.1,0.4c0,0.1-0.1,0.2-0.1,0.3c0,0.1-0.1,0.2-0.2,0.2c-0.1,0.1-0.2,0.2-0.4,0.3
		c-0.2,0.1-0.5,0.2-0.8,0.3c-0.3,0.1-0.7,0.2-1,0.2c-0.4,0.1-0.8,0.1-1.2,0.1c-0.7,0-1.4-0.1-2-0.3c-0.6-0.2-1.1-0.5-1.5-0.9
		c-0.4-0.4-0.7-0.9-0.9-1.5c-0.2-0.6-0.3-1.3-0.3-2.1c0-0.6,0.1-1.2,0.2-1.9c0.1-0.7,0.3-1.3,0.6-2c0.2-0.6,0.6-1.2,1-1.8
		c0.4-0.6,0.8-1.1,1.4-1.5c0.5-0.4,1.1-0.8,1.8-1c0.7-0.2,1.4-0.4,2.2-0.4c0.5,0,0.9,0.1,1.3,0.2c0.4,0.1,0.8,0.2,1.1,0.4
		c0.3,0.2,0.5,0.3,0.7,0.4C38,25.8,38.1,25.9,38.1,26.1"/>
	<path class="st0" d="M44.6,37.4c0,0.1-0.1,0.2-0.3,0.3c-0.2,0.1-0.5,0.1-0.9,0.1c-0.2,0-0.4,0-0.5,0c-0.1,0-0.2,0-0.3-0.1
		c-0.1,0-0.1-0.1-0.2-0.1c0-0.1,0-0.1,0-0.2l0.3-1.4c-0.1,0.2-0.2,0.4-0.5,0.7c-0.2,0.2-0.5,0.4-0.8,0.7c-0.3,0.2-0.6,0.3-1,0.5
		c-0.4,0.1-0.7,0.2-1.1,0.2c-0.5,0-1-0.1-1.3-0.3c-0.3-0.2-0.6-0.4-0.8-0.7c-0.2-0.3-0.4-0.7-0.4-1.1c-0.1-0.4-0.1-0.8-0.1-1.3
		c0-0.4,0-0.9,0.1-1.4c0.1-0.5,0.2-1,0.4-1.5c0.2-0.5,0.4-1,0.6-1.4c0.2-0.5,0.6-0.8,0.9-1.2c0.4-0.3,0.8-0.6,1.2-0.8
		c0.5-0.2,1-0.3,1.6-0.3c0.6,0,1,0.1,1.5,0.3c0.4,0.2,0.8,0.6,1.1,1l0.2-0.8c0-0.1,0.1-0.2,0.3-0.3c0.2-0.1,0.5-0.1,0.9-0.1
		c0.2,0,0.4,0,0.5,0c0.1,0,0.2,0,0.3,0.1c0.1,0,0.1,0.1,0.2,0.1c0,0.1,0,0.1,0,0.2L44.6,37.4z M43.4,31.2c-0.2-0.4-0.5-0.6-0.8-0.8
		c-0.3-0.2-0.6-0.3-1-0.3c-0.3,0-0.5,0.1-0.8,0.2c-0.2,0.1-0.4,0.3-0.6,0.5c-0.2,0.2-0.3,0.5-0.5,0.8c-0.1,0.3-0.2,0.6-0.3,0.9
		c-0.1,0.3-0.2,0.6-0.2,1c0,0.3-0.1,0.6-0.1,0.9c0,0.2,0,0.4,0,0.6c0,0.2,0.1,0.3,0.2,0.5c0.1,0.1,0.2,0.2,0.3,0.3
		c0.1,0.1,0.3,0.1,0.5,0.1c0.3,0,0.6-0.1,0.9-0.2c0.3-0.2,0.6-0.4,0.8-0.7c0.2-0.3,0.5-0.7,0.7-1.1c0.2-0.4,0.3-0.8,0.4-1.3
		L43.4,31.2z"/>
	<path class="st0" d="M59.8,37.4c0,0.1,0,0.1-0.1,0.2c-0.1,0.1-0.1,0.1-0.2,0.1c-0.1,0-0.2,0.1-0.4,0.1c-0.2,0-0.4,0-0.6,0
		c-0.2,0-0.4,0-0.6,0c-0.2,0-0.3,0-0.4-0.1c-0.1,0-0.2-0.1-0.2-0.1c0-0.1,0-0.1,0-0.2l1.1-5.3c0-0.2,0.1-0.3,0.1-0.4
		c0-0.2,0-0.3,0-0.4c0-0.3-0.1-0.6-0.2-0.7c-0.1-0.2-0.3-0.3-0.6-0.3c-0.2,0-0.5,0.1-0.8,0.2c-0.3,0.2-0.6,0.4-0.8,0.7
		c-0.2,0.3-0.5,0.6-0.7,1c-0.2,0.4-0.3,0.8-0.4,1.2l-0.8,4c0,0.1,0,0.1-0.1,0.2c-0.1,0.1-0.1,0.1-0.2,0.1c-0.1,0-0.2,0.1-0.4,0.1
		c-0.2,0-0.4,0-0.6,0c-0.2,0-0.4,0-0.6,0c-0.2,0-0.3,0-0.4-0.1c-0.1,0-0.2-0.1-0.2-0.1c0-0.1,0-0.1,0-0.2l1.1-5.3
		c0-0.2,0.1-0.3,0.1-0.5c0-0.2,0-0.3,0-0.5c0-0.3-0.1-0.5-0.2-0.7c-0.1-0.2-0.3-0.3-0.6-0.3c-0.2,0-0.5,0.1-0.8,0.2
		c-0.3,0.2-0.6,0.4-0.8,0.7c-0.2,0.3-0.5,0.6-0.7,1c-0.2,0.4-0.3,0.8-0.4,1.2l-0.8,4c0,0.1,0,0.1-0.1,0.2c-0.1,0.1-0.1,0.1-0.2,0.1
		c-0.1,0-0.2,0.1-0.4,0.1c-0.2,0-0.4,0-0.6,0c-0.2,0-0.4,0-0.6,0c-0.2,0-0.3,0-0.4-0.1c-0.1,0-0.2-0.1-0.2-0.1c0-0.1,0-0.1,0-0.2
		l1.8-8.8c0-0.1,0-0.1,0.1-0.2c0-0.1,0.1-0.1,0.2-0.1c0.1,0,0.2-0.1,0.3-0.1c0.2,0,0.3,0,0.5,0c0.2,0,0.4,0,0.5,0
		c0.1,0,0.2,0,0.3,0.1c0.1,0,0.1,0.1,0.2,0.1c0,0.1,0,0.1,0,0.2L49.5,30c0.1-0.2,0.3-0.5,0.6-0.7c0.2-0.2,0.5-0.5,0.8-0.7
		c0.3-0.2,0.6-0.3,1-0.5c0.3-0.1,0.7-0.2,1.1-0.2c0.4,0,0.7,0.1,1,0.2c0.3,0.1,0.5,0.2,0.7,0.4c0.2,0.2,0.3,0.4,0.4,0.7
		c0.1,0.2,0.2,0.5,0.2,0.8c0.2-0.2,0.3-0.5,0.6-0.7c0.2-0.2,0.5-0.5,0.8-0.7c0.3-0.2,0.6-0.3,1-0.5c0.3-0.1,0.7-0.2,1.1-0.2
		c0.5,0,0.8,0.1,1.2,0.2c0.3,0.1,0.6,0.3,0.7,0.5s0.3,0.5,0.4,0.8c0.1,0.3,0.1,0.7,0.1,1c0,0.2,0,0.5,0,0.7c0,0.2-0.1,0.5-0.1,0.7
		L59.8,37.4z"/>
	<path class="st0" d="M69.2,37.4c0,0.1-0.1,0.2-0.3,0.3c-0.2,0.1-0.5,0.1-0.9,0.1c-0.2,0-0.4,0-0.5,0c-0.1,0-0.2,0-0.3-0.1
		c-0.1,0-0.1-0.1-0.2-0.1c0-0.1,0-0.1,0-0.2l0.3-1.4c-0.1,0.2-0.2,0.4-0.5,0.7c-0.2,0.2-0.5,0.4-0.8,0.7c-0.3,0.2-0.6,0.3-1,0.5
		c-0.4,0.1-0.7,0.2-1.1,0.2c-0.5,0-1-0.1-1.3-0.3c-0.3-0.2-0.6-0.4-0.8-0.7c-0.2-0.3-0.4-0.7-0.4-1.1c-0.1-0.4-0.1-0.8-0.1-1.3
		c0-0.4,0-0.9,0.1-1.4c0.1-0.5,0.2-1,0.4-1.5c0.2-0.5,0.4-1,0.6-1.4c0.2-0.5,0.6-0.8,0.9-1.2c0.4-0.3,0.8-0.6,1.2-0.8
		c0.5-0.2,1-0.3,1.6-0.3c0.6,0,1,0.1,1.5,0.3c0.4,0.2,0.8,0.6,1.1,1l0.2-0.8c0-0.1,0.1-0.2,0.3-0.3c0.2-0.1,0.5-0.1,0.9-0.1
		c0.2,0,0.4,0,0.5,0c0.1,0,0.2,0,0.3,0.1c0.1,0,0.1,0.1,0.2,0.1c0,0.1,0,0.1,0,0.2L69.2,37.4z M68,31.2c-0.2-0.4-0.5-0.6-0.8-0.8
		c-0.3-0.2-0.6-0.3-1-0.3c-0.3,0-0.5,0.1-0.8,0.2c-0.2,0.1-0.4,0.3-0.6,0.5c-0.2,0.2-0.3,0.5-0.5,0.8c-0.1,0.3-0.2,0.6-0.3,0.9
		c-0.1,0.3-0.2,0.6-0.2,1c0,0.3-0.1,0.6-0.1,0.9c0,0.2,0,0.4,0,0.6c0,0.2,0.1,0.3,0.2,0.5c0.1,0.1,0.2,0.2,0.3,0.3
		c0.1,0.1,0.3,0.1,0.5,0.1c0.3,0,0.6-0.1,0.9-0.2c0.3-0.2,0.6-0.4,0.8-0.7c0.2-0.3,0.5-0.7,0.7-1.1c0.2-0.4,0.3-0.8,0.4-1.3L68,31.2
		z"/>
	<path class="st0" d="M77.8,28.4c0,0,0,0.1,0,0.2c0,0.1,0,0.2-0.1,0.4c0,0.2-0.1,0.3-0.1,0.5c0,0.2-0.1,0.3-0.1,0.5
		c-0.1,0.2-0.1,0.2-0.2,0.3c-0.1,0.1-0.1,0.1-0.2,0.1c-0.1,0-0.1,0-0.2,0c-0.1,0-0.1,0-0.2-0.1c-0.1,0-0.2,0-0.2-0.1
		c-0.1,0-0.2,0-0.3,0c-0.2,0-0.5,0.1-0.7,0.2c-0.2,0.2-0.5,0.4-0.7,0.7c-0.2,0.3-0.4,0.6-0.6,1c-0.2,0.4-0.3,0.8-0.4,1.2l-0.8,4
		c0,0.1,0,0.1-0.1,0.2c-0.1,0.1-0.1,0.1-0.2,0.1c-0.1,0-0.2,0.1-0.4,0.1c-0.2,0-0.4,0-0.6,0c-0.2,0-0.4,0-0.6,0
		c-0.2,0-0.3,0-0.4-0.1c-0.1,0-0.2-0.1-0.2-0.1c0-0.1,0-0.1,0-0.2l1.8-8.8c0-0.1,0-0.1,0.1-0.2c0-0.1,0.1-0.1,0.2-0.1
		c0.1,0,0.2-0.1,0.3-0.1c0.2,0,0.3,0,0.5,0c0.2,0,0.4,0,0.5,0c0.1,0,0.2,0,0.3,0.1c0.1,0,0.1,0.1,0.2,0.1c0,0.1,0,0.1,0,0.2L74.1,30
		c0.2-0.3,0.3-0.6,0.6-0.8c0.2-0.2,0.4-0.4,0.7-0.6c0.2-0.2,0.5-0.3,0.7-0.4c0.2-0.1,0.5-0.2,0.7-0.2c0.1,0,0.2,0,0.3,0
		c0.1,0,0.2,0,0.3,0.1c0.1,0,0.2,0,0.2,0.1c0.1,0,0.1,0.1,0.2,0.1C77.8,28.2,77.8,28.3,77.8,28.4"/>
	<path class="st0" d="M84.5,37.7c-0.1,0.6-0.3,1.1-0.6,1.6c-0.2,0.4-0.6,0.8-1,1.1c-0.4,0.3-0.9,0.5-1.5,0.7
		c-0.6,0.2-1.3,0.2-2.1,0.2c-0.6,0-1.1,0-1.5-0.1c-0.4-0.1-0.8-0.2-1.1-0.3c-0.1-0.1-0.2-0.1-0.2-0.2c0-0.1-0.1-0.2-0.1-0.3v-0.2
		c0-0.1,0-0.2,0-0.3c0-0.1,0.1-0.2,0.1-0.3c0-0.1,0.1-0.2,0.1-0.3c0.1-0.1,0.1-0.2,0.2-0.2c0.1-0.1,0.1-0.1,0.2-0.1
		c0.1,0,0.2,0,0.3,0.1c0.1,0.1,0.3,0.1,0.5,0.2c0.2,0.1,0.4,0.1,0.7,0.2c0.3,0.1,0.6,0.1,1.1,0.1c0.3,0,0.7,0,0.9-0.1
		c0.3-0.1,0.5-0.1,0.7-0.2c0.2-0.1,0.4-0.3,0.5-0.5c0.1-0.2,0.2-0.4,0.2-0.7c0.1-0.4,0.2-0.8,0.2-1.1c0.1-0.3,0.2-0.5,0.2-0.7
		c-0.1,0.2-0.3,0.4-0.5,0.7c-0.2,0.2-0.5,0.4-0.7,0.6c-0.3,0.2-0.6,0.3-0.9,0.4c-0.3,0.1-0.7,0.2-1,0.2c-0.5,0-0.9-0.1-1.3-0.2
		c-0.3-0.2-0.6-0.4-0.8-0.7c-0.2-0.3-0.4-0.7-0.5-1.1c-0.1-0.4-0.2-0.8-0.2-1.3c0-0.4,0-0.9,0.1-1.4c0.1-0.5,0.2-1,0.4-1.5
		c0.2-0.5,0.4-1,0.7-1.4c0.2-0.4,0.6-0.8,0.9-1.2c0.4-0.3,0.8-0.6,1.2-0.8c0.5-0.2,1-0.3,1.6-0.3c0.6,0,1,0.1,1.5,0.3
		c0.4,0.2,0.8,0.6,1.1,1l0.2-0.8c0-0.1,0.1-0.2,0.3-0.3c0.2-0.1,0.5-0.1,0.9-0.1c0.2,0,0.4,0,0.5,0c0.1,0,0.2,0,0.3,0.1
		c0.1,0,0.1,0.1,0.2,0.1c0,0.1,0,0.1,0,0.2L84.5,37.7z M83.4,31.2c-0.2-0.4-0.5-0.6-0.8-0.8c-0.3-0.2-0.6-0.3-1-0.3
		c-0.3,0-0.5,0.1-0.7,0.2c-0.2,0.1-0.4,0.3-0.6,0.5c-0.2,0.2-0.3,0.5-0.5,0.8c-0.1,0.3-0.2,0.6-0.3,0.9c-0.1,0.3-0.2,0.6-0.2,1
		c0,0.3-0.1,0.6-0.1,0.9c0,0.2,0,0.4,0.1,0.6c0,0.2,0.1,0.3,0.2,0.5c0.1,0.1,0.2,0.2,0.3,0.3c0.1,0.1,0.3,0.1,0.5,0.1
		c0.3,0,0.6-0.1,0.9-0.2c0.3-0.2,0.6-0.4,0.8-0.7c0.2-0.3,0.5-0.7,0.7-1.1c0.2-0.4,0.3-0.8,0.4-1.3L83.4,31.2z"/>
	<path class="st0" d="M95.6,31.5c0,0.5,0,1-0.1,1.5c-0.1,0.5-0.2,1-0.4,1.5c-0.2,0.5-0.4,0.9-0.7,1.3c-0.3,0.4-0.7,0.8-1.1,1.1
		c-0.4,0.3-0.9,0.6-1.4,0.7c-0.5,0.2-1.2,0.3-1.8,0.3c-0.7,0-1.2-0.1-1.7-0.2c-0.5-0.2-0.9-0.4-1.2-0.7c-0.3-0.3-0.6-0.7-0.7-1.1
		c-0.2-0.4-0.2-0.9-0.2-1.5c0-0.5,0-1,0.1-1.5c0.1-0.5,0.2-1,0.4-1.5c0.2-0.5,0.4-0.9,0.7-1.3c0.3-0.4,0.7-0.8,1.1-1.1
		c0.4-0.3,0.9-0.6,1.4-0.7c0.5-0.2,1.2-0.3,1.8-0.3c0.7,0,1.2,0.1,1.7,0.2c0.5,0.2,0.9,0.4,1.2,0.7c0.3,0.3,0.6,0.7,0.7,1.1
		C95.6,30.5,95.6,30.9,95.6,31.5 M93.1,31.7c0-0.3,0-0.5-0.1-0.7c-0.1-0.2-0.2-0.4-0.3-0.6c-0.1-0.2-0.3-0.2-0.5-0.3
		c-0.2-0.1-0.4-0.1-0.7-0.1c-0.3,0-0.6,0.1-0.9,0.2c-0.2,0.1-0.5,0.3-0.7,0.5c-0.2,0.2-0.4,0.5-0.5,0.7c-0.2,0.3-0.3,0.6-0.4,0.9
		c-0.1,0.3-0.2,0.7-0.2,1c0,0.3-0.1,0.7-0.1,0.9c0,0.3,0,0.5,0.1,0.7c0.1,0.2,0.2,0.4,0.3,0.6c0.1,0.2,0.3,0.2,0.5,0.3
		c0.2,0.1,0.4,0.1,0.7,0.1c0.3,0,0.6-0.1,0.9-0.2c0.2-0.1,0.5-0.3,0.7-0.5c0.2-0.2,0.4-0.5,0.5-0.8c0.2-0.3,0.3-0.6,0.4-0.9
		c0.1-0.3,0.2-0.7,0.2-1C93,32.3,93.1,32,93.1,31.7"/>
	<path class="st0" d="M39.6,15.4c0,0.4,0,0.7-0.1,1.2c-0.1,0.4-0.2,0.8-0.4,1.2c-0.2,0.4-0.4,0.7-0.7,1.1c-0.3,0.3-0.7,0.7-1.1,0.9
		c-0.4,0.3-0.9,0.5-1.5,0.6c-0.6,0.2-1.2,0.2-2,0.2h-1.3l-0.8,4.1c0,0.1,0,0.1-0.1,0.2c-0.1,0.1-0.1,0.1-0.2,0.1
		c-0.1,0-0.2,0.1-0.4,0.1c-0.2,0-0.4,0-0.6,0c-0.2,0-0.4,0-0.6,0c-0.2,0-0.3,0-0.4-0.1c-0.1,0-0.2-0.1-0.2-0.1c0-0.1,0-0.1,0-0.2
		l2.3-11.5c0.1-0.3,0.2-0.5,0.4-0.7c0.2-0.2,0.4-0.2,0.7-0.2h2.8c0.3,0,0.7,0,0.9,0c0.3,0,0.5,0.1,0.8,0.1c0.4,0.1,0.8,0.2,1.1,0.4
		c0.3,0.2,0.6,0.4,0.8,0.6c0.2,0.2,0.4,0.5,0.5,0.9C39.5,14.6,39.6,14.9,39.6,15.4 M36.9,15.6c0-0.3-0.1-0.6-0.2-0.8
		c-0.2-0.2-0.4-0.4-0.7-0.5c-0.1,0-0.3-0.1-0.5-0.1s-0.4,0-0.6,0h-1.2l-0.8,4.4h1.2c0.4,0,0.7,0,1-0.1c0.3-0.1,0.5-0.2,0.7-0.3
		c0.2-0.2,0.4-0.3,0.5-0.5c0.2-0.2,0.2-0.4,0.3-0.6c0.1-0.2,0.2-0.4,0.2-0.7C36.8,16.1,36.9,15.9,36.9,15.6"/>
	<path class="st0" d="M47.9,18.8c0,0.5,0,1-0.1,1.5c-0.1,0.5-0.2,1-0.4,1.5c-0.2,0.5-0.4,0.9-0.7,1.3c-0.3,0.4-0.7,0.8-1.1,1.1
		c-0.4,0.3-0.9,0.6-1.4,0.7c-0.5,0.2-1.2,0.3-1.8,0.3c-0.7,0-1.2-0.1-1.7-0.2c-0.5-0.2-0.9-0.4-1.2-0.7c-0.3-0.3-0.6-0.7-0.7-1.1
		c-0.2-0.4-0.2-0.9-0.2-1.5c0-0.5,0-1,0.1-1.5c0.1-0.5,0.2-1,0.4-1.5c0.2-0.5,0.4-0.9,0.7-1.3c0.3-0.4,0.7-0.8,1.1-1.1
		c0.4-0.3,0.9-0.6,1.4-0.7c0.5-0.2,1.2-0.3,1.8-0.3c0.7,0,1.2,0.1,1.7,0.2c0.5,0.2,0.9,0.4,1.2,0.7c0.3,0.3,0.6,0.7,0.7,1.1
		C47.8,17.8,47.9,18.3,47.9,18.8 M45.3,19c0-0.3,0-0.5-0.1-0.7c-0.1-0.2-0.2-0.4-0.3-0.6c-0.1-0.2-0.3-0.2-0.5-0.3
		c-0.2-0.1-0.4-0.1-0.7-0.1c-0.3,0-0.6,0.1-0.9,0.2c-0.2,0.1-0.5,0.3-0.7,0.5c-0.2,0.2-0.4,0.5-0.5,0.7c-0.2,0.3-0.3,0.6-0.4,0.9
		c-0.1,0.3-0.2,0.7-0.2,1c0,0.3-0.1,0.7-0.1,0.9c0,0.3,0,0.5,0.1,0.7c0.1,0.2,0.2,0.4,0.3,0.6c0.1,0.2,0.3,0.2,0.5,0.3
		c0.2,0.1,0.4,0.1,0.7,0.1c0.3,0,0.6-0.1,0.9-0.2c0.2-0.1,0.5-0.3,0.7-0.5c0.2-0.2,0.4-0.5,0.5-0.8c0.2-0.3,0.3-0.6,0.4-0.9
		c0.1-0.3,0.2-0.7,0.2-1C45.3,19.6,45.3,19.3,45.3,19"/>
	<path class="st0" d="M55,15.7c0,0,0,0.1,0,0.2c0,0.1,0,0.2-0.1,0.4c0,0.2-0.1,0.3-0.1,0.5c0,0.2-0.1,0.3-0.1,0.5
		c-0.1,0.2-0.1,0.2-0.2,0.3c-0.1,0.1-0.1,0.1-0.2,0.1c-0.1,0-0.1,0-0.2,0c-0.1,0-0.1,0-0.2-0.1c-0.1,0-0.2,0-0.2-0.1
		c-0.1,0-0.2,0-0.3,0c-0.2,0-0.5,0.1-0.7,0.2c-0.2,0.2-0.5,0.4-0.7,0.7c-0.2,0.3-0.4,0.6-0.6,1c-0.2,0.4-0.3,0.8-0.4,1.2l-0.8,4
		c0,0.1,0,0.1-0.1,0.2C50,24.9,49.9,25,49.8,25c-0.1,0-0.2,0.1-0.4,0.1c-0.2,0-0.4,0-0.6,0c-0.2,0-0.4,0-0.6,0c-0.2,0-0.3,0-0.4-0.1
		c-0.1,0-0.2-0.1-0.2-0.1c0-0.1,0-0.1,0-0.2l1.8-8.8c0-0.1,0-0.1,0.1-0.2c0-0.1,0.1-0.1,0.2-0.1c0.1,0,0.2-0.1,0.3-0.1
		c0.2,0,0.3,0,0.5,0c0.2,0,0.4,0,0.5,0c0.1,0,0.2,0,0.3,0.1c0.1,0,0.1,0.1,0.2,0.1c0,0.1,0,0.1,0,0.2l-0.3,1.4
		c0.2-0.3,0.3-0.6,0.6-0.8c0.2-0.2,0.4-0.4,0.7-0.6c0.2-0.2,0.5-0.3,0.7-0.4c0.2-0.1,0.5-0.2,0.7-0.2c0.1,0,0.2,0,0.3,0
		c0.1,0,0.2,0,0.3,0.1c0.1,0,0.2,0,0.2,0.1c0.1,0,0.1,0.1,0.2,0.1C54.9,15.6,55,15.6,55,15.7"/>
	<path class="st0" d="M60.5,16c0,0.1,0,0.2,0,0.2c0,0.1,0,0.2-0.1,0.3c0,0.1-0.1,0.2-0.1,0.3c0,0.1-0.1,0.2-0.1,0.3
		c-0.1,0.1-0.1,0.2-0.2,0.2c-0.1,0.1-0.1,0.1-0.2,0.1h-1.9L57,21.7c0,0.1,0,0.2-0.1,0.3c0,0.1,0,0.2,0,0.3c0,0.2,0.1,0.5,0.2,0.6
		c0.1,0.1,0.3,0.2,0.6,0.2c0.2,0,0.3,0,0.4,0c0.1,0,0.2-0.1,0.3-0.1c0.1,0,0.2-0.1,0.2-0.1c0.1,0,0.1,0,0.2,0c0.1,0,0.1,0,0.1,0.1
		c0,0.1,0.1,0.1,0.1,0.2c0,0.1,0,0.3,0,0.4c0,0.2-0.1,0.3-0.1,0.5c0,0.2-0.1,0.3-0.2,0.4c-0.1,0.1-0.1,0.2-0.2,0.3
		c-0.1,0.1-0.2,0.1-0.3,0.2C58.1,25,58,25,57.8,25.1c-0.2,0-0.3,0.1-0.5,0.1c-0.2,0-0.4,0-0.6,0c-0.4,0-0.7,0-1.1-0.1
		c-0.3-0.1-0.6-0.2-0.7-0.4c-0.2-0.2-0.4-0.4-0.5-0.7c-0.1-0.3-0.2-0.6-0.2-1v-0.2c0-0.1,0-0.2,0-0.3c0-0.1,0-0.2,0.1-0.3
		c0-0.1,0-0.2,0.1-0.3l0.9-4.3h-1.1c-0.1,0-0.2,0-0.2-0.1c0-0.1-0.1-0.2-0.1-0.3c0-0.1,0-0.2,0-0.4c0-0.2,0.1-0.4,0.1-0.5
		c0.1-0.2,0.1-0.3,0.2-0.4c0.1-0.1,0.2-0.2,0.3-0.2h1.1l0.4-2c0-0.1,0-0.1,0.1-0.2c0.1-0.1,0.1-0.1,0.2-0.1c0.1,0,0.2-0.1,0.4-0.1
		c0.2,0,0.4,0,0.6,0c0.2,0,0.4,0,0.6,0c0.2,0,0.3,0,0.4,0.1c0.1,0.1,0.2,0.1,0.2,0.1c0,0.1,0,0.1,0,0.2l-0.4,2h1.9
		c0.1,0,0.2,0,0.2,0.1C60.5,15.7,60.5,15.8,60.5,16"/>
	<path class="st0" d="M68.9,18.8c0,0.5,0,1-0.1,1.5c-0.1,0.5-0.2,1-0.4,1.5c-0.2,0.5-0.4,0.9-0.7,1.3c-0.3,0.4-0.7,0.8-1.1,1.1
		c-0.4,0.3-0.9,0.6-1.4,0.7c-0.5,0.2-1.2,0.3-1.8,0.3c-0.7,0-1.2-0.1-1.7-0.2c-0.5-0.2-0.9-0.4-1.2-0.7c-0.3-0.3-0.6-0.7-0.7-1.1
		c-0.2-0.4-0.2-0.9-0.2-1.5c0-0.5,0-1,0.1-1.5c0.1-0.5,0.2-1,0.4-1.5c0.2-0.5,0.4-0.9,0.7-1.3c0.3-0.4,0.7-0.8,1.1-1.1
		c0.4-0.3,0.9-0.6,1.4-0.7c0.5-0.2,1.2-0.3,1.8-0.3c0.7,0,1.2,0.1,1.7,0.2c0.5,0.2,0.9,0.4,1.2,0.7c0.3,0.3,0.6,0.7,0.7,1.1
		C68.8,17.8,68.9,18.3,68.9,18.8 M66.3,19c0-0.3,0-0.5-0.1-0.7c-0.1-0.2-0.2-0.4-0.3-0.6c-0.1-0.2-0.3-0.2-0.5-0.3
		c-0.2-0.1-0.4-0.1-0.7-0.1c-0.3,0-0.6,0.1-0.9,0.2c-0.2,0.1-0.5,0.3-0.7,0.5c-0.2,0.2-0.4,0.5-0.5,0.7c-0.2,0.3-0.3,0.6-0.4,0.9
		c-0.1,0.3-0.2,0.7-0.2,1c0,0.3-0.1,0.7-0.1,0.9c0,0.3,0,0.5,0.1,0.7c0.1,0.2,0.2,0.4,0.3,0.6c0.1,0.2,0.3,0.2,0.5,0.3
		c0.2,0.1,0.4,0.1,0.7,0.1c0.3,0,0.6-0.1,0.9-0.2c0.2-0.1,0.5-0.3,0.7-0.5c0.2-0.2,0.4-0.5,0.5-0.8c0.2-0.3,0.3-0.6,0.4-0.9
		c0.1-0.3,0.2-0.7,0.2-1C66.3,19.6,66.3,19.3,66.3,19"/>
</g>
</svg>
