<?xml version="1.0" encoding="utf-8"?>
<!-- Generator: Adobe Illustrator 25.4.1, SVG Export Plug-In . SVG Version: 6.00 Build 0)  -->
<!DOCTYPE svg PUBLIC "-//W3C//DTD SVG 1.1//EN" "http://www.w3.org/Graphics/SVG/1.1/DTD/svg11.dtd" [
	<!ENTITY ns_extend "http://ns.adobe.com/Extensibility/1.0/">
	<!ENTITY ns_ai "http://ns.adobe.com/AdobeIllustrator/10.0/">
	<!ENTITY ns_graphs "http://ns.adobe.com/Graphs/1.0/">
	<!ENTITY ns_vars "http://ns.adobe.com/Variables/1.0/">
	<!ENTITY ns_imrep "http://ns.adobe.com/ImageReplacement/1.0/">
	<!ENTITY ns_sfw "http://ns.adobe.com/SaveForWeb/1.0/">
	<!ENTITY ns_custom "http://ns.adobe.com/GenericCustomNamespace/1.0/">
	<!ENTITY ns_adobe_xpath "http://ns.adobe.com/XPath/1.0/">
]>
<svg version="1.1" id="Camada_1" xmlns:x="&ns_extend;" xmlns:i="&ns_ai;" xmlns:graph="&ns_graphs;"
	 xmlns="http://www.w3.org/2000/svg" xmlns:xlink="http://www.w3.org/1999/xlink" x="0px" y="0px" viewBox="0 0 67.8 56.9"
	 style="enable-background:new 0 0 67.8 56.9;" xml:space="preserve">
<style type="text/css">
	.st0{fill:#FFFFFF;}
	.st1{clip-path:url(#SVGID_00000108295537784344141580000007980953061910918304_);fill:#FFFFFF;}
	.st2{clip-path:url(#SVGID_00000116199448813818064660000009827306900189084035_);fill:#FFFFFF;}
	.st3{fill-rule:evenodd;clip-rule:evenodd;fill:#FFFFFF;}
	.st4{opacity:0.8;}
	.st5{opacity:0.4;clip-path:url(#SVGID_00000119816338194883157240000003749128333327658902_);}
	.st6{clip-path:url(#SVGID_00000018953479748648531380000000222641503444954503_);fill:#FFFFFF;}
	.st7{clip-path:url(#SVGID_00000036209081647783246110000010050881510563471286_);fill:#FFFFFF;}
	.st8{clip-path:url(#SVGID_00000074413039129267944990000004060630324733831066_);fill:#FFFFFF;}
	.st9{clip-path:url(#SVGID_00000021079984820163423150000000362429880080838320_);fill:#FFFFFF;}
	.st10{clip-path:url(#SVGID_00000066502753621486641690000016452405679133053824_);fill:#FFFFFF;}
	.st11{clip-path:url(#SVGID_00000161610635304172348930000012352136952365187513_);fill:#FFFFFF;}
	.st12{clip-path:url(#SVGID_00000145021483557386338670000004345243614381013149_);fill:#FFFFFF;}
	.st13{clip-path:url(#SVGID_00000026869725220142889430000016836686850868080777_);fill:#FFFFFF;}
</style>
<metadata>
	<sfw  xmlns="&ns_sfw;">
		<slices></slices>
		<sliceSourceBounds  bottomLeftOrigin="true" height="280.2" width="1017.9" x="-2419.2" y="3433.6"></sliceSourceBounds>
	</sfw>
</metadata>
<g>
	<path class="st0" d="M33.8,18.1c-2-3.4-9.3-5.9-16.5-7.6c-4.3,9.1-0.4,20,8.8,24.3c0.6,0.3,1.2,0.5,1.8,0.7
		C31.7,29.7,36,21.8,33.8,18.1"/>
	<path class="st0" d="M44.1,3.1c-8-5.4-18.7-3.7-24.7,3.9c7.5,3.8,23.4,9.4,32.7,11.6C52.3,12.4,49.2,6.6,44.1,3.1 M43.6,10.3
		c-0.5,2.1-2.7,3.4-4.8,2.8c-2.1-0.5-3.4-2.7-2.8-4.8c0.5-2.1,2.7-3.4,4.8-2.8C42.8,6,44.1,8.2,43.6,10.3"/>
	<path class="st0" d="M51.9,21.6c-3.2-1.1-6.2-1.6-7.8-0.7c-1.9,1.1-0.4,7.8,0.8,12c3.3-2.5,5.7-6.1,6.8-10.1
		C51.7,22.4,51.8,22,51.9,21.6"/>
	<path class="st0" d="M38.7,27.5c-2.1-0.8-5.8,4.7-8.2,8.8c4,0.8,8.2,0.1,11.8-1.7C41.7,31.2,40.6,28.2,38.7,27.5"/>
	<path class="st0" d="M60.1,50.9c0.3,0,0.6,0,0.9,0h0.9c0.8,0,1.4,0,1.8-0.1c0.5-0.1,0.8-0.2,1.1-0.4c0.3-0.2,0.4-0.3,0.5-0.5
		c0.1-0.2,0.1-0.4,0.1-0.6c0-0.5-0.2-0.9-0.6-1.2c-0.4-0.3-0.9-0.4-1.6-0.4c-0.5,0-1,0.1-1.3,0.3c-0.4,0.2-0.7,0.4-1,0.7
		c-0.3,0.3-0.5,0.6-0.6,1C60.2,50.1,60.2,50.5,60.1,50.9 M67.4,55.8c-0.1,0.1-0.3,0.2-0.5,0.3c-0.2,0.1-0.5,0.2-0.9,0.4
		c-0.4,0.1-0.8,0.2-1.2,0.3c-0.5,0.1-1,0.1-1.5,0.1c-0.8,0-1.5-0.1-2.2-0.4c-0.7-0.2-1.3-0.6-1.8-1c-0.5-0.5-0.9-1-1.2-1.7
		c-0.3-0.7-0.4-1.4-0.4-2.3c0-0.8,0.1-1.6,0.4-2.3c0.3-0.7,0.7-1.3,1.2-1.8c0.5-0.5,1.1-0.9,1.8-1.1c0.7-0.3,1.4-0.4,2.2-0.4
		c0.7,0,1.3,0.1,1.9,0.3c0.5,0.2,1,0.4,1.4,0.7c0.4,0.3,0.7,0.7,0.9,1.1c0.2,0.4,0.3,0.9,0.3,1.3c0,0.5-0.1,0.9-0.3,1.3
		c-0.2,0.4-0.5,0.7-0.9,1c-0.5,0.3-1.1,0.5-1.8,0.7c-0.8,0.2-1.7,0.2-2.9,0.2c-0.3,0-0.5,0-0.8,0c-0.2,0-0.5,0-0.8,0
		c0.1,0.7,0.4,1.3,1,1.7c0.6,0.4,1.4,0.6,2.4,0.6c0.4,0,0.7,0,1-0.1c0.3-0.1,0.6-0.1,0.8-0.2c0.2-0.1,0.4-0.2,0.6-0.2
		c0.2-0.1,0.3-0.1,0.4-0.2L67.4,55.8z M56.9,55.8c-0.2,0.1-0.4,0.2-0.6,0.3c-0.2,0.1-0.5,0.2-0.8,0.3c-0.3,0.1-0.7,0.2-1.1,0.3
		c-0.4,0.1-0.8,0.1-1.3,0.1c-0.8,0-1.5-0.1-2.2-0.4c-0.7-0.2-1.3-0.6-1.8-1c-0.5-0.5-0.9-1-1.2-1.7c-0.3-0.7-0.4-1.5-0.4-2.3
		c0-0.9,0.1-1.7,0.4-2.4c0.3-0.7,0.7-1.3,1.2-1.7c0.5-0.5,1.1-0.8,1.8-1.1c0.7-0.2,1.4-0.4,2.2-0.4c0.7,0,1.2,0.1,1.7,0.2
		c0.5,0.1,0.9,0.2,1.2,0.4c0.3,0.2,0.5,0.4,0.6,0.6c0.1,0.2,0.2,0.4,0.2,0.6c0,0.3-0.1,0.5-0.3,0.8c-0.2,0.2-0.4,0.4-0.5,0.5
		c-0.2-0.2-0.6-0.5-1.1-0.7c-0.5-0.2-1-0.3-1.7-0.3c-0.5,0-0.9,0.1-1.3,0.2c-0.4,0.1-0.8,0.3-1.1,0.6c-0.3,0.3-0.5,0.6-0.7,1.1
		c-0.2,0.4-0.3,0.9-0.3,1.5c0,0.6,0.1,1.1,0.3,1.5c0.2,0.4,0.4,0.8,0.7,1.1c0.3,0.3,0.7,0.5,1.1,0.6c0.4,0.1,0.9,0.2,1.3,0.2
		c0.7,0,1.2-0.1,1.7-0.3c0.4-0.2,0.7-0.3,0.9-0.4L56.9,55.8z M35.5,50.3c0-0.7,0.1-1.3,0.4-1.8c0.3-0.5,0.6-1,1.1-1.4
		c0.4-0.4,1-0.7,1.6-0.9c0.6-0.2,1.3-0.3,2-0.3c0.7,0,1.4,0.1,2,0.3c0.6,0.2,1.2,0.5,1.6,0.9c0.4,0.4,0.8,0.8,1,1.4
		c0.2,0.5,0.4,1.2,0.4,1.8v6.2h-2.4v-5.7c0-0.9-0.2-1.6-0.7-2.1c-0.5-0.5-1.1-0.7-2-0.7c-0.9,0-1.6,0.2-2,0.7
		c-0.4,0.5-0.7,1.2-0.7,2.1v5.7h-2.4V50.3z M30.7,52c-0.1,0-0.4-0.1-0.8-0.1c-0.4-0.1-0.9-0.1-1.7-0.1c-0.9,0-1.6,0.1-2,0.4
		c-0.4,0.3-0.6,0.7-0.6,1.3c0,0.2,0,0.5,0.1,0.7c0.1,0.2,0.2,0.4,0.5,0.5c0.2,0.1,0.5,0.3,0.9,0.3c0.4,0.1,0.8,0.1,1.4,0.1
		c0.6,0,1.1,0,1.5-0.1c0.4,0,0.6-0.1,0.7-0.1V52z M33.1,56.5c-0.1,0-0.4,0.1-0.7,0.1c-0.3,0-0.6,0.1-1,0.1c-0.4,0-0.8,0.1-1.3,0.1
		c-0.5,0-1,0-1.5,0c-1.1,0-1.9-0.1-2.6-0.3c-0.7-0.2-1.2-0.4-1.6-0.7c-0.4-0.3-0.7-0.7-0.8-1.1c-0.1-0.4-0.2-0.8-0.2-1.2
		c0-0.6,0.1-1.1,0.3-1.5c0.2-0.4,0.5-0.8,0.8-1.1c0.4-0.3,0.9-0.5,1.5-0.7c0.6-0.1,1.4-0.2,2.3-0.2c0.5,0,1,0,1.5,0.1
		c0.5,0,0.8,0.1,1.1,0.1c0-0.5-0.1-0.9-0.2-1.2c-0.2-0.3-0.4-0.6-0.6-0.7c-0.3-0.2-0.6-0.3-1-0.4c-0.4-0.1-0.8-0.1-1.3-0.1
		c-0.8,0-1.4,0.1-1.9,0.3c-0.5,0.2-0.8,0.3-0.9,0.5c-0.1-0.1-0.2-0.2-0.3-0.4c-0.1-0.2-0.2-0.4-0.2-0.7c0-0.2,0.1-0.4,0.2-0.6
		c0.1-0.2,0.3-0.4,0.5-0.5c0.3-0.1,0.6-0.3,1.1-0.3c0.4-0.1,1-0.1,1.7-0.1c0.8,0,1.5,0.1,2.2,0.2c0.7,0.2,1.2,0.4,1.7,0.8
		c0.5,0.3,0.9,0.8,1.1,1.4c0.3,0.6,0.4,1.2,0.4,2V56.5z M15.6,56.6c-0.6-1.2-1.2-2.3-1.8-3.4c-0.5-1.1-1-2-1.4-2.8
		c-0.4-0.8-0.7-1.5-0.9-2.1c-0.2-0.6-0.3-0.9-0.3-1.1c0-0.3,0.1-0.5,0.3-0.7c0.2-0.2,0.5-0.3,0.9-0.3c0.3,0,0.5,0,0.7,0.1
		c0.2,0.1,0.3,0.1,0.3,0.1c0.3,0.7,0.6,1.5,0.9,2.3c0.3,0.8,0.6,1.5,0.9,2.2c0.3,0.7,0.6,1.3,0.9,1.9c0.3,0.6,0.5,1,0.7,1.4
		c0.3-0.5,0.5-1.1,0.8-1.8c0.3-0.7,0.6-1.3,0.9-2c0.3-0.7,0.5-1.3,0.8-1.8c0.2-0.5,0.4-0.9,0.5-1.2c0.1-0.3,0.3-0.6,0.5-0.8
		c0.2-0.2,0.5-0.3,0.9-0.3c0.4,0,0.7,0.1,0.9,0.2c0.2,0.1,0.4,0.2,0.4,0.2c-0.1,0.3-0.2,0.7-0.4,1.2c-0.2,0.5-0.4,1.1-0.7,1.7
		c-0.3,0.6-0.6,1.3-0.9,1.9c-0.3,0.7-0.6,1.3-1,2c-0.3,0.6-0.6,1.2-0.9,1.8c-0.3,0.6-0.5,1-0.7,1.4H15.6z M7.5,52
		c-0.1,0-0.4-0.1-0.8-0.1c-0.4-0.1-0.9-0.1-1.7-0.1c-0.9,0-1.6,0.1-2,0.4c-0.4,0.3-0.6,0.7-0.6,1.3c0,0.2,0,0.5,0.1,0.7
		c0.1,0.2,0.2,0.4,0.5,0.5C3.2,54.9,3.5,55,3.8,55c0.4,0.1,0.8,0.1,1.4,0.1c0.6,0,1.1,0,1.5-0.1C7.1,55,7.4,55,7.5,55V52z M9.8,56.5
		c-0.1,0-0.4,0.1-0.6,0.1c-0.3,0-0.6,0.1-1,0.1c-0.4,0-0.8,0.1-1.3,0.1c-0.5,0-1,0-1.5,0c-1.1,0-1.9-0.1-2.6-0.3
		c-0.7-0.2-1.2-0.4-1.6-0.7c-0.4-0.3-0.7-0.7-0.8-1.1C0.1,54.4,0,53.9,0,53.5C0,53,0.1,52.5,0.3,52c0.2-0.4,0.5-0.8,0.8-1.1
		c0.4-0.3,0.9-0.5,1.5-0.7c0.6-0.1,1.4-0.2,2.3-0.2c0.5,0,1,0,1.5,0.1c0.5,0,0.8,0.1,1.1,0.1c0-0.5-0.1-0.9-0.2-1.2
		c-0.2-0.3-0.4-0.6-0.7-0.7c-0.3-0.2-0.6-0.3-1-0.4c-0.4-0.1-0.8-0.1-1.3-0.1c-0.8,0-1.4,0.1-1.9,0.3c-0.5,0.2-0.8,0.3-0.9,0.5
		c-0.1-0.1-0.2-0.2-0.3-0.4C1,48,0.9,47.7,0.9,47.5c0-0.2,0.1-0.4,0.2-0.6c0.1-0.2,0.3-0.4,0.5-0.5c0.3-0.1,0.6-0.3,1.1-0.3
		s1-0.1,1.7-0.1c0.8,0,1.6,0.1,2.2,0.2c0.7,0.2,1.2,0.4,1.7,0.8c0.5,0.3,0.9,0.8,1.1,1.4c0.3,0.6,0.4,1.2,0.4,2V56.5z"/>
</g>
</svg>
